G04*
G04 #@! TF.GenerationSoftware,Altium Limited,Altium Designer,21.3.2 (30)*
G04*
G04 Layer_Color=255*
%FSAX25Y25*%
%MOIN*%
G70*
G04*
G04 #@! TF.SameCoordinates,58702111-1D51-4A1E-AB32-4F99163AF2B2*
G04*
G04*
G04 #@! TF.FilePolarity,Positive*
G04*
G01*
G75*
%ADD23R,0.04724X0.05512*%
%ADD66C,0.06299*%
%ADD67R,0.06299X0.06299*%
%ADD68C,0.05906*%
%ADD69R,0.05906X0.05906*%
%ADD70C,0.06000*%
%ADD71R,0.06000X0.06000*%
%ADD72C,0.12000*%
%ADD73C,0.07500*%
%ADD76R,0.09843X0.06693*%
D23*
X1040475Y0820722D02*
D03*
X1032995D02*
D03*
X0986552Y0820709D02*
D03*
X0994032D02*
D03*
D66*
X1028810Y0776222D02*
D03*
X1008810D02*
D03*
X1018810D02*
D03*
X1028310Y0801722D02*
D03*
X1018310D02*
D03*
X1008310D02*
D03*
X1029310Y0756222D02*
D03*
X1019310D02*
D03*
X1009310D02*
D03*
D67*
X0998810Y0776222D02*
D03*
X1032495Y0950222D02*
D03*
X1012810D02*
D03*
X0993125D02*
D03*
X0998310Y0801722D02*
D03*
X0999310Y0756222D02*
D03*
D68*
X1078310Y0664722D02*
D03*
Y0684722D02*
D03*
Y0704722D02*
D03*
D69*
Y0714722D02*
D03*
D70*
X0864310Y0804722D02*
D03*
Y0794722D02*
D03*
Y0784722D02*
D03*
Y0774722D02*
D03*
Y0908222D02*
D03*
Y0898222D02*
D03*
Y0888222D02*
D03*
Y0878222D02*
D03*
Y0695222D02*
D03*
Y0685222D02*
D03*
Y0675222D02*
D03*
Y0665222D02*
D03*
X1169310Y0654422D02*
D03*
Y0664422D02*
D03*
Y0674422D02*
D03*
Y0684422D02*
D03*
Y0867422D02*
D03*
Y0877422D02*
D03*
Y0887422D02*
D03*
Y0897422D02*
D03*
Y0793922D02*
D03*
Y0783922D02*
D03*
Y0773922D02*
D03*
Y0763922D02*
D03*
D71*
X0864310Y0764722D02*
D03*
Y0868222D02*
D03*
Y0655222D02*
D03*
X1169310Y0694422D02*
D03*
Y0907422D02*
D03*
Y0803922D02*
D03*
D72*
X1058810Y0622222D02*
D03*
X1078810D02*
D03*
D73*
X1022955Y0820722D02*
D03*
X1003664D02*
D03*
D76*
X0980436Y0622722D02*
D03*
X0996184D02*
D03*
M02*
