G04*
G04 #@! TF.GenerationSoftware,Altium Limited,Altium Designer,21.3.2 (30)*
G04*
G04 Layer_Physical_Order=2*
G04 Layer_Color=16711680*
%FSAX25Y25*%
%MOIN*%
G70*
G04*
G04 #@! TF.SameCoordinates,58702111-1D51-4A1E-AB32-4F99163AF2B2*
G04*
G04*
G04 #@! TF.FilePolarity,Positive*
G04*
G01*
G75*
%ADD13C,0.01000*%
%ADD23R,0.04724X0.05512*%
%ADD64C,0.01968*%
%ADD65C,0.03150*%
%ADD66C,0.06299*%
%ADD67R,0.06299X0.06299*%
%ADD68C,0.05906*%
%ADD69R,0.05906X0.05906*%
%ADD70C,0.06000*%
%ADD71R,0.06000X0.06000*%
%ADD72C,0.12000*%
%ADD73C,0.07500*%
%ADD74C,0.02756*%
%ADD75C,0.05000*%
%ADD76R,0.09843X0.06693*%
G36*
X1120810Y0908334D02*
X1098980D01*
X1098979Y0908337D01*
X1098425Y0908891D01*
X1097701Y0909191D01*
X1096918D01*
X1096195Y0908891D01*
X1095641Y0908337D01*
X1095341Y0907614D01*
Y0906831D01*
X1095641Y0906107D01*
X1096195Y0905554D01*
X1096918Y0905254D01*
X1097701D01*
X1098425Y0905554D01*
X1098979Y0906107D01*
X1098980Y0906110D01*
X1120810D01*
Y0904334D01*
X1103980D01*
X1103979Y0904338D01*
X1103425Y0904891D01*
X1102701Y0905191D01*
X1101918D01*
X1101195Y0904891D01*
X1100641Y0904338D01*
X1100341Y0903614D01*
Y0902831D01*
X1100641Y0902107D01*
X1101195Y0901554D01*
X1101918Y0901254D01*
X1102701D01*
X1103425Y0901554D01*
X1103979Y0902107D01*
X1103980Y0902110D01*
X1120810D01*
Y0814448D01*
X1120348Y0814257D01*
X1097777Y0836828D01*
X1097778Y0836831D01*
Y0837614D01*
X1097478Y0838338D01*
X1096925Y0838891D01*
X1096201Y0839191D01*
X1095418D01*
X1094695Y0838891D01*
X1094141Y0838338D01*
X1093841Y0837614D01*
Y0836831D01*
X1094141Y0836107D01*
X1094695Y0835554D01*
X1095418Y0835254D01*
X1096201D01*
X1096204Y0835255D01*
X1120810Y0810650D01*
Y0808948D01*
X1120348Y0808757D01*
X1083922Y0845183D01*
Y0855552D01*
X1083925Y0855554D01*
X1084478Y0856107D01*
X1084778Y0856831D01*
Y0857614D01*
X1084478Y0858337D01*
X1083925Y0858891D01*
X1083201Y0859191D01*
X1082418D01*
X1081922Y0858985D01*
X1081422Y0859272D01*
Y0877222D01*
X1081422Y0877222D01*
X1081337Y0877648D01*
X1081096Y0878009D01*
X1081096Y0878009D01*
X1060596Y0898509D01*
X1060235Y0898750D01*
X1059810Y0898834D01*
X1059810Y0898834D01*
X1050980D01*
X1050978Y0898837D01*
X1050425Y0899391D01*
X1049701Y0899691D01*
X1048918D01*
X1048195Y0899391D01*
X1047641Y0898837D01*
X1047341Y0898114D01*
Y0897331D01*
X1047641Y0896607D01*
X1048195Y0896054D01*
X1048918Y0895754D01*
X1049701D01*
X1050425Y0896054D01*
X1050978Y0896607D01*
X1050980Y0896611D01*
X1059349D01*
X1079198Y0876762D01*
Y0875825D01*
X1078698Y0875618D01*
X1078425Y0875891D01*
X1077701Y0876191D01*
X1076918D01*
X1076195Y0875891D01*
X1075641Y0875338D01*
X1075640Y0875334D01*
X1053890D01*
X1053586Y0875834D01*
X1053778Y0876299D01*
Y0877083D01*
X1053479Y0877806D01*
X1052925Y0878360D01*
X1052922Y0878361D01*
Y0886222D01*
X1052922Y0886222D01*
X1052837Y0886648D01*
X1052596Y0887009D01*
X1014777Y0924828D01*
X1014778Y0924831D01*
Y0925614D01*
X1014565Y0926128D01*
X1014842Y0926628D01*
X1022969D01*
X1022970Y0926624D01*
X1023524Y0926071D01*
X1024247Y0925771D01*
X1025030D01*
X1025754Y0926071D01*
X1026308Y0926624D01*
X1026607Y0927348D01*
Y0928131D01*
X1026308Y0928855D01*
X1025754Y0929408D01*
X1025030Y0929708D01*
X1024247D01*
X1023524Y0929408D01*
X1022970Y0928855D01*
X1022969Y0928852D01*
X1011327D01*
X1011327Y0928852D01*
X1010901Y0928767D01*
X1010540Y0928526D01*
X1010278Y0928263D01*
X1009778Y0928471D01*
Y0928614D01*
X1009478Y0929338D01*
X1008925Y0929891D01*
X1008201Y0930191D01*
X1007418D01*
X1006695Y0929891D01*
X1006141Y0929338D01*
X1006139Y0929334D01*
X0999310D01*
X0998884Y0929250D01*
X0998523Y0929009D01*
X0998523Y0929009D01*
X0972740Y0903225D01*
X0972174Y0903366D01*
X0971978Y0903837D01*
X0971425Y0904391D01*
X0970701Y0904691D01*
X0969918D01*
X0969195Y0904391D01*
X0968641Y0903837D01*
X0968639Y0903834D01*
X0963770D01*
X0959922Y0907683D01*
Y0932222D01*
X0959922Y0932222D01*
X0959837Y0932648D01*
X0959596Y0933009D01*
X0959596Y0933009D01*
X0955777Y0936828D01*
X0955778Y0936831D01*
Y0937614D01*
X0955478Y0938338D01*
X0954925Y0938891D01*
X0954201Y0939191D01*
X0953418D01*
X0952695Y0938891D01*
X0952141Y0938338D01*
X0951841Y0937614D01*
Y0936831D01*
X0952141Y0936107D01*
X0952695Y0935554D01*
X0953418Y0935254D01*
X0954201D01*
X0954204Y0935255D01*
X0957698Y0931762D01*
Y0916408D01*
X0957198Y0916308D01*
X0956979Y0916838D01*
X0956425Y0917391D01*
X0955701Y0917691D01*
X0954918D01*
X0954729Y0917613D01*
X0954580Y0917685D01*
X0954278Y0917967D01*
Y0918614D01*
X0953979Y0919337D01*
X0953425Y0919891D01*
X0952701Y0920191D01*
X0951918D01*
X0951195Y0919891D01*
X0950641Y0919337D01*
X0950640Y0919334D01*
X0912810D01*
Y0958451D01*
X1120810D01*
Y0908334D01*
D02*
G37*
G36*
X1010841Y0924974D02*
Y0924831D01*
X1011141Y0924107D01*
X1011695Y0923554D01*
X1012418Y0923254D01*
X1013201D01*
X1013204Y0923255D01*
X1050383Y0886077D01*
X1050354Y0885962D01*
X1049766Y0885664D01*
X1049701Y0885691D01*
X1048918D01*
X1048566Y0885545D01*
X1048260Y0885750D01*
X1047834Y0885834D01*
X1047834Y0885834D01*
X1032480D01*
X1032479Y0885837D01*
X1031925Y0886391D01*
X1031201Y0886691D01*
X1030418D01*
X1029695Y0886391D01*
X1029141Y0885837D01*
X1028841Y0885114D01*
Y0884331D01*
X1029141Y0883607D01*
X1029695Y0883054D01*
X1030418Y0882754D01*
X1031201D01*
X1031925Y0883054D01*
X1032479Y0883607D01*
X1032480Y0883611D01*
X1047341D01*
Y0883331D01*
X1047641Y0882607D01*
X1048195Y0882054D01*
X1048918Y0881754D01*
X1049701D01*
X1050198Y0881960D01*
X1050607Y0881726D01*
Y0881219D01*
X1050198Y0880985D01*
X1049701Y0881191D01*
X1048918D01*
X1048195Y0880891D01*
X1047641Y0880338D01*
X1047639Y0880334D01*
X1019270D01*
X1002922Y0896683D01*
Y0908429D01*
X1003147Y0908522D01*
X1003701Y0909076D01*
X1004001Y0909799D01*
Y0910583D01*
X1003808Y0911047D01*
X1004113Y0911547D01*
X1005912D01*
X1009342Y0908117D01*
X1009341Y0908114D01*
Y0907331D01*
X1009641Y0906607D01*
X1010195Y0906054D01*
X1010918Y0905754D01*
X1011701D01*
X1012425Y0906054D01*
X1012733Y0906362D01*
X1013060Y0906559D01*
X1013386Y0906362D01*
X1013695Y0906054D01*
X1014418Y0905754D01*
X1015201D01*
X1015925Y0906054D01*
X1016479Y0906607D01*
X1016778Y0907331D01*
Y0908114D01*
X1016479Y0908838D01*
X1015925Y0909391D01*
X1015201Y0909691D01*
X1014418D01*
X1014415Y0909690D01*
X1007096Y0917009D01*
X1006735Y0917250D01*
X1006310Y0917334D01*
X1006310Y0917334D01*
X0995980D01*
X0995979Y0917338D01*
X0995425Y0917891D01*
X0994960Y0918084D01*
X0994822Y0918653D01*
X1000779Y0924611D01*
X1009310D01*
X1009310Y0924611D01*
X1009735Y0924695D01*
X1010096Y0924936D01*
X1010341Y0925181D01*
X1010841Y0924974D01*
D02*
G37*
G36*
X1176968Y0958290D02*
X1179414Y0957804D01*
X1181774Y0957003D01*
X1184011Y0955900D01*
X1186084Y0954515D01*
X1187958Y0952871D01*
X1189602Y0950996D01*
X1190987Y0948923D01*
X1192090Y0946687D01*
X1192891Y0944326D01*
X1193377Y0941881D01*
X1193540Y0939404D01*
X1193538Y0939393D01*
Y0624433D01*
X1193540Y0624422D01*
X1193377Y0621945D01*
X1192891Y0619499D01*
X1192090Y0617138D01*
X1190987Y0614902D01*
X1189602Y0612829D01*
X1187958Y0610955D01*
X1186084Y0609311D01*
X1184011Y0607926D01*
X1181774Y0606823D01*
X1179414Y0606022D01*
X1176968Y0605535D01*
X1174491Y0605373D01*
X1174480Y0605375D01*
X1129742D01*
X1129535Y0605875D01*
X1137417Y0613757D01*
X1138348Y0614688D01*
X1162096Y0638436D01*
X1162096Y0638436D01*
X1162337Y0638797D01*
X1162422Y0639222D01*
X1162422Y0639222D01*
Y0693310D01*
X1165719D01*
Y0690832D01*
X1172900D01*
Y0698013D01*
X1165719D01*
Y0695534D01*
X1161895D01*
X1161470Y0695450D01*
X1161109Y0695209D01*
X1161109Y0695209D01*
X1160523Y0694623D01*
X1160282Y0694262D01*
X1160198Y0693837D01*
X1160198Y0693837D01*
Y0675408D01*
X1159698Y0675308D01*
X1159478Y0675838D01*
X1158925Y0676391D01*
X1158201Y0676691D01*
X1157418D01*
X1156695Y0676391D01*
X1156141Y0675838D01*
X1155841Y0675114D01*
Y0674331D01*
X1156141Y0673607D01*
X1156695Y0673054D01*
X1156698Y0673052D01*
Y0641683D01*
X1128772Y0613757D01*
X1125349Y0610334D01*
X0912770D01*
X0912310Y0610795D01*
D01*
X0900922Y0622183D01*
Y0679223D01*
D01*
Y0708052D01*
X0900925Y0708054D01*
X0901478Y0708607D01*
X0901778Y0709331D01*
Y0710114D01*
X0901478Y0710838D01*
X0900925Y0711391D01*
X0900201Y0711691D01*
X0899418D01*
X0898695Y0711391D01*
X0898141Y0710838D01*
X0897841Y0710114D01*
Y0709331D01*
X0898141Y0708607D01*
X0898695Y0708054D01*
X0898698Y0708052D01*
Y0621723D01*
X0898698Y0621722D01*
X0898782Y0621297D01*
X0899023Y0620936D01*
X0904600Y0615360D01*
X0904316Y0614936D01*
D01*
D01*
X0903701Y0615191D01*
X0902918D01*
X0902195Y0614891D01*
X0901641Y0614337D01*
X0901341Y0613614D01*
Y0612831D01*
X0901641Y0612107D01*
X0902195Y0611554D01*
X0902918Y0611254D01*
X0903701D01*
X0903704Y0611255D01*
X0905810Y0609150D01*
X0909085Y0605875D01*
X0908877Y0605375D01*
X0900810D01*
Y0605429D01*
X0859310D01*
Y0605429D01*
X0858658D01*
X0857403Y0605511D01*
X0856667Y0605608D01*
X0854587Y0606022D01*
X0852226Y0606823D01*
X0849990Y0607926D01*
X0847917Y0609311D01*
X0846042Y0610955D01*
X0844398Y0612829D01*
X0843013Y0614902D01*
X0841910Y0617138D01*
X0841109Y0619499D01*
X0840623Y0621945D01*
X0840460Y0624422D01*
X0840462Y0624433D01*
Y0939393D01*
X0840460Y0939404D01*
X0840623Y0941881D01*
X0841109Y0944326D01*
X0841910Y0946687D01*
X0843013Y0948923D01*
X0844398Y0950996D01*
X0846042Y0952871D01*
X0847917Y0954515D01*
X0849990Y0955900D01*
X0852226Y0957003D01*
X0854587Y0957804D01*
X0857032Y0958290D01*
X0859509Y0958453D01*
X0859520Y0958451D01*
X0905810D01*
Y0919334D01*
X0862810D01*
X0862384Y0919250D01*
X0862023Y0919009D01*
X0856023Y0913009D01*
X0855782Y0912648D01*
X0855698Y0912222D01*
X0855698Y0912222D01*
Y0869963D01*
X0855227Y0869755D01*
X0854922Y0869995D01*
Y0912762D01*
X0866270Y0924111D01*
X0868139D01*
X0868141Y0924107D01*
X0868695Y0923554D01*
X0869418Y0923254D01*
X0870201D01*
X0870925Y0923554D01*
X0871478Y0924107D01*
X0871778Y0924831D01*
Y0925614D01*
X0871478Y0926338D01*
X0870925Y0926891D01*
X0870201Y0927191D01*
X0869418D01*
X0868695Y0926891D01*
X0868141Y0926338D01*
X0868139Y0926334D01*
X0865810D01*
X0865384Y0926250D01*
X0865023Y0926009D01*
X0865023Y0926009D01*
X0853023Y0914009D01*
X0852782Y0913648D01*
X0852698Y0913222D01*
X0852698Y0913222D01*
Y0869893D01*
X0852695Y0869891D01*
X0852141Y0869337D01*
X0851841Y0868614D01*
Y0867831D01*
X0852141Y0867107D01*
X0852695Y0866554D01*
X0853418Y0866254D01*
X0854201D01*
X0854925Y0866554D01*
X0855198Y0866827D01*
X0855698Y0866619D01*
Y0792222D01*
X0855698Y0792222D01*
X0855782Y0791797D01*
X0856023Y0791436D01*
X0861106Y0786354D01*
X0860964Y0786108D01*
X0860719Y0785195D01*
Y0784250D01*
X0860964Y0783336D01*
X0861436Y0782518D01*
X0862105Y0781849D01*
X0862924Y0781377D01*
X0863837Y0781132D01*
X0864782D01*
X0865696Y0781377D01*
X0866514Y0781849D01*
X0867183Y0782518D01*
X0867655Y0783336D01*
X0867900Y0784250D01*
Y0785195D01*
X0867655Y0786108D01*
X0867183Y0786927D01*
X0866514Y0787596D01*
X0865696Y0788068D01*
X0864782Y0788313D01*
X0863837D01*
X0862924Y0788068D01*
X0862678Y0787926D01*
X0857922Y0792683D01*
Y0795023D01*
X0858422Y0795174D01*
X0858523Y0795022D01*
X0859109Y0794436D01*
X0859109Y0794436D01*
X0859470Y0794195D01*
X0859895Y0794110D01*
X0860756D01*
X0860964Y0793336D01*
X0861436Y0792518D01*
X0862105Y0791849D01*
X0862924Y0791377D01*
X0863837Y0791132D01*
X0864782D01*
X0865696Y0791377D01*
X0866514Y0791849D01*
X0867183Y0792518D01*
X0867655Y0793336D01*
X0867900Y0794250D01*
Y0795195D01*
X0867655Y0796108D01*
X0867183Y0796927D01*
X0866514Y0797596D01*
X0865696Y0798068D01*
X0864782Y0798313D01*
X0863837D01*
X0862924Y0798068D01*
X0862105Y0797596D01*
X0861436Y0796927D01*
X0861094Y0796334D01*
X0860422D01*
Y0864255D01*
X0860719Y0864632D01*
X0860922Y0864632D01*
X0867900D01*
Y0871813D01*
X0860922D01*
X0860719Y0871813D01*
X0860422Y0872190D01*
Y0876928D01*
X0860922Y0876994D01*
X0860964Y0876836D01*
X0861436Y0876018D01*
X0862105Y0875349D01*
X0862924Y0874877D01*
X0863837Y0874632D01*
X0864782D01*
X0865696Y0874877D01*
X0866514Y0875349D01*
X0867183Y0876018D01*
X0867655Y0876836D01*
X0867900Y0877750D01*
Y0878695D01*
X0867655Y0879608D01*
X0867183Y0880427D01*
X0866514Y0881096D01*
X0865696Y0881568D01*
X0864782Y0881813D01*
X0863837D01*
X0862924Y0881568D01*
X0862105Y0881096D01*
X0861436Y0880427D01*
X0860964Y0879608D01*
X0860922Y0879451D01*
X0860422Y0879517D01*
Y0886928D01*
X0860922Y0886994D01*
X0860964Y0886837D01*
X0861436Y0886018D01*
X0862105Y0885349D01*
X0862924Y0884877D01*
X0863837Y0884632D01*
X0864782D01*
X0865696Y0884877D01*
X0866514Y0885349D01*
X0867183Y0886018D01*
X0867655Y0886837D01*
X0867729Y0887111D01*
X0905810D01*
Y0751295D01*
X0855114Y0700599D01*
X0854922Y0700311D01*
X0854617Y0700327D01*
X0854422Y0700394D01*
Y0705754D01*
X0854701D01*
X0855425Y0706054D01*
X0855978Y0706607D01*
X0856278Y0707331D01*
Y0708114D01*
X0855978Y0708838D01*
X0855425Y0709391D01*
X0854701Y0709691D01*
X0853918D01*
X0853195Y0709391D01*
X0852641Y0708838D01*
X0852341Y0708114D01*
Y0707331D01*
X0852484Y0706986D01*
X0852282Y0706684D01*
X0852198Y0706259D01*
X0852198Y0706259D01*
Y0666222D01*
X0852198Y0666222D01*
X0852282Y0665797D01*
X0852523Y0665436D01*
X0860719Y0657240D01*
Y0651632D01*
X0867900D01*
Y0658813D01*
X0862292D01*
X0854422Y0666683D01*
Y0683050D01*
X0854617Y0683118D01*
X0854922Y0683134D01*
X0855114Y0682846D01*
X0861106Y0676854D01*
X0860964Y0676608D01*
X0860719Y0675695D01*
Y0674750D01*
X0860964Y0673837D01*
X0861436Y0673018D01*
X0862105Y0672349D01*
X0862924Y0671877D01*
X0863837Y0671632D01*
X0864782D01*
X0865696Y0671877D01*
X0866514Y0672349D01*
X0867183Y0673018D01*
X0867655Y0673837D01*
X0867900Y0674750D01*
Y0675695D01*
X0867655Y0676608D01*
X0867183Y0677427D01*
X0866514Y0678096D01*
X0865696Y0678568D01*
X0864782Y0678813D01*
X0863837D01*
X0862924Y0678568D01*
X0862678Y0678427D01*
X0857012Y0684093D01*
Y0699352D01*
X0857931Y0700271D01*
X0858319Y0699952D01*
X0858282Y0699897D01*
X0858198Y0699472D01*
X0858198Y0699472D01*
Y0690223D01*
X0858198Y0690222D01*
X0858282Y0689797D01*
X0858523Y0689436D01*
X0861106Y0686854D01*
X0860964Y0686608D01*
X0860719Y0685695D01*
Y0684750D01*
X0860964Y0683837D01*
X0861436Y0683018D01*
X0862105Y0682349D01*
X0862924Y0681877D01*
X0863837Y0681632D01*
X0864782D01*
X0865696Y0681877D01*
X0866514Y0682349D01*
X0867183Y0683018D01*
X0867655Y0683837D01*
X0867900Y0684750D01*
Y0685695D01*
X0867655Y0686608D01*
X0867183Y0687427D01*
X0866514Y0688096D01*
X0865696Y0688568D01*
X0864782Y0688813D01*
X0863837D01*
X0862924Y0688568D01*
X0862678Y0688426D01*
X0860422Y0690683D01*
Y0699011D01*
X0905348Y0743937D01*
X0905810Y0743746D01*
Y0679264D01*
X0912310Y0679319D01*
Y0722222D01*
X0957698D01*
Y0684183D01*
X0939204Y0665690D01*
X0939201Y0665691D01*
X0938418D01*
X0937695Y0665391D01*
X0937141Y0664838D01*
X0936841Y0664114D01*
Y0663331D01*
X0937141Y0662607D01*
X0937695Y0662054D01*
X0938418Y0661754D01*
X0939201D01*
X0939925Y0662054D01*
X0940479Y0662607D01*
X0940778Y0663331D01*
Y0664114D01*
X0940777Y0664117D01*
X0956348Y0679688D01*
X0959596Y0682936D01*
X0959837Y0683297D01*
X0959922Y0683722D01*
Y0722222D01*
X1085102D01*
Y0694637D01*
X1078731Y0688266D01*
X1077843D01*
X1076942Y0688024D01*
X1076134Y0687558D01*
X1075474Y0686898D01*
X1075008Y0686090D01*
X1074766Y0685189D01*
Y0684256D01*
X1075008Y0683355D01*
X1075474Y0682547D01*
X1076134Y0681887D01*
X1076942Y0681421D01*
X1077843Y0681179D01*
X1078776D01*
X1079677Y0681421D01*
X1080485Y0681887D01*
X1081145Y0682547D01*
X1081612Y0683355D01*
X1081853Y0684256D01*
Y0685144D01*
X1088871Y0692161D01*
X1089349Y0692878D01*
X1089517Y0693722D01*
Y0722222D01*
X1096698D01*
Y0680510D01*
D01*
Y0649893D01*
X1096695Y0649891D01*
X1096141Y0649337D01*
X1095841Y0648614D01*
Y0647831D01*
X1096141Y0647107D01*
X1096695Y0646554D01*
X1097418Y0646254D01*
X1098201D01*
X1098925Y0646554D01*
X1099479Y0647107D01*
X1099778Y0647831D01*
Y0648614D01*
X1099479Y0649337D01*
X1098925Y0649891D01*
X1098922Y0649893D01*
Y0680884D01*
Y0722222D01*
X1120810D01*
Y0681067D01*
X1128310Y0681130D01*
Y0796997D01*
X1128772Y0797188D01*
X1152823Y0773136D01*
X1153184Y0772895D01*
X1153610Y0772811D01*
X1153610Y0772811D01*
X1165890D01*
X1165964Y0772537D01*
X1166436Y0771718D01*
X1167105Y0771049D01*
X1167924Y0770577D01*
X1168837Y0770332D01*
X1169782D01*
X1170696Y0770577D01*
X1171514Y0771049D01*
X1172183Y0771718D01*
X1172655Y0772537D01*
X1172900Y0773450D01*
Y0774395D01*
X1172655Y0775308D01*
X1172183Y0776127D01*
X1171514Y0776796D01*
X1170696Y0777268D01*
X1169782Y0777513D01*
X1168837D01*
X1167924Y0777268D01*
X1167105Y0776796D01*
X1166436Y0776127D01*
X1165964Y0775308D01*
X1165890Y0775034D01*
X1154070D01*
X1128310Y0800795D01*
Y0802497D01*
X1128772Y0802688D01*
X1148323Y0783136D01*
X1148323Y0783136D01*
X1148684Y0782895D01*
X1149110Y0782810D01*
X1165890D01*
X1165964Y0782537D01*
X1166436Y0781718D01*
X1167105Y0781049D01*
X1167924Y0780577D01*
X1168837Y0780332D01*
X1169782D01*
X1170696Y0780577D01*
X1171514Y0781049D01*
X1172183Y0781718D01*
X1172655Y0782537D01*
X1172900Y0783450D01*
Y0784395D01*
X1172655Y0785308D01*
X1172183Y0786127D01*
X1171514Y0786796D01*
X1170696Y0787268D01*
X1169782Y0787513D01*
X1168837D01*
X1167924Y0787268D01*
X1167105Y0786796D01*
X1166436Y0786127D01*
X1165964Y0785308D01*
X1165890Y0785034D01*
X1149570D01*
X1128310Y0806295D01*
Y0902110D01*
X1143049D01*
X1166106Y0879054D01*
X1165964Y0878808D01*
X1165719Y0877895D01*
Y0876950D01*
X1165964Y0876036D01*
X1166436Y0875218D01*
X1167105Y0874549D01*
X1167924Y0874077D01*
X1168837Y0873832D01*
X1169782D01*
X1170696Y0874077D01*
X1171514Y0874549D01*
X1172183Y0875218D01*
X1172655Y0876036D01*
X1172900Y0876950D01*
Y0877895D01*
X1172655Y0878808D01*
X1172183Y0879627D01*
X1171514Y0880296D01*
X1170696Y0880768D01*
X1169782Y0881013D01*
X1168837D01*
X1167924Y0880768D01*
X1167678Y0880626D01*
X1144296Y0904009D01*
X1143935Y0904250D01*
X1143510Y0904334D01*
X1143510Y0904334D01*
X1128310D01*
Y0906110D01*
X1149049D01*
X1166106Y0889054D01*
X1165964Y0888808D01*
X1165719Y0887895D01*
Y0886950D01*
X1165964Y0886036D01*
X1166436Y0885218D01*
X1167105Y0884549D01*
X1167924Y0884077D01*
X1168837Y0883832D01*
X1169782D01*
X1170696Y0884077D01*
X1171514Y0884549D01*
X1172183Y0885218D01*
X1172655Y0886036D01*
X1172900Y0886950D01*
Y0887895D01*
X1172655Y0888808D01*
X1172183Y0889627D01*
X1171514Y0890296D01*
X1170696Y0890768D01*
X1169782Y0891013D01*
X1168837D01*
X1167924Y0890768D01*
X1167678Y0890627D01*
X1150296Y0908009D01*
X1149935Y0908250D01*
X1149510Y0908334D01*
X1149510Y0908334D01*
X1128310D01*
Y0958451D01*
X1174480D01*
X1174491Y0958453D01*
X1176968Y0958290D01*
D02*
G37*
G36*
X0957698Y0915037D02*
Y0907222D01*
X0957698Y0907222D01*
X0957782Y0906797D01*
X0958023Y0906436D01*
X0962523Y0901936D01*
X0962884Y0901695D01*
X0963310Y0901610D01*
X0968639D01*
X0968641Y0901607D01*
X0969195Y0901054D01*
X0969666Y0900858D01*
X0969807Y0900292D01*
X0968286Y0898771D01*
X0912810D01*
Y0914610D01*
X0953640D01*
X0953641Y0914607D01*
X0954195Y0914054D01*
X0954918Y0913754D01*
X0955701D01*
X0956425Y0914054D01*
X0956979Y0914607D01*
X0957198Y0915137D01*
X0957698Y0915037D01*
D02*
G37*
G36*
X0992448Y0915572D02*
X0992641Y0915107D01*
X0993195Y0914554D01*
X0993918Y0914254D01*
X0994701D01*
X0995425Y0914554D01*
X0995979Y0915107D01*
X0995980Y0915110D01*
X1005849D01*
X1006754Y0914205D01*
X1006508Y0913745D01*
X1006373Y0913771D01*
X1006373Y0913771D01*
X0995247D01*
X0994821Y0913687D01*
X0994460Y0913446D01*
X0994460Y0913446D01*
X0962349Y0881334D01*
X0941480D01*
X0941479Y0881338D01*
X0940925Y0881891D01*
X0940201Y0882191D01*
X0939418D01*
X0938695Y0881891D01*
X0938141Y0881338D01*
X0937841Y0880614D01*
Y0879831D01*
X0938141Y0879107D01*
X0938695Y0878554D01*
X0939418Y0878254D01*
X0940201D01*
X0940925Y0878554D01*
X0941479Y0879107D01*
X0941480Y0879111D01*
X0962810D01*
X0962810Y0879111D01*
X0963235Y0879195D01*
X0963596Y0879436D01*
X0972672Y0888512D01*
X0973096Y0888229D01*
X0972841Y0887614D01*
Y0886831D01*
X0972843Y0886828D01*
X0963359Y0877345D01*
X0963118Y0876984D01*
X0963034Y0876558D01*
X0963034Y0876558D01*
Y0876032D01*
X0962695Y0875891D01*
X0962141Y0875338D01*
X0961841Y0874614D01*
Y0873831D01*
X0962141Y0873107D01*
X0962382Y0872866D01*
X0962175Y0872366D01*
X0940341D01*
X0939916Y0872281D01*
X0939555Y0872040D01*
X0939555Y0872040D01*
X0931523Y0864009D01*
X0931282Y0863648D01*
X0931198Y0863222D01*
X0931198Y0863222D01*
Y0817893D01*
X0931195Y0817891D01*
X0930641Y0817338D01*
X0930341Y0816614D01*
Y0815831D01*
X0930641Y0815107D01*
X0931195Y0814554D01*
X0931918Y0814254D01*
X0932701D01*
X0933425Y0814554D01*
X0933978Y0815107D01*
X0934278Y0815831D01*
Y0816614D01*
X0933978Y0817338D01*
X0933425Y0817891D01*
X0933422Y0817893D01*
Y0862762D01*
X0940802Y0870142D01*
X0995841D01*
X0995841Y0870142D01*
X0996267Y0870227D01*
X0996627Y0870468D01*
X0997915Y0871755D01*
X0997918Y0871754D01*
X0998701D01*
X0999341Y0872019D01*
X0999658Y0871891D01*
X0999841Y0871763D01*
Y0871331D01*
X1000141Y0870607D01*
X1000695Y0870054D01*
X1000698Y0870052D01*
Y0863803D01*
X1000198Y0863498D01*
X0999733Y0863691D01*
X0998950D01*
X0998226Y0863391D01*
X0997672Y0862838D01*
X0997671Y0862834D01*
X0955770D01*
X0951777Y0866828D01*
X0951778Y0866831D01*
Y0867614D01*
X0951478Y0868338D01*
X0950925Y0868891D01*
X0950201Y0869191D01*
X0949418D01*
X0948695Y0868891D01*
X0948141Y0868338D01*
X0947841Y0867614D01*
Y0866831D01*
X0948141Y0866107D01*
X0948695Y0865554D01*
X0949418Y0865254D01*
X0950201D01*
X0950204Y0865255D01*
X0954523Y0860936D01*
X0954523Y0860936D01*
X0954884Y0860695D01*
X0955310Y0860610D01*
X0997671D01*
X0997672Y0860607D01*
X0998226Y0860054D01*
X0998950Y0859754D01*
X0999562D01*
X0999794Y0859279D01*
X0999349Y0858834D01*
X0992480D01*
X0992478Y0858838D01*
X0991925Y0859391D01*
X0991201Y0859691D01*
X0990418D01*
X0989695Y0859391D01*
X0989141Y0858838D01*
X0988841Y0858114D01*
Y0857331D01*
X0989141Y0856607D01*
X0989695Y0856054D01*
X0990418Y0855754D01*
X0991201D01*
X0991925Y0856054D01*
X0992478Y0856607D01*
X0992480Y0856610D01*
X0998207D01*
X0998414Y0856110D01*
X0998141Y0855838D01*
X0997841Y0855114D01*
Y0854331D01*
X0997842Y0854328D01*
X0996501Y0852986D01*
X0972124D01*
X0972123Y0852989D01*
X0971569Y0853543D01*
X0970846Y0853843D01*
X0970063D01*
X0969339Y0853543D01*
X0968785Y0852989D01*
X0968486Y0852266D01*
Y0851483D01*
X0968785Y0850759D01*
X0969339Y0850206D01*
X0970063Y0849906D01*
X0970846D01*
X0971569Y0850206D01*
X0972123Y0850759D01*
X0972124Y0850762D01*
X0996961D01*
X0996961Y0850762D01*
X0997387Y0850847D01*
X0997748Y0851088D01*
X0999415Y0852755D01*
X0999418Y0852754D01*
X1000201D01*
X1000816Y0853009D01*
X1001100Y0852585D01*
X0997704Y0849190D01*
X0997701Y0849191D01*
X0996918D01*
X0996195Y0848891D01*
X0995641Y0848337D01*
X0995341Y0847614D01*
Y0846831D01*
X0995641Y0846107D01*
X0996195Y0845554D01*
X0996918Y0845254D01*
X0997701D01*
X0998425Y0845554D01*
X0998979Y0846107D01*
X0999278Y0846831D01*
Y0847614D01*
X0999277Y0847617D01*
X1006096Y0854436D01*
X1006337Y0854797D01*
X1006422Y0855222D01*
X1006422Y0855223D01*
Y0865052D01*
X1006425Y0865054D01*
X1006893Y0865522D01*
X1007297Y0865423D01*
X1007393Y0865368D01*
Y0823839D01*
X1006893Y0823632D01*
X1006329Y0824196D01*
X1005339Y0824767D01*
X1004235Y0825063D01*
X1003093D01*
X1001989Y0824767D01*
X1000999Y0824196D01*
X1000191Y0823388D01*
X0999619Y0822398D01*
X0999468Y0821834D01*
X0996985D01*
Y0824055D01*
X0991080D01*
Y0817363D01*
X0996985D01*
Y0819611D01*
X0999468D01*
X0999619Y0819047D01*
X1000191Y0818057D01*
X1000999Y0817249D01*
X1001989Y0816678D01*
X1003093Y0816382D01*
X1004235D01*
X1005339Y0816678D01*
X1006329Y0817249D01*
X1006893Y0817813D01*
X1007393Y0817605D01*
Y0814378D01*
X1002523Y0809509D01*
X1002282Y0809148D01*
X1002198Y0808722D01*
X1002198Y0808722D01*
Y0794198D01*
X1002198Y0794198D01*
X1002282Y0793772D01*
X1002523Y0793411D01*
X1007698Y0788237D01*
Y0779797D01*
X1007366Y0779708D01*
X1006513Y0779215D01*
X1005817Y0778519D01*
X1005324Y0777666D01*
X1005070Y0776715D01*
Y0775730D01*
X1005324Y0774779D01*
X1005817Y0773926D01*
X1006513Y0773230D01*
X1007366Y0772737D01*
X1008317Y0772482D01*
X1009302D01*
X1010253Y0772737D01*
X1011106Y0773230D01*
X1011802Y0773926D01*
X1012295Y0774779D01*
X1012550Y0775730D01*
Y0776715D01*
X1012295Y0777666D01*
X1011802Y0778519D01*
X1011106Y0779215D01*
X1010253Y0779708D01*
X1009922Y0779797D01*
Y0788697D01*
X1009837Y0789123D01*
X1009596Y0789484D01*
X1009596Y0789484D01*
X1004422Y0794658D01*
Y0799976D01*
X1004922Y0800111D01*
X1005317Y0799426D01*
X1006013Y0798730D01*
X1006866Y0798237D01*
X1007817Y0797982D01*
X1008802D01*
X1009753Y0798237D01*
X1010606Y0798730D01*
X1011302Y0799426D01*
X1011698Y0800111D01*
X1012198Y0799976D01*
Y0781722D01*
X1012198Y0781722D01*
X1012282Y0781297D01*
X1012523Y0780936D01*
X1015496Y0777963D01*
X1015324Y0777666D01*
X1015069Y0776715D01*
Y0775730D01*
X1015324Y0774779D01*
X1015817Y0773926D01*
X1016513Y0773230D01*
X1017366Y0772737D01*
X1018317Y0772482D01*
X1019302D01*
X1020253Y0772737D01*
X1021106Y0773230D01*
X1021803Y0773926D01*
X1022295Y0774779D01*
X1022550Y0775730D01*
Y0776715D01*
X1022295Y0777666D01*
X1021803Y0778519D01*
X1021106Y0779215D01*
X1020253Y0779708D01*
X1019302Y0779963D01*
X1018317D01*
X1017366Y0779708D01*
X1017069Y0779536D01*
X1014422Y0782183D01*
Y0799976D01*
X1014922Y0800111D01*
X1015317Y0799426D01*
X1016013Y0798730D01*
X1016866Y0798237D01*
X1017817Y0797982D01*
X1018802D01*
X1019753Y0798237D01*
X1020606Y0798730D01*
X1021303Y0799426D01*
X1021795Y0800279D01*
X1022050Y0801230D01*
Y0802215D01*
X1021795Y0803166D01*
X1021303Y0804019D01*
X1020606Y0804715D01*
X1019753Y0805208D01*
X1018802Y0805463D01*
X1017817D01*
X1017000Y0805243D01*
X1016453Y0805790D01*
Y0847890D01*
X1016953Y0848042D01*
X1017023Y0847936D01*
X1025673Y0839287D01*
X1025673Y0839287D01*
X1026033Y0839046D01*
X1026459Y0838961D01*
X1026459Y0838961D01*
X1046965D01*
X1046966Y0838958D01*
X1047520Y0838404D01*
X1048243Y0838105D01*
X1049026D01*
X1049750Y0838404D01*
X1050198Y0838852D01*
X1050688Y0838705D01*
X1050698Y0838699D01*
Y0829614D01*
X1050198Y0829407D01*
X1045777Y0833828D01*
X1045778Y0833831D01*
Y0834614D01*
X1045479Y0835338D01*
X1044925Y0835891D01*
X1044201Y0836191D01*
X1043418D01*
X1042695Y0835891D01*
X1042141Y0835338D01*
X1041841Y0834614D01*
Y0833831D01*
X1042141Y0833107D01*
X1042695Y0832554D01*
X1043418Y0832254D01*
X1044201D01*
X1044204Y0832255D01*
X1048698Y0827762D01*
Y0750683D01*
X1045349Y0747334D01*
X1021770D01*
X1020422Y0748683D01*
Y0752648D01*
X1020753Y0752737D01*
X1021606Y0753230D01*
X1022303Y0753926D01*
X1022795Y0754779D01*
X1023050Y0755730D01*
Y0756715D01*
X1022795Y0757666D01*
X1022303Y0758519D01*
X1021606Y0759215D01*
X1020753Y0759708D01*
X1019802Y0759963D01*
X1018817D01*
X1017866Y0759708D01*
X1017013Y0759215D01*
X1016317Y0758519D01*
X1015824Y0757666D01*
X1015569Y0756715D01*
Y0755730D01*
X1015824Y0754779D01*
X1016317Y0753926D01*
X1017013Y0753230D01*
X1017866Y0752737D01*
X1018198Y0752648D01*
Y0748222D01*
X1018198Y0748222D01*
X1018282Y0747797D01*
X1018523Y0747436D01*
X1020523Y0745436D01*
X1020523Y0745436D01*
X1020884Y0745195D01*
X1021310Y0745111D01*
X1021310Y0745111D01*
X1045810D01*
X1045810Y0745111D01*
X1046235Y0745195D01*
X1046596Y0745436D01*
X1050198Y0749038D01*
X1050698Y0748831D01*
Y0747683D01*
X1047349Y0744334D01*
X1013770D01*
X1010422Y0747683D01*
Y0752648D01*
X1010753Y0752737D01*
X1011606Y0753230D01*
X1012302Y0753926D01*
X1012795Y0754779D01*
X1013050Y0755730D01*
Y0756715D01*
X1012795Y0757666D01*
X1012302Y0758519D01*
X1011606Y0759215D01*
X1010753Y0759708D01*
X1009802Y0759963D01*
X1008817D01*
X1007866Y0759708D01*
X1007013Y0759215D01*
X1006317Y0758519D01*
X1005824Y0757666D01*
X1005569Y0756715D01*
Y0755730D01*
X1005824Y0754779D01*
X1006317Y0753926D01*
X1007013Y0753230D01*
X1007866Y0752737D01*
X1008198Y0752648D01*
Y0747223D01*
X1008198Y0747222D01*
X1008282Y0746797D01*
X1008523Y0746436D01*
X1012523Y0742436D01*
X1012523Y0742436D01*
X1012884Y0742195D01*
X1013310Y0742110D01*
X1047810D01*
X1047810Y0742110D01*
X1048235Y0742195D01*
X1048596Y0742436D01*
X1052596Y0746436D01*
X1052596Y0746436D01*
X1052837Y0746797D01*
X1052922Y0747222D01*
Y0839552D01*
X1052925Y0839554D01*
X1053479Y0840107D01*
X1053778Y0840831D01*
Y0841614D01*
X1053479Y0842338D01*
X1052925Y0842891D01*
X1052201Y0843191D01*
X1051418D01*
X1050695Y0842891D01*
X1050141Y0842338D01*
X1049907Y0841773D01*
X1049750Y0841742D01*
X1049026Y0842042D01*
X1048243D01*
X1047520Y0841742D01*
X1046966Y0841188D01*
X1046965Y0841185D01*
X1026920D01*
X1018922Y0849183D01*
Y0854421D01*
X1019422Y0854573D01*
X1019492Y0854468D01*
X1020523Y0853436D01*
X1020523Y0853436D01*
X1020884Y0853195D01*
X1021310Y0853111D01*
X1021310Y0853111D01*
X1048139D01*
X1048141Y0853107D01*
X1048695Y0852554D01*
X1049418Y0852254D01*
X1050201D01*
X1050925Y0852554D01*
X1051478Y0853107D01*
X1051778Y0853831D01*
Y0854614D01*
X1051478Y0855338D01*
X1051247Y0855569D01*
X1050929Y0855896D01*
X1051247Y0856222D01*
X1051478Y0856454D01*
X1051778Y0857177D01*
Y0857961D01*
X1051478Y0858684D01*
X1051084Y0859078D01*
X1050978Y0859396D01*
X1051084Y0859713D01*
X1051478Y0860107D01*
X1051778Y0860831D01*
Y0861614D01*
X1051478Y0862337D01*
X1050925Y0862891D01*
X1050201Y0863191D01*
X1049418D01*
X1048695Y0862891D01*
X1048141Y0862337D01*
X1048139Y0862334D01*
X1024980D01*
X1024979Y0862337D01*
X1024425Y0862891D01*
X1023701Y0863191D01*
X1022918D01*
X1022195Y0862891D01*
X1021890Y0862587D01*
X1021390Y0862794D01*
Y0874754D01*
X1021305Y0875179D01*
X1021064Y0875540D01*
X1021064Y0875540D01*
X1018994Y0877610D01*
X1019201Y0878111D01*
X1047639D01*
X1047641Y0878107D01*
X1048195Y0877554D01*
X1048918Y0877254D01*
X1049379D01*
X1049742Y0877119D01*
X1049841Y0876792D01*
Y0876299D01*
X1050034Y0875834D01*
X1049729Y0875334D01*
X1033310D01*
X1032884Y0875250D01*
X1032523Y0875009D01*
X1032523Y0875009D01*
X1031204Y0873690D01*
X1031201Y0873691D01*
X1030418D01*
X1029695Y0873391D01*
X1029141Y0872838D01*
X1028841Y0872114D01*
Y0871331D01*
X1029141Y0870607D01*
X1029695Y0870054D01*
X1030418Y0869754D01*
X1031201D01*
X1031925Y0870054D01*
X1032479Y0870607D01*
X1032778Y0871331D01*
Y0872114D01*
X1032777Y0872117D01*
X1033770Y0873110D01*
X1075640D01*
X1075641Y0873107D01*
X1076195Y0872554D01*
X1076918Y0872254D01*
X1077701D01*
X1078425Y0872554D01*
X1078698Y0872827D01*
X1079198Y0872620D01*
Y0746222D01*
X1079198Y0746222D01*
X1079282Y0745797D01*
X1079523Y0745436D01*
X1088342Y0736617D01*
X1088341Y0736614D01*
Y0735831D01*
X1088641Y0735107D01*
X1089195Y0734554D01*
X1089918Y0734254D01*
X1090701D01*
X1091425Y0734554D01*
X1091978Y0735107D01*
X1092278Y0735831D01*
Y0736474D01*
X1092695Y0736709D01*
X1092740Y0736720D01*
X1096698Y0732762D01*
Y0726222D01*
X0959922D01*
Y0791052D01*
X0959925Y0791054D01*
X0960478Y0791607D01*
X0960778Y0792331D01*
Y0793114D01*
X0960478Y0793837D01*
X0959925Y0794391D01*
X0959201Y0794691D01*
X0958418D01*
X0957695Y0794391D01*
X0957141Y0793837D01*
X0957080Y0793691D01*
X0956539D01*
X0956479Y0793837D01*
X0955925Y0794391D01*
X0955201Y0794691D01*
X0954418D01*
X0953695Y0794391D01*
X0953141Y0793837D01*
X0952922Y0793308D01*
X0952422Y0793408D01*
Y0852262D01*
X0955415Y0855255D01*
X0955418Y0855254D01*
X0956201D01*
X0956925Y0855554D01*
X0957479Y0856107D01*
X0957778Y0856831D01*
Y0857614D01*
X0957479Y0858337D01*
X0956925Y0858891D01*
X0956201Y0859191D01*
X0955418D01*
X0954695Y0858891D01*
X0954141Y0858337D01*
X0953841Y0857614D01*
Y0856831D01*
X0953842Y0856828D01*
X0950523Y0853509D01*
X0950282Y0853148D01*
X0950198Y0852722D01*
X0950198Y0852722D01*
Y0838772D01*
X0949698Y0838485D01*
X0949201Y0838691D01*
X0948418D01*
X0947695Y0838391D01*
X0947141Y0837838D01*
X0946841Y0837114D01*
Y0836331D01*
X0947141Y0835607D01*
X0947695Y0835054D01*
X0947698Y0835052D01*
Y0793183D01*
X0913272Y0758757D01*
X0912810Y0758948D01*
Y0887111D01*
X0963810D01*
X0963810Y0887111D01*
X0964235Y0887195D01*
X0964596Y0887436D01*
X0988246Y0911087D01*
X0988246Y0911087D01*
X0988488Y0911448D01*
X0988572Y0911873D01*
Y0912403D01*
X0991879Y0915711D01*
X0992448Y0915572D01*
D02*
G37*
G36*
X0905810Y0898771D02*
X0867880D01*
X0867655Y0899608D01*
X0867183Y0900427D01*
X0866514Y0901096D01*
X0865696Y0901568D01*
X0864782Y0901813D01*
X0863837D01*
X0862924Y0901568D01*
X0862105Y0901096D01*
X0861436Y0900427D01*
X0860964Y0899608D01*
X0860922Y0899451D01*
X0860422Y0899517D01*
Y0910262D01*
X0864770Y0914610D01*
X0905810D01*
Y0898771D01*
D02*
G37*
G36*
X0986377Y0913011D02*
X0986348Y0912864D01*
X0986348Y0912864D01*
Y0912333D01*
X0963349Y0889334D01*
X0912810D01*
Y0896547D01*
X0968746D01*
X0968746Y0896547D01*
X0969172Y0896632D01*
X0969533Y0896873D01*
X0985917Y0913257D01*
X0986377Y0913011D01*
D02*
G37*
G36*
X1000256Y0911047D02*
X1000064Y0910583D01*
Y0909799D01*
X1000363Y0909076D01*
X1000698Y0908742D01*
Y0896614D01*
X1000198Y0896407D01*
X0998216Y0898388D01*
Y0907285D01*
X0998219Y0907287D01*
X0998773Y0907840D01*
X0999073Y0908564D01*
Y0909347D01*
X0998773Y0910071D01*
X0998219Y0910624D01*
X0997496Y0910924D01*
X0996713D01*
X0995989Y0910624D01*
X0995436Y0910071D01*
X0995136Y0909347D01*
Y0908564D01*
X0995436Y0907840D01*
X0995989Y0907287D01*
X0995992Y0907285D01*
Y0897928D01*
X0995992Y0897928D01*
X0996077Y0897502D01*
X0996318Y0897141D01*
X1000807Y0892653D01*
X1000666Y0892087D01*
X1000195Y0891891D01*
X0999641Y0891337D01*
X0999341Y0890614D01*
Y0889831D01*
X0999641Y0889107D01*
X1000195Y0888554D01*
X1000198Y0888552D01*
Y0887859D01*
X0999698Y0887555D01*
X0999233Y0887747D01*
X0998450D01*
X0997726Y0887447D01*
X0997172Y0886894D01*
X0996873Y0886170D01*
Y0885387D01*
X0997172Y0884664D01*
X0997726Y0884110D01*
X0998450Y0883810D01*
X0999233D01*
X0999534Y0883935D01*
X1000816Y0882653D01*
X1000672Y0882089D01*
X1000195Y0881891D01*
X0999641Y0881338D01*
X0999341Y0880614D01*
Y0880471D01*
X0998841Y0880263D01*
X0989922Y0889183D01*
Y0893052D01*
X0989925Y0893054D01*
X0990479Y0893607D01*
X0990778Y0894331D01*
Y0895114D01*
X0990479Y0895837D01*
X0989925Y0896391D01*
X0989201Y0896691D01*
X0988418D01*
X0987695Y0896391D01*
X0987141Y0895837D01*
X0986841Y0895114D01*
Y0894331D01*
X0987141Y0893607D01*
X0987695Y0893054D01*
X0987698Y0893052D01*
Y0888723D01*
X0987698Y0888722D01*
X0987782Y0888297D01*
X0988023Y0887936D01*
X1001769Y0874191D01*
X1001562Y0873691D01*
X1001418D01*
X1000778Y0873426D01*
X1000461Y0873554D01*
X1000278Y0873682D01*
Y0874114D01*
X0999979Y0874837D01*
X0999425Y0875391D01*
X0998701Y0875691D01*
X0997918D01*
X0997195Y0875391D01*
X0996641Y0874837D01*
X0996341Y0874114D01*
Y0873331D01*
X0996342Y0873328D01*
X0995381Y0872366D01*
X0965444D01*
X0965237Y0872866D01*
X0965479Y0873107D01*
X0965778Y0873831D01*
Y0874614D01*
X0965479Y0875338D01*
X0965257Y0875558D01*
Y0876098D01*
X0974415Y0885255D01*
X0974418Y0885254D01*
X0975201D01*
X0975925Y0885554D01*
X0976478Y0886107D01*
X0976778Y0886831D01*
Y0887614D01*
X0976478Y0888338D01*
X0975925Y0888891D01*
X0975201Y0889191D01*
X0974418D01*
X0973803Y0888936D01*
X0973520Y0889360D01*
X0995707Y0911547D01*
X0999952D01*
X1000256Y0911047D01*
D02*
G37*
G36*
X1019166Y0874293D02*
Y0868803D01*
X1018666Y0868498D01*
X1018201Y0868691D01*
X1017418D01*
X1016953Y0868498D01*
X1016453Y0868803D01*
Y0873191D01*
X1016368Y0873617D01*
X1016127Y0873977D01*
X1016127Y0873977D01*
X1002422Y0887683D01*
Y0888552D01*
X1002425Y0888554D01*
X1002979Y0889107D01*
X1003174Y0889579D01*
X1003740Y0889719D01*
X1019166Y0874293D01*
D02*
G37*
G36*
X1048141Y0860107D02*
X1048535Y0859713D01*
X1048642Y0859396D01*
X1048535Y0859078D01*
X1048215Y0858758D01*
X1025012D01*
X1024979Y0858838D01*
X1024670Y0859146D01*
X1024474Y0859472D01*
X1024670Y0859799D01*
X1024979Y0860107D01*
X1024980Y0860110D01*
X1048139D01*
X1048141Y0860107D01*
D02*
G37*
G36*
Y0856454D02*
X1048372Y0856222D01*
X1048690Y0855896D01*
X1048372Y0855569D01*
X1048141Y0855338D01*
X1048139Y0855334D01*
X1023995D01*
X1023895Y0855834D01*
X1024425Y0856054D01*
X1024905Y0856534D01*
X1048108D01*
X1048141Y0856454D01*
D02*
G37*
G36*
X1082023Y0843936D02*
X1091100Y0834860D01*
X1090816Y0834436D01*
X1090201Y0834691D01*
X1089418D01*
X1088695Y0834391D01*
X1088141Y0833838D01*
X1087841Y0833114D01*
Y0832331D01*
X1088141Y0831607D01*
X1088695Y0831054D01*
X1088698Y0831052D01*
Y0741222D01*
X1088698Y0741222D01*
X1088782Y0740797D01*
X1089023Y0740436D01*
X1090807Y0738653D01*
X1090796Y0738608D01*
X1090561Y0738191D01*
X1089918D01*
X1089915Y0738190D01*
X1081422Y0746683D01*
Y0843937D01*
X1081922Y0844089D01*
X1082023Y0843936D01*
D02*
G37*
G36*
X0953141Y0791607D02*
X0953631Y0791117D01*
X0932023Y0769509D01*
X0931782Y0769148D01*
X0931698Y0768722D01*
X0931698Y0768722D01*
Y0744393D01*
X0931695Y0744391D01*
X0931141Y0743837D01*
X0930841Y0743114D01*
Y0742331D01*
X0931141Y0741607D01*
X0931695Y0741054D01*
X0932418Y0740754D01*
X0933201D01*
X0933925Y0741054D01*
X0934478Y0741607D01*
X0934778Y0742331D01*
Y0743114D01*
X0934478Y0743837D01*
X0933925Y0744391D01*
X0933922Y0744393D01*
Y0768262D01*
X0955561Y0789901D01*
X0955561Y0789901D01*
X0955802Y0790262D01*
X0955886Y0790687D01*
Y0791038D01*
X0955925Y0791054D01*
X0956479Y0791607D01*
X0956539Y0791754D01*
X0957080D01*
X0957141Y0791607D01*
X0957695Y0791054D01*
X0957698Y0791052D01*
Y0726222D01*
X0912810D01*
Y0751399D01*
X0952096Y0790686D01*
X0952096Y0790686D01*
X0952337Y0791046D01*
X0952422Y0791472D01*
X0952422Y0791472D01*
Y0792037D01*
X0952922Y0792137D01*
X0953141Y0791607D01*
D02*
G37*
G36*
X1120810Y0805150D02*
Y0726376D01*
X1120348Y0726184D01*
X1120310Y0726222D01*
X1098922D01*
Y0733222D01*
X1098922Y0733222D01*
X1098837Y0733648D01*
X1098596Y0734009D01*
X1090922Y0741683D01*
Y0831052D01*
X1090925Y0831054D01*
X1091479Y0831607D01*
X1091778Y0832331D01*
Y0833114D01*
X1091523Y0833729D01*
X1091947Y0834012D01*
X1120810Y0805150D01*
D02*
G37*
G36*
X1138810Y0619997D02*
Y0618295D01*
X1127849Y0607334D01*
X0910770D01*
X0905277Y0612828D01*
X0905278Y0612831D01*
Y0613614D01*
X0905023Y0614229D01*
X0905447Y0614512D01*
X0911523Y0608436D01*
X0911884Y0608195D01*
X0912310Y0608111D01*
X0912310Y0608111D01*
X1125810D01*
X1125810Y0608111D01*
X1126235Y0608195D01*
X1126596Y0608436D01*
X1138348Y0620188D01*
X1138810Y0619997D01*
D02*
G37*
%LPC*%
G36*
X1071701Y0952191D02*
X1070918D01*
X1070195Y0951891D01*
X1069641Y0951338D01*
X1069639Y0951334D01*
X1061310D01*
X1060884Y0951250D01*
X1060523Y0951009D01*
X1054523Y0945009D01*
X1054523Y0945009D01*
X1038055Y0928540D01*
X1037814Y0928179D01*
X1037729Y0927754D01*
X1037729Y0927754D01*
Y0913893D01*
X1037726Y0913891D01*
X1037172Y0913338D01*
X1036873Y0912614D01*
Y0911831D01*
X1037172Y0911107D01*
X1037726Y0910554D01*
X1038450Y0910254D01*
X1039233D01*
X1039487Y0910359D01*
X1039770Y0909935D01*
X1039641Y0909806D01*
X1039341Y0909083D01*
Y0908299D01*
X1039641Y0907576D01*
X1040195Y0907022D01*
X1040918Y0906723D01*
X1041701D01*
X1042425Y0907022D01*
X1042500Y0907098D01*
X1042924Y0906814D01*
X1042841Y0906614D01*
Y0905831D01*
X1043141Y0905107D01*
X1043695Y0904554D01*
X1044418Y0904254D01*
X1045201D01*
X1045925Y0904554D01*
X1046478Y0905107D01*
X1046480Y0905110D01*
X1064310D01*
X1064310Y0905110D01*
X1064735Y0905195D01*
X1065096Y0905436D01*
X1080415Y0920755D01*
X1080418Y0920754D01*
X1081201D01*
X1081925Y0921054D01*
X1082479Y0921607D01*
X1082778Y0922331D01*
Y0923114D01*
X1082479Y0923837D01*
X1081925Y0924391D01*
X1081201Y0924691D01*
X1080418D01*
X1079695Y0924391D01*
X1079141Y0923837D01*
X1078841Y0923114D01*
Y0922331D01*
X1078842Y0922328D01*
X1063849Y0907334D01*
X1046480D01*
X1046478Y0907337D01*
X1045925Y0907891D01*
X1045201Y0908191D01*
X1044418D01*
X1043695Y0907891D01*
X1043619Y0907816D01*
X1043195Y0908099D01*
X1043278Y0908299D01*
Y0909083D01*
X1042978Y0909806D01*
X1042425Y0910360D01*
X1042422Y0910361D01*
Y0924762D01*
X1054270Y0936611D01*
X1059140D01*
X1059141Y0936607D01*
X1059695Y0936054D01*
X1060418Y0935754D01*
X1061201D01*
X1061925Y0936054D01*
X1062479Y0936607D01*
X1062778Y0937331D01*
Y0938114D01*
X1062479Y0938838D01*
X1061925Y0939391D01*
X1061201Y0939691D01*
X1060418D01*
X1059695Y0939391D01*
X1059141Y0938838D01*
X1059140Y0938834D01*
X1053810D01*
X1053810Y0938834D01*
X1053384Y0938750D01*
X1053023Y0938509D01*
X1040523Y0926009D01*
X1040453Y0925903D01*
X1039953Y0926055D01*
Y0927293D01*
X1056096Y0943436D01*
X1056096Y0943436D01*
X1061770Y0949111D01*
X1069639D01*
X1069641Y0949107D01*
X1070195Y0948554D01*
X1070918Y0948254D01*
X1071701D01*
X1072425Y0948554D01*
X1072978Y0949107D01*
X1073278Y0949831D01*
Y0950614D01*
X1072978Y0951338D01*
X1072425Y0951891D01*
X1071701Y0952191D01*
D02*
G37*
G36*
X1036235Y0953963D02*
X1028755D01*
Y0946482D01*
X1036235D01*
Y0953963D01*
D02*
G37*
G36*
X1016550D02*
X1009070D01*
Y0946482D01*
X1016550D01*
Y0953963D01*
D02*
G37*
G36*
X0996865D02*
X0989384D01*
Y0946482D01*
X0996865D01*
Y0953963D01*
D02*
G37*
G36*
X1174480Y0949883D02*
X1174370Y0949875D01*
X1173511D01*
X1173450Y0949850D01*
X1173386Y0949863D01*
X1172844Y0949755D01*
X1172839Y0949754D01*
X1172824Y0949751D01*
X1171485Y0949484D01*
X1171430Y0949448D01*
X1171365D01*
X1169573Y0948706D01*
X1169527Y0948660D01*
X1169463Y0948647D01*
X1168327Y0947888D01*
X1168314Y0947880D01*
X1168310Y0947877D01*
X1167851Y0947570D01*
X1167815Y0947515D01*
X1167754Y0947490D01*
X1167147Y0946883D01*
X1167062Y0946811D01*
X1166991Y0946727D01*
X1166383Y0946119D01*
X1166358Y0946059D01*
X1166304Y0946023D01*
X1165997Y0945563D01*
X1165993Y0945559D01*
X1165985Y0945546D01*
X1165226Y0944410D01*
X1165214Y0944346D01*
X1165167Y0944300D01*
X1164425Y0942509D01*
Y0942443D01*
X1164389Y0942389D01*
X1164123Y0941049D01*
X1164119Y0941034D01*
X1164119Y0941029D01*
X1164011Y0940487D01*
X1164024Y0940423D01*
X1163999Y0940362D01*
Y0939503D01*
X1163990Y0939393D01*
X1163999Y0939283D01*
Y0938424D01*
X1164024Y0938363D01*
X1164011Y0938299D01*
X1164119Y0937757D01*
X1164119Y0937752D01*
X1164123Y0937737D01*
X1164389Y0936397D01*
X1164425Y0936343D01*
Y0936277D01*
X1165167Y0934486D01*
X1165214Y0934440D01*
X1165226Y0934376D01*
X1165986Y0933240D01*
X1165993Y0933227D01*
X1165997Y0933223D01*
X1166304Y0932764D01*
X1166358Y0932727D01*
X1166383Y0932667D01*
X1166991Y0932059D01*
X1167062Y0931975D01*
X1167146Y0931903D01*
X1167754Y0931296D01*
X1167815Y0931271D01*
X1167851Y0931216D01*
X1168310Y0930909D01*
X1168314Y0930906D01*
X1168327Y0930898D01*
X1169463Y0930139D01*
X1169527Y0930126D01*
X1169573Y0930080D01*
X1171365Y0929338D01*
X1171430D01*
X1171485Y0929302D01*
X1172825Y0929035D01*
X1172839Y0929032D01*
X1172844Y0929031D01*
X1173386Y0928924D01*
X1173450Y0928936D01*
X1173511Y0928911D01*
X1174370D01*
X1174480Y0928903D01*
X1174591Y0928911D01*
X1175450D01*
X1175510Y0928936D01*
X1175574Y0928924D01*
X1176116Y0929031D01*
X1176121Y0929032D01*
X1176136Y0929035D01*
X1177476Y0929302D01*
X1177530Y0929338D01*
X1177596D01*
X1179387Y0930080D01*
X1179433Y0930126D01*
X1179498Y0930139D01*
X1180634Y0930898D01*
X1180646Y0930906D01*
X1180650Y0930909D01*
X1181110Y0931216D01*
X1181146Y0931271D01*
X1181207Y0931296D01*
X1181814Y0931903D01*
X1181898Y0931975D01*
X1181970Y0932059D01*
X1182578Y0932667D01*
X1182603Y0932727D01*
X1182657Y0932764D01*
X1182964Y0933223D01*
X1182967Y0933227D01*
X1182975Y0933240D01*
X1183734Y0934376D01*
X1183747Y0934440D01*
X1183793Y0934486D01*
X1184535Y0936277D01*
Y0936343D01*
X1184571Y0936397D01*
X1184838Y0937737D01*
X1184842Y0937752D01*
X1184842Y0937757D01*
X1184950Y0938299D01*
X1184937Y0938363D01*
X1184962Y0938424D01*
Y0939283D01*
X1184971Y0939393D01*
X1184962Y0939503D01*
Y0940362D01*
X1184937Y0940423D01*
X1184950Y0940487D01*
X1184842Y0941029D01*
X1184842Y0941034D01*
X1184838Y0941049D01*
X1184571Y0942389D01*
X1184535Y0942443D01*
Y0942509D01*
X1183793Y0944300D01*
X1183747Y0944346D01*
X1183734Y0944410D01*
X1182975Y0945546D01*
X1182967Y0945559D01*
X1182964Y0945563D01*
X1182657Y0946023D01*
X1182603Y0946059D01*
X1182578Y0946119D01*
X1181970Y0946727D01*
X1181898Y0946811D01*
X1181814Y0946883D01*
X1181207Y0947490D01*
X1181146Y0947515D01*
X1181110Y0947570D01*
X1180650Y0947877D01*
X1180646Y0947880D01*
X1180633Y0947888D01*
X1179498Y0948647D01*
X1179433Y0948660D01*
X1179387Y0948706D01*
X1177596Y0949448D01*
X1177530D01*
X1177476Y0949484D01*
X1176136Y0949751D01*
X1176121Y0949754D01*
X1176116Y0949755D01*
X1175574Y0949863D01*
X1175510Y0949850D01*
X1175450Y0949875D01*
X1174591D01*
X1174480Y0949883D01*
D02*
G37*
G36*
X0859520D02*
X0859409Y0949875D01*
X0858550D01*
X0858490Y0949850D01*
X0858426Y0949863D01*
X0857884Y0949755D01*
X0857879Y0949754D01*
X0857864Y0949751D01*
X0856524Y0949484D01*
X0856470Y0949448D01*
X0856404D01*
X0854613Y0948706D01*
X0854567Y0948660D01*
X0854502Y0948647D01*
X0853366Y0947888D01*
X0853354Y0947880D01*
X0853350Y0947877D01*
X0852890Y0947570D01*
X0852854Y0947515D01*
X0852793Y0947490D01*
X0852186Y0946883D01*
X0852102Y0946811D01*
X0852030Y0946727D01*
X0851423Y0946119D01*
X0851398Y0946059D01*
X0851343Y0946023D01*
X0851036Y0945563D01*
X0851033Y0945559D01*
X0851025Y0945546D01*
X0850266Y0944410D01*
X0850253Y0944346D01*
X0850207Y0944300D01*
X0849465Y0942509D01*
Y0942443D01*
X0849428Y0942389D01*
X0849162Y0941049D01*
X0849158Y0941034D01*
X0849158Y0941029D01*
X0849050Y0940487D01*
X0849063Y0940423D01*
X0849038Y0940362D01*
Y0939503D01*
X0849029Y0939393D01*
X0849038Y0939283D01*
Y0938424D01*
X0849063Y0938363D01*
X0849050Y0938299D01*
X0849158Y0937757D01*
X0849158Y0937752D01*
X0849162Y0937737D01*
X0849428Y0936397D01*
X0849465Y0936343D01*
Y0936277D01*
X0850207Y0934486D01*
X0850253Y0934440D01*
X0850266Y0934376D01*
X0851025Y0933240D01*
X0851033Y0933227D01*
X0851036Y0933223D01*
X0851343Y0932764D01*
X0851398Y0932727D01*
X0851423Y0932667D01*
X0852030Y0932059D01*
X0852102Y0931975D01*
X0852186Y0931903D01*
X0852793Y0931296D01*
X0852854Y0931271D01*
X0852890Y0931216D01*
X0853350Y0930909D01*
X0853354Y0930906D01*
X0853366Y0930898D01*
X0854502Y0930139D01*
X0854567Y0930126D01*
X0854613Y0930080D01*
X0856404Y0929338D01*
X0856470D01*
X0856524Y0929302D01*
X0857864Y0929035D01*
X0857879Y0929032D01*
X0857884Y0929031D01*
X0858426Y0928924D01*
X0858490Y0928936D01*
X0858550Y0928911D01*
X0859409D01*
X0859520Y0928903D01*
X0859630Y0928911D01*
X0860489D01*
X0860550Y0928936D01*
X0860614Y0928924D01*
X0861156Y0929031D01*
X0861161Y0929032D01*
X0861175Y0929035D01*
X0862515Y0929302D01*
X0862570Y0929338D01*
X0862635D01*
X0864427Y0930080D01*
X0864473Y0930126D01*
X0864537Y0930139D01*
X0865673Y0930898D01*
X0865686Y0930906D01*
X0865690Y0930909D01*
X0866149Y0931216D01*
X0866185Y0931271D01*
X0866246Y0931296D01*
X0866853Y0931903D01*
X0866938Y0931975D01*
X0867009Y0932059D01*
X0867617Y0932667D01*
X0867642Y0932727D01*
X0867696Y0932764D01*
X0868003Y0933223D01*
X0868007Y0933227D01*
X0868015Y0933240D01*
X0868773Y0934376D01*
X0868786Y0934440D01*
X0868833Y0934486D01*
X0869575Y0936277D01*
Y0936343D01*
X0869611Y0936397D01*
X0869877Y0937737D01*
X0869881Y0937752D01*
X0869881Y0937757D01*
X0869989Y0938299D01*
X0869976Y0938363D01*
X0870001Y0938424D01*
Y0939283D01*
X0870010Y0939393D01*
X0870001Y0939503D01*
Y0940362D01*
X0869976Y0940423D01*
X0869989Y0940487D01*
X0869881Y0941029D01*
X0869881Y0941034D01*
X0869877Y0941049D01*
X0869611Y0942389D01*
X0869575Y0942443D01*
Y0942509D01*
X0868833Y0944300D01*
X0868786Y0944346D01*
X0868773Y0944410D01*
X0868015Y0945546D01*
X0868007Y0945559D01*
X0868003Y0945563D01*
X0867696Y0946023D01*
X0867642Y0946059D01*
X0867617Y0946119D01*
X0867009Y0946727D01*
X0866938Y0946811D01*
X0866853Y0946883D01*
X0866246Y0947490D01*
X0866185Y0947515D01*
X0866149Y0947570D01*
X0865690Y0947877D01*
X0865686Y0947880D01*
X0865673Y0947888D01*
X0864537Y0948647D01*
X0864473Y0948660D01*
X0864427Y0948706D01*
X0862635Y0949448D01*
X0862570D01*
X0862515Y0949484D01*
X0861176Y0949751D01*
X0861161Y0949754D01*
X0861156Y0949755D01*
X0860614Y0949863D01*
X0860550Y0949850D01*
X0860489Y0949875D01*
X0859630D01*
X0859520Y0949883D01*
D02*
G37*
G36*
X1172900Y0911013D02*
X1165719D01*
Y0903832D01*
X1172900D01*
Y0911013D01*
D02*
G37*
G36*
X1169782Y0901013D02*
X1168837D01*
X1167924Y0900768D01*
X1167105Y0900296D01*
X1166436Y0899627D01*
X1165964Y0898808D01*
X1165719Y0897895D01*
Y0896950D01*
X1165964Y0896037D01*
X1166436Y0895218D01*
X1167105Y0894549D01*
X1167924Y0894077D01*
X1168837Y0893832D01*
X1169782D01*
X1170696Y0894077D01*
X1171514Y0894549D01*
X1172183Y0895218D01*
X1172655Y0896037D01*
X1172900Y0896950D01*
Y0897895D01*
X1172655Y0898808D01*
X1172183Y0899627D01*
X1171514Y0900296D01*
X1170696Y0900768D01*
X1169782Y0901013D01*
D02*
G37*
G36*
X1172900Y0807513D02*
X1165719D01*
Y0800332D01*
X1172900D01*
Y0807513D01*
D02*
G37*
G36*
X1169782Y0797513D02*
X1168837D01*
X1167924Y0797268D01*
X1167105Y0796796D01*
X1166436Y0796127D01*
X1165964Y0795308D01*
X1165719Y0794395D01*
Y0793450D01*
X1165964Y0792536D01*
X1166436Y0791718D01*
X1167105Y0791049D01*
X1167924Y0790577D01*
X1168837Y0790332D01*
X1169782D01*
X1170696Y0790577D01*
X1171514Y0791049D01*
X1172183Y0791718D01*
X1172655Y0792536D01*
X1172900Y0793450D01*
Y0794395D01*
X1172655Y0795308D01*
X1172183Y0796127D01*
X1171514Y0796796D01*
X1170696Y0797268D01*
X1169782Y0797513D01*
D02*
G37*
G36*
X0864782Y0778313D02*
X0863837D01*
X0862924Y0778068D01*
X0862105Y0777596D01*
X0861436Y0776927D01*
X0860964Y0776108D01*
X0860719Y0775195D01*
Y0774250D01*
X0860964Y0773337D01*
X0861436Y0772518D01*
X0862105Y0771849D01*
X0862924Y0771377D01*
X0863837Y0771132D01*
X0864782D01*
X0865696Y0771377D01*
X0866514Y0771849D01*
X0867183Y0772518D01*
X0867655Y0773337D01*
X0867900Y0774250D01*
Y0775195D01*
X0867655Y0776108D01*
X0867183Y0776927D01*
X0866514Y0777596D01*
X0865696Y0778068D01*
X0864782Y0778313D01*
D02*
G37*
G36*
X0899701Y0856691D02*
X0898918D01*
X0898195Y0856391D01*
X0897641Y0855838D01*
X0897341Y0855114D01*
Y0854331D01*
X0897641Y0853607D01*
X0898195Y0853054D01*
X0898198Y0853052D01*
Y0774683D01*
X0889349Y0765834D01*
X0867900D01*
Y0768313D01*
X0860719D01*
Y0761132D01*
X0867900D01*
Y0763611D01*
X0889810D01*
X0889810Y0763611D01*
X0890235Y0763695D01*
X0890596Y0763936D01*
X0900096Y0773436D01*
X0900337Y0773797D01*
X0900422Y0774222D01*
X0900422Y0774223D01*
Y0853052D01*
X0900425Y0853054D01*
X0900978Y0853607D01*
X0901278Y0854331D01*
Y0855114D01*
X0900978Y0855838D01*
X0900425Y0856391D01*
X0899701Y0856691D01*
D02*
G37*
G36*
X1081853Y0718266D02*
X1074766D01*
Y0711179D01*
X1081853D01*
Y0718266D01*
D02*
G37*
G36*
X1137701Y0758691D02*
X1136918D01*
X1136195Y0758391D01*
X1135641Y0757837D01*
X1135341Y0757114D01*
Y0756331D01*
X1135641Y0755607D01*
X1136195Y0755054D01*
X1136918Y0754754D01*
X1137701D01*
X1137704Y0754755D01*
X1141523Y0750936D01*
X1141523Y0750936D01*
X1141884Y0750695D01*
X1142310Y0750610D01*
X1142310Y0750610D01*
X1184349D01*
X1188198Y0746762D01*
Y0687683D01*
X1186049Y0685534D01*
X1172729D01*
X1172655Y0685808D01*
X1172183Y0686627D01*
X1171514Y0687296D01*
X1170696Y0687768D01*
X1169782Y0688013D01*
X1168837D01*
X1167924Y0687768D01*
X1167105Y0687296D01*
X1166436Y0686627D01*
X1165964Y0685808D01*
X1165719Y0684895D01*
Y0683950D01*
X1165964Y0683037D01*
X1166436Y0682218D01*
X1167105Y0681549D01*
X1167924Y0681077D01*
X1168837Y0680832D01*
X1169782D01*
X1170696Y0681077D01*
X1171514Y0681549D01*
X1172183Y0682218D01*
X1172655Y0683037D01*
X1172729Y0683311D01*
X1186510D01*
X1186510Y0683311D01*
X1186935Y0683395D01*
X1187296Y0683636D01*
X1190096Y0686436D01*
X1190096Y0686436D01*
X1190337Y0686797D01*
X1190422Y0687222D01*
X1190422Y0687222D01*
Y0747222D01*
X1190337Y0747648D01*
X1190096Y0748009D01*
X1185596Y0752509D01*
X1185235Y0752750D01*
X1184810Y0752834D01*
X1184810Y0752834D01*
X1142770D01*
X1139277Y0756328D01*
X1139278Y0756331D01*
Y0757114D01*
X1138978Y0757837D01*
X1138425Y0758391D01*
X1137701Y0758691D01*
D02*
G37*
G36*
X1169782Y0678013D02*
X1168837D01*
X1167924Y0677768D01*
X1167105Y0677296D01*
X1166436Y0676627D01*
X1165964Y0675808D01*
X1165719Y0674895D01*
Y0673950D01*
X1165964Y0673036D01*
X1166436Y0672218D01*
X1167105Y0671549D01*
X1167924Y0671077D01*
X1168837Y0670832D01*
X1169782D01*
X1170696Y0671077D01*
X1171514Y0671549D01*
X1172183Y0672218D01*
X1172655Y0673036D01*
X1172900Y0673950D01*
Y0674895D01*
X1172655Y0675808D01*
X1172183Y0676627D01*
X1171514Y0677296D01*
X1170696Y0677768D01*
X1169782Y0678013D01*
D02*
G37*
G36*
X0864782Y0668813D02*
X0863837D01*
X0862924Y0668568D01*
X0862105Y0668096D01*
X0861436Y0667427D01*
X0860964Y0666608D01*
X0860719Y0665695D01*
Y0664750D01*
X0860964Y0663836D01*
X0861436Y0663018D01*
X0862105Y0662349D01*
X0862924Y0661877D01*
X0863837Y0661632D01*
X0864782D01*
X0865696Y0661877D01*
X0866514Y0662349D01*
X0867183Y0663018D01*
X0867655Y0663836D01*
X0867900Y0664750D01*
Y0665695D01*
X0867655Y0666608D01*
X0867183Y0667427D01*
X0866514Y0668096D01*
X0865696Y0668568D01*
X0864782Y0668813D01*
D02*
G37*
G36*
X1078776Y0668266D02*
X1077843D01*
X1076942Y0668024D01*
X1076134Y0667558D01*
X1075474Y0666898D01*
X1075008Y0666090D01*
X1074766Y0665189D01*
Y0664256D01*
X1075008Y0663355D01*
X1075474Y0662547D01*
X1076134Y0661887D01*
X1076942Y0661421D01*
X1077843Y0661179D01*
X1078776D01*
X1079677Y0661421D01*
X1080485Y0661887D01*
X1081145Y0662547D01*
X1081612Y0663355D01*
X1081853Y0664256D01*
Y0665189D01*
X1081612Y0666090D01*
X1081145Y0666898D01*
X1080485Y0667558D01*
X1079677Y0668024D01*
X1078776Y0668266D01*
D02*
G37*
G36*
X1169782Y0668013D02*
X1168837D01*
X1167924Y0667768D01*
X1167105Y0667296D01*
X1166436Y0666627D01*
X1165964Y0665808D01*
X1165719Y0664895D01*
Y0663950D01*
X1165964Y0663036D01*
X1166436Y0662218D01*
X1167105Y0661549D01*
X1167924Y0661077D01*
X1168837Y0660832D01*
X1169782D01*
X1170696Y0661077D01*
X1171514Y0661549D01*
X1172183Y0662218D01*
X1172655Y0663036D01*
X1172900Y0663950D01*
Y0664895D01*
X1172655Y0665808D01*
X1172183Y0666627D01*
X1171514Y0667296D01*
X1170696Y0667768D01*
X1169782Y0668013D01*
D02*
G37*
G36*
Y0658013D02*
X1168837D01*
X1167924Y0657768D01*
X1167105Y0657296D01*
X1166436Y0656627D01*
X1165964Y0655808D01*
X1165719Y0654895D01*
Y0653950D01*
X1165964Y0653036D01*
X1166436Y0652218D01*
X1167105Y0651549D01*
X1167924Y0651077D01*
X1168837Y0650832D01*
X1169782D01*
X1170696Y0651077D01*
X1171514Y0651549D01*
X1172183Y0652218D01*
X1172655Y0653036D01*
X1172900Y0653950D01*
Y0654895D01*
X1172655Y0655808D01*
X1172183Y0656627D01*
X1171514Y0657296D01*
X1170696Y0657768D01*
X1169782Y0658013D01*
D02*
G37*
G36*
X1174480Y0634923D02*
X1174370Y0634914D01*
X1173511D01*
X1173450Y0634889D01*
X1173386Y0634902D01*
X1172844Y0634794D01*
X1172839Y0634794D01*
X1172824Y0634790D01*
X1171485Y0634524D01*
X1171430Y0634487D01*
X1171365D01*
X1169573Y0633745D01*
X1169527Y0633699D01*
X1169463Y0633686D01*
X1168327Y0632927D01*
X1168314Y0632919D01*
X1168310Y0632916D01*
X1167851Y0632609D01*
X1167815Y0632555D01*
X1167754Y0632530D01*
X1167147Y0631922D01*
X1167062Y0631850D01*
X1166991Y0631766D01*
X1166383Y0631159D01*
X1166358Y0631098D01*
X1166304Y0631062D01*
X1165997Y0630602D01*
X1165993Y0630599D01*
X1165985Y0630586D01*
X1165226Y0629450D01*
X1165214Y0629386D01*
X1165167Y0629339D01*
X1164425Y0627548D01*
Y0627483D01*
X1164389Y0627428D01*
X1164123Y0626088D01*
X1164119Y0626074D01*
X1164119Y0626068D01*
X1164011Y0625527D01*
X1164024Y0625462D01*
X1163999Y0625402D01*
Y0624543D01*
X1163990Y0624433D01*
X1163999Y0624322D01*
Y0623463D01*
X1164024Y0623403D01*
X1164011Y0623338D01*
X1164119Y0622796D01*
X1164119Y0622791D01*
X1164123Y0622777D01*
X1164389Y0621437D01*
X1164425Y0621382D01*
Y0621317D01*
X1165167Y0619526D01*
X1165214Y0619479D01*
X1165226Y0619415D01*
X1165986Y0618279D01*
X1165993Y0618266D01*
X1165997Y0618263D01*
X1166304Y0617803D01*
X1166358Y0617767D01*
X1166383Y0617706D01*
X1166991Y0617099D01*
X1167062Y0617015D01*
X1167146Y0616943D01*
X1167754Y0616335D01*
X1167815Y0616310D01*
X1167851Y0616256D01*
X1168310Y0615949D01*
X1168314Y0615946D01*
X1168327Y0615938D01*
X1169463Y0615179D01*
X1169527Y0615166D01*
X1169573Y0615120D01*
X1171365Y0614378D01*
X1171430D01*
X1171485Y0614341D01*
X1172825Y0614075D01*
X1172839Y0614071D01*
X1172844Y0614071D01*
X1173386Y0613963D01*
X1173450Y0613976D01*
X1173511Y0613951D01*
X1174370D01*
X1174480Y0613942D01*
X1174591Y0613951D01*
X1175450D01*
X1175510Y0613976D01*
X1175574Y0613963D01*
X1176116Y0614071D01*
X1176121Y0614071D01*
X1176136Y0614075D01*
X1177476Y0614341D01*
X1177530Y0614378D01*
X1177596D01*
X1179387Y0615120D01*
X1179433Y0615166D01*
X1179498Y0615179D01*
X1180634Y0615938D01*
X1180646Y0615946D01*
X1180650Y0615949D01*
X1181110Y0616256D01*
X1181146Y0616310D01*
X1181207Y0616335D01*
X1181814Y0616943D01*
X1181898Y0617015D01*
X1181970Y0617099D01*
X1182578Y0617706D01*
X1182603Y0617767D01*
X1182657Y0617803D01*
X1182964Y0618262D01*
X1182967Y0618266D01*
X1182975Y0618279D01*
X1183734Y0619415D01*
X1183747Y0619479D01*
X1183793Y0619526D01*
X1184535Y0621317D01*
Y0621382D01*
X1184571Y0621437D01*
X1184838Y0622777D01*
X1184842Y0622791D01*
X1184842Y0622796D01*
X1184950Y0623338D01*
X1184937Y0623403D01*
X1184962Y0623463D01*
Y0624322D01*
X1184971Y0624433D01*
X1184962Y0624543D01*
Y0625402D01*
X1184937Y0625462D01*
X1184950Y0625527D01*
X1184842Y0626068D01*
X1184842Y0626074D01*
X1184838Y0626088D01*
X1184571Y0627428D01*
X1184535Y0627483D01*
Y0627548D01*
X1183793Y0629339D01*
X1183747Y0629386D01*
X1183734Y0629450D01*
X1182975Y0630586D01*
X1182967Y0630599D01*
X1182964Y0630603D01*
X1182657Y0631062D01*
X1182603Y0631098D01*
X1182578Y0631159D01*
X1181970Y0631766D01*
X1181898Y0631850D01*
X1181814Y0631922D01*
X1181207Y0632530D01*
X1181146Y0632555D01*
X1181110Y0632609D01*
X1180650Y0632916D01*
X1180646Y0632919D01*
X1180633Y0632927D01*
X1179498Y0633686D01*
X1179433Y0633699D01*
X1179387Y0633745D01*
X1177596Y0634487D01*
X1177530D01*
X1177476Y0634524D01*
X1176136Y0634790D01*
X1176121Y0634794D01*
X1176116Y0634794D01*
X1175574Y0634902D01*
X1175510Y0634889D01*
X1175450Y0634914D01*
X1174591D01*
X1174480Y0634923D01*
D02*
G37*
G36*
X0859520D02*
X0859409Y0634914D01*
X0858550D01*
X0858490Y0634889D01*
X0858426Y0634902D01*
X0857884Y0634794D01*
X0857879Y0634794D01*
X0857864Y0634790D01*
X0856524Y0634524D01*
X0856470Y0634487D01*
X0856404D01*
X0854613Y0633745D01*
X0854567Y0633699D01*
X0854502Y0633686D01*
X0853366Y0632927D01*
X0853354Y0632919D01*
X0853350Y0632916D01*
X0852890Y0632609D01*
X0852854Y0632555D01*
X0852793Y0632530D01*
X0852186Y0631922D01*
X0852102Y0631850D01*
X0852030Y0631766D01*
X0851423Y0631159D01*
X0851398Y0631098D01*
X0851343Y0631062D01*
X0851036Y0630602D01*
X0851033Y0630599D01*
X0851025Y0630586D01*
X0850266Y0629450D01*
X0850253Y0629386D01*
X0850207Y0629339D01*
X0849465Y0627548D01*
Y0627483D01*
X0849428Y0627428D01*
X0849162Y0626088D01*
X0849158Y0626074D01*
X0849158Y0626068D01*
X0849050Y0625527D01*
X0849063Y0625462D01*
X0849038Y0625402D01*
Y0624543D01*
X0849029Y0624433D01*
X0849038Y0624322D01*
Y0623463D01*
X0849063Y0623403D01*
X0849050Y0623338D01*
X0849158Y0622796D01*
X0849158Y0622791D01*
X0849162Y0622777D01*
X0849428Y0621437D01*
X0849465Y0621382D01*
Y0621317D01*
X0850207Y0619526D01*
X0850253Y0619479D01*
X0850266Y0619415D01*
X0851025Y0618279D01*
X0851033Y0618266D01*
X0851036Y0618263D01*
X0851343Y0617803D01*
X0851398Y0617767D01*
X0851423Y0617706D01*
X0852030Y0617099D01*
X0852102Y0617015D01*
X0852186Y0616943D01*
X0852793Y0616335D01*
X0852854Y0616310D01*
X0852890Y0616256D01*
X0853350Y0615949D01*
X0853354Y0615946D01*
X0853366Y0615938D01*
X0854502Y0615179D01*
X0854567Y0615166D01*
X0854613Y0615120D01*
X0856404Y0614378D01*
X0856470D01*
X0856524Y0614341D01*
X0857864Y0614075D01*
X0857879Y0614071D01*
X0857884Y0614071D01*
X0858426Y0613963D01*
X0858490Y0613976D01*
X0858550Y0613951D01*
X0859409D01*
X0859520Y0613942D01*
X0859630Y0613951D01*
X0860489D01*
X0860550Y0613976D01*
X0860614Y0613963D01*
X0861156Y0614071D01*
X0861161Y0614071D01*
X0861175Y0614075D01*
X0862515Y0614341D01*
X0862570Y0614378D01*
X0862635D01*
X0864427Y0615120D01*
X0864473Y0615166D01*
X0864537Y0615179D01*
X0865673Y0615938D01*
X0865686Y0615946D01*
X0865690Y0615949D01*
X0866149Y0616256D01*
X0866185Y0616310D01*
X0866246Y0616335D01*
X0866853Y0616943D01*
X0866938Y0617015D01*
X0867009Y0617099D01*
X0867617Y0617706D01*
X0867642Y0617767D01*
X0867696Y0617803D01*
X0868003Y0618262D01*
X0868007Y0618266D01*
X0868015Y0618279D01*
X0868773Y0619415D01*
X0868786Y0619479D01*
X0868833Y0619526D01*
X0869575Y0621317D01*
Y0621382D01*
X0869611Y0621437D01*
X0869877Y0622777D01*
X0869881Y0622791D01*
X0869881Y0622796D01*
X0869989Y0623338D01*
X0869976Y0623403D01*
X0870001Y0623463D01*
Y0624322D01*
X0870010Y0624433D01*
X0870001Y0624543D01*
Y0625402D01*
X0869976Y0625462D01*
X0869989Y0625527D01*
X0869881Y0626068D01*
X0869881Y0626074D01*
X0869877Y0626088D01*
X0869611Y0627428D01*
X0869575Y0627483D01*
Y0627548D01*
X0868833Y0629339D01*
X0868786Y0629386D01*
X0868773Y0629450D01*
X0868015Y0630586D01*
X0868007Y0630599D01*
X0868003Y0630603D01*
X0867696Y0631062D01*
X0867642Y0631098D01*
X0867617Y0631159D01*
X0867009Y0631766D01*
X0866938Y0631850D01*
X0866853Y0631922D01*
X0866246Y0632530D01*
X0866185Y0632555D01*
X0866149Y0632609D01*
X0865690Y0632916D01*
X0865686Y0632919D01*
X0865673Y0632927D01*
X0864537Y0633686D01*
X0864473Y0633699D01*
X0864427Y0633745D01*
X0862635Y0634487D01*
X0862570D01*
X0862515Y0634524D01*
X0861176Y0634790D01*
X0861161Y0634794D01*
X0861156Y0634794D01*
X0860614Y0634902D01*
X0860550Y0634889D01*
X0860489Y0634914D01*
X0859630D01*
X0859520Y0634923D01*
D02*
G37*
G36*
X0985947Y0626659D02*
X0974924D01*
Y0624328D01*
X0973100D01*
X0972822Y0624810D01*
X0972246Y0625385D01*
X0971542Y0625792D01*
X0970756Y0626003D01*
X0969942D01*
X0969156Y0625792D01*
X0968451Y0625385D01*
X0967876Y0624810D01*
X0967469Y0624105D01*
X0967258Y0623319D01*
Y0622505D01*
X0967469Y0621719D01*
X0967876Y0621014D01*
X0968451Y0620439D01*
X0969156Y0620032D01*
X0969942Y0619822D01*
X0970756D01*
X0971542Y0620032D01*
X0972246Y0620439D01*
X0972822Y0621014D01*
X0972881Y0621117D01*
X0974924D01*
Y0618785D01*
X0985947D01*
Y0626659D01*
D02*
G37*
G36*
X0996684Y0624828D02*
X0996171Y0624726D01*
X0996069Y0624706D01*
D01*
X0995548Y0624358D01*
X0995548Y0624358D01*
X0995048Y0623858D01*
X0994700Y0623337D01*
X0994578Y0622722D01*
X0994700Y0622108D01*
X0995048Y0621587D01*
X0995569Y0621239D01*
X0996184Y0621117D01*
X0996798Y0621239D01*
X0997319Y0621587D01*
X0997349Y0621617D01*
X1006810D01*
X1007424Y0621739D01*
X1007945Y0622087D01*
X1008293Y0622608D01*
X1008415Y0623222D01*
X1008293Y0623837D01*
X1007945Y0624358D01*
X1007424Y0624706D01*
X1006810Y0624828D01*
X0996684D01*
X0996684Y0624828D01*
D02*
G37*
G36*
X1079459Y0628813D02*
X1078160D01*
X1076887Y0628560D01*
X1075688Y0628063D01*
X1074608Y0627342D01*
X1073690Y0626424D01*
X1072969Y0625344D01*
X1072472Y0624145D01*
X1072219Y0622872D01*
Y0621573D01*
X1072472Y0620300D01*
X1072969Y0619101D01*
X1073690Y0618021D01*
X1074608Y0617103D01*
X1075688Y0616382D01*
X1076887Y0615885D01*
X1078160Y0615632D01*
X1079459D01*
X1080732Y0615885D01*
X1081931Y0616382D01*
X1083011Y0617103D01*
X1083929Y0618021D01*
X1084650Y0619101D01*
X1085147Y0620300D01*
X1085400Y0621573D01*
Y0622872D01*
X1085147Y0624145D01*
X1084650Y0625344D01*
X1083929Y0626424D01*
X1083011Y0627342D01*
X1081931Y0628063D01*
X1080732Y0628560D01*
X1079459Y0628813D01*
D02*
G37*
G36*
X1057701Y0868691D02*
X1056918D01*
X1056195Y0868391D01*
X1055641Y0867838D01*
X1055341Y0867114D01*
Y0866331D01*
X1055641Y0865607D01*
X1056195Y0865054D01*
X1056198Y0865052D01*
Y0849769D01*
X1052763Y0846334D01*
X1036480D01*
X1036479Y0846338D01*
X1035925Y0846891D01*
X1035201Y0847191D01*
X1034418D01*
X1033695Y0846891D01*
X1033141Y0846338D01*
X1032841Y0845614D01*
Y0844831D01*
X1033141Y0844107D01*
X1033695Y0843554D01*
X1034418Y0843254D01*
X1035201D01*
X1035925Y0843554D01*
X1036479Y0844107D01*
X1036480Y0844110D01*
X1053224D01*
X1053224Y0844110D01*
X1053649Y0844195D01*
X1054010Y0844436D01*
X1058096Y0848522D01*
X1058337Y0848883D01*
X1058422Y0849308D01*
X1058422Y0849308D01*
Y0865052D01*
X1058425Y0865054D01*
X1058978Y0865607D01*
X1059278Y0866331D01*
Y0867114D01*
X1058978Y0867838D01*
X1058425Y0868391D01*
X1057701Y0868691D01*
D02*
G37*
G36*
X1076701Y0854191D02*
X1075918D01*
X1075195Y0853891D01*
X1074641Y0853337D01*
X1074341Y0852614D01*
Y0851831D01*
X1074641Y0851107D01*
X1075195Y0850554D01*
X1075198Y0850552D01*
Y0841683D01*
X1057704Y0824190D01*
X1057701Y0824191D01*
X1056918D01*
X1056195Y0823891D01*
X1055641Y0823337D01*
X1055341Y0822614D01*
Y0821831D01*
X1055641Y0821107D01*
X1056195Y0820554D01*
X1056918Y0820254D01*
X1057701D01*
X1058425Y0820554D01*
X1058978Y0821107D01*
X1059278Y0821831D01*
Y0822614D01*
X1059277Y0822617D01*
X1077096Y0840436D01*
X1077096Y0840436D01*
X1077337Y0840797D01*
X1077422Y0841222D01*
X1077422Y0841222D01*
Y0850552D01*
X1077425Y0850554D01*
X1077979Y0851107D01*
X1078278Y0851831D01*
Y0852614D01*
X1077979Y0853337D01*
X1077425Y0853891D01*
X1076701Y0854191D01*
D02*
G37*
G36*
X1023527Y0825063D02*
X1022384D01*
X1021280Y0824767D01*
X1020290Y0824196D01*
X1019482Y0823388D01*
X1018911Y0822398D01*
X1018615Y0821294D01*
Y0820151D01*
X1018911Y0819047D01*
X1019482Y0818057D01*
X1020290Y0817249D01*
X1021280Y0816678D01*
X1022384Y0816382D01*
X1023527D01*
X1024631Y0816678D01*
X1025620Y0817249D01*
X1026429Y0818057D01*
X1027000Y0819047D01*
X1027151Y0819611D01*
X1030042D01*
Y0817376D01*
X1035948D01*
Y0824069D01*
X1030042D01*
Y0821834D01*
X1027151D01*
X1027000Y0822398D01*
X1026429Y0823388D01*
X1025620Y0824196D01*
X1024631Y0824767D01*
X1023527Y0825063D01*
D02*
G37*
G36*
X1028802Y0805463D02*
X1027817D01*
X1026866Y0805208D01*
X1026013Y0804715D01*
X1025317Y0804019D01*
X1024824Y0803166D01*
X1024570Y0802215D01*
Y0801230D01*
X1024824Y0800279D01*
X1025317Y0799426D01*
X1026013Y0798730D01*
X1026866Y0798237D01*
X1027817Y0797982D01*
X1028802D01*
X1029753Y0798237D01*
X1030606Y0798730D01*
X1031303Y0799426D01*
X1031795Y0800279D01*
X1032050Y0801230D01*
Y0802215D01*
X1031795Y0803166D01*
X1031303Y0804019D01*
X1030606Y0804715D01*
X1029753Y0805208D01*
X1028802Y0805463D01*
D02*
G37*
G36*
X1029302Y0779963D02*
X1028317D01*
X1027366Y0779708D01*
X1026513Y0779215D01*
X1025817Y0778519D01*
X1025324Y0777666D01*
X1025070Y0776715D01*
Y0775730D01*
X1025324Y0774779D01*
X1025817Y0773926D01*
X1026513Y0773230D01*
X1027366Y0772737D01*
X1028317Y0772482D01*
X1029302D01*
X1030253Y0772737D01*
X1031106Y0773230D01*
X1031802Y0773926D01*
X1032295Y0774779D01*
X1032550Y0775730D01*
Y0776715D01*
X1032295Y0777666D01*
X1031802Y0778519D01*
X1031106Y0779215D01*
X1030253Y0779708D01*
X1029302Y0779963D01*
D02*
G37*
G36*
X1003050Y0759963D02*
X0995570D01*
Y0752482D01*
X1003050D01*
Y0759963D01*
D02*
G37*
%LPD*%
D13*
X1033310Y0874222D02*
X1077310D01*
X1030810Y0871722D02*
X1033310Y0874222D01*
X1051810Y0876691D02*
Y0886222D01*
X1097810Y0648222D02*
Y0733222D01*
X1089810Y0741222D02*
Y0832722D01*
Y0741222D02*
X1097810Y0733222D01*
X1080310Y0746222D02*
X1090310Y0736222D01*
X1080310Y0746222D02*
Y0877222D01*
X1082810Y0844722D02*
X1153610Y0773922D01*
X1082810Y0844722D02*
Y0857222D01*
X1153610Y0773922D02*
X1169310D01*
X1030810Y0884722D02*
X1047834D01*
X1048835Y0883722D01*
X1049310D01*
X1012810Y0925222D02*
X1051810Y0886222D01*
X1059810Y0897722D02*
X1080310Y0877222D01*
X1049310Y0897722D02*
X1059810D01*
X1076310Y0841222D02*
Y0852222D01*
X1057310Y0822222D02*
X1076310Y0841222D01*
X0997310Y0847222D02*
X1005310Y0855222D01*
Y0866722D01*
X1015341Y0805330D02*
X1018310Y0802361D01*
Y0801722D02*
Y0802361D01*
X1020278Y0855254D02*
Y0874754D01*
Y0855254D02*
X1021310Y0854222D01*
X1017810Y0848722D02*
Y0866722D01*
X1015341Y0805330D02*
Y0873191D01*
X0997104Y0897928D02*
X1020278Y0874754D01*
X1001310Y0887222D02*
X1015341Y0873191D01*
X1013310Y0781722D02*
Y0871731D01*
Y0781722D02*
X1018810Y0776222D01*
X0999262Y0885779D02*
X1013310Y0871731D01*
X1026459Y0840073D02*
X1048635D01*
X1017810Y0848722D02*
X1026459Y0840073D01*
X1021310Y0854222D02*
X1049810D01*
X1023386Y0857646D02*
X1049733D01*
X1023310Y0857722D02*
X1023386Y0857646D01*
X1049733D02*
X1049810Y0857569D01*
X1008505Y0813917D02*
Y0869028D01*
X1001310Y0887222D02*
Y0890222D01*
X0988810Y0888722D02*
X1008505Y0869028D01*
X1003310Y0808722D02*
X1008505Y0813917D01*
X1008310Y0806722D02*
X1010810Y0809222D01*
X1001310Y0880222D02*
X1001310D01*
X1010810Y0870722D01*
X1008310Y0801722D02*
Y0806722D01*
X1010810Y0809222D02*
Y0870722D01*
X0998841Y0885779D02*
X0999262D01*
X1003310Y0794198D02*
Y0808722D01*
X0865810Y0925222D02*
X0869810D01*
X0853810Y0868222D02*
Y0913222D01*
X0865810Y0925222D01*
X0856810Y0792222D02*
Y0912222D01*
X0862810Y0918222D02*
X0952310D01*
X0856810Y0912222D02*
X0862810Y0918222D01*
X0859310Y0795808D02*
Y0910722D01*
X0864310Y0915722D02*
X0955310D01*
X0859310Y0910722D02*
X0864310Y0915722D01*
X0856810Y0792222D02*
X0864310Y0784722D01*
X0859310Y0795808D02*
X0859895Y0795222D01*
X0863810D01*
X0899310Y0774222D02*
Y0854722D01*
X0864310Y0764722D02*
X0889810D01*
X0899310Y0774222D01*
X0854310Y0707259D02*
Y0707722D01*
X0853310Y0666222D02*
X0864310Y0655222D01*
X0853310Y0666222D02*
Y0706259D01*
X0854310Y0707259D01*
X0855900Y0683632D02*
X0864310Y0675222D01*
X0855900Y0699813D02*
X0948810Y0792722D01*
X0855900Y0683632D02*
Y0699813D01*
X0948810Y0792722D02*
Y0836722D01*
X0958810Y0683722D02*
Y0792722D01*
X0938810Y0663722D02*
X0958810Y0683722D01*
X0932810Y0768722D02*
X0954775Y0790687D01*
X0932810Y0742722D02*
Y0768722D01*
X0954775Y0792687D02*
X0954810Y0792722D01*
X0954775Y0790687D02*
Y0792687D01*
X0859310Y0690222D02*
Y0699472D01*
X0951310Y0791472D02*
Y0852722D01*
X0859310Y0699472D02*
X0951310Y0791472D01*
Y0852722D02*
X0955810Y0857222D01*
X0970454Y0851874D02*
X0996961D01*
X0964146Y0876558D02*
X0974810Y0887222D01*
X0963810Y0874222D02*
X0964146Y0874558D01*
Y0876558D01*
X0974810Y0887222D02*
Y0887222D01*
X0932310Y0863222D02*
X0940341Y0871254D01*
X0995841D01*
X0998310Y0873722D01*
X0968746Y0897659D02*
X0999310Y0928222D01*
X0864873Y0897659D02*
X0968746D01*
X0999310Y0928222D02*
X1007810D01*
X0963810Y0888222D02*
X0987460Y0911873D01*
X0864310Y0888222D02*
X0963810D01*
X0987460Y0911873D02*
Y0912864D01*
X0963310Y0902722D02*
X0970310D01*
X0958810Y0907222D02*
X0963310Y0902722D01*
X0987460Y0912864D02*
X1000319Y0925722D01*
X1009310D01*
X1006310Y0916222D02*
X1014810Y0907722D01*
X0994310Y0916222D02*
X1006310D01*
X1006373Y0912659D02*
X1011310Y0907722D01*
X0995247Y0912659D02*
X1006373D01*
X0962810Y0880222D02*
X0995247Y0912659D01*
X0939810Y0880222D02*
X0962810D01*
X1009310Y0925722D02*
X1011327Y0927740D01*
X1001810Y0909968D02*
X1002032Y0910191D01*
X1001810Y0896222D02*
Y0909968D01*
X0997104Y0897928D02*
Y0908955D01*
X0988810Y0888722D02*
Y0894722D01*
X0932310Y0816222D02*
Y0863222D01*
X0999810Y0857722D02*
X1001810Y0859722D01*
Y0871722D01*
Y0896222D02*
X1018810Y0879222D01*
X1049310D01*
X0990810Y0857722D02*
X0999810D01*
X0955310Y0861722D02*
X0999341D01*
X1064310Y0906222D02*
X1080810Y0922722D01*
X1044810Y0906222D02*
X1064310D01*
X1041310Y0908691D02*
Y0925222D01*
X1038841Y0927754D02*
X1055310Y0944222D01*
X1038841Y0912222D02*
Y0927754D01*
X1041310Y0925222D02*
X1053810Y0937722D01*
X1060810D01*
X1057310Y0849308D02*
Y0866722D01*
X1053224Y0845222D02*
X1057310Y0849308D01*
X1034810Y0845222D02*
X1053224D01*
X1095810Y0837222D02*
X1149110Y0783922D01*
X1169310D01*
X0996961Y0851874D02*
X0999810Y0854722D01*
X1055310Y0944222D02*
Y0944222D01*
X1061310Y0950222D01*
X1071310D01*
X0949810Y0867222D02*
X0955310Y0861722D01*
X1023310Y0861222D02*
X1049810D01*
X0864310Y0898222D02*
X0864873Y0897659D01*
X0953810Y0937222D02*
X0958810Y0932222D01*
Y0907222D02*
Y0932222D01*
X1047810Y0743222D02*
X1051810Y0747222D01*
Y0841222D01*
X1049810Y0750222D02*
Y0828222D01*
X1013310Y0743222D02*
X1047810D01*
X1043810Y0834222D02*
X1049810Y0828222D01*
X1102310Y0903222D02*
X1143510D01*
X1169310Y0877422D01*
X1097310Y0907222D02*
X1149510D01*
X1169310Y0887422D01*
X0859310Y0690222D02*
X0864310Y0685222D01*
X0863810Y0795222D02*
X0864310Y0794722D01*
X1011327Y0927740D02*
X1024639D01*
X1045810Y0746222D02*
X1049810Y0750222D01*
X1019310Y0748222D02*
Y0756222D01*
Y0748222D02*
X1021310Y0746222D01*
X1045810D01*
X1009310Y0747222D02*
Y0756222D01*
Y0747222D02*
X1013310Y0743222D01*
X1003310Y0794198D02*
X1008810Y0788697D01*
Y0776222D02*
Y0788697D01*
X0912310Y0609222D02*
X1125810D01*
X1157810Y0641222D01*
Y0674722D01*
X1161310Y0639222D02*
Y0693837D01*
X1161895Y0694422D01*
X1128310Y0606222D02*
X1161310Y0639222D01*
X1161895Y0694422D02*
X1169310D01*
X0899810Y0621722D02*
X0912310Y0609222D01*
X0903310Y0613222D02*
X0910310Y0606222D01*
X1128310D01*
X0899810Y0621722D02*
Y0709722D01*
X1137310Y0756722D02*
X1142310Y0751722D01*
X1184810D01*
X1189310Y0687222D02*
Y0747222D01*
X1184810Y0751722D02*
X1189310Y0747222D01*
X1169310Y0684422D02*
X1186510D01*
X1189310Y0687222D01*
X0994032Y0820709D02*
X0994046Y0820722D01*
X1003664D01*
X1032995D02*
X1032995Y0820722D01*
X1022955Y0820722D02*
X1032995D01*
D23*
X1040475Y0820722D02*
D03*
X1032995D02*
D03*
X0986552Y0820709D02*
D03*
X0994032D02*
D03*
D64*
X1003657Y0820716D02*
X1003664Y0820722D01*
X0970349Y0622912D02*
X0970539Y0622722D01*
X0980436D01*
X0996184D02*
X0996684Y0623222D01*
X1006810D01*
D65*
X1078310Y0684722D02*
X1087310Y0693722D01*
Y0730222D01*
D66*
X1028810Y0776222D02*
D03*
X1008810D02*
D03*
X1018810D02*
D03*
X1028310Y0801722D02*
D03*
X1018310D02*
D03*
X1008310D02*
D03*
X1029310Y0756222D02*
D03*
X1019310D02*
D03*
X1009310D02*
D03*
D67*
X0998810Y0776222D02*
D03*
X1032495Y0950222D02*
D03*
X1012810D02*
D03*
X0993125D02*
D03*
X0998310Y0801722D02*
D03*
X0999310Y0756222D02*
D03*
D68*
X1078310Y0664722D02*
D03*
Y0684722D02*
D03*
Y0704722D02*
D03*
D69*
Y0714722D02*
D03*
D70*
X0864310Y0804722D02*
D03*
Y0794722D02*
D03*
Y0784722D02*
D03*
Y0774722D02*
D03*
Y0908222D02*
D03*
Y0898222D02*
D03*
Y0888222D02*
D03*
Y0878222D02*
D03*
Y0695222D02*
D03*
Y0685222D02*
D03*
Y0675222D02*
D03*
Y0665222D02*
D03*
X1169310Y0654422D02*
D03*
Y0664422D02*
D03*
Y0674422D02*
D03*
Y0684422D02*
D03*
Y0867422D02*
D03*
Y0877422D02*
D03*
Y0887422D02*
D03*
Y0897422D02*
D03*
Y0793922D02*
D03*
Y0783922D02*
D03*
Y0773922D02*
D03*
Y0763922D02*
D03*
D71*
X0864310Y0764722D02*
D03*
Y0868222D02*
D03*
Y0655222D02*
D03*
X1169310Y0694422D02*
D03*
Y0907422D02*
D03*
Y0803922D02*
D03*
D72*
X1058810Y0622222D02*
D03*
X1078810D02*
D03*
D73*
X1022955Y0820722D02*
D03*
X1003664D02*
D03*
D74*
X0957810Y0867222D02*
D03*
X1095810Y0865722D02*
D03*
X1093310Y0867222D02*
D03*
X0941810Y0727222D02*
D03*
Y0730722D02*
D03*
Y0734722D02*
D03*
Y0738722D02*
D03*
Y0742222D02*
D03*
X0940810Y0773222D02*
D03*
X0944310D02*
D03*
X0947810D02*
D03*
X1073310Y0877722D02*
D03*
X1071310Y0879722D02*
D03*
X0977310Y0833722D02*
D03*
X0974310Y0831222D02*
D03*
X1049810Y0865722D02*
D03*
Y0868722D02*
D03*
Y0871722D02*
D03*
X1046810Y0729722D02*
D03*
Y0733722D02*
D03*
Y0737222D02*
D03*
X1050310D02*
D03*
Y0733722D02*
D03*
Y0729722D02*
D03*
X1053810D02*
D03*
Y0733722D02*
D03*
Y0737222D02*
D03*
X1077310Y0874222D02*
D03*
X1051810Y0876691D02*
D03*
X1090310Y0736222D02*
D03*
X1097810Y0648222D02*
D03*
X1089810Y0832722D02*
D03*
X1049310Y0883722D02*
D03*
X1030810Y0884722D02*
D03*
X1076310Y0852222D02*
D03*
X1082810Y0857222D02*
D03*
X1049310Y0897722D02*
D03*
X0997310Y0847222D02*
D03*
X1005310Y0866722D02*
D03*
X1017810D02*
D03*
X1023310Y0857722D02*
D03*
X1048635Y0840073D02*
D03*
X0869810Y0925222D02*
D03*
X0853810Y0868222D02*
D03*
X0899310Y0854722D02*
D03*
X0854310Y0707722D02*
D03*
X0938810Y0663722D02*
D03*
X0958810Y0792722D02*
D03*
X0954810D02*
D03*
X0948810Y0836722D02*
D03*
X0970454Y0851874D02*
D03*
X0963810Y0874222D02*
D03*
X0974810Y0887222D02*
D03*
X0932810Y0742722D02*
D03*
X0970310Y0902722D02*
D03*
X0994310Y0916222D02*
D03*
X1014810Y0907722D02*
D03*
X1001310Y0880222D02*
D03*
X1051810Y0841222D02*
D03*
X1049810Y0857569D02*
D03*
X1049310Y0879222D02*
D03*
X1043810Y0834222D02*
D03*
X0990810Y0857722D02*
D03*
X1044810Y0906222D02*
D03*
X0988810Y0894722D02*
D03*
X1041310Y0908691D02*
D03*
X1001310Y0890222D02*
D03*
X0998841Y0885779D02*
D03*
X1057310Y0822222D02*
D03*
X1038841Y0912222D02*
D03*
X0998310Y0873722D02*
D03*
X1011310Y0907722D02*
D03*
X1049810Y0854222D02*
D03*
Y0861222D02*
D03*
X1034810Y0845222D02*
D03*
X1002032Y0910191D02*
D03*
X0997104Y0908955D02*
D03*
X0939810Y0880222D02*
D03*
X0932310Y0816222D02*
D03*
X1001810Y0871722D02*
D03*
X0999341Y0861722D02*
D03*
X1080810Y0922722D02*
D03*
X1060810Y0937722D02*
D03*
X1057310Y0866722D02*
D03*
X1030810Y0871722D02*
D03*
X0999810Y0854722D02*
D03*
X1071310Y0950222D02*
D03*
X1012810Y0925222D02*
D03*
X0949810Y0867222D02*
D03*
X1023310Y0861222D02*
D03*
X0953810Y0937222D02*
D03*
X1095810Y0837222D02*
D03*
X1102310Y0903222D02*
D03*
X1097310Y0907222D02*
D03*
X0955810Y0857222D02*
D03*
X0952310Y0918222D02*
D03*
X0955310Y0915722D02*
D03*
X1024639Y0927740D02*
D03*
X1007810Y0928222D02*
D03*
X1157810Y0674722D02*
D03*
X0899810Y0709722D02*
D03*
X0903310Y0613222D02*
D03*
X1137310Y0756722D02*
D03*
D75*
X0970349Y0622912D02*
D03*
X1006810Y0623222D02*
D03*
D76*
X0980436Y0622722D02*
D03*
X0996184D02*
D03*
M02*
