G04*
G04 #@! TF.GenerationSoftware,Altium Limited,Altium Designer,21.3.2 (30)*
G04*
G04 Layer_Color=32896*
%FSAX25Y25*%
%MOIN*%
G70*
G04*
G04 #@! TF.SameCoordinates,58702111-1D51-4A1E-AB32-4F99163AF2B2*
G04*
G04*
G04 #@! TF.FilePolarity,Positive*
G04*
G01*
G75*
%ADD13C,0.01000*%
%ADD14C,0.00984*%
%ADD15C,0.00700*%
%ADD16C,0.00787*%
%ADD20C,0.00591*%
D13*
X0986660Y0796742D02*
X1039810D01*
X0986660Y0954222D02*
X1039810D01*
Y0796742D02*
Y0954222D01*
X0986660Y0796742D02*
Y0954222D01*
D14*
X1032987Y0958293D02*
G03*
X1032987Y0958293I-0000492J0000000D01*
G01*
X1013302D02*
G03*
X1013302Y0958293I-0000492J0000000D01*
G01*
X0993617D02*
G03*
X0993617Y0958293I-0000492J0000000D01*
G01*
D15*
X1035834Y0818022D02*
X1037634D01*
X1035834Y0823422D02*
X1037634D01*
X0989393Y0823409D02*
X0991193D01*
X0989393Y0818009D02*
X0991193D01*
D16*
X1038006Y0944711D02*
Y0955734D01*
X1026983Y0944711D02*
X1038006D01*
X1026983D02*
Y0955734D01*
X1026983Y0955734D02*
X1038006D01*
X1018322Y0944711D02*
Y0955734D01*
X1007298Y0944711D02*
X1018322D01*
X1007298D02*
Y0955734D01*
X1007298Y0955734D02*
X1018322D01*
X0998636Y0944711D02*
Y0955734D01*
X0987613Y0944711D02*
X0998636D01*
X0987613D02*
Y0955734D01*
X0987613Y0955734D02*
X0998636D01*
X1038325Y0817209D02*
X1043618D01*
X1029817D02*
X1035273D01*
X1029817Y0824209D02*
X1035273D01*
X1038325D02*
X1043618D01*
X1029817Y0817209D02*
Y0824209D01*
X1043618Y0817209D02*
Y0824209D01*
X0983410Y0824222D02*
X0988703D01*
X0991754D02*
X0997210D01*
X0991754Y0817222D02*
X0997210D01*
X0983410D02*
X0988703D01*
X0997210D02*
Y0824222D01*
X0983410Y0817222D02*
Y0824222D01*
X0989491Y0622722D02*
X0990278D01*
X0986341D02*
X0986735D01*
X0989491Y0620754D02*
Y0624297D01*
X0986735Y0622722D02*
X0989491Y0620754D01*
X0986735Y0622722D02*
X0989491Y0624297D01*
X0986735Y0620754D02*
Y0624691D01*
X0973546Y0616222D02*
Y0621722D01*
Y0616222D02*
X1002810D01*
X0973546Y0621722D02*
X0974310D01*
Y0616222D02*
Y0621722D01*
Y0623722D02*
Y0629222D01*
X0973546Y0623722D02*
X0974310D01*
X1002810Y0616222D02*
Y0618096D01*
X0973546Y0623722D02*
Y0629222D01*
X1002810Y0627348D02*
Y0629222D01*
X0973546D02*
X1002810D01*
X1003310Y0796722D02*
Y0806722D01*
X0993310Y0796722D02*
Y0806722D01*
Y0796722D02*
X1033310D01*
X0993310Y0806722D02*
X1033310D01*
Y0796722D02*
Y0806722D01*
D20*
X1175794Y0649313D02*
Y0650100D01*
Y0649707D01*
X1178155D01*
X1177762Y0649313D01*
X1175794Y0652855D02*
Y0651281D01*
X1177368Y0652855D01*
X1177762D01*
X1178155Y0652462D01*
Y0651674D01*
X1177762Y0651281D01*
X1175400Y0653642D02*
Y0655217D01*
X1175794Y0657578D02*
Y0656004D01*
X1177368Y0657578D01*
X1177762D01*
X1178155Y0657184D01*
Y0656397D01*
X1177762Y0656004D01*
X1175794Y0660727D02*
Y0661514D01*
Y0661120D01*
X1178155D01*
X1177762Y0660727D01*
X1175794Y0664269D02*
Y0662695D01*
X1177368Y0664269D01*
X1177762D01*
X1178155Y0663875D01*
Y0663088D01*
X1177762Y0662695D01*
X1175400Y0665056D02*
Y0666630D01*
X1175794Y0667417D02*
Y0668204D01*
Y0667811D01*
X1178155D01*
X1177762Y0667417D01*
X1175794Y0671747D02*
Y0672534D01*
Y0672140D01*
X1178155D01*
X1177762Y0671747D01*
X1175794Y0673714D02*
Y0674502D01*
Y0674108D01*
X1178155D01*
X1177762Y0673714D01*
X1175400Y0675682D02*
Y0677257D01*
X1175794Y0678044D02*
Y0678831D01*
Y0678437D01*
X1178155D01*
X1177762Y0678044D01*
X1176187Y0682373D02*
X1175794Y0682767D01*
Y0683554D01*
X1176187Y0683947D01*
X1177762D01*
X1178155Y0683554D01*
Y0682767D01*
X1177762Y0682373D01*
X1177368D01*
X1176974Y0682767D01*
Y0683947D01*
X1175400Y0684734D02*
Y0686309D01*
X1175794Y0688670D02*
Y0687096D01*
X1177368Y0688670D01*
X1177762D01*
X1178155Y0688277D01*
Y0687490D01*
X1177762Y0687096D01*
X1176187Y0691819D02*
X1175794Y0692212D01*
Y0693000D01*
X1176187Y0693393D01*
X1177762D01*
X1178155Y0693000D01*
Y0692212D01*
X1177762Y0691819D01*
X1177368D01*
X1176974Y0692212D01*
Y0693393D01*
X1175400Y0694180D02*
Y0695755D01*
X1175794Y0696542D02*
Y0697329D01*
Y0696935D01*
X1178155D01*
X1177762Y0696542D01*
X1179836Y0759437D02*
X1180492Y0758781D01*
Y0757469D01*
X1179836Y0756813D01*
X1177212D01*
X1176556Y0757469D01*
Y0758781D01*
X1177212Y0759437D01*
X1178524D01*
Y0758125D01*
X1180492Y0767308D02*
Y0764684D01*
X1178524D01*
X1179180Y0765996D01*
Y0766652D01*
X1178524Y0767308D01*
X1177212D01*
X1176556Y0766652D01*
Y0765340D01*
X1177212Y0764684D01*
X1180492Y0768620D02*
X1176556D01*
Y0770588D01*
X1177212Y0771244D01*
X1177868D01*
X1178524Y0770588D01*
Y0768620D01*
Y0770588D01*
X1179180Y0771244D01*
X1179836D01*
X1180492Y0770588D01*
Y0768620D01*
Y0779115D02*
Y0776492D01*
X1178524D01*
X1179180Y0777804D01*
Y0778460D01*
X1178524Y0779115D01*
X1177212D01*
X1176556Y0778460D01*
Y0777148D01*
X1177212Y0776492D01*
X1176556Y0780427D02*
X1179180D01*
X1180492Y0781739D01*
X1179180Y0783051D01*
X1176556D01*
X1178524D01*
Y0780427D01*
X1180492Y0788299D02*
X1177868D01*
X1176556Y0789611D01*
X1177868Y0790923D01*
X1180492D01*
X1176556Y0796170D02*
Y0797482D01*
Y0796826D01*
X1180492D01*
X1179836Y0796170D01*
Y0799450D02*
X1180492Y0800106D01*
Y0801418D01*
X1179836Y0802074D01*
X1177212D01*
X1176556Y0801418D01*
Y0800106D01*
X1177212Y0799450D01*
X1179836D01*
X1175900Y0803386D02*
Y0806010D01*
X1176556Y0807322D02*
Y0808634D01*
Y0807978D01*
X1180492D01*
X1179836Y0807322D01*
X1179336Y0865437D02*
X1179992Y0864781D01*
Y0863469D01*
X1179336Y0862813D01*
X1176712D01*
X1176056Y0863469D01*
Y0864781D01*
X1176712Y0865437D01*
X1178024D01*
Y0864125D01*
X1176056Y0872652D02*
X1179992D01*
X1178024Y0870685D01*
Y0873308D01*
X1179992Y0874620D02*
X1176056D01*
Y0876588D01*
X1176712Y0877244D01*
X1177368D01*
X1178024Y0876588D01*
Y0874620D01*
Y0876588D01*
X1178680Y0877244D01*
X1179336D01*
X1179992Y0876588D01*
Y0874620D01*
X1176056Y0884459D02*
X1179992D01*
X1178024Y0882492D01*
Y0885116D01*
X1176056Y0886427D02*
X1178680D01*
X1179992Y0887739D01*
X1178680Y0889051D01*
X1176056D01*
X1178024D01*
Y0886427D01*
X1179992Y0894299D02*
X1177368D01*
X1176056Y0895611D01*
X1177368Y0896923D01*
X1179992D01*
X1179336Y0902170D02*
X1179992Y0902826D01*
Y0904138D01*
X1179336Y0904794D01*
X1178680D01*
X1178024Y0904138D01*
X1177368Y0904794D01*
X1176712D01*
X1176056Y0904138D01*
Y0902826D01*
X1176712Y0902170D01*
X1177368D01*
X1178024Y0902826D01*
X1178680Y0902170D01*
X1179336D01*
X1178024Y0902826D02*
Y0904138D01*
X1175400Y0906106D02*
Y0908730D01*
X1176056Y0912010D02*
X1179992D01*
X1178024Y0910042D01*
Y0912666D01*
X0853783Y0696008D02*
X0853127Y0696664D01*
Y0697976D01*
X0853783Y0698632D01*
X0856407D01*
X0857063Y0697976D01*
Y0696664D01*
X0856407Y0696008D01*
X0855095D01*
Y0697320D01*
X0853783Y0690760D02*
X0853127Y0690104D01*
Y0688793D01*
X0853783Y0688137D01*
X0854439D01*
X0855095Y0688793D01*
Y0689448D01*
Y0688793D01*
X0855751Y0688137D01*
X0856407D01*
X0857063Y0688793D01*
Y0690104D01*
X0856407Y0690760D01*
X0853127Y0686825D02*
X0857063D01*
Y0684857D01*
X0856407Y0684201D01*
X0855751D01*
X0855095Y0684857D01*
Y0686825D01*
Y0684857D01*
X0854439Y0684201D01*
X0853783D01*
X0853127Y0684857D01*
Y0686825D01*
X0853783Y0678953D02*
X0853127Y0678297D01*
Y0676985D01*
X0853783Y0676329D01*
X0854439D01*
X0855095Y0676985D01*
Y0677641D01*
Y0676985D01*
X0855751Y0676329D01*
X0856407D01*
X0857063Y0676985D01*
Y0678297D01*
X0856407Y0678953D01*
X0857063Y0675017D02*
X0854439D01*
X0853127Y0673706D01*
X0854439Y0672394D01*
X0857063D01*
X0855095D01*
Y0675017D01*
X0853127Y0667146D02*
X0855751D01*
X0857063Y0665834D01*
X0855751Y0664522D01*
X0853127D01*
X0853783Y0659274D02*
X0853127Y0658618D01*
Y0657307D01*
X0853783Y0656651D01*
X0854439D01*
X0855095Y0657307D01*
X0855751Y0656651D01*
X0856407D01*
X0857063Y0657307D01*
Y0658618D01*
X0856407Y0659274D01*
X0855751D01*
X0855095Y0658618D01*
X0854439Y0659274D01*
X0853783D01*
X0855095Y0658618D02*
Y0657307D01*
X0857719Y0655339D02*
Y0652715D01*
X0853783Y0651403D02*
X0853127Y0650747D01*
Y0649435D01*
X0853783Y0648779D01*
X0854439D01*
X0855095Y0649435D01*
Y0650091D01*
Y0649435D01*
X0855751Y0648779D01*
X0856407D01*
X0857063Y0649435D01*
Y0650747D01*
X0856407Y0651403D01*
X0853283Y0806508D02*
X0852627Y0807164D01*
Y0808476D01*
X0853283Y0809132D01*
X0855907D01*
X0856563Y0808476D01*
Y0807164D01*
X0855907Y0806508D01*
X0854595D01*
Y0807820D01*
X0856563Y0798637D02*
Y0801260D01*
X0853939Y0798637D01*
X0853283D01*
X0852627Y0799293D01*
Y0800605D01*
X0853283Y0801260D01*
X0852627Y0797325D02*
X0856563D01*
Y0795357D01*
X0855907Y0794701D01*
X0855251D01*
X0854595Y0795357D01*
Y0797325D01*
Y0795357D01*
X0853939Y0794701D01*
X0853283D01*
X0852627Y0795357D01*
Y0797325D01*
X0856563Y0786829D02*
Y0789453D01*
X0853939Y0786829D01*
X0853283D01*
X0852627Y0787485D01*
Y0788797D01*
X0853283Y0789453D01*
X0856563Y0785518D02*
X0853939D01*
X0852627Y0784206D01*
X0853939Y0782894D01*
X0856563D01*
X0854595D01*
Y0785518D01*
X0852627Y0777646D02*
X0855251D01*
X0856563Y0776334D01*
X0855251Y0775022D01*
X0852627D01*
X0853283Y0769774D02*
X0852627Y0769118D01*
Y0767807D01*
X0853283Y0767151D01*
X0853939D01*
X0854595Y0767807D01*
X0855251Y0767151D01*
X0855907D01*
X0856563Y0767807D01*
Y0769118D01*
X0855907Y0769774D01*
X0855251D01*
X0854595Y0769118D01*
X0853939Y0769774D01*
X0853283D01*
X0854595Y0769118D02*
Y0767807D01*
X0857219Y0765839D02*
Y0763215D01*
X0856563Y0759279D02*
Y0761903D01*
X0853939Y0759279D01*
X0853283D01*
X0852627Y0759935D01*
Y0761247D01*
X0853283Y0761903D01*
X0853783Y0909008D02*
X0853127Y0909664D01*
Y0910976D01*
X0853783Y0911632D01*
X0856407D01*
X0857063Y0910976D01*
Y0909664D01*
X0856407Y0909008D01*
X0855095D01*
Y0910320D01*
X0857063Y0903760D02*
Y0902448D01*
Y0903104D01*
X0853127D01*
X0853783Y0903760D01*
X0853127Y0900481D02*
X0857063D01*
Y0898513D01*
X0856407Y0897857D01*
X0855751D01*
X0855095Y0898513D01*
Y0900481D01*
Y0898513D01*
X0854439Y0897857D01*
X0853783D01*
X0853127Y0898513D01*
Y0900481D01*
X0857063Y0892609D02*
Y0891297D01*
Y0891953D01*
X0853127D01*
X0853783Y0892609D01*
X0857063Y0889329D02*
X0854439D01*
X0853127Y0888017D01*
X0854439Y0886706D01*
X0857063D01*
X0855095D01*
Y0889329D01*
X0853127Y0881458D02*
X0855751D01*
X0857063Y0880146D01*
X0855751Y0878834D01*
X0853127D01*
X0853783Y0873586D02*
X0853127Y0872931D01*
Y0871618D01*
X0853783Y0870963D01*
X0854439D01*
X0855095Y0871618D01*
X0855751Y0870963D01*
X0856407D01*
X0857063Y0871618D01*
Y0872931D01*
X0856407Y0873586D01*
X0855751D01*
X0855095Y0872931D01*
X0854439Y0873586D01*
X0853783D01*
X0855095Y0872931D02*
Y0871618D01*
X0857719Y0869651D02*
Y0867027D01*
X0857063Y0865715D02*
Y0864403D01*
Y0865059D01*
X0853127D01*
X0853783Y0865715D01*
X1033597Y0941042D02*
Y0942616D01*
X1032810Y0943403D01*
X1032022Y0942616D01*
Y0941042D01*
Y0942222D01*
X1033597D01*
X1013597Y0943403D02*
Y0941042D01*
X1012416D01*
X1012022Y0941435D01*
Y0941829D01*
X1012416Y0942222D01*
X1013597D01*
X1012416D01*
X1012022Y0942616D01*
Y0943010D01*
X1012416Y0943403D01*
X1013597D01*
X0992023Y0942510D02*
X0992416Y0942903D01*
X0993203D01*
X0993597Y0942510D01*
Y0940935D01*
X0993203Y0940542D01*
X0992416D01*
X0992023Y0940935D01*
Y0941722D01*
X0992810D01*
X1032335Y0829190D02*
X1032729Y0829584D01*
X1033516D01*
X1033910Y0829190D01*
Y0827616D01*
X1033516Y0827222D01*
X1032729D01*
X1032335Y0827616D01*
X1029974Y0827222D02*
X1031548D01*
X1029974Y0828797D01*
Y0829190D01*
X1030367Y0829584D01*
X1031155D01*
X1031548Y0829190D01*
X0985135D02*
X0985529Y0829584D01*
X0986316D01*
X0986710Y0829190D01*
Y0827616D01*
X0986316Y0827222D01*
X0985529D01*
X0985135Y0827616D01*
X0984348Y0827222D02*
X0983561D01*
X0983955D01*
Y0829584D01*
X0984348Y0829190D01*
X0976910Y0634684D02*
Y0632322D01*
X0975729D01*
X0975335Y0632716D01*
Y0634290D01*
X0975729Y0634684D01*
X0976910D01*
X0974548Y0632322D02*
X0973761D01*
X0974155D01*
Y0634684D01*
X0974548Y0634290D01*
X1031535Y0812084D02*
X1032323D01*
X1031929D01*
Y0810116D01*
X1032323Y0809722D01*
X1032716D01*
X1033110Y0810116D01*
X1030748Y0809722D02*
Y0812084D01*
X1029568D01*
X1029174Y0811690D01*
Y0810903D01*
X1029568Y0810510D01*
X1030748D01*
X1026812Y0809722D02*
X1028387D01*
X1026812Y0811297D01*
Y0811690D01*
X1027206Y0812084D01*
X1027993D01*
X1028387Y0811690D01*
M02*
