M48
;Layer_Color=9474304
;FILE_FORMAT=2:5
INCH
;TYPE=PLATED
T1F00S00C0.01772
T2F00S00C0.02800
T3F00S00C0.03150
T4F00S00C0.03500
T5F00S00C0.03937
T6F00S00C0.04331
T7F00S00C0.05906
%
T01
X0280500Y0090500
X0316000Y0141000
X0475000Y0125500
X0535000Y0152000
X0514500Y0234000
X0467500Y0213500
X0431000Y0214500
X0427500
X0424000
Y0211000
X0427500
X0431000
Y0207000
X0427500
X0424000
X0434500Y0299500
X0421000Y0311500
X0467000Y0310000
X0354500Y0311000
X0351500Y0308500
X0336000Y0270000
X0332000
X0325000Y0250500
X0321500
X0318000
X0319000Y0219500
Y0216000
Y0212000
Y0208000
Y0204500
X0310000Y0220000
X0277000Y0187000
X0231500Y0185000
X0309500Y0293500
X0276500Y0332000
X0231000Y0345500
X0247000Y0402500
X0329500Y0395500
X0332500Y0393000
X0331000Y0414500
X0347500Y0380000
X0352000Y0364500
X0366000Y0372000
X0378500Y0367500
X0376031Y0363056
X0378500Y0357500
X0379000Y0349000
X0375500Y0351000
X0376532Y0339000
X0377000Y0332000
X0374500Y0324500
X0368000Y0335000
X0382500Y0344000
X0395000
X0400500Y0338500
Y0335000
X0408000Y0349000
Y0362000
X0426500Y0361000
Y0356500
X0429000Y0353969
X0427000Y0349000
Y0346000
Y0343000
Y0338500
Y0334846
Y0331500
X0429000Y0318500
X0425825Y0317351
X0412000Y0322500
X0434500Y0344000
X0450500Y0355000
X0448500Y0357000
X0454500Y0351500
X0460000Y0334500
X0453500Y0329500
X0426500Y0375000
X0422000Y0383500
X0418500Y0385968
X0416032Y0389500
X0392000Y0385000
X0388500
X0379223Y0387469
X0374295Y0386233
X0371500Y0393500
X0385000Y0405500
X0390000Y0402500
X0401829Y0405017
X0438000Y0415000
X0448500Y0427500
X0458000Y0400000
X0341000Y0351500
X0335000Y0344500
X0327000
X0333000Y0334500
X0347645Y0329152
X0326000Y0314000
X0317000Y0357500
X0470500Y0344500
X0473000Y0343000
Y0314500
X0474500Y0384500
X0479500Y0380500
T02
X0347539Y0100190
X0384000Y0100500
T03
X0376000Y0253500
X0386000
X0396000
X0406000
X0400146Y0298000
X0380854
T04
X0241500Y0132500
Y0142500
Y0152500
X0546500Y0151700
Y0141700
Y0131700
Y0161700
Y0171700
Y0241200
Y0251200
Y0261200
Y0271200
Y0281200
X0241500Y0282000
Y0272000
Y0262000
Y0252000
Y0242000
Y0172500
Y0162500
Y0345500
Y0355500
Y0365500
Y0375500
Y0385500
X0546500Y0384700
Y0374700
Y0364700
Y0354700
Y0344700
T05
X0455500Y0142000
Y0162000
Y0182000
Y0192000
T06
X0376500Y0233500
X0386500
X0396500
X0406500
X0405500Y0279000
X0395500
X0385500
X0375500
X0370315Y0427500
X0390000
X0409685
T07
X0436000Y0099500
X0456000
M30
