G04*
G04 #@! TF.GenerationSoftware,Altium Limited,Altium Designer,21.3.2 (30)*
G04*
G04 Layer_Physical_Order=1*
G04 Layer_Color=255*
%FSAX25Y25*%
%MOIN*%
G70*
G04*
G04 #@! TF.SameCoordinates,58702111-1D51-4A1E-AB32-4F99163AF2B2*
G04*
G04*
G04 #@! TF.FilePolarity,Positive*
G04*
G01*
G75*
%ADD13C,0.01000*%
%ADD22R,0.05512X0.04724*%
%ADD23R,0.04724X0.05512*%
%ADD24R,0.05000X0.05500*%
%ADD25R,0.07874X0.15748*%
%ADD26R,0.01200X0.04700*%
%ADD27R,0.04700X0.01200*%
%ADD28R,0.05512X0.05118*%
%ADD29R,0.06700X0.02100*%
%ADD30R,0.02100X0.06700*%
%ADD31R,0.39370X0.23622*%
%ADD32R,0.03937X0.12000*%
%ADD33R,0.39370X0.27559*%
%ADD34R,0.12992X0.09449*%
%ADD35R,0.03937X0.09449*%
%ADD36R,0.04724X0.03150*%
%ADD37R,0.05500X0.05000*%
%ADD64C,0.01968*%
%ADD65C,0.03150*%
%ADD66C,0.06299*%
%ADD67R,0.06299X0.06299*%
%ADD68C,0.05906*%
%ADD69R,0.05906X0.05906*%
%ADD70C,0.06000*%
%ADD71R,0.06000X0.06000*%
%ADD72C,0.12000*%
%ADD73C,0.07500*%
%ADD74C,0.02756*%
%ADD75C,0.05000*%
G36*
X1120810Y0928146D02*
X1120348Y0927955D01*
X1118355Y0929948D01*
X1117834Y0930296D01*
X1117219Y0930419D01*
X1117219Y0930419D01*
X1112129D01*
Y0931963D01*
X1105436D01*
Y0925663D01*
X1112129D01*
Y0927207D01*
X1116554D01*
X1119204Y0924557D01*
Y0901328D01*
X1103906D01*
X1103699Y0901828D01*
X1103979Y0902107D01*
X1104278Y0902831D01*
Y0903614D01*
X1103979Y0904338D01*
X1103425Y0904891D01*
X1103422Y0904893D01*
Y0917722D01*
X1103395Y0917858D01*
X1103855Y0918104D01*
X1103933Y0918027D01*
X1104294Y0917786D01*
X1104719Y0917701D01*
X1104719Y0917701D01*
X1105436D01*
Y0915663D01*
X1112129D01*
Y0921963D01*
X1105436D01*
Y0920376D01*
X1104936Y0920169D01*
X1099922Y0925183D01*
Y0945222D01*
X1099922Y0945222D01*
X1099837Y0945648D01*
X1099596Y0946009D01*
X1099596Y0946009D01*
X1094835Y0950769D01*
X1094475Y0951010D01*
X1094049Y0951095D01*
X1094049Y0951095D01*
X1089020D01*
Y0953329D01*
X1083114D01*
Y0946637D01*
X1089020D01*
Y0948871D01*
X1093588D01*
X1097698Y0944762D01*
Y0924722D01*
X1097698Y0924722D01*
X1097725Y0924587D01*
X1097264Y0924341D01*
X1094096Y0927509D01*
X1094096Y0927509D01*
X1093857Y0927748D01*
X1093496Y0927989D01*
X1093070Y0928074D01*
X1092950Y0928549D01*
Y0929063D01*
X1085069D01*
Y0925782D01*
X1092678D01*
X1101198Y0917262D01*
Y0904893D01*
X1101195Y0904891D01*
X1100641Y0904338D01*
X1100341Y0903614D01*
Y0902831D01*
X1100641Y0902107D01*
X1100920Y0901828D01*
X1100713Y0901328D01*
X1079275D01*
X1072550Y0908053D01*
Y0909063D01*
X1064669D01*
Y0905782D01*
X1070280D01*
X1074271Y0901790D01*
X1074080Y0901328D01*
X1058975D01*
X1043645Y0916658D01*
X1043124Y0917006D01*
X1042510Y0917128D01*
X1042510Y0917128D01*
X1029450D01*
Y0919463D01*
X1026169D01*
Y0911582D01*
X1025772Y0911334D01*
X1024848D01*
X1024450Y0911582D01*
X1024450Y0911834D01*
Y0919463D01*
X1021169D01*
Y0911834D01*
X1021169Y0911582D01*
X1020772Y0911334D01*
X1019848D01*
X1019450Y0911582D01*
X1019450Y0911834D01*
Y0919463D01*
X1016169D01*
Y0911834D01*
X1016169Y0911582D01*
X1015772Y0911334D01*
X1014848D01*
X1014450Y0911582D01*
X1014450Y0911834D01*
Y0919463D01*
X1011169D01*
Y0911834D01*
X1011169Y0911582D01*
X1010772Y0911334D01*
X1009848D01*
X1009450Y0911582D01*
X1009450Y0911834D01*
Y0919463D01*
X1006169D01*
Y0911582D01*
X1008481D01*
X1008633Y0911082D01*
X1008523Y0911009D01*
X1008523Y0911009D01*
X1006618Y0909103D01*
X1006377Y0908742D01*
X1006292Y0908317D01*
X1006292Y0908317D01*
Y0904675D01*
X0994736D01*
Y0907175D01*
X0994652Y0907601D01*
X0994411Y0907962D01*
X0994411Y0907962D01*
X0985900Y0916472D01*
Y0919603D01*
X0985879Y0919710D01*
Y0924418D01*
X0979186D01*
Y0918512D01*
X0983677D01*
Y0916012D01*
X0983677Y0916012D01*
X0983761Y0915586D01*
X0984002Y0915225D01*
X0992513Y0906715D01*
Y0904675D01*
X0992434D01*
Y0898794D01*
X0994481D01*
Y0895350D01*
X0993981Y0895143D01*
X0990831Y0898294D01*
X0990875Y0898794D01*
X0990878D01*
Y0904675D01*
X0990654D01*
X0990615Y0904870D01*
X0990374Y0905231D01*
X0990374Y0905231D01*
X0989096Y0906509D01*
X0988735Y0906750D01*
X0988310Y0906834D01*
X0988310Y0906834D01*
X0969379D01*
X0968953Y0906750D01*
X0968593Y0906509D01*
X0968593Y0906509D01*
X0958311Y0896227D01*
X0958287Y0896222D01*
X0953580D01*
Y0889530D01*
X0959485D01*
Y0894286D01*
X0959575Y0894346D01*
X0967879Y0902650D01*
X0968341Y0902459D01*
Y0902331D01*
X0968641Y0901607D01*
X0969195Y0901054D01*
X0969198Y0901052D01*
Y0878222D01*
X0969198Y0878222D01*
X0969282Y0877797D01*
X0969523Y0877436D01*
X0978492Y0868468D01*
X0978492Y0868468D01*
X0978853Y0868227D01*
X0979278Y0868142D01*
X0979857D01*
Y0866095D01*
Y0861401D01*
X0979395Y0861209D01*
X0978922Y0861683D01*
Y0864722D01*
X0978837Y0865148D01*
X0978596Y0865509D01*
X0978596Y0865509D01*
X0965112Y0878992D01*
X0964752Y0879233D01*
X0964326Y0879318D01*
X0964326Y0879318D01*
X0959485D01*
Y0883808D01*
X0953580D01*
Y0877115D01*
X0958287D01*
X0958395Y0877094D01*
X0963866D01*
X0964307Y0876653D01*
X0964296Y0876608D01*
X0964062Y0876191D01*
X0963418D01*
X0962695Y0875891D01*
X0962141Y0875338D01*
X0961841Y0874614D01*
Y0873831D01*
X0962141Y0873107D01*
X0962695Y0872554D01*
X0963418Y0872254D01*
X0964201D01*
X0964204Y0872255D01*
X0972198Y0864262D01*
Y0853622D01*
X0971698Y0853415D01*
X0971569Y0853543D01*
X0970846Y0853843D01*
X0970063D01*
X0969339Y0853543D01*
X0968895Y0853099D01*
X0966950D01*
Y0853741D01*
X0959069D01*
Y0850460D01*
X0966950D01*
Y0850875D01*
X0968737D01*
X0968785Y0850759D01*
X0969339Y0850206D01*
X0970063Y0849906D01*
X0970846D01*
X0971569Y0850206D01*
X0971698Y0850334D01*
X0972198Y0850127D01*
Y0841433D01*
X0967412Y0836647D01*
X0966950Y0836839D01*
Y0838741D01*
X0959069D01*
Y0838023D01*
X0950293D01*
X0949925Y0838391D01*
X0949201Y0838691D01*
X0948418D01*
X0947695Y0838391D01*
X0947141Y0837838D01*
X0947050Y0837619D01*
X0946550Y0837718D01*
Y0838741D01*
X0942699D01*
X0942544Y0838772D01*
X0942544Y0838772D01*
X0937531D01*
X0928836Y0847467D01*
X0928315Y0847815D01*
X0928184Y0847841D01*
Y0851056D01*
X0921491D01*
Y0849512D01*
X0914415D01*
Y0893722D01*
Y0916057D01*
X0916750Y0918392D01*
X0921491D01*
Y0916848D01*
X0925913D01*
X0930317Y0912444D01*
X0930322Y0912436D01*
X0936406Y0906353D01*
X0936927Y0906005D01*
X0937541Y0905882D01*
X0937541Y0905882D01*
X0938669D01*
Y0905782D01*
X0946550D01*
Y0909063D01*
X0942699D01*
X0942544Y0909094D01*
X0942544Y0909094D01*
X0938206D01*
X0932599Y0914701D01*
X0932593Y0914709D01*
X0932593Y0914710D01*
X0928184Y0919119D01*
Y0923148D01*
X0921491D01*
Y0921604D01*
X0916085D01*
X0916085Y0921604D01*
X0915471Y0921482D01*
X0914950Y0921133D01*
X0914950Y0921133D01*
X0913272Y0919455D01*
X0912810Y0919646D01*
Y0958451D01*
X1120810D01*
Y0928146D01*
D02*
G37*
G36*
X1176968Y0958290D02*
X1179414Y0957804D01*
X1181774Y0957003D01*
X1184011Y0955900D01*
X1186084Y0954515D01*
X1187958Y0952871D01*
X1189602Y0950996D01*
X1190987Y0948923D01*
X1192090Y0946687D01*
X1192891Y0944326D01*
X1193377Y0941881D01*
X1193540Y0939404D01*
X1193538Y0939393D01*
Y0624433D01*
X1193540Y0624422D01*
X1193377Y0621945D01*
X1192891Y0619499D01*
X1192090Y0617138D01*
X1190987Y0614902D01*
X1189602Y0612829D01*
X1187958Y0610955D01*
X1186084Y0609311D01*
X1184011Y0607926D01*
X1181774Y0606823D01*
X1179414Y0606022D01*
X1176968Y0605535D01*
X1174491Y0605373D01*
X1174480Y0605375D01*
X0897310D01*
Y0605429D01*
X0859310D01*
Y0605429D01*
X0858658D01*
X0857403Y0605511D01*
X0856667Y0605608D01*
X0854587Y0606022D01*
X0852226Y0606823D01*
X0849990Y0607926D01*
X0847917Y0609311D01*
X0846042Y0610955D01*
X0844398Y0612829D01*
X0843013Y0614902D01*
X0841910Y0617138D01*
X0841109Y0619499D01*
X0840623Y0621945D01*
X0840460Y0624422D01*
X0840462Y0624433D01*
Y0939393D01*
X0840460Y0939404D01*
X0840623Y0941881D01*
X0841109Y0944326D01*
X0841910Y0946687D01*
X0843013Y0948923D01*
X0844398Y0950996D01*
X0846042Y0952871D01*
X0847917Y0954515D01*
X0849990Y0955900D01*
X0852226Y0957003D01*
X0854587Y0957804D01*
X0857032Y0958290D01*
X0859509Y0958453D01*
X0859520Y0958451D01*
X0905810D01*
Y0894312D01*
X0890360D01*
X0889985Y0894615D01*
Y0901308D01*
X0884080D01*
Y0894615D01*
X0885921D01*
Y0891786D01*
X0884080D01*
Y0885093D01*
X0889985D01*
Y0891785D01*
X0890360Y0892089D01*
X0905810D01*
Y0809074D01*
X0877682D01*
Y0810547D01*
X0879895D01*
Y0816452D01*
X0873203D01*
Y0810547D01*
X0875458D01*
Y0807962D01*
Y0805398D01*
X0873224D01*
Y0799493D01*
X0879917D01*
Y0805398D01*
X0877682D01*
Y0806850D01*
X0905810D01*
Y0681824D01*
X0881303D01*
X0880896Y0682047D01*
Y0687952D01*
X0874203D01*
Y0682047D01*
X0876458D01*
Y0679398D01*
X0874224D01*
Y0673492D01*
X0880917D01*
Y0679398D01*
X0881333Y0679600D01*
X0905810D01*
Y0679274D01*
X0910849Y0679305D01*
X0911204Y0678953D01*
Y0635722D01*
X0911204Y0635722D01*
X0911326Y0635108D01*
X0911674Y0634587D01*
X0915676Y0630586D01*
X0915765Y0630497D01*
X0916286Y0630149D01*
X0916900Y0630026D01*
X0921491D01*
Y0628482D01*
X0928184D01*
Y0634782D01*
X0921491D01*
Y0633238D01*
X0917565D01*
X0914415Y0636387D01*
Y0679327D01*
D01*
Y0680222D01*
Y0702118D01*
X0921491D01*
Y0700574D01*
X0928184D01*
Y0706873D01*
X0921491D01*
Y0705329D01*
X0914415D01*
Y0722224D01*
X0916344Y0722226D01*
X0916698Y0721873D01*
Y0715723D01*
X0916698Y0715722D01*
X0916782Y0715297D01*
X0917023Y0714936D01*
X0919022Y0712937D01*
X0919383Y0712696D01*
X0919809Y0712611D01*
X0921491D01*
Y0710574D01*
X0928184D01*
Y0716873D01*
X0921491D01*
Y0714835D01*
X0920269D01*
X0918922Y0716183D01*
Y0722229D01*
X0921137Y0722231D01*
X0921491Y0721877D01*
Y0720574D01*
X0928184D01*
Y0722238D01*
X0985928Y0722297D01*
X0986282Y0721943D01*
Y0715175D01*
X0995337D01*
Y0722306D01*
X1067042Y0722379D01*
X1067234Y0721917D01*
X1059145Y0713828D01*
X1014310D01*
X1014310Y0713828D01*
X1013695Y0713706D01*
X1013174Y0713358D01*
X1002227Y0702411D01*
X0995337D01*
Y0709270D01*
X0986282D01*
Y0692341D01*
X0995337D01*
Y0699199D01*
X1002892D01*
X1002892Y0699199D01*
X1003507Y0699322D01*
X1004028Y0699670D01*
X1014975Y0710617D01*
X1059810D01*
X1059810Y0710617D01*
X1060424Y0710739D01*
X1060945Y0711087D01*
X1072242Y0722384D01*
X1081368Y0722394D01*
X1086204Y0717557D01*
Y0680022D01*
Y0668888D01*
X1083645Y0666328D01*
X1081474D01*
X1081145Y0666898D01*
X1080485Y0667558D01*
X1079677Y0668024D01*
X1078776Y0668266D01*
X1077843D01*
X1076942Y0668024D01*
X1076134Y0667558D01*
X1075474Y0666898D01*
X1075008Y0666090D01*
X1074766Y0665189D01*
Y0664256D01*
X1075008Y0663355D01*
X1075474Y0662547D01*
X1076134Y0661887D01*
X1076942Y0661421D01*
X1077843Y0661179D01*
X1078776D01*
X1079677Y0661421D01*
X1080485Y0661887D01*
X1081145Y0662547D01*
X1081474Y0663117D01*
X1084310D01*
X1084310Y0663117D01*
X1084924Y0663239D01*
X1085445Y0663587D01*
X1088945Y0667087D01*
X1088945Y0667087D01*
X1089293Y0667608D01*
X1089415Y0668222D01*
X1089415Y0668223D01*
Y0680396D01*
Y0718223D01*
X1089293Y0718837D01*
X1088945Y0719358D01*
X1088945Y0719358D01*
X1086366Y0721937D01*
X1086557Y0722399D01*
X1095844Y0722408D01*
X1096198Y0722055D01*
Y0715898D01*
X1094224D01*
Y0709993D01*
X1100917D01*
Y0715898D01*
X1098422D01*
Y0722411D01*
X1105082Y0722417D01*
X1105436Y0722064D01*
Y0721755D01*
X1112129D01*
Y0722425D01*
X1118850Y0722432D01*
X1119204Y0722078D01*
Y0716510D01*
X1112129D01*
Y0718054D01*
X1105436D01*
Y0711755D01*
X1112129D01*
Y0713299D01*
X1119204D01*
Y0680223D01*
Y0645388D01*
X1118235Y0644419D01*
X1112129D01*
Y0645963D01*
X1105436D01*
Y0639663D01*
X1112129D01*
Y0641207D01*
X1118900D01*
X1118900Y0641207D01*
X1119515Y0641330D01*
X1120036Y0641678D01*
X1120699Y0642341D01*
X1121945Y0643587D01*
X1122293Y0644108D01*
X1122415Y0644722D01*
X1122415Y0644723D01*
Y0680598D01*
X1128310Y0680634D01*
Y0752610D01*
X1141310D01*
X1141310Y0752610D01*
X1141735Y0752695D01*
X1142096Y0752936D01*
X1152631Y0763471D01*
X1155208D01*
X1155208Y0763471D01*
X1155316Y0763492D01*
X1160417D01*
Y0769398D01*
X1158182D01*
Y0772547D01*
X1160396D01*
Y0778452D01*
X1153703D01*
Y0772547D01*
X1155958D01*
Y0769398D01*
X1153724D01*
Y0765695D01*
X1152170D01*
X1152170Y0765695D01*
X1151745Y0765610D01*
X1151384Y0765369D01*
X1151384Y0765369D01*
X1140849Y0754834D01*
X1138913D01*
X1138706Y0755334D01*
X1138978Y0755607D01*
X1139278Y0756331D01*
Y0757114D01*
X1138978Y0757837D01*
X1138425Y0758391D01*
X1138422Y0758393D01*
Y0775360D01*
X1139221Y0776160D01*
X1142995D01*
Y0774122D01*
X1149688D01*
Y0780421D01*
X1142995D01*
Y0778384D01*
X1139221D01*
X1138664Y0778940D01*
Y0805615D01*
X1140505D01*
Y0812308D01*
X1134599D01*
Y0805615D01*
X1136440D01*
Y0778480D01*
X1136440Y0778480D01*
X1136525Y0778054D01*
X1136766Y0777694D01*
X1137188Y0777272D01*
X1136523Y0776607D01*
X1136282Y0776246D01*
X1136198Y0775821D01*
X1136198Y0775821D01*
Y0758393D01*
X1136195Y0758391D01*
X1135641Y0757837D01*
X1135341Y0757114D01*
Y0756331D01*
X1135641Y0755607D01*
X1135914Y0755334D01*
X1135707Y0754834D01*
X1128310D01*
Y0886611D01*
X1153703D01*
Y0883047D01*
X1155937D01*
Y0880398D01*
X1153724D01*
Y0874492D01*
X1160417D01*
Y0880398D01*
X1158161D01*
Y0883047D01*
X1160396D01*
Y0888952D01*
X1153703D01*
Y0888834D01*
X1128310D01*
Y0958451D01*
X1174480D01*
X1174491Y0958453D01*
X1176968Y0958290D01*
D02*
G37*
G36*
X0994145Y0891834D02*
X0994174Y0891358D01*
X0993826Y0890837D01*
X0993704Y0890222D01*
Y0852722D01*
X0993704Y0852722D01*
X0993826Y0852108D01*
X0993945Y0851930D01*
X0990827Y0848812D01*
X0982898D01*
X0982790Y0848791D01*
X0979857D01*
Y0846410D01*
X0981686D01*
Y0829582D01*
X0979580D01*
Y0822889D01*
X0985485D01*
Y0829582D01*
X0983910D01*
Y0846410D01*
X0985738D01*
Y0846589D01*
X0991288D01*
X0991288Y0846589D01*
X0991713Y0846673D01*
X0992074Y0846914D01*
X0995518Y0850358D01*
X0995695Y0850239D01*
X0996310Y0850117D01*
X1008171D01*
X1008361Y0849885D01*
X1008361Y0849885D01*
Y0843651D01*
X1008182D01*
Y0837770D01*
X1010229D01*
Y0828860D01*
X1005845Y0824475D01*
X1005339Y0824767D01*
X1004235Y0825063D01*
X1003093D01*
X1001989Y0824767D01*
X1000999Y0824196D01*
X1000191Y0823388D01*
X0999619Y0822398D01*
X0999323Y0821294D01*
Y0820151D01*
X0999619Y0819047D01*
X1000191Y0818057D01*
X1000999Y0817249D01*
X1001874Y0816744D01*
X1001745Y0816244D01*
X0991057D01*
X0990866Y0816706D01*
X1002285Y0828125D01*
X1002526Y0828486D01*
X1002610Y0828911D01*
Y0837770D01*
X1006626D01*
Y0843651D01*
X0998573D01*
Y0845702D01*
X0998979Y0846107D01*
X0999278Y0846831D01*
Y0847614D01*
X0998979Y0848337D01*
X0998425Y0848891D01*
X0997701Y0849191D01*
X0996918D01*
X0996195Y0848891D01*
X0995641Y0848337D01*
X0995341Y0847614D01*
Y0846831D01*
X0995641Y0846107D01*
X0996195Y0845554D01*
X0996350Y0845489D01*
Y0843651D01*
X0988497D01*
Y0837770D01*
X0994481D01*
Y0829967D01*
X0986849Y0822334D01*
X0962810D01*
X0962384Y0822250D01*
X0962023Y0822009D01*
X0962023Y0822009D01*
X0958023Y0818009D01*
X0957782Y0817648D01*
X0957698Y0817222D01*
X0957698Y0817222D01*
Y0794393D01*
X0957695Y0794391D01*
X0957141Y0793837D01*
X0957080Y0793691D01*
X0956539D01*
X0956479Y0793837D01*
X0955925Y0794391D01*
X0955922Y0794393D01*
Y0817762D01*
X0976096Y0837936D01*
X0976096Y0837936D01*
X0976337Y0838297D01*
X0976422Y0838722D01*
X0976422Y0838723D01*
Y0853262D01*
X0977522Y0854362D01*
X0979857D01*
Y0850347D01*
X0985738D01*
Y0852315D01*
Y0856431D01*
X0989317D01*
X0989695Y0856054D01*
X0990418Y0855754D01*
X0991201D01*
X0991925Y0856054D01*
X0992478Y0856607D01*
X0992778Y0857331D01*
Y0858114D01*
X0992478Y0858838D01*
X0991925Y0859391D01*
X0991201Y0859691D01*
X0990418D01*
X0989695Y0859391D01*
X0989141Y0858838D01*
X0989065Y0858655D01*
X0985738D01*
Y0862158D01*
Y0866095D01*
Y0870032D01*
Y0873969D01*
Y0877906D01*
Y0881843D01*
Y0885780D01*
Y0889717D01*
Y0893672D01*
X0987114D01*
X0987141Y0893607D01*
X0987695Y0893054D01*
X0988418Y0892754D01*
X0989201D01*
X0989925Y0893054D01*
X0990479Y0893607D01*
X0990778Y0894331D01*
Y0894494D01*
X0991278Y0894701D01*
X0994145Y0891834D01*
D02*
G37*
G36*
X1119204Y0887722D02*
Y0860693D01*
X1112129D01*
Y0862237D01*
X1105436D01*
Y0855938D01*
X1112129D01*
Y0857482D01*
X1119204D01*
Y0831328D01*
X1097586D01*
X1097434Y0831828D01*
X1097596Y0831936D01*
X1099596Y0833936D01*
X1099596Y0833936D01*
X1099837Y0834297D01*
X1099922Y0834722D01*
X1099922Y0834723D01*
Y0859222D01*
Y0867722D01*
X1099922Y0867723D01*
X1099837Y0868148D01*
X1099596Y0868509D01*
X1099596Y0868509D01*
X1096596Y0871509D01*
X1096235Y0871750D01*
X1095810Y0871834D01*
X1095810Y0871834D01*
X1077995D01*
X1077895Y0872334D01*
X1078425Y0872554D01*
X1078979Y0873107D01*
X1079278Y0873831D01*
Y0874614D01*
X1078979Y0875338D01*
X1078425Y0875891D01*
X1078422Y0875893D01*
Y0879137D01*
X1082040D01*
Y0885830D01*
X1076134D01*
Y0879137D01*
X1076198D01*
Y0875893D01*
X1076195Y0875891D01*
X1075641Y0875338D01*
X1075341Y0874614D01*
Y0873831D01*
X1075641Y0873107D01*
X1076195Y0872554D01*
X1076724Y0872334D01*
X1076624Y0871834D01*
X1074389D01*
X1069859Y0876364D01*
X1069499Y0876605D01*
X1069073Y0876689D01*
X1069073Y0876689D01*
X1057915D01*
X1055968Y0878637D01*
X1056175Y0879137D01*
X1061540D01*
Y0885830D01*
X1057207D01*
X1051342Y0891694D01*
X1050982Y0891935D01*
X1050556Y0892019D01*
X1050556Y0892019D01*
X1046762D01*
Y0892098D01*
X1040881D01*
Y0887748D01*
Y0883811D01*
Y0879874D01*
Y0875937D01*
Y0872000D01*
Y0868063D01*
Y0864126D01*
Y0860189D01*
Y0856252D01*
Y0852649D01*
X1038455D01*
X1038165Y0852939D01*
Y0893861D01*
X1040881D01*
Y0893654D01*
X1046762D01*
Y0893733D01*
X1055134D01*
Y0891363D01*
X1061040D01*
Y0898055D01*
X1061514Y0898117D01*
X1119204D01*
Y0887722D01*
D02*
G37*
G36*
X1056668Y0874791D02*
X1056668Y0874791D01*
X1057029Y0874550D01*
X1057455Y0874465D01*
X1057455Y0874465D01*
X1068612D01*
X1073142Y0869936D01*
X1073502Y0869695D01*
X1073928Y0869611D01*
X1073928Y0869611D01*
X1095349D01*
X1097698Y0867262D01*
Y0859222D01*
Y0838825D01*
X1097198Y0838618D01*
X1096925Y0838891D01*
X1096201Y0839191D01*
X1095418D01*
X1094695Y0838891D01*
X1094141Y0838338D01*
X1094114Y0838273D01*
X1092950D01*
Y0838741D01*
X1085069D01*
Y0835460D01*
X1092950D01*
Y0836049D01*
X1094199D01*
X1094695Y0835554D01*
X1095418Y0835254D01*
X1096201D01*
X1096925Y0835554D01*
X1097189Y0835818D01*
X1097622Y0835643D01*
X1097672Y0835158D01*
X1096349Y0833834D01*
X1091480D01*
X1091479Y0833838D01*
X1090925Y0834391D01*
X1090201Y0834691D01*
X1089418D01*
X1088695Y0834391D01*
X1088141Y0833838D01*
X1087841Y0833114D01*
Y0832331D01*
X1088049Y0831828D01*
X1087767Y0831328D01*
X1078953D01*
X1072550Y0837731D01*
Y0838741D01*
X1064669D01*
Y0835460D01*
X1067655D01*
X1067810Y0835429D01*
X1067965Y0835460D01*
X1070280D01*
X1077152Y0828587D01*
X1077673Y0828239D01*
X1078288Y0828117D01*
X1119204D01*
Y0788602D01*
X1112129D01*
Y0790146D01*
X1105436D01*
Y0783847D01*
X1112129D01*
Y0785390D01*
X1119204D01*
Y0753722D01*
Y0748328D01*
X1094670D01*
Y0750452D01*
X1087977D01*
Y0748328D01*
X1070017D01*
Y0752825D01*
X1074896D01*
Y0763455D01*
X1069415D01*
Y0772137D01*
X1070540D01*
Y0778829D01*
X1069415D01*
Y0789863D01*
X1070540D01*
Y0796556D01*
X1069415D01*
Y0807863D01*
X1070540D01*
Y0814555D01*
X1069415D01*
Y0816722D01*
X1069293Y0817337D01*
X1068945Y0817858D01*
X1068945Y0817858D01*
X1062994Y0823809D01*
X1063240Y0824269D01*
X1063348Y0824248D01*
X1063348Y0824248D01*
X1071249D01*
X1083045Y0812453D01*
X1083045Y0812453D01*
X1083134Y0812393D01*
Y0807637D01*
X1089040D01*
Y0814330D01*
X1084332D01*
X1084308Y0814334D01*
X1072496Y0826146D01*
X1072135Y0826387D01*
X1071710Y0826472D01*
X1071710Y0826472D01*
X1063808D01*
X1051527Y0838754D01*
X1051734Y0839254D01*
X1052201D01*
X1052925Y0839554D01*
X1053479Y0840107D01*
X1053778Y0840831D01*
Y0841614D01*
X1053479Y0842338D01*
X1052925Y0842891D01*
X1052201Y0843191D01*
X1051553D01*
X1046762Y0847982D01*
Y0848791D01*
X1040881D01*
Y0846629D01*
X1040381Y0846422D01*
X1038165Y0848637D01*
Y0850426D01*
X1040881D01*
Y0850347D01*
X1046762D01*
Y0850426D01*
X1052977D01*
Y0849047D01*
X1059669D01*
Y0854952D01*
X1052977D01*
Y0852649D01*
X1051674D01*
X1051496Y0853149D01*
X1051778Y0853831D01*
Y0854614D01*
X1051478Y0855338D01*
X1051247Y0855569D01*
X1050929Y0855896D01*
X1051247Y0856222D01*
X1051478Y0856454D01*
X1051778Y0857177D01*
Y0857961D01*
X1051478Y0858684D01*
X1051084Y0859078D01*
X1050978Y0859396D01*
X1051084Y0859713D01*
X1051478Y0860107D01*
X1051778Y0860831D01*
Y0861614D01*
X1051478Y0862337D01*
X1050925Y0862891D01*
X1050201Y0863191D01*
X1049418D01*
X1048695Y0862891D01*
X1048141Y0862337D01*
X1047841Y0861614D01*
Y0861154D01*
X1047262Y0860575D01*
X1047092Y0860584D01*
X1046762Y0860647D01*
Y0866095D01*
Y0870032D01*
Y0874079D01*
X1049834D01*
X1049835Y0874079D01*
X1050260Y0874164D01*
X1050621Y0874405D01*
X1051079Y0874863D01*
X1051418Y0874722D01*
X1052201D01*
X1052925Y0875022D01*
X1053479Y0875576D01*
X1053778Y0876299D01*
Y0876974D01*
X1054089Y0877175D01*
X1054240Y0877219D01*
X1056668Y0874791D01*
D02*
G37*
G36*
X1028930Y0849955D02*
X1028930Y0849955D01*
Y0843651D01*
X1027867D01*
Y0837770D01*
X1031649D01*
X1031983Y0837437D01*
X1032067Y0837012D01*
X1032308Y0836651D01*
X1047523Y0821436D01*
X1047523Y0821436D01*
X1047884Y0821195D01*
X1048310Y0821111D01*
X1055639D01*
X1055641Y0821107D01*
X1056195Y0820554D01*
X1056918Y0820254D01*
X1057701D01*
X1058425Y0820554D01*
X1058978Y0821107D01*
X1059278Y0821831D01*
Y0822276D01*
X1059778Y0822483D01*
X1066204Y0816057D01*
Y0814555D01*
X1064634D01*
Y0807863D01*
X1066204D01*
Y0796556D01*
X1064634D01*
Y0789863D01*
X1066204D01*
Y0778829D01*
X1064634D01*
Y0777828D01*
X1032201D01*
X1031802Y0778519D01*
X1031106Y0779215D01*
X1030253Y0779708D01*
X1030165Y0779731D01*
Y0798475D01*
X1030606Y0798730D01*
X1031303Y0799426D01*
X1031795Y0800279D01*
X1032050Y0801230D01*
Y0802215D01*
X1031795Y0803166D01*
X1031303Y0804019D01*
X1030606Y0804715D01*
X1029753Y0805208D01*
X1028802Y0805463D01*
X1027817D01*
X1026866Y0805208D01*
X1026013Y0804715D01*
X1025317Y0804019D01*
X1024824Y0803166D01*
X1024570Y0802215D01*
Y0801230D01*
X1024824Y0800279D01*
X1025317Y0799426D01*
X1026013Y0798730D01*
X1026866Y0798237D01*
X1026954Y0798214D01*
Y0779470D01*
X1026513Y0779215D01*
X1025817Y0778519D01*
X1025324Y0777666D01*
X1025070Y0776715D01*
Y0775730D01*
X1025324Y0774779D01*
X1025817Y0773926D01*
X1026513Y0773230D01*
X1027366Y0772737D01*
X1028317Y0772482D01*
X1029302D01*
X1030253Y0772737D01*
X1031106Y0773230D01*
X1031802Y0773926D01*
X1032201Y0774617D01*
X1064145D01*
X1064634Y0774127D01*
Y0772137D01*
X1066204D01*
Y0763455D01*
X1060723D01*
Y0752825D01*
X1065602D01*
Y0748328D01*
X1048670D01*
Y0750452D01*
X1041977D01*
Y0748328D01*
X1001975D01*
X1000915Y0749388D01*
Y0752482D01*
X1003050D01*
Y0759963D01*
X0995570D01*
Y0757589D01*
X0990020D01*
Y0759330D01*
X0984114D01*
Y0752637D01*
X0990020D01*
Y0754377D01*
X0995570D01*
Y0752482D01*
X0997704D01*
Y0748723D01*
X0997704Y0748722D01*
X0997706Y0748715D01*
X0997388Y0748328D01*
X0958302D01*
Y0770389D01*
X0962413D01*
X0969817Y0762985D01*
Y0758388D01*
X0967857D01*
Y0754057D01*
X0973762D01*
Y0754497D01*
X0976634D01*
Y0752637D01*
X0982540D01*
Y0759330D01*
X0980579D01*
Y0811419D01*
X0983180Y0814020D01*
X1025719D01*
X1025719Y0814020D01*
X1026145Y0814105D01*
X1026505Y0814346D01*
X1029096Y0816936D01*
X1029337Y0817297D01*
X1029422Y0817722D01*
Y0823222D01*
X1029337Y0823648D01*
X1029096Y0824009D01*
X1029096Y0824009D01*
X1016490Y0836615D01*
Y0837770D01*
X1026311D01*
Y0843651D01*
X1026233D01*
Y0849573D01*
X1026777Y0850117D01*
X1028797D01*
X1028930Y0849955D01*
D02*
G37*
G36*
X0921491Y0844757D02*
X0926257D01*
X0926412Y0844726D01*
X0926412Y0844726D01*
X0927035D01*
X0935731Y0836031D01*
X0935731Y0836031D01*
X0936252Y0835683D01*
X0936866Y0835561D01*
X0938669D01*
Y0835460D01*
X0946550D01*
Y0835727D01*
X0947050Y0835826D01*
X0947141Y0835607D01*
X0947695Y0835054D01*
X0948418Y0834754D01*
X0949201D01*
X0949925Y0835054D01*
X0950478Y0835607D01*
X0950558Y0835800D01*
X0959069D01*
Y0835460D01*
X0965571D01*
X0965763Y0834998D01*
X0950078Y0819313D01*
X0944969D01*
Y0813132D01*
X0951650D01*
Y0817741D01*
X0973615Y0839705D01*
X0974087Y0839521D01*
X0974134Y0839119D01*
X0954023Y0819009D01*
X0953782Y0818648D01*
X0953698Y0818222D01*
X0953698Y0818222D01*
Y0794393D01*
X0953695Y0794391D01*
X0953141Y0793837D01*
X0952841Y0793114D01*
Y0792331D01*
X0953141Y0791607D01*
X0953671Y0791077D01*
X0953664Y0790958D01*
X0953539Y0790577D01*
X0951656D01*
Y0792418D01*
X0944963D01*
Y0786512D01*
X0951656D01*
Y0788353D01*
X0956078D01*
Y0748328D01*
X0914415D01*
Y0774209D01*
X0921491D01*
Y0772665D01*
X0928184D01*
Y0778965D01*
X0921491D01*
Y0777421D01*
X0914415D01*
Y0807722D01*
Y0846301D01*
X0921491D01*
Y0844757D01*
D02*
G37*
G36*
X1119204Y0725722D02*
X1112129D01*
Y0728054D01*
X1105436D01*
Y0725722D01*
X1098422D01*
Y0729222D01*
X1098337Y0729648D01*
X1098096Y0730009D01*
X1098096Y0730009D01*
X1092277Y0735828D01*
X1092278Y0735831D01*
Y0736614D01*
X1091978Y0737337D01*
X1091425Y0737891D01*
X1090701Y0738191D01*
X1089918D01*
X1089195Y0737891D01*
X1088641Y0737337D01*
X1088341Y0736614D01*
Y0735831D01*
X1088641Y0735107D01*
X1089195Y0734554D01*
X1089918Y0734254D01*
X1090701D01*
X1090704Y0734255D01*
X1096198Y0728762D01*
Y0725722D01*
X1082580D01*
X1079455Y0728848D01*
Y0734321D01*
X1079424Y0734476D01*
Y0740620D01*
X1074306D01*
Y0729990D01*
X1074704D01*
Y0729388D01*
X1071039Y0725722D01*
X1032337D01*
Y0732104D01*
X1023282D01*
Y0725722D01*
X0957837D01*
Y0732104D01*
X0948782D01*
Y0725722D01*
X0942590D01*
X0942535Y0725803D01*
X0942596Y0726436D01*
X0942837Y0726797D01*
X0942922Y0727222D01*
Y0730722D01*
Y0734722D01*
Y0738722D01*
Y0741320D01*
X0943096Y0741436D01*
X0943337Y0741797D01*
X0943422Y0742222D01*
X0943337Y0742648D01*
X0943096Y0743009D01*
X0942735Y0743250D01*
X0942310Y0743334D01*
X0941810D01*
X0941384Y0743250D01*
X0941023Y0743009D01*
X0940782Y0742648D01*
X0940698Y0742222D01*
Y0738722D01*
Y0734722D01*
Y0730722D01*
Y0727222D01*
X0940782Y0726797D01*
X0941023Y0726436D01*
X0941084Y0725803D01*
X0941029Y0725722D01*
X0928184D01*
Y0726873D01*
X0921491D01*
Y0725722D01*
X0918922D01*
Y0734262D01*
X0920010Y0735350D01*
X0922099D01*
Y0733115D01*
X0928005D01*
Y0739808D01*
X0922099D01*
Y0737574D01*
X0919549D01*
X0919123Y0737489D01*
X0918763Y0737248D01*
X0917023Y0735509D01*
X0916782Y0735148D01*
X0916698Y0734722D01*
X0916698Y0734722D01*
Y0725722D01*
X0914415D01*
Y0745117D01*
X0932140D01*
X0932239Y0744617D01*
X0931695Y0744391D01*
X0931141Y0743837D01*
X0930841Y0743114D01*
Y0742331D01*
X0931141Y0741607D01*
X0931695Y0741054D01*
X0931698Y0741052D01*
Y0739808D01*
X0929580D01*
Y0733115D01*
X0935485D01*
Y0739808D01*
X0933922D01*
Y0741052D01*
X0933925Y0741054D01*
X0934478Y0741607D01*
X0934778Y0742331D01*
Y0743114D01*
X0934478Y0743837D01*
X0933925Y0744391D01*
X0933380Y0744617D01*
X0933480Y0745117D01*
X1041977D01*
Y0744547D01*
X1048670D01*
Y0745117D01*
X1065602D01*
Y0740620D01*
X1065251D01*
Y0729990D01*
X1070369D01*
Y0740620D01*
X1070017D01*
Y0745117D01*
X1087977D01*
Y0744547D01*
X1094670D01*
Y0745117D01*
X1119204D01*
Y0725722D01*
D02*
G37*
%LPC*%
G36*
X0927762Y0955069D02*
X0921857D01*
Y0952834D01*
X0919310D01*
X0919310Y0952834D01*
X0918884Y0952750D01*
X0918523Y0952509D01*
X0917023Y0951009D01*
X0916782Y0950648D01*
X0916698Y0950222D01*
X0916698Y0950222D01*
Y0932222D01*
X0916698Y0932222D01*
X0916782Y0931797D01*
X0917023Y0931436D01*
X0919248Y0929212D01*
X0919609Y0928971D01*
X0920034Y0928886D01*
X0920034Y0928886D01*
X0921491D01*
Y0926848D01*
X0928184D01*
Y0933148D01*
X0921491D01*
Y0931110D01*
X0920495D01*
X0918922Y0932683D01*
Y0949762D01*
X0919770Y0950611D01*
X0921857D01*
Y0948376D01*
X0927762D01*
Y0955069D01*
D02*
G37*
G36*
X1081540Y0953329D02*
X1075634D01*
Y0951334D01*
X1072980D01*
X1072978Y0951338D01*
X1072425Y0951891D01*
X1071701Y0952191D01*
X1070918D01*
X1070195Y0951891D01*
X1069641Y0951338D01*
X1069341Y0950614D01*
Y0949831D01*
X1069641Y0949107D01*
X1070195Y0948554D01*
X1070918Y0948254D01*
X1071701D01*
X1072425Y0948554D01*
X1072978Y0949107D01*
X1072980Y0949111D01*
X1075634D01*
Y0946637D01*
X1081540D01*
Y0953329D01*
D02*
G37*
G36*
X1036235Y0953963D02*
X1028755D01*
Y0946482D01*
X1036235D01*
Y0953963D01*
D02*
G37*
G36*
X1016550D02*
X1009070D01*
Y0946482D01*
X1016550D01*
Y0953963D01*
D02*
G37*
G36*
X0996865D02*
X0989384D01*
Y0946482D01*
X0996865D01*
Y0953963D01*
D02*
G37*
G36*
X0954201Y0939191D02*
X0953418D01*
X0952695Y0938891D01*
X0952238Y0938434D01*
X0946550D01*
Y0939063D01*
X0938669D01*
Y0935782D01*
X0946550D01*
Y0936211D01*
X0952098D01*
X0952141Y0936107D01*
X0952695Y0935554D01*
X0953418Y0935254D01*
X0954201D01*
X0954925Y0935554D01*
X0955478Y0936107D01*
X0955778Y0936831D01*
Y0937614D01*
X0955478Y0938338D01*
X0954925Y0938891D01*
X0954201Y0939191D01*
D02*
G37*
G36*
X1024450Y0939863D02*
X1021169D01*
Y0937034D01*
X1019450D01*
Y0939863D01*
X1016169D01*
Y0931982D01*
X1019450D01*
Y0934811D01*
X1021169D01*
Y0931982D01*
X1024450D01*
Y0939863D01*
D02*
G37*
G36*
X0928184Y0943148D02*
X0921491D01*
Y0936848D01*
X0928184D01*
Y0943148D01*
D02*
G37*
G36*
X1061201Y0939691D02*
X1060418D01*
X1059695Y0939391D01*
X1059141Y0938838D01*
X1058841Y0938114D01*
Y0937331D01*
X1059141Y0936607D01*
X1059695Y0936054D01*
X1060418Y0935754D01*
X1061201D01*
X1061925Y0936054D01*
X1062332Y0936460D01*
X1064669D01*
Y0935782D01*
X1072550D01*
Y0939063D01*
X1064669D01*
Y0938684D01*
X1062542D01*
X1062479Y0938838D01*
X1061925Y0939391D01*
X1061201Y0939691D01*
D02*
G37*
G36*
X1112129Y0941963D02*
X1105436D01*
Y0935663D01*
X1112129D01*
Y0941963D01*
D02*
G37*
G36*
X0935243Y0955069D02*
X0929337D01*
Y0948376D01*
X0935243D01*
Y0950611D01*
X0977349D01*
X0991448Y0936512D01*
Y0934310D01*
X0990986Y0934119D01*
X0988186Y0936918D01*
X0987826Y0937159D01*
X0987400Y0937244D01*
X0987400Y0937244D01*
X0977719D01*
X0977294Y0937159D01*
X0976933Y0936918D01*
X0976933Y0936918D01*
X0974023Y0934009D01*
X0973782Y0933648D01*
X0973698Y0933222D01*
X0973698Y0933222D01*
Y0925183D01*
X0972049Y0923534D01*
X0966950D01*
Y0924063D01*
X0959069D01*
Y0920782D01*
X0966950D01*
Y0921311D01*
X0972510D01*
X0972510Y0921311D01*
X0972935Y0921395D01*
X0973296Y0921636D01*
X0975596Y0923936D01*
X0975837Y0924297D01*
X0975922Y0924722D01*
Y0932762D01*
X0978180Y0935020D01*
X0986940D01*
X0989698Y0932262D01*
Y0915250D01*
X0989698Y0915250D01*
X0989782Y0914825D01*
X0990023Y0914464D01*
X0995137Y0909350D01*
X0995136Y0909347D01*
Y0908564D01*
X0995436Y0907840D01*
X0995989Y0907287D01*
X0996713Y0906987D01*
X0997496D01*
X0998219Y0907287D01*
X0998773Y0907840D01*
X0999073Y0908564D01*
Y0909347D01*
X0998838Y0909915D01*
X0999262Y0910198D01*
X0999719Y0909741D01*
X1000080Y0909500D01*
X1000198Y0909476D01*
X1000363Y0909076D01*
X1000917Y0908522D01*
X1001641Y0908222D01*
X1002424D01*
X1003147Y0908522D01*
X1003701Y0909076D01*
X1004001Y0909799D01*
Y0910583D01*
X1003794Y0911082D01*
X1004078Y0911582D01*
X1004450D01*
Y0919463D01*
X1003922D01*
Y0931982D01*
X1004450D01*
Y0939863D01*
X1001169D01*
Y0931982D01*
X1001698D01*
Y0919463D01*
X1001169D01*
Y0912143D01*
X1000689Y0911915D01*
X0999450Y0913154D01*
Y0919463D01*
X0996169D01*
Y0917854D01*
X0995669Y0917647D01*
X0995425Y0917891D01*
X0994701Y0918191D01*
X0994389D01*
X0993671Y0918908D01*
Y0936973D01*
X0993587Y0937398D01*
X0993346Y0937759D01*
X0978596Y0952509D01*
X0978235Y0952750D01*
X0977810Y0952834D01*
X0977810Y0952834D01*
X0935243D01*
Y0955069D01*
D02*
G37*
G36*
X1092950Y0934063D02*
X1085069D01*
Y0933534D01*
X1072550D01*
Y0934063D01*
X1064669D01*
Y0930782D01*
X1072550D01*
Y0931310D01*
X1085069D01*
Y0930782D01*
X1092950D01*
Y0934063D01*
D02*
G37*
G36*
X0966950D02*
X0959069D01*
Y0933534D01*
X0946550D01*
Y0934063D01*
X0938669D01*
Y0930782D01*
X0946550D01*
Y0931310D01*
X0959069D01*
Y0930782D01*
X0966950D01*
Y0934063D01*
D02*
G37*
G36*
X1029450Y0939863D02*
X1026169D01*
Y0931982D01*
X1026698D01*
Y0931371D01*
X1025033Y0929707D01*
X1025030Y0929708D01*
X1024247D01*
X1023524Y0929408D01*
X1022970Y0928855D01*
X1022670Y0928131D01*
Y0927348D01*
X1022970Y0926624D01*
X1023524Y0926071D01*
X1024247Y0925771D01*
X1025030D01*
X1025754Y0926071D01*
X1026308Y0926624D01*
X1026607Y0927348D01*
Y0928131D01*
X1026606Y0928134D01*
X1028596Y0930124D01*
X1028837Y0930485D01*
X1028922Y0930910D01*
Y0931982D01*
X1029450D01*
Y0939863D01*
D02*
G37*
G36*
X0966950Y0929063D02*
X0959069D01*
Y0928534D01*
X0958010D01*
X0958010Y0928534D01*
X0957584Y0928450D01*
X0957223Y0928209D01*
X0957223Y0928209D01*
X0954523Y0925509D01*
X0954282Y0925148D01*
X0954198Y0924722D01*
X0954198Y0924722D01*
Y0919825D01*
X0953698Y0919618D01*
X0953425Y0919891D01*
X0952701Y0920191D01*
X0951918D01*
X0951195Y0919891D01*
X0950641Y0919337D01*
X0950341Y0918614D01*
Y0917831D01*
X0950641Y0917107D01*
X0951195Y0916554D01*
X0951198Y0916552D01*
Y0912222D01*
X0951198Y0912222D01*
X0951282Y0911797D01*
X0951523Y0911436D01*
X0956523Y0906436D01*
X0956523Y0906436D01*
X0956884Y0906195D01*
X0957310Y0906110D01*
X0957310Y0906110D01*
X0959069D01*
Y0905782D01*
X0966950D01*
Y0909063D01*
X0959069D01*
Y0908334D01*
X0957770D01*
X0953422Y0912683D01*
Y0914120D01*
X0953922Y0914327D01*
X0954195Y0914054D01*
X0954918Y0913754D01*
X0955701D01*
X0956425Y0914054D01*
X0956979Y0914607D01*
X0957278Y0915331D01*
Y0916114D01*
X0956979Y0916838D01*
X0956425Y0917391D01*
X0956422Y0917393D01*
Y0924262D01*
X0958470Y0926311D01*
X0959069D01*
Y0925782D01*
X0966950D01*
Y0929063D01*
D02*
G37*
G36*
X1009450Y0939863D02*
X1006169D01*
Y0931982D01*
X1006698D01*
Y0929893D01*
X1006695Y0929891D01*
X1006141Y0929338D01*
X1005841Y0928614D01*
Y0927831D01*
X1006141Y0927107D01*
X1006695Y0926554D01*
X1007418Y0926254D01*
X1008201D01*
X1008925Y0926554D01*
X1009478Y0927107D01*
X1009778Y0927831D01*
Y0928614D01*
X1009478Y0929338D01*
X1008925Y0929891D01*
X1008922Y0929893D01*
Y0931982D01*
X1009450D01*
Y0939863D01*
D02*
G37*
G36*
X1072550Y0929063D02*
X1064669D01*
Y0925782D01*
X1072550D01*
Y0929063D01*
D02*
G37*
G36*
X0946550D02*
X0938669D01*
Y0925782D01*
X0946550D01*
Y0929063D01*
D02*
G37*
G36*
X1014450Y0939863D02*
X1011169D01*
Y0931982D01*
X1011698D01*
Y0926893D01*
X1011695Y0926891D01*
X1011141Y0926338D01*
X1010841Y0925614D01*
Y0924831D01*
X1011141Y0924107D01*
X1011695Y0923554D01*
X1012418Y0923254D01*
X1013201D01*
X1013925Y0923554D01*
X1014478Y0924107D01*
X1014778Y0924831D01*
Y0925614D01*
X1014478Y0926338D01*
X1013925Y0926891D01*
X1013922Y0926893D01*
Y0931982D01*
X1014450D01*
Y0939863D01*
D02*
G37*
G36*
X1081201Y0924691D02*
X1080418D01*
X1079695Y0924391D01*
X1079141Y0923837D01*
X1078841Y0923114D01*
Y0922331D01*
X1079141Y0921607D01*
X1079695Y0921054D01*
X1080418Y0920754D01*
X1081201D01*
X1081925Y0921054D01*
X1082332Y0921461D01*
X1085069D01*
Y0920782D01*
X1092950D01*
Y0924063D01*
X1085069D01*
Y0923684D01*
X1082542D01*
X1082479Y0923837D01*
X1081925Y0924391D01*
X1081201Y0924691D01*
D02*
G37*
G36*
X1072550Y0924063D02*
X1064669D01*
Y0920782D01*
X1072550D01*
Y0924063D01*
D02*
G37*
G36*
X0946550D02*
X0938669D01*
Y0920782D01*
X0946550D01*
Y0924063D01*
D02*
G37*
G36*
X1072550Y0919063D02*
X1064669D01*
Y0915782D01*
X1072550D01*
Y0919063D01*
D02*
G37*
G36*
X0946550D02*
X0938669D01*
Y0915782D01*
X0946550D01*
Y0919063D01*
D02*
G37*
G36*
X1092950D02*
X1085069D01*
Y0915782D01*
X1087898D01*
Y0914063D01*
X1085069D01*
Y0910782D01*
X1092950D01*
Y0914063D01*
X1090122D01*
Y0915782D01*
X1092950D01*
Y0919063D01*
D02*
G37*
G36*
X1072550Y0914063D02*
X1064669D01*
Y0910782D01*
X1072550D01*
Y0914063D01*
D02*
G37*
G36*
X0966950Y0919063D02*
X0959069D01*
Y0915782D01*
X0961898D01*
Y0914063D01*
X0959069D01*
Y0910782D01*
X0966950D01*
Y0914063D01*
X0964122D01*
Y0915782D01*
X0966950D01*
Y0919063D01*
D02*
G37*
G36*
X0946550Y0914063D02*
X0938669D01*
Y0910782D01*
X0946550D01*
Y0914063D01*
D02*
G37*
G36*
X1097701Y0909191D02*
X1096918D01*
X1096195Y0908891D01*
X1095738Y0908434D01*
X1092950D01*
Y0909063D01*
X1085069D01*
Y0905782D01*
X1092950D01*
Y0906211D01*
X1095598D01*
X1095641Y0906107D01*
X1096195Y0905554D01*
X1096918Y0905254D01*
X1097701D01*
X1098425Y0905554D01*
X1098979Y0906107D01*
X1099278Y0906831D01*
Y0907614D01*
X1098979Y0908337D01*
X1098425Y0908891D01*
X1097701Y0909191D01*
D02*
G37*
G36*
X0928184Y0913148D02*
X0921491D01*
Y0906848D01*
X0928184D01*
Y0913148D01*
D02*
G37*
G36*
X1112129Y0911963D02*
X1105436D01*
Y0905663D01*
X1112129D01*
Y0911963D01*
D02*
G37*
G36*
X0934985Y0883808D02*
X0929080D01*
Y0877115D01*
X0934985D01*
Y0879111D01*
X0938140D01*
X0938141Y0879107D01*
X0938695Y0878554D01*
X0939418Y0878254D01*
X0940201D01*
X0940925Y0878554D01*
X0941479Y0879107D01*
X0941778Y0879831D01*
Y0880614D01*
X0941479Y0881338D01*
X0940925Y0881891D01*
X0940201Y0882191D01*
X0939418D01*
X0938695Y0881891D01*
X0938141Y0881338D01*
X0938140Y0881334D01*
X0934985D01*
Y0883808D01*
D02*
G37*
G36*
X0927505D02*
X0921599D01*
Y0881574D01*
X0918549D01*
X0918124Y0881489D01*
X0917763Y0881248D01*
X0917763Y0881248D01*
X0916523Y0880009D01*
X0916282Y0879648D01*
X0916198Y0879222D01*
X0916198Y0879222D01*
Y0860223D01*
X0916198Y0860222D01*
X0916282Y0859797D01*
X0916523Y0859436D01*
X0918839Y0857120D01*
X0918839Y0857120D01*
X0919200Y0856879D01*
X0919626Y0856795D01*
X0921491D01*
Y0854757D01*
X0928184D01*
Y0861056D01*
X0921491D01*
Y0859018D01*
X0920086D01*
X0918422Y0860683D01*
Y0878762D01*
X0919010Y0879350D01*
X0921599D01*
Y0877115D01*
X0927505D01*
Y0883808D01*
D02*
G37*
G36*
X0950201Y0869191D02*
X0949418D01*
X0948695Y0868891D01*
X0948141Y0868338D01*
X0948114Y0868273D01*
X0946550D01*
Y0868741D01*
X0938669D01*
Y0865460D01*
X0946550D01*
Y0866049D01*
X0948199D01*
X0948695Y0865554D01*
X0949418Y0865254D01*
X0950201D01*
X0950925Y0865554D01*
X0951478Y0866107D01*
X0951778Y0866831D01*
Y0867614D01*
X0951478Y0868338D01*
X0950925Y0868891D01*
X0950201Y0869191D01*
D02*
G37*
G36*
X0928184Y0871056D02*
X0921491D01*
Y0864757D01*
X0928184D01*
Y0871056D01*
D02*
G37*
G36*
X0966950Y0863741D02*
X0959069D01*
Y0863212D01*
X0946550D01*
Y0863741D01*
X0938669D01*
Y0860460D01*
X0946550D01*
Y0860989D01*
X0959069D01*
Y0860460D01*
X0966950D01*
Y0863741D01*
D02*
G37*
G36*
X0956201Y0859191D02*
X0955418D01*
X0954695Y0858891D01*
X0954141Y0858337D01*
X0953841Y0857614D01*
Y0856831D01*
X0954141Y0856107D01*
X0954695Y0855554D01*
X0955418Y0855254D01*
X0956201D01*
X0956925Y0855554D01*
X0957421Y0856050D01*
X0959069D01*
Y0855460D01*
X0966950D01*
Y0858741D01*
X0959069D01*
Y0858273D01*
X0957505D01*
X0957479Y0858337D01*
X0956925Y0858891D01*
X0956201Y0859191D01*
D02*
G37*
G36*
X0946550Y0858741D02*
X0938669D01*
Y0855460D01*
X0946550D01*
Y0858741D01*
D02*
G37*
G36*
Y0853741D02*
X0938669D01*
Y0850460D01*
X0946550D01*
Y0853741D01*
D02*
G37*
G36*
Y0848741D02*
X0938669D01*
Y0845460D01*
X0946550D01*
Y0848741D01*
D02*
G37*
G36*
X0966950D02*
X0959069D01*
Y0845460D01*
X0961898D01*
Y0843741D01*
X0959069D01*
Y0840460D01*
X0966950D01*
Y0843741D01*
X0964122D01*
Y0845460D01*
X0966950D01*
Y0848741D01*
D02*
G37*
G36*
X0946550Y0843741D02*
X0938669D01*
Y0840460D01*
X0946550D01*
Y0843741D01*
D02*
G37*
G36*
X1174480Y0949883D02*
X1174370Y0949875D01*
X1173511D01*
X1173450Y0949850D01*
X1173386Y0949863D01*
X1172844Y0949755D01*
X1172839Y0949754D01*
X1172824Y0949751D01*
X1171485Y0949484D01*
X1171430Y0949448D01*
X1171365D01*
X1169573Y0948706D01*
X1169527Y0948660D01*
X1169463Y0948647D01*
X1168327Y0947888D01*
X1168314Y0947880D01*
X1168310Y0947877D01*
X1167851Y0947570D01*
X1167815Y0947515D01*
X1167754Y0947490D01*
X1167147Y0946883D01*
X1167062Y0946811D01*
X1166991Y0946727D01*
X1166383Y0946119D01*
X1166358Y0946059D01*
X1166304Y0946023D01*
X1165997Y0945563D01*
X1165993Y0945559D01*
X1165985Y0945546D01*
X1165226Y0944410D01*
X1165214Y0944346D01*
X1165167Y0944300D01*
X1164425Y0942509D01*
Y0942443D01*
X1164389Y0942389D01*
X1164123Y0941049D01*
X1164119Y0941034D01*
X1164119Y0941029D01*
X1164011Y0940487D01*
X1164024Y0940423D01*
X1163999Y0940362D01*
Y0939503D01*
X1163990Y0939393D01*
X1163999Y0939283D01*
Y0938424D01*
X1164024Y0938363D01*
X1164011Y0938299D01*
X1164119Y0937757D01*
X1164119Y0937752D01*
X1164123Y0937737D01*
X1164389Y0936397D01*
X1164425Y0936343D01*
Y0936277D01*
X1165167Y0934486D01*
X1165214Y0934440D01*
X1165226Y0934376D01*
X1165986Y0933240D01*
X1165993Y0933227D01*
X1165997Y0933223D01*
X1166304Y0932764D01*
X1166358Y0932727D01*
X1166383Y0932667D01*
X1166991Y0932059D01*
X1167062Y0931975D01*
X1167146Y0931903D01*
X1167754Y0931296D01*
X1167815Y0931271D01*
X1167851Y0931216D01*
X1168310Y0930909D01*
X1168314Y0930906D01*
X1168327Y0930898D01*
X1169463Y0930139D01*
X1169527Y0930126D01*
X1169573Y0930080D01*
X1171365Y0929338D01*
X1171430D01*
X1171485Y0929302D01*
X1172825Y0929035D01*
X1172839Y0929032D01*
X1172844Y0929031D01*
X1173386Y0928924D01*
X1173450Y0928936D01*
X1173511Y0928911D01*
X1174370D01*
X1174480Y0928903D01*
X1174591Y0928911D01*
X1175450D01*
X1175510Y0928936D01*
X1175574Y0928924D01*
X1176116Y0929031D01*
X1176121Y0929032D01*
X1176136Y0929035D01*
X1177476Y0929302D01*
X1177530Y0929338D01*
X1177596D01*
X1179387Y0930080D01*
X1179433Y0930126D01*
X1179498Y0930139D01*
X1180634Y0930898D01*
X1180646Y0930906D01*
X1180650Y0930909D01*
X1181110Y0931216D01*
X1181146Y0931271D01*
X1181207Y0931296D01*
X1181814Y0931903D01*
X1181898Y0931975D01*
X1181970Y0932059D01*
X1182578Y0932667D01*
X1182603Y0932727D01*
X1182657Y0932764D01*
X1182964Y0933223D01*
X1182967Y0933227D01*
X1182975Y0933240D01*
X1183734Y0934376D01*
X1183747Y0934440D01*
X1183793Y0934486D01*
X1184535Y0936277D01*
Y0936343D01*
X1184571Y0936397D01*
X1184838Y0937737D01*
X1184842Y0937752D01*
X1184842Y0937757D01*
X1184950Y0938299D01*
X1184937Y0938363D01*
X1184962Y0938424D01*
Y0939283D01*
X1184971Y0939393D01*
X1184962Y0939503D01*
Y0940362D01*
X1184937Y0940423D01*
X1184950Y0940487D01*
X1184842Y0941029D01*
X1184842Y0941034D01*
X1184838Y0941049D01*
X1184571Y0942389D01*
X1184535Y0942443D01*
Y0942509D01*
X1183793Y0944300D01*
X1183747Y0944346D01*
X1183734Y0944410D01*
X1182975Y0945546D01*
X1182967Y0945559D01*
X1182964Y0945563D01*
X1182657Y0946023D01*
X1182603Y0946059D01*
X1182578Y0946119D01*
X1181970Y0946727D01*
X1181898Y0946811D01*
X1181814Y0946883D01*
X1181207Y0947490D01*
X1181146Y0947515D01*
X1181110Y0947570D01*
X1180650Y0947877D01*
X1180646Y0947880D01*
X1180633Y0947888D01*
X1179498Y0948647D01*
X1179433Y0948660D01*
X1179387Y0948706D01*
X1177596Y0949448D01*
X1177530D01*
X1177476Y0949484D01*
X1176136Y0949751D01*
X1176121Y0949754D01*
X1176116Y0949755D01*
X1175574Y0949863D01*
X1175510Y0949850D01*
X1175450Y0949875D01*
X1174591D01*
X1174480Y0949883D01*
D02*
G37*
G36*
X0859520D02*
X0859409Y0949875D01*
X0858550D01*
X0858490Y0949850D01*
X0858426Y0949863D01*
X0857884Y0949755D01*
X0857879Y0949754D01*
X0857864Y0949751D01*
X0856524Y0949484D01*
X0856470Y0949448D01*
X0856404D01*
X0854613Y0948706D01*
X0854567Y0948660D01*
X0854502Y0948647D01*
X0853366Y0947888D01*
X0853354Y0947880D01*
X0853350Y0947877D01*
X0852890Y0947570D01*
X0852854Y0947515D01*
X0852793Y0947490D01*
X0852186Y0946883D01*
X0852102Y0946811D01*
X0852030Y0946727D01*
X0851423Y0946119D01*
X0851398Y0946059D01*
X0851343Y0946023D01*
X0851036Y0945563D01*
X0851033Y0945559D01*
X0851025Y0945546D01*
X0850266Y0944410D01*
X0850253Y0944346D01*
X0850207Y0944300D01*
X0849465Y0942509D01*
Y0942443D01*
X0849428Y0942389D01*
X0849162Y0941049D01*
X0849158Y0941034D01*
X0849158Y0941029D01*
X0849050Y0940487D01*
X0849063Y0940423D01*
X0849038Y0940362D01*
Y0939503D01*
X0849029Y0939393D01*
X0849038Y0939283D01*
Y0938424D01*
X0849063Y0938363D01*
X0849050Y0938299D01*
X0849158Y0937757D01*
X0849158Y0937752D01*
X0849162Y0937737D01*
X0849428Y0936397D01*
X0849465Y0936343D01*
Y0936277D01*
X0850207Y0934486D01*
X0850253Y0934440D01*
X0850266Y0934376D01*
X0851025Y0933240D01*
X0851033Y0933227D01*
X0851036Y0933223D01*
X0851343Y0932764D01*
X0851398Y0932727D01*
X0851423Y0932667D01*
X0852030Y0932059D01*
X0852102Y0931975D01*
X0852186Y0931903D01*
X0852793Y0931296D01*
X0852854Y0931271D01*
X0852890Y0931216D01*
X0853350Y0930909D01*
X0853354Y0930906D01*
X0853366Y0930898D01*
X0854502Y0930139D01*
X0854567Y0930126D01*
X0854613Y0930080D01*
X0856404Y0929338D01*
X0856470D01*
X0856524Y0929302D01*
X0857864Y0929035D01*
X0857879Y0929032D01*
X0857884Y0929031D01*
X0858426Y0928924D01*
X0858490Y0928936D01*
X0858550Y0928911D01*
X0859409D01*
X0859520Y0928903D01*
X0859630Y0928911D01*
X0860489D01*
X0860550Y0928936D01*
X0860614Y0928924D01*
X0861156Y0929031D01*
X0861161Y0929032D01*
X0861175Y0929035D01*
X0862515Y0929302D01*
X0862570Y0929338D01*
X0862635D01*
X0864427Y0930080D01*
X0864473Y0930126D01*
X0864537Y0930139D01*
X0865673Y0930898D01*
X0865686Y0930906D01*
X0865690Y0930909D01*
X0866149Y0931216D01*
X0866185Y0931271D01*
X0866246Y0931296D01*
X0866853Y0931903D01*
X0866938Y0931975D01*
X0867009Y0932059D01*
X0867617Y0932667D01*
X0867642Y0932727D01*
X0867696Y0932764D01*
X0868003Y0933223D01*
X0868007Y0933227D01*
X0868015Y0933240D01*
X0868773Y0934376D01*
X0868786Y0934440D01*
X0868833Y0934486D01*
X0869575Y0936277D01*
Y0936343D01*
X0869611Y0936397D01*
X0869877Y0937737D01*
X0869881Y0937752D01*
X0869881Y0937757D01*
X0869989Y0938299D01*
X0869976Y0938363D01*
X0870001Y0938424D01*
Y0939283D01*
X0870010Y0939393D01*
X0870001Y0939503D01*
Y0940362D01*
X0869976Y0940423D01*
X0869989Y0940487D01*
X0869881Y0941029D01*
X0869881Y0941034D01*
X0869877Y0941049D01*
X0869611Y0942389D01*
X0869575Y0942443D01*
Y0942509D01*
X0868833Y0944300D01*
X0868786Y0944346D01*
X0868773Y0944410D01*
X0868015Y0945546D01*
X0868007Y0945559D01*
X0868003Y0945563D01*
X0867696Y0946023D01*
X0867642Y0946059D01*
X0867617Y0946119D01*
X0867009Y0946727D01*
X0866938Y0946811D01*
X0866853Y0946883D01*
X0866246Y0947490D01*
X0866185Y0947515D01*
X0866149Y0947570D01*
X0865690Y0947877D01*
X0865686Y0947880D01*
X0865673Y0947888D01*
X0864537Y0948647D01*
X0864473Y0948660D01*
X0864427Y0948706D01*
X0862635Y0949448D01*
X0862570D01*
X0862515Y0949484D01*
X0861176Y0949751D01*
X0861161Y0949754D01*
X0861156Y0949755D01*
X0860614Y0949863D01*
X0860550Y0949850D01*
X0860489Y0949875D01*
X0859630D01*
X0859520Y0949883D01*
D02*
G37*
G36*
X1148985Y0953808D02*
X1143080D01*
Y0947115D01*
X1145229D01*
Y0942238D01*
X1142995D01*
Y0935939D01*
X1144133D01*
Y0932238D01*
X1142995D01*
Y0925939D01*
X1149688D01*
Y0926881D01*
X1152029D01*
X1161248Y0917661D01*
X1161965Y0917183D01*
X1162810Y0917015D01*
X1173895D01*
X1181102Y0909808D01*
Y0899630D01*
X1172180D01*
X1171514Y0900296D01*
X1170696Y0900768D01*
X1169782Y0901013D01*
X1168837D01*
X1167924Y0900768D01*
X1167105Y0900296D01*
X1166436Y0899627D01*
X1165964Y0898808D01*
X1165719Y0897895D01*
Y0896950D01*
X1165964Y0896037D01*
X1166436Y0895218D01*
X1167105Y0894549D01*
X1167924Y0894077D01*
X1168837Y0893832D01*
X1169782D01*
X1170696Y0894077D01*
X1171514Y0894549D01*
X1172180Y0895215D01*
X1181102D01*
Y0861571D01*
X1149688D01*
Y0862513D01*
X1148549D01*
Y0866214D01*
X1149688D01*
Y0872513D01*
X1147453D01*
Y0879115D01*
X1148985D01*
Y0885808D01*
X1143080D01*
Y0879115D01*
X1145229D01*
Y0872513D01*
X1142995D01*
Y0866214D01*
X1144133D01*
Y0862513D01*
X1142995D01*
Y0856214D01*
X1149688D01*
Y0857155D01*
X1181102D01*
Y0796130D01*
X1172180D01*
X1171514Y0796796D01*
X1170696Y0797268D01*
X1169782Y0797513D01*
X1168837D01*
X1167924Y0797268D01*
X1167105Y0796796D01*
X1166436Y0796127D01*
X1165964Y0795308D01*
X1165728Y0794430D01*
X1161508D01*
X1161260Y0794479D01*
X1149688D01*
Y0800421D01*
X1147453D01*
Y0805615D01*
X1147985D01*
Y0812308D01*
X1142080D01*
Y0805615D01*
X1145229D01*
Y0800421D01*
X1142995D01*
Y0794122D01*
X1144133D01*
Y0790421D01*
X1142995D01*
Y0784122D01*
X1149688D01*
Y0790064D01*
X1161062D01*
X1161310Y0790015D01*
X1166838D01*
X1167683Y0790183D01*
X1168173Y0790510D01*
X1168837Y0790332D01*
X1169782D01*
X1170696Y0790577D01*
X1171514Y0791049D01*
X1172180Y0791715D01*
X1181102D01*
Y0722388D01*
X1149688D01*
Y0728330D01*
X1147453D01*
Y0734115D01*
X1148485D01*
Y0740808D01*
X1142580D01*
Y0734115D01*
X1145229D01*
Y0728330D01*
X1142995D01*
Y0722030D01*
X1144133D01*
Y0718330D01*
X1142995D01*
Y0712031D01*
X1149688D01*
Y0717972D01*
X1181102D01*
Y0650637D01*
X1177895Y0647430D01*
X1165310D01*
X1164465Y0647262D01*
X1163748Y0646784D01*
X1154857Y0637892D01*
X1149688Y0643061D01*
Y0646238D01*
X1148549D01*
Y0649939D01*
X1149688D01*
Y0656238D01*
X1146644D01*
Y0662615D01*
X1148485D01*
Y0669308D01*
X1142580D01*
Y0662615D01*
X1144421D01*
Y0656238D01*
X1142995D01*
Y0649939D01*
X1144133D01*
Y0646238D01*
X1142995D01*
Y0639939D01*
X1146565D01*
X1149822Y0636683D01*
X1149559Y0636238D01*
X1149241Y0636238D01*
X1144567D01*
X1139164Y0641641D01*
Y0662615D01*
X1141005D01*
Y0669308D01*
X1139164D01*
Y0672004D01*
X1141770Y0674611D01*
X1148849D01*
X1150698Y0672762D01*
Y0660222D01*
X1150698Y0660222D01*
X1150782Y0659797D01*
X1151023Y0659436D01*
X1156823Y0653636D01*
X1157184Y0653395D01*
X1157610Y0653310D01*
X1157610Y0653310D01*
X1165890D01*
X1165964Y0653036D01*
X1166436Y0652218D01*
X1167105Y0651549D01*
X1167924Y0651077D01*
X1168837Y0650832D01*
X1169782D01*
X1170696Y0651077D01*
X1171514Y0651549D01*
X1172183Y0652218D01*
X1172655Y0653036D01*
X1172900Y0653950D01*
Y0654895D01*
X1172655Y0655808D01*
X1172183Y0656627D01*
X1171514Y0657296D01*
X1170696Y0657768D01*
X1169782Y0658013D01*
X1168837D01*
X1167924Y0657768D01*
X1167105Y0657296D01*
X1166436Y0656627D01*
X1165964Y0655808D01*
X1165890Y0655534D01*
X1158070D01*
X1152922Y0660683D01*
Y0667437D01*
X1153422Y0667589D01*
X1153523Y0667436D01*
X1157523Y0663436D01*
X1157523Y0663436D01*
X1157884Y0663195D01*
X1158310Y0663110D01*
X1165944D01*
X1165964Y0663036D01*
X1166436Y0662218D01*
X1167105Y0661549D01*
X1167924Y0661077D01*
X1168837Y0660832D01*
X1169782D01*
X1170696Y0661077D01*
X1171514Y0661549D01*
X1172183Y0662218D01*
X1172655Y0663036D01*
X1172900Y0663950D01*
Y0664895D01*
X1172655Y0665808D01*
X1172183Y0666627D01*
X1171514Y0667296D01*
X1170696Y0667768D01*
X1169782Y0668013D01*
X1168837D01*
X1167924Y0667768D01*
X1167105Y0667296D01*
X1166436Y0666627D01*
X1165964Y0665808D01*
X1165837Y0665334D01*
X1158770D01*
X1155422Y0668683D01*
Y0674037D01*
X1155922Y0674137D01*
X1156141Y0673607D01*
X1156695Y0673054D01*
X1157418Y0672754D01*
X1158201D01*
X1158925Y0673054D01*
X1159332Y0673460D01*
X1165850D01*
X1165964Y0673036D01*
X1166436Y0672218D01*
X1167105Y0671549D01*
X1167924Y0671077D01*
X1168837Y0670832D01*
X1169782D01*
X1170696Y0671077D01*
X1171514Y0671549D01*
X1172183Y0672218D01*
X1172655Y0673036D01*
X1172900Y0673950D01*
Y0674895D01*
X1172655Y0675808D01*
X1172183Y0676627D01*
X1171514Y0677296D01*
X1170696Y0677768D01*
X1169782Y0678013D01*
X1168837D01*
X1167924Y0677768D01*
X1167105Y0677296D01*
X1166436Y0676627D01*
X1165964Y0675808D01*
X1165931Y0675684D01*
X1159542D01*
X1159478Y0675838D01*
X1158925Y0676391D01*
X1158201Y0676691D01*
X1157418D01*
X1156695Y0676391D01*
X1156141Y0675838D01*
X1155922Y0675308D01*
X1155422Y0675408D01*
Y0701222D01*
X1155337Y0701648D01*
X1155096Y0702009D01*
X1151138Y0705966D01*
X1150778Y0706207D01*
X1150352Y0706292D01*
X1150352Y0706292D01*
X1149688D01*
Y0708330D01*
X1144567D01*
X1139164Y0713733D01*
Y0734115D01*
X1141005D01*
Y0740808D01*
X1135099D01*
Y0734115D01*
X1136940D01*
Y0713272D01*
X1136940Y0713272D01*
X1137025Y0712847D01*
X1137266Y0712486D01*
X1142995Y0706757D01*
Y0702031D01*
X1149688D01*
Y0703565D01*
X1150188Y0703772D01*
X1153198Y0700762D01*
Y0674008D01*
X1152698Y0673856D01*
X1152596Y0674009D01*
X1152596Y0674009D01*
X1150096Y0676509D01*
X1149735Y0676750D01*
X1149310Y0676834D01*
X1149310Y0676834D01*
X1141310D01*
X1140884Y0676750D01*
X1140523Y0676509D01*
X1140523Y0676509D01*
X1137266Y0673251D01*
X1137025Y0672891D01*
X1136940Y0672465D01*
X1136940Y0672465D01*
Y0669308D01*
X1135099D01*
Y0662615D01*
X1136940D01*
Y0641181D01*
X1136940Y0641181D01*
X1137025Y0640755D01*
X1137266Y0640394D01*
X1142995Y0634666D01*
Y0629939D01*
X1149688D01*
Y0635757D01*
X1149688Y0636110D01*
X1150132Y0636372D01*
X1152102Y0634402D01*
Y0612137D01*
X1151395Y0611430D01*
X0938293D01*
X0938102Y0611892D01*
X0938371Y0612161D01*
X0938849Y0612878D01*
X0939017Y0613722D01*
Y0650021D01*
X0946550Y0657553D01*
X0983979D01*
Y0679752D01*
Y0682356D01*
X0965017D01*
Y0683515D01*
X1004395D01*
X1006208Y0681702D01*
Y0679533D01*
Y0675616D01*
X1006251Y0675403D01*
Y0668632D01*
X1011369D01*
Y0679919D01*
Y0681813D01*
X1010624D01*
Y0682616D01*
X1010456Y0683461D01*
X1009977Y0684177D01*
X1006871Y0687284D01*
X1006155Y0687762D01*
X1005310Y0687930D01*
X0958224D01*
X0955517Y0690637D01*
Y0692341D01*
X0957837D01*
Y0709270D01*
X0948782D01*
Y0692341D01*
X0951102D01*
Y0689722D01*
X0951270Y0688878D01*
X0951748Y0688161D01*
X0955748Y0684161D01*
X0956465Y0683683D01*
X0957310Y0683515D01*
X0960602D01*
Y0682356D01*
X0943428D01*
Y0674334D01*
X0934762D01*
Y0676569D01*
X0928857D01*
Y0669876D01*
X0934762D01*
Y0672111D01*
X0943428D01*
Y0660675D01*
X0935248Y0652496D01*
X0934770Y0651780D01*
X0934602Y0650935D01*
Y0614637D01*
X0931395Y0611430D01*
X0905008D01*
X0904801Y0611930D01*
X0904978Y0612107D01*
X0905278Y0612831D01*
Y0613614D01*
X0904978Y0614337D01*
X0904425Y0614891D01*
X0904422Y0614893D01*
Y0625325D01*
Y0625325D01*
X0904337Y0625750D01*
X0904096Y0626111D01*
X0904096Y0626111D01*
X0904096Y0626111D01*
X0890625Y0639582D01*
Y0644506D01*
X0883932D01*
X0883932Y0644506D01*
Y0644506D01*
X0883469Y0644635D01*
X0882005Y0646099D01*
X0881645Y0646340D01*
X0881219Y0646425D01*
X0880896Y0646764D01*
Y0649433D01*
X0874203D01*
Y0643659D01*
X0873756Y0643399D01*
X0869871Y0647284D01*
X0869154Y0647762D01*
X0868310Y0647930D01*
X0858724D01*
X0852017Y0654637D01*
Y0663015D01*
X0861440D01*
X0862105Y0662349D01*
X0862924Y0661877D01*
X0863837Y0661632D01*
X0864782D01*
X0865696Y0661877D01*
X0866514Y0662349D01*
X0867183Y0663018D01*
X0867655Y0663836D01*
X0867900Y0664750D01*
Y0665695D01*
X0867655Y0666608D01*
X0867183Y0667427D01*
X0866514Y0668096D01*
X0865696Y0668568D01*
X0864782Y0668813D01*
X0863837D01*
X0862924Y0668568D01*
X0862105Y0668096D01*
X0861440Y0667430D01*
X0852017D01*
Y0701515D01*
X0883932D01*
Y0700298D01*
X0885070D01*
Y0696597D01*
X0883932D01*
Y0690298D01*
X0890625D01*
Y0696597D01*
X0889486D01*
Y0700298D01*
X0890625D01*
Y0706597D01*
X0883932D01*
Y0705930D01*
X0880396D01*
Y0707452D01*
X0873703D01*
Y0705930D01*
X0856008D01*
X0855801Y0706430D01*
X0855978Y0706607D01*
X0856278Y0707331D01*
Y0708114D01*
X0856277Y0708117D01*
X0887770Y0739610D01*
X0887810D01*
X0887810Y0739610D01*
X0888235Y0739695D01*
X0888596Y0739936D01*
X0897096Y0748436D01*
X0897096Y0748436D01*
X0897337Y0748797D01*
X0897422Y0749222D01*
X0897422Y0749223D01*
Y0782222D01*
X0897337Y0782648D01*
X0897096Y0783009D01*
X0897096Y0783009D01*
X0893779Y0786326D01*
X0893418Y0786567D01*
X0892993Y0786651D01*
X0892993Y0786651D01*
X0890625D01*
Y0788689D01*
X0883932D01*
Y0785092D01*
X0879895D01*
Y0786933D01*
X0873203D01*
Y0781027D01*
X0879895D01*
Y0782868D01*
X0883932D01*
Y0782390D01*
X0890625D01*
Y0784427D01*
X0892532D01*
X0895198Y0781762D01*
Y0749683D01*
X0887349Y0741834D01*
X0887310D01*
X0887310Y0741834D01*
X0886884Y0741750D01*
X0886523Y0741509D01*
X0886523Y0741509D01*
X0854704Y0709690D01*
X0854701Y0709691D01*
X0853918D01*
X0853195Y0709391D01*
X0852641Y0708838D01*
X0852517Y0708540D01*
X0852017Y0708639D01*
Y0772515D01*
X0861440D01*
X0862105Y0771849D01*
X0862924Y0771377D01*
X0863837Y0771132D01*
X0864782D01*
X0865696Y0771377D01*
X0866514Y0771849D01*
X0867183Y0772518D01*
X0867417Y0772923D01*
X0883932D01*
Y0772390D01*
X0885070D01*
Y0768689D01*
X0883932D01*
Y0762390D01*
X0890625D01*
Y0768689D01*
X0889486D01*
Y0772390D01*
X0890625D01*
Y0778689D01*
X0883932D01*
Y0777339D01*
X0879895D01*
Y0779452D01*
X0873203D01*
Y0777339D01*
X0866771D01*
X0866514Y0777596D01*
X0865696Y0778068D01*
X0864782Y0778313D01*
X0863837D01*
X0862924Y0778068D01*
X0862105Y0777596D01*
X0861440Y0776930D01*
X0852017D01*
Y0840423D01*
X0883932D01*
Y0834481D01*
X0890625D01*
Y0840781D01*
X0889486D01*
Y0844481D01*
X0890625D01*
Y0850780D01*
X0883932D01*
Y0844839D01*
X0879895D01*
Y0846952D01*
X0873203D01*
Y0844839D01*
X0852017D01*
Y0866524D01*
X0852517Y0866731D01*
X0852695Y0866554D01*
X0853418Y0866254D01*
X0854201D01*
X0854925Y0866554D01*
X0855478Y0867107D01*
X0855480Y0867111D01*
X0860719D01*
Y0864632D01*
X0867900D01*
Y0871813D01*
X0860719D01*
Y0869334D01*
X0855480D01*
X0855478Y0869337D01*
X0854925Y0869891D01*
X0854201Y0870191D01*
X0853418D01*
X0852695Y0869891D01*
X0852517Y0869714D01*
X0852017Y0869921D01*
Y0875463D01*
X0852569Y0876015D01*
X0861440D01*
X0862105Y0875349D01*
X0862924Y0874877D01*
X0863837Y0874632D01*
X0864782D01*
X0865696Y0874877D01*
X0866514Y0875349D01*
X0867183Y0876018D01*
X0867655Y0876836D01*
X0867900Y0877750D01*
Y0878695D01*
X0867655Y0879608D01*
X0867183Y0880427D01*
X0866514Y0881096D01*
X0865696Y0881568D01*
X0864782Y0881813D01*
X0863837D01*
X0862924Y0881568D01*
X0862105Y0881096D01*
X0861440Y0880430D01*
X0852017D01*
Y0914808D01*
X0854724Y0917515D01*
X0883932D01*
Y0916573D01*
X0885070D01*
Y0912872D01*
X0883932D01*
Y0906573D01*
X0890625D01*
Y0912872D01*
X0889486D01*
Y0916573D01*
X0890625D01*
Y0922872D01*
X0883932D01*
Y0921930D01*
X0879395D01*
Y0924452D01*
X0873407D01*
X0873200Y0924952D01*
X0874275Y0926027D01*
X0879395D01*
Y0927746D01*
X0883932D01*
Y0926573D01*
X0890625D01*
Y0932872D01*
X0883932D01*
Y0930957D01*
X0879395D01*
Y0931933D01*
X0872703D01*
Y0927600D01*
X0871773Y0926670D01*
X0871146D01*
X0870925Y0926891D01*
X0870201Y0927191D01*
X0869418D01*
X0868695Y0926891D01*
X0868141Y0926338D01*
X0867841Y0925614D01*
Y0924831D01*
X0868141Y0924107D01*
X0868695Y0923554D01*
X0869418Y0923254D01*
X0870201D01*
X0870925Y0923554D01*
X0871478Y0924107D01*
X0871619Y0924446D01*
X0872203D01*
X0872234Y0924446D01*
X0872234Y0924446D01*
X0872703Y0924030D01*
Y0921930D01*
X0853810D01*
X0852965Y0921762D01*
X0852248Y0921284D01*
X0848248Y0917284D01*
X0847770Y0916567D01*
X0847602Y0915722D01*
Y0876377D01*
Y0842722D01*
Y0775222D01*
Y0703722D01*
Y0665222D01*
Y0653722D01*
X0847770Y0652878D01*
X0848248Y0652161D01*
X0856248Y0644161D01*
X0856965Y0643683D01*
X0857810Y0643515D01*
X0867395D01*
X0874203Y0636707D01*
Y0636047D01*
X0874863D01*
X0876602Y0634308D01*
Y0626722D01*
Y0613222D01*
X0876770Y0612378D01*
X0877248Y0611661D01*
X0881248Y0607661D01*
X0881965Y0607183D01*
X0882810Y0607015D01*
X1152310D01*
X1153154Y0607183D01*
X1153871Y0607661D01*
X1155871Y0609661D01*
X1156349Y0610378D01*
X1156517Y0611222D01*
Y0633308D01*
X1166224Y0643015D01*
X1178810D01*
X1179655Y0643183D01*
X1180371Y0643661D01*
X1184871Y0648161D01*
X1185349Y0648878D01*
X1185517Y0649722D01*
Y0720722D01*
Y0794222D01*
Y0859722D01*
Y0897422D01*
Y0910722D01*
X1185349Y0911567D01*
X1184871Y0912284D01*
X1176371Y0920784D01*
X1175655Y0921262D01*
X1174810Y0921430D01*
X1163724D01*
X1154505Y0930650D01*
X1153788Y0931128D01*
X1152944Y0931296D01*
X1149688D01*
Y0932238D01*
X1148549D01*
Y0935939D01*
X1149688D01*
Y0942238D01*
X1147453D01*
Y0947115D01*
X1148985D01*
Y0953808D01*
D02*
G37*
G36*
X1141505D02*
X1135599D01*
Y0947115D01*
X1137440D01*
Y0926681D01*
X1137440Y0926681D01*
X1137525Y0926255D01*
X1137766Y0925895D01*
X1142995Y0920666D01*
Y0915939D01*
X1148115D01*
X1157418Y0906636D01*
X1157418Y0906636D01*
X1157779Y0906395D01*
X1158204Y0906310D01*
X1165719D01*
Y0903832D01*
X1172900D01*
Y0911013D01*
X1165719D01*
Y0908534D01*
X1158665D01*
X1149688Y0917511D01*
Y0922238D01*
X1144567D01*
X1139664Y0927141D01*
Y0947115D01*
X1141505D01*
Y0953808D01*
D02*
G37*
G36*
X0864782Y0901813D02*
X0863837D01*
X0862924Y0901568D01*
X0862105Y0901096D01*
X0861436Y0900427D01*
X0860964Y0899608D01*
X0860719Y0898695D01*
Y0897750D01*
X0860964Y0896836D01*
X0861436Y0896018D01*
X0862105Y0895349D01*
X0862924Y0894877D01*
X0863837Y0894632D01*
X0864782D01*
X0865696Y0894877D01*
X0866514Y0895349D01*
X0867183Y0896018D01*
X0867655Y0896836D01*
X0867729Y0897110D01*
X0876599D01*
Y0894615D01*
X0882505D01*
Y0901308D01*
X0876599D01*
Y0899334D01*
X0867729D01*
X0867655Y0899608D01*
X0867183Y0900427D01*
X0866514Y0901096D01*
X0865696Y0901568D01*
X0864782Y0901813D01*
D02*
G37*
G36*
Y0891813D02*
X0863837D01*
X0862924Y0891568D01*
X0862105Y0891096D01*
X0861436Y0890427D01*
X0860964Y0889608D01*
X0860719Y0888695D01*
Y0887750D01*
X0860964Y0886837D01*
X0861436Y0886018D01*
X0862105Y0885349D01*
X0862924Y0884877D01*
X0863837Y0884632D01*
X0864782D01*
X0865696Y0884877D01*
X0866514Y0885349D01*
X0867183Y0886018D01*
X0867655Y0886837D01*
X0867729Y0887111D01*
X0876599D01*
Y0885093D01*
X0882505D01*
Y0891786D01*
X0876599D01*
Y0889334D01*
X0867729D01*
X0867655Y0889608D01*
X0867183Y0890427D01*
X0866514Y0891096D01*
X0865696Y0891568D01*
X0864782Y0891813D01*
D02*
G37*
G36*
X1160396Y0896433D02*
X1153703D01*
Y0890527D01*
X1160396D01*
Y0892368D01*
X1162792D01*
X1166106Y0889054D01*
X1165964Y0888808D01*
X1165719Y0887895D01*
Y0886950D01*
X1165964Y0886036D01*
X1166436Y0885218D01*
X1167105Y0884549D01*
X1167924Y0884077D01*
X1168837Y0883832D01*
X1169782D01*
X1170696Y0884077D01*
X1171514Y0884549D01*
X1172183Y0885218D01*
X1172655Y0886036D01*
X1172900Y0886950D01*
Y0887895D01*
X1172655Y0888808D01*
X1172183Y0889627D01*
X1171514Y0890296D01*
X1170696Y0890768D01*
X1169782Y0891013D01*
X1168837D01*
X1167924Y0890768D01*
X1167678Y0890627D01*
X1164038Y0894266D01*
X1163678Y0894507D01*
X1163252Y0894592D01*
X1163252Y0894592D01*
X1160396D01*
Y0896433D01*
D02*
G37*
G36*
X1169782Y0881013D02*
X1168837D01*
X1167924Y0880768D01*
X1167105Y0880296D01*
X1166436Y0879627D01*
X1165964Y0878808D01*
X1165719Y0877895D01*
Y0876950D01*
X1165964Y0876036D01*
X1166106Y0875791D01*
X1161392Y0871077D01*
X1160417D01*
Y0872918D01*
X1153724D01*
Y0867012D01*
X1160417D01*
Y0868853D01*
X1161852D01*
X1161852Y0868853D01*
X1162278Y0868938D01*
X1162638Y0869179D01*
X1167678Y0874218D01*
X1167924Y0874077D01*
X1168837Y0873832D01*
X1169782D01*
X1170696Y0874077D01*
X1171514Y0874549D01*
X1172183Y0875218D01*
X1172655Y0876036D01*
X1172900Y0876950D01*
Y0877895D01*
X1172655Y0878808D01*
X1172183Y0879627D01*
X1171514Y0880296D01*
X1170696Y0880768D01*
X1169782Y0881013D01*
D02*
G37*
G36*
X0890625Y0860781D02*
X0883932D01*
Y0858743D01*
X0883022D01*
X0882597Y0858658D01*
X0882236Y0858417D01*
X0880127Y0856308D01*
X0879984Y0856093D01*
X0878323Y0854433D01*
X0873203D01*
Y0848527D01*
X0879895D01*
Y0852860D01*
X0881700Y0854665D01*
X0881700Y0854665D01*
X0881844Y0854880D01*
X0883432Y0856468D01*
X0883932Y0856396D01*
Y0854481D01*
X0890625D01*
Y0856519D01*
X0895941D01*
X0897342Y0855117D01*
X0897341Y0855114D01*
Y0854331D01*
X0897641Y0853607D01*
X0898195Y0853054D01*
X0898918Y0852754D01*
X0899701D01*
X0900425Y0853054D01*
X0900978Y0853607D01*
X0901278Y0854331D01*
Y0855114D01*
X0900978Y0855838D01*
X0900425Y0856391D01*
X0899701Y0856691D01*
X0898918D01*
X0898915Y0856690D01*
X0897187Y0858417D01*
X0896827Y0858658D01*
X0896401Y0858743D01*
X0896401Y0858743D01*
X0890625D01*
Y0860781D01*
D02*
G37*
G36*
X0879895Y0823933D02*
X0873203D01*
Y0822092D01*
X0860067D01*
X0860067Y0822092D01*
X0859642Y0822007D01*
X0859281Y0821766D01*
X0859281Y0821766D01*
X0855023Y0817509D01*
X0854782Y0817148D01*
X0854698Y0816722D01*
X0854698Y0816722D01*
Y0799722D01*
X0854698Y0799722D01*
X0854782Y0799297D01*
X0855023Y0798936D01*
X0859067Y0794893D01*
X0859427Y0794652D01*
X0859853Y0794567D01*
X0859853Y0794567D01*
X0860719D01*
Y0794250D01*
X0860964Y0793336D01*
X0861436Y0792518D01*
X0862105Y0791849D01*
X0862924Y0791377D01*
X0863837Y0791132D01*
X0864782D01*
X0865696Y0791377D01*
X0866514Y0791849D01*
X0867183Y0792518D01*
X0867655Y0793336D01*
X0867900Y0794250D01*
Y0795195D01*
X0867655Y0796108D01*
X0867183Y0796927D01*
X0866514Y0797596D01*
X0865696Y0798068D01*
X0864782Y0798313D01*
X0863837D01*
X0862924Y0798068D01*
X0862105Y0797596D01*
X0861436Y0796927D01*
X0861358Y0796791D01*
X0860314D01*
X0856922Y0800183D01*
Y0816262D01*
X0860528Y0819868D01*
X0873203D01*
Y0818027D01*
X0879895D01*
Y0823933D01*
D02*
G37*
G36*
X1141505Y0885808D02*
X1135599D01*
Y0879115D01*
X1137440D01*
Y0856955D01*
X1137440Y0856955D01*
X1137525Y0856530D01*
X1137766Y0856169D01*
X1142995Y0850940D01*
Y0846214D01*
X1147918D01*
X1168198Y0825934D01*
Y0807513D01*
X1165719D01*
Y0800332D01*
X1172900D01*
Y0807513D01*
X1170422D01*
Y0826395D01*
X1170422Y0826395D01*
X1170337Y0826820D01*
X1170096Y0827181D01*
X1170096Y0827181D01*
X1149688Y0847589D01*
Y0852513D01*
X1144567D01*
X1139664Y0857416D01*
Y0879115D01*
X1141505D01*
Y0885808D01*
D02*
G37*
G36*
X0879917Y0797918D02*
X0873224D01*
Y0794215D01*
X0872690D01*
X0872690Y0794215D01*
X0872264Y0794130D01*
X0871904Y0793889D01*
X0871904Y0793889D01*
X0865941Y0787926D01*
X0865696Y0788068D01*
X0864782Y0788313D01*
X0863837D01*
X0862924Y0788068D01*
X0862105Y0787596D01*
X0861436Y0786927D01*
X0860964Y0786108D01*
X0860719Y0785195D01*
Y0784250D01*
X0860964Y0783336D01*
X0861436Y0782518D01*
X0862105Y0781849D01*
X0862924Y0781377D01*
X0863837Y0781132D01*
X0864782D01*
X0865696Y0781377D01*
X0866514Y0781849D01*
X0867183Y0782518D01*
X0867655Y0783336D01*
X0867900Y0784250D01*
Y0785195D01*
X0867655Y0786108D01*
X0867514Y0786354D01*
X0873151Y0791991D01*
X0874708D01*
X0874708Y0791991D01*
X0874816Y0792012D01*
X0879917D01*
Y0797918D01*
D02*
G37*
G36*
X1169782Y0787513D02*
X1168837D01*
X1167924Y0787268D01*
X1167105Y0786796D01*
X1166436Y0786127D01*
X1165964Y0785308D01*
X1165890Y0785034D01*
X1160396D01*
Y0785933D01*
X1153703D01*
Y0780027D01*
X1160396D01*
Y0782810D01*
X1165890D01*
X1165964Y0782537D01*
X1166436Y0781718D01*
X1167105Y0781049D01*
X1167924Y0780577D01*
X1168837Y0780332D01*
X1169782D01*
X1170696Y0780577D01*
X1171514Y0781049D01*
X1172183Y0781718D01*
X1172655Y0782537D01*
X1172900Y0783450D01*
Y0784395D01*
X1172655Y0785308D01*
X1172183Y0786127D01*
X1171514Y0786796D01*
X1170696Y0787268D01*
X1169782Y0787513D01*
D02*
G37*
G36*
X0867900Y0768313D02*
X0860719D01*
Y0761132D01*
X0867900D01*
Y0768313D01*
D02*
G37*
G36*
X1169782Y0777513D02*
X1168837D01*
X1167924Y0777268D01*
X1167105Y0776796D01*
X1166436Y0776127D01*
X1165964Y0775308D01*
X1165719Y0774395D01*
Y0773450D01*
X1165964Y0772537D01*
X1166436Y0771718D01*
X1167105Y0771049D01*
X1167924Y0770577D01*
X1168837Y0770332D01*
X1169782D01*
X1170696Y0770577D01*
X1171514Y0771049D01*
X1172183Y0771718D01*
X1172655Y0772537D01*
X1172729Y0772811D01*
X1174149D01*
X1175198Y0771762D01*
Y0762722D01*
X1175198Y0762722D01*
X1175282Y0762297D01*
X1175284Y0762295D01*
Y0762269D01*
X1173092Y0760077D01*
X1160417D01*
Y0761918D01*
X1153724D01*
Y0756012D01*
X1160417D01*
Y0757853D01*
X1173552D01*
X1173552Y0757853D01*
X1173978Y0757938D01*
X1174338Y0758179D01*
X1177182Y0761022D01*
X1177423Y0761383D01*
X1177507Y0761808D01*
Y0762637D01*
X1177507Y0762637D01*
X1177423Y0763062D01*
X1177422Y0763064D01*
Y0772222D01*
X1177337Y0772648D01*
X1177096Y0773009D01*
X1177096Y0773009D01*
X1175396Y0774709D01*
X1175035Y0774950D01*
X1174610Y0775034D01*
X1174610Y0775034D01*
X1172729D01*
X1172655Y0775308D01*
X1172183Y0776127D01*
X1171514Y0776796D01*
X1170696Y0777268D01*
X1169782Y0777513D01*
D02*
G37*
G36*
X0890625Y0716597D02*
X0883932D01*
Y0713092D01*
X0880396D01*
Y0714933D01*
X0873703D01*
Y0709027D01*
X0880396D01*
Y0710868D01*
X0883932D01*
Y0710298D01*
X0890625D01*
Y0712336D01*
X0895624D01*
X0897842Y0710117D01*
X0897841Y0710114D01*
Y0709331D01*
X0898141Y0708607D01*
X0898695Y0708054D01*
X0899418Y0707754D01*
X0900201D01*
X0900925Y0708054D01*
X0901478Y0708607D01*
X0901778Y0709331D01*
Y0710114D01*
X0901478Y0710838D01*
X0900925Y0711391D01*
X0900201Y0711691D01*
X0899418D01*
X0899415Y0711690D01*
X0896871Y0714234D01*
X0896510Y0714475D01*
X0896084Y0714560D01*
X0896084Y0714560D01*
X0890625D01*
Y0716597D01*
D02*
G37*
G36*
X1081853Y0718266D02*
X1074766D01*
Y0716930D01*
X1070310D01*
X1069465Y0716762D01*
X1068748Y0716284D01*
X1057474Y0705009D01*
X1056996Y0704293D01*
X1056828Y0703448D01*
Y0679842D01*
Y0647980D01*
X1056366Y0647789D01*
X1032369Y0671786D01*
Y0680048D01*
Y0681813D01*
X1032017D01*
Y0692341D01*
X1032337D01*
Y0709270D01*
X1023282D01*
Y0692341D01*
X1027602D01*
Y0681813D01*
X1027251D01*
Y0679662D01*
Y0668632D01*
X1029278D01*
X1057474Y0640436D01*
X1072851Y0625059D01*
X1072472Y0624145D01*
X1072219Y0622872D01*
Y0621573D01*
X1072472Y0620300D01*
X1072969Y0619101D01*
X1073690Y0618021D01*
X1074608Y0617103D01*
X1075688Y0616382D01*
X1076887Y0615885D01*
X1078160Y0615632D01*
X1079459D01*
X1080732Y0615885D01*
X1081931Y0616382D01*
X1083011Y0617103D01*
X1083929Y0618021D01*
X1084650Y0619101D01*
X1085147Y0620300D01*
X1085400Y0621573D01*
Y0622872D01*
X1085147Y0624145D01*
X1084650Y0625344D01*
X1083929Y0626424D01*
X1083011Y0627342D01*
X1081931Y0628063D01*
X1080732Y0628560D01*
X1079459Y0628813D01*
X1078160D01*
X1076887Y0628560D01*
X1075973Y0628181D01*
X1061243Y0642911D01*
Y0680224D01*
Y0702534D01*
X1071224Y0712515D01*
X1074766D01*
Y0711179D01*
X1081853D01*
Y0718266D01*
D02*
G37*
G36*
X1100917Y0708418D02*
X1094224D01*
Y0702512D01*
X1100917D01*
Y0704353D01*
X1105436D01*
Y0701755D01*
X1112129D01*
Y0708054D01*
X1105436D01*
Y0706577D01*
X1100917D01*
Y0708418D01*
D02*
G37*
G36*
X0880896Y0695433D02*
X0874203D01*
Y0693592D01*
X0871567D01*
X0871567Y0693592D01*
X0871142Y0693507D01*
X0870781Y0693266D01*
X0870781Y0693266D01*
X0865941Y0688426D01*
X0865696Y0688568D01*
X0864782Y0688813D01*
X0863837D01*
X0862924Y0688568D01*
X0862105Y0688096D01*
X0861436Y0687427D01*
X0860964Y0686608D01*
X0860719Y0685695D01*
Y0684750D01*
X0860964Y0683837D01*
X0861436Y0683018D01*
X0862105Y0682349D01*
X0862924Y0681877D01*
X0863837Y0681632D01*
X0864782D01*
X0865696Y0681877D01*
X0866514Y0682349D01*
X0867183Y0683018D01*
X0867655Y0683837D01*
X0867900Y0684750D01*
Y0685695D01*
X0867655Y0686608D01*
X0867514Y0686854D01*
X0872028Y0691368D01*
X0874203D01*
Y0689527D01*
X0880896D01*
Y0695433D01*
D02*
G37*
G36*
X1112129Y0698054D02*
X1105436D01*
Y0691755D01*
X1112129D01*
Y0698054D01*
D02*
G37*
G36*
X1172900Y0698013D02*
X1165719D01*
Y0690832D01*
X1172900D01*
Y0698013D01*
D02*
G37*
G36*
X0928184Y0696873D02*
X0921491D01*
Y0690574D01*
X0928184D01*
Y0696873D01*
D02*
G37*
G36*
X1078776Y0688266D02*
X1077843D01*
X1076942Y0688024D01*
X1076134Y0687558D01*
X1075474Y0686898D01*
X1075008Y0686090D01*
X1074766Y0685189D01*
Y0684256D01*
X1075008Y0683355D01*
X1075474Y0682547D01*
X1076134Y0681887D01*
X1076942Y0681421D01*
X1077843Y0681179D01*
X1078776D01*
X1079677Y0681421D01*
X1080485Y0681887D01*
X1081145Y0682547D01*
X1081612Y0683355D01*
X1081853Y0684256D01*
Y0685189D01*
X1081612Y0686090D01*
X1081145Y0686898D01*
X1080485Y0687558D01*
X1079677Y0688024D01*
X1078776Y0688266D01*
D02*
G37*
G36*
X1169782Y0688013D02*
X1168837D01*
X1167924Y0687768D01*
X1167105Y0687296D01*
X1166436Y0686627D01*
X1165964Y0685808D01*
X1165719Y0684895D01*
Y0683950D01*
X1165964Y0683037D01*
X1166436Y0682218D01*
X1167105Y0681549D01*
X1167924Y0681077D01*
X1168837Y0680832D01*
X1169782D01*
X1170696Y0681077D01*
X1171514Y0681549D01*
X1172183Y0682218D01*
X1172655Y0683037D01*
X1172900Y0683950D01*
Y0684895D01*
X1172655Y0685808D01*
X1172183Y0686627D01*
X1171514Y0687296D01*
X1170696Y0687768D01*
X1169782Y0688013D01*
D02*
G37*
G36*
X0926677Y0686324D02*
X0920496D01*
Y0679642D01*
X0923217D01*
Y0676569D01*
X0921377D01*
Y0669876D01*
X0927282D01*
Y0676569D01*
X0925441D01*
Y0679394D01*
D01*
Y0679642D01*
X0926677D01*
Y0686324D01*
D02*
G37*
G36*
X0864782Y0678813D02*
X0863837D01*
X0862924Y0678568D01*
X0862105Y0678096D01*
X0861436Y0677427D01*
X0860964Y0676608D01*
X0860719Y0675695D01*
Y0674750D01*
X0860964Y0673837D01*
X0861436Y0673018D01*
X0862105Y0672349D01*
X0862924Y0671877D01*
X0863837Y0671632D01*
X0864782D01*
X0865696Y0671877D01*
X0865941Y0672018D01*
X0869781Y0668179D01*
X0869781Y0668179D01*
X0870142Y0667938D01*
X0870567Y0667853D01*
X0874224D01*
Y0666012D01*
X0880917D01*
Y0671918D01*
X0874224D01*
Y0670077D01*
X0871028D01*
X0867514Y0673591D01*
X0867655Y0673837D01*
X0867900Y0674750D01*
Y0675695D01*
X0867655Y0676608D01*
X0867183Y0677427D01*
X0866514Y0678096D01*
X0865696Y0678568D01*
X0864782Y0678813D01*
D02*
G37*
G36*
X0934985Y0666808D02*
X0929080D01*
Y0660115D01*
X0934985D01*
Y0662610D01*
X0937140D01*
X0937141Y0662607D01*
X0937695Y0662054D01*
X0938418Y0661754D01*
X0939201D01*
X0939925Y0662054D01*
X0940479Y0662607D01*
X0940778Y0663331D01*
Y0664114D01*
X0940479Y0664838D01*
X0939925Y0665391D01*
X0939201Y0665691D01*
X0938418D01*
X0937695Y0665391D01*
X0937141Y0664838D01*
X0937140Y0664834D01*
X0934985D01*
Y0666808D01*
D02*
G37*
G36*
X0927505D02*
X0921599D01*
Y0664574D01*
X0919049D01*
X0918624Y0664489D01*
X0918263Y0664248D01*
X0918263Y0664248D01*
X0917023Y0663009D01*
X0916782Y0662648D01*
X0916698Y0662222D01*
X0916698Y0662222D01*
Y0644723D01*
X0916698Y0644722D01*
X0916782Y0644297D01*
X0917023Y0643936D01*
X0920114Y0640846D01*
X0920114Y0640846D01*
X0920475Y0640605D01*
X0920900Y0640520D01*
X0920900Y0640520D01*
X0921491D01*
Y0638482D01*
X0928184D01*
Y0644781D01*
X0921491D01*
Y0643321D01*
X0920991Y0643114D01*
X0918922Y0645183D01*
Y0661762D01*
X0919510Y0662350D01*
X0921599D01*
Y0660115D01*
X0927505D01*
Y0666808D01*
D02*
G37*
G36*
X0867900Y0658813D02*
X0860719D01*
Y0651632D01*
X0867900D01*
Y0658813D01*
D02*
G37*
G36*
X1112129Y0655963D02*
X1105436D01*
Y0649663D01*
X1112129D01*
Y0655963D01*
D02*
G37*
G36*
X0928184Y0654781D02*
X0921491D01*
Y0648482D01*
X0928184D01*
Y0654781D01*
D02*
G37*
G36*
X1098201Y0650191D02*
X1097418D01*
X1096695Y0649891D01*
X1096141Y0649337D01*
X1095841Y0648614D01*
Y0647831D01*
X1096141Y0647107D01*
X1096695Y0646554D01*
X1096698Y0646552D01*
Y0643155D01*
X1093963D01*
Y0637250D01*
X1100656D01*
Y0643155D01*
X1098922D01*
Y0646552D01*
X1098925Y0646554D01*
X1099479Y0647107D01*
X1099778Y0647831D01*
Y0648614D01*
X1099479Y0649337D01*
X1098925Y0649891D01*
X1098201Y0650191D01*
D02*
G37*
G36*
X1174480Y0634923D02*
X1174370Y0634914D01*
X1173511D01*
X1173450Y0634889D01*
X1173386Y0634902D01*
X1172844Y0634794D01*
X1172839Y0634794D01*
X1172824Y0634790D01*
X1171485Y0634524D01*
X1171430Y0634487D01*
X1171365D01*
X1169573Y0633745D01*
X1169527Y0633699D01*
X1169463Y0633686D01*
X1168327Y0632927D01*
X1168314Y0632919D01*
X1168310Y0632916D01*
X1167851Y0632609D01*
X1167815Y0632555D01*
X1167754Y0632530D01*
X1167147Y0631922D01*
X1167062Y0631850D01*
X1166991Y0631766D01*
X1166383Y0631159D01*
X1166358Y0631098D01*
X1166304Y0631062D01*
X1165997Y0630602D01*
X1165993Y0630599D01*
X1165985Y0630586D01*
X1165226Y0629450D01*
X1165214Y0629386D01*
X1165167Y0629339D01*
X1164425Y0627548D01*
Y0627483D01*
X1164389Y0627428D01*
X1164123Y0626088D01*
X1164119Y0626074D01*
X1164119Y0626068D01*
X1164011Y0625527D01*
X1164024Y0625462D01*
X1163999Y0625402D01*
Y0624543D01*
X1163990Y0624433D01*
X1163999Y0624322D01*
Y0623463D01*
X1164024Y0623403D01*
X1164011Y0623338D01*
X1164119Y0622796D01*
X1164119Y0622791D01*
X1164123Y0622777D01*
X1164389Y0621437D01*
X1164425Y0621382D01*
Y0621317D01*
X1165167Y0619526D01*
X1165214Y0619479D01*
X1165226Y0619415D01*
X1165986Y0618279D01*
X1165993Y0618266D01*
X1165997Y0618263D01*
X1166304Y0617803D01*
X1166358Y0617767D01*
X1166383Y0617706D01*
X1166991Y0617099D01*
X1167062Y0617015D01*
X1167146Y0616943D01*
X1167754Y0616335D01*
X1167815Y0616310D01*
X1167851Y0616256D01*
X1168310Y0615949D01*
X1168314Y0615946D01*
X1168327Y0615938D01*
X1169463Y0615179D01*
X1169527Y0615166D01*
X1169573Y0615120D01*
X1171365Y0614378D01*
X1171430D01*
X1171485Y0614341D01*
X1172825Y0614075D01*
X1172839Y0614071D01*
X1172844Y0614071D01*
X1173386Y0613963D01*
X1173450Y0613976D01*
X1173511Y0613951D01*
X1174370D01*
X1174480Y0613942D01*
X1174591Y0613951D01*
X1175450D01*
X1175510Y0613976D01*
X1175574Y0613963D01*
X1176116Y0614071D01*
X1176121Y0614071D01*
X1176136Y0614075D01*
X1177476Y0614341D01*
X1177530Y0614378D01*
X1177596D01*
X1179387Y0615120D01*
X1179433Y0615166D01*
X1179498Y0615179D01*
X1180634Y0615938D01*
X1180646Y0615946D01*
X1180650Y0615949D01*
X1181110Y0616256D01*
X1181146Y0616310D01*
X1181207Y0616335D01*
X1181814Y0616943D01*
X1181898Y0617015D01*
X1181970Y0617099D01*
X1182578Y0617706D01*
X1182603Y0617767D01*
X1182657Y0617803D01*
X1182964Y0618262D01*
X1182967Y0618266D01*
X1182975Y0618279D01*
X1183734Y0619415D01*
X1183747Y0619479D01*
X1183793Y0619526D01*
X1184535Y0621317D01*
Y0621382D01*
X1184571Y0621437D01*
X1184838Y0622777D01*
X1184842Y0622791D01*
X1184842Y0622796D01*
X1184950Y0623338D01*
X1184937Y0623403D01*
X1184962Y0623463D01*
Y0624322D01*
X1184971Y0624433D01*
X1184962Y0624543D01*
Y0625402D01*
X1184937Y0625462D01*
X1184950Y0625527D01*
X1184842Y0626068D01*
X1184842Y0626074D01*
X1184838Y0626088D01*
X1184571Y0627428D01*
X1184535Y0627483D01*
Y0627548D01*
X1183793Y0629339D01*
X1183747Y0629386D01*
X1183734Y0629450D01*
X1182975Y0630586D01*
X1182967Y0630599D01*
X1182964Y0630603D01*
X1182657Y0631062D01*
X1182603Y0631098D01*
X1182578Y0631159D01*
X1181970Y0631766D01*
X1181898Y0631850D01*
X1181814Y0631922D01*
X1181207Y0632530D01*
X1181146Y0632555D01*
X1181110Y0632609D01*
X1180650Y0632916D01*
X1180646Y0632919D01*
X1180633Y0632927D01*
X1179498Y0633686D01*
X1179433Y0633699D01*
X1179387Y0633745D01*
X1177596Y0634487D01*
X1177530D01*
X1177476Y0634524D01*
X1176136Y0634790D01*
X1176121Y0634794D01*
X1176116Y0634794D01*
X1175574Y0634902D01*
X1175510Y0634889D01*
X1175450Y0634914D01*
X1174591D01*
X1174480Y0634923D01*
D02*
G37*
G36*
X0859520D02*
X0859409Y0634914D01*
X0858550D01*
X0858490Y0634889D01*
X0858426Y0634902D01*
X0857884Y0634794D01*
X0857879Y0634794D01*
X0857864Y0634790D01*
X0856524Y0634524D01*
X0856470Y0634487D01*
X0856404D01*
X0854613Y0633745D01*
X0854567Y0633699D01*
X0854502Y0633686D01*
X0853366Y0632927D01*
X0853354Y0632919D01*
X0853350Y0632916D01*
X0852890Y0632609D01*
X0852854Y0632555D01*
X0852793Y0632530D01*
X0852186Y0631922D01*
X0852102Y0631850D01*
X0852030Y0631766D01*
X0851423Y0631159D01*
X0851398Y0631098D01*
X0851343Y0631062D01*
X0851036Y0630602D01*
X0851033Y0630599D01*
X0851025Y0630586D01*
X0850266Y0629450D01*
X0850253Y0629386D01*
X0850207Y0629339D01*
X0849465Y0627548D01*
Y0627483D01*
X0849428Y0627428D01*
X0849162Y0626088D01*
X0849158Y0626074D01*
X0849158Y0626068D01*
X0849050Y0625527D01*
X0849063Y0625462D01*
X0849038Y0625402D01*
Y0624543D01*
X0849029Y0624433D01*
X0849038Y0624322D01*
Y0623463D01*
X0849063Y0623403D01*
X0849050Y0623338D01*
X0849158Y0622796D01*
X0849158Y0622791D01*
X0849162Y0622777D01*
X0849428Y0621437D01*
X0849465Y0621382D01*
Y0621317D01*
X0850207Y0619526D01*
X0850253Y0619479D01*
X0850266Y0619415D01*
X0851025Y0618279D01*
X0851033Y0618266D01*
X0851036Y0618263D01*
X0851343Y0617803D01*
X0851398Y0617767D01*
X0851423Y0617706D01*
X0852030Y0617099D01*
X0852102Y0617015D01*
X0852186Y0616943D01*
X0852793Y0616335D01*
X0852854Y0616310D01*
X0852890Y0616256D01*
X0853350Y0615949D01*
X0853354Y0615946D01*
X0853366Y0615938D01*
X0854502Y0615179D01*
X0854567Y0615166D01*
X0854613Y0615120D01*
X0856404Y0614378D01*
X0856470D01*
X0856524Y0614341D01*
X0857864Y0614075D01*
X0857879Y0614071D01*
X0857884Y0614071D01*
X0858426Y0613963D01*
X0858490Y0613976D01*
X0858550Y0613951D01*
X0859409D01*
X0859520Y0613942D01*
X0859630Y0613951D01*
X0860489D01*
X0860550Y0613976D01*
X0860614Y0613963D01*
X0861156Y0614071D01*
X0861161Y0614071D01*
X0861175Y0614075D01*
X0862515Y0614341D01*
X0862570Y0614378D01*
X0862635D01*
X0864427Y0615120D01*
X0864473Y0615166D01*
X0864537Y0615179D01*
X0865673Y0615938D01*
X0865686Y0615946D01*
X0865690Y0615949D01*
X0866149Y0616256D01*
X0866185Y0616310D01*
X0866246Y0616335D01*
X0866853Y0616943D01*
X0866938Y0617015D01*
X0867009Y0617099D01*
X0867617Y0617706D01*
X0867642Y0617767D01*
X0867696Y0617803D01*
X0868003Y0618262D01*
X0868007Y0618266D01*
X0868015Y0618279D01*
X0868773Y0619415D01*
X0868786Y0619479D01*
X0868833Y0619526D01*
X0869575Y0621317D01*
Y0621382D01*
X0869611Y0621437D01*
X0869877Y0622777D01*
X0869881Y0622791D01*
X0869881Y0622796D01*
X0869989Y0623338D01*
X0869976Y0623403D01*
X0870001Y0623463D01*
Y0624322D01*
X0870010Y0624433D01*
X0870001Y0624543D01*
Y0625402D01*
X0869976Y0625462D01*
X0869989Y0625527D01*
X0869881Y0626068D01*
X0869881Y0626074D01*
X0869877Y0626088D01*
X0869611Y0627428D01*
X0869575Y0627483D01*
Y0627548D01*
X0868833Y0629339D01*
X0868786Y0629386D01*
X0868773Y0629450D01*
X0868015Y0630586D01*
X0868007Y0630599D01*
X0868003Y0630603D01*
X0867696Y0631062D01*
X0867642Y0631098D01*
X0867617Y0631159D01*
X0867009Y0631766D01*
X0866938Y0631850D01*
X0866853Y0631922D01*
X0866246Y0632530D01*
X0866185Y0632555D01*
X0866149Y0632609D01*
X0865690Y0632916D01*
X0865686Y0632919D01*
X0865673Y0632927D01*
X0864537Y0633686D01*
X0864473Y0633699D01*
X0864427Y0633745D01*
X0862635Y0634487D01*
X0862570D01*
X0862515Y0634524D01*
X0861176Y0634790D01*
X0861161Y0634794D01*
X0861156Y0634794D01*
X0860614Y0634902D01*
X0860550Y0634889D01*
X0860489Y0634914D01*
X0859630D01*
X0859520Y0634923D01*
D02*
G37*
G36*
X1112129Y0635963D02*
X1105436D01*
Y0633834D01*
X1100656D01*
Y0635675D01*
X1093963D01*
Y0629770D01*
X1100656D01*
Y0631610D01*
X1105436D01*
Y0629663D01*
X1112129D01*
Y0635963D01*
D02*
G37*
G36*
Y0625963D02*
X1105436D01*
Y0619663D01*
X1112129D01*
Y0625963D01*
D02*
G37*
G36*
X0928184Y0624782D02*
X0921491D01*
Y0618482D01*
X0928184D01*
Y0624782D01*
D02*
G37*
G36*
X1025369Y0681813D02*
X1020251D01*
Y0679619D01*
Y0668632D01*
X1020602D01*
Y0659637D01*
X1017895Y0656930D01*
X0997684D01*
X0996839Y0656762D01*
X0996122Y0656284D01*
X0980463Y0640624D01*
X0943034D01*
Y0615821D01*
X0983585D01*
Y0637502D01*
X0998598Y0652515D01*
X1018810D01*
X1019654Y0652683D01*
X1020371Y0653161D01*
X1024371Y0657161D01*
X1024849Y0657878D01*
X1025017Y0658722D01*
Y0668632D01*
X1025369D01*
Y0680005D01*
Y0681813D01*
D02*
G37*
%LPD*%
G36*
X0900809Y0624289D02*
Y0615482D01*
X0900375Y0614917D01*
X0900037Y0614099D01*
X0899922Y0613222D01*
X0899928Y0613174D01*
X0899598Y0612798D01*
X0897310D01*
Y0627135D01*
X0897772Y0627327D01*
X0900809Y0624289D01*
D02*
G37*
%LPC*%
G36*
X0977310Y0834834D02*
X0977060D01*
X0976634Y0834750D01*
X0976273Y0834509D01*
X0976273Y0834509D01*
X0974047Y0832282D01*
X0973884Y0832250D01*
X0973523Y0832009D01*
X0973282Y0831648D01*
X0973198Y0831222D01*
Y0826978D01*
X0973198Y0826978D01*
X0973282Y0826553D01*
X0973523Y0826192D01*
X0974266Y0825450D01*
X0974627Y0825208D01*
X0975052Y0825124D01*
X0975478Y0825208D01*
X0975838Y0825450D01*
X0976079Y0825810D01*
X0976164Y0826236D01*
X0976079Y0826661D01*
X0975838Y0827022D01*
X0975422Y0827439D01*
Y0830512D01*
X0977573Y0832663D01*
X0977735Y0832695D01*
X0978096Y0832936D01*
X0978337Y0833297D01*
X0978422Y0833722D01*
X0978337Y0834148D01*
X0978096Y0834509D01*
X0977735Y0834750D01*
X0977310Y0834834D01*
D02*
G37*
G36*
X1066067Y0883595D02*
X1065642Y0883510D01*
X1065281Y0883269D01*
X1065040Y0882909D01*
X1064955Y0882483D01*
Y0882089D01*
X1064955Y0882089D01*
X1065040Y0881664D01*
X1065281Y0881303D01*
X1067143Y0879441D01*
X1067143Y0879441D01*
X1067504Y0879200D01*
X1067929Y0879115D01*
X1069869D01*
X1070048Y0878936D01*
X1070409Y0878695D01*
X1070835Y0878611D01*
X1070835Y0878611D01*
X1070849D01*
X1072523Y0876936D01*
X1072884Y0876695D01*
X1073310Y0876610D01*
X1073735Y0876695D01*
X1074096Y0876936D01*
X1074337Y0877297D01*
X1074422Y0877722D01*
X1074337Y0878148D01*
X1074096Y0878509D01*
X1072096Y0880509D01*
X1071735Y0880750D01*
X1071310Y0880834D01*
X1071310Y0880834D01*
X1071295D01*
X1071116Y0881013D01*
X1070755Y0881254D01*
X1070330Y0881339D01*
X1070330Y0881339D01*
X1068390D01*
X1067162Y0882567D01*
X1067094Y0882909D01*
X1066853Y0883269D01*
X1066493Y0883510D01*
X1066067Y0883595D01*
D02*
G37*
G36*
X1112129Y0872237D02*
X1105436D01*
Y0865938D01*
X1112129D01*
Y0872237D01*
D02*
G37*
G36*
X1089520Y0885830D02*
X1083614D01*
Y0879137D01*
X1088322D01*
X1088429Y0879115D01*
X1094344D01*
X1100788Y0872671D01*
Y0850632D01*
X1100788Y0850632D01*
X1100873Y0850206D01*
X1101114Y0849846D01*
X1102658Y0848301D01*
X1102658Y0848301D01*
X1103019Y0848060D01*
X1103444Y0847976D01*
X1105436D01*
Y0845938D01*
X1112129D01*
Y0852237D01*
X1105436D01*
Y0850200D01*
X1103905D01*
X1103012Y0851093D01*
Y0873132D01*
X1103012Y0873132D01*
X1102927Y0873557D01*
X1102686Y0873918D01*
X1102686Y0873918D01*
X1095591Y0881013D01*
X1095230Y0881254D01*
X1094805Y0881339D01*
X1094805Y0881339D01*
X1089520D01*
Y0885830D01*
D02*
G37*
G36*
X1112129Y0842237D02*
X1105436D01*
Y0835938D01*
X1112129D01*
Y0842237D01*
D02*
G37*
G36*
X1072550Y0868741D02*
X1064669D01*
Y0868023D01*
X1058793D01*
X1058425Y0868391D01*
X1057701Y0868691D01*
X1056918D01*
X1056195Y0868391D01*
X1055641Y0867838D01*
X1055341Y0867114D01*
Y0866331D01*
X1055641Y0865607D01*
X1056195Y0865054D01*
X1056918Y0864754D01*
X1057701D01*
X1058425Y0865054D01*
X1058978Y0865607D01*
X1059058Y0865800D01*
X1064669D01*
Y0865460D01*
X1072550D01*
Y0868741D01*
D02*
G37*
G36*
X1049810Y0872834D02*
X1049384Y0872750D01*
X1049023Y0872509D01*
X1048782Y0872148D01*
X1048698Y0871722D01*
Y0868722D01*
Y0865722D01*
X1048782Y0865297D01*
X1049023Y0864936D01*
X1049384Y0864695D01*
X1049810Y0864610D01*
X1050235Y0864695D01*
X1050596Y0864936D01*
X1050837Y0865297D01*
X1050922Y0865722D01*
Y0868722D01*
Y0871722D01*
X1050837Y0872148D01*
X1050596Y0872509D01*
X1050235Y0872750D01*
X1049810Y0872834D01*
D02*
G37*
G36*
X1092950Y0863741D02*
X1085069D01*
Y0863212D01*
X1072550D01*
Y0863741D01*
X1064669D01*
Y0860460D01*
X1072550D01*
Y0860989D01*
X1085069D01*
Y0860460D01*
X1092950D01*
Y0863741D01*
D02*
G37*
G36*
X1083201Y0859191D02*
X1082418D01*
X1081695Y0858891D01*
X1081141Y0858337D01*
X1080841Y0857614D01*
Y0856831D01*
X1081141Y0856107D01*
X1081695Y0855554D01*
X1082418Y0855254D01*
X1083201D01*
X1083925Y0855554D01*
X1084421Y0856050D01*
X1085069D01*
Y0855460D01*
X1092950D01*
Y0858741D01*
X1085069D01*
Y0858273D01*
X1084505D01*
X1084478Y0858337D01*
X1083925Y0858891D01*
X1083201Y0859191D01*
D02*
G37*
G36*
X1072550Y0858741D02*
X1064669D01*
Y0855460D01*
X1072550D01*
Y0858741D01*
D02*
G37*
G36*
X1076701Y0854191D02*
X1075918D01*
X1075195Y0853891D01*
X1074641Y0853337D01*
X1074341Y0852614D01*
Y0851831D01*
X1074641Y0851107D01*
X1075195Y0850554D01*
X1075918Y0850254D01*
X1076701D01*
X1077425Y0850554D01*
X1077921Y0851050D01*
X1085069D01*
Y0850460D01*
X1092950D01*
Y0853741D01*
X1085069D01*
Y0853273D01*
X1078005D01*
X1077979Y0853337D01*
X1077425Y0853891D01*
X1076701Y0854191D01*
D02*
G37*
G36*
X1072550Y0853741D02*
X1064669D01*
Y0850460D01*
X1072550D01*
Y0853741D01*
D02*
G37*
G36*
Y0848741D02*
X1064669D01*
Y0845460D01*
X1072550D01*
Y0848741D01*
D02*
G37*
G36*
X1092950D02*
X1085069D01*
Y0845460D01*
X1087898D01*
Y0843741D01*
X1085069D01*
Y0840460D01*
X1092950D01*
Y0843741D01*
X1090122D01*
Y0845460D01*
X1092950D01*
Y0848741D01*
D02*
G37*
G36*
X1072550Y0843741D02*
X1064669D01*
Y0840460D01*
X1072550D01*
Y0843741D01*
D02*
G37*
G36*
X1112129Y0800146D02*
X1105436D01*
Y0793847D01*
X1112129D01*
Y0800146D01*
D02*
G37*
G36*
X1088900Y0779063D02*
X1082719D01*
Y0776834D01*
X1078020D01*
Y0778829D01*
X1072114D01*
Y0772137D01*
X1078020D01*
Y0774611D01*
X1082719D01*
Y0772382D01*
X1088900D01*
Y0779063D01*
D02*
G37*
G36*
X1096520Y0814330D02*
X1090614D01*
Y0807637D01*
X1092455D01*
Y0792014D01*
X1092455Y0792014D01*
X1092540Y0791589D01*
X1092781Y0791228D01*
X1105436Y0778573D01*
Y0773846D01*
X1112129D01*
Y0780146D01*
X1107008D01*
X1094679Y0792475D01*
Y0807637D01*
X1096520D01*
Y0814330D01*
D02*
G37*
G36*
X1112129Y0770146D02*
X1105436D01*
Y0763846D01*
X1112129D01*
Y0770146D01*
D02*
G37*
G36*
X1018802Y0805463D02*
X1017817D01*
X1016866Y0805208D01*
X1016013Y0804715D01*
X1015317Y0804019D01*
X1014824Y0803166D01*
X1014569Y0802215D01*
Y0801230D01*
X1014824Y0800279D01*
X1015317Y0799426D01*
X1016013Y0798730D01*
X1016866Y0798237D01*
X1017817Y0797982D01*
X1018802D01*
X1019753Y0798237D01*
X1020606Y0798730D01*
X1021303Y0799426D01*
X1021795Y0800279D01*
X1022050Y0801230D01*
Y0802215D01*
X1021795Y0803166D01*
X1021303Y0804019D01*
X1020606Y0804715D01*
X1019753Y0805208D01*
X1018802Y0805463D01*
D02*
G37*
G36*
X1008802D02*
X1007817D01*
X1006866Y0805208D01*
X1006013Y0804715D01*
X1005317Y0804019D01*
X1004824Y0803166D01*
X1004570Y0802215D01*
Y0801230D01*
X1004824Y0800279D01*
X1005317Y0799426D01*
X1006013Y0798730D01*
X1006866Y0798237D01*
X1007817Y0797982D01*
X1008802D01*
X1009753Y0798237D01*
X1010606Y0798730D01*
X1011302Y0799426D01*
X1011795Y0800279D01*
X1012050Y0801230D01*
Y0802215D01*
X1011795Y0803166D01*
X1011302Y0804019D01*
X1010606Y0804715D01*
X1009753Y0805208D01*
X1008802Y0805463D01*
D02*
G37*
G36*
X1019302Y0779963D02*
X1018317D01*
X1017366Y0779708D01*
X1016513Y0779215D01*
X1015817Y0778519D01*
X1015324Y0777666D01*
X1015069Y0776715D01*
Y0775730D01*
X1015324Y0774779D01*
X1015817Y0773926D01*
X1016513Y0773230D01*
X1017366Y0772737D01*
X1018317Y0772482D01*
X1019302D01*
X1020253Y0772737D01*
X1021106Y0773230D01*
X1021803Y0773926D01*
X1022295Y0774779D01*
X1022550Y0775730D01*
Y0776715D01*
X1022295Y0777666D01*
X1021803Y0778519D01*
X1021106Y0779215D01*
X1020253Y0779708D01*
X1019302Y0779963D01*
D02*
G37*
G36*
X1009302D02*
X1008317D01*
X1007366Y0779708D01*
X1006513Y0779215D01*
X1005817Y0778519D01*
X1005324Y0777666D01*
X1005070Y0776715D01*
Y0775730D01*
X1005324Y0774779D01*
X1005817Y0773926D01*
X1006513Y0773230D01*
X1007366Y0772737D01*
X1008317Y0772482D01*
X1009302D01*
X1010253Y0772737D01*
X1011106Y0773230D01*
X1011802Y0773926D01*
X1012295Y0774779D01*
X1012550Y0775730D01*
Y0776715D01*
X1012295Y0777666D01*
X1011802Y0778519D01*
X1011106Y0779215D01*
X1010253Y0779708D01*
X1009302Y0779963D01*
D02*
G37*
G36*
X1019802Y0759963D02*
X1018817D01*
X1017866Y0759708D01*
X1017013Y0759215D01*
X1016317Y0758519D01*
X1015824Y0757666D01*
X1015569Y0756715D01*
Y0755730D01*
X1015824Y0754779D01*
X1016317Y0753926D01*
X1017013Y0753230D01*
X1017866Y0752737D01*
X1018817Y0752482D01*
X1019802D01*
X1020753Y0752737D01*
X1021606Y0753230D01*
X1022303Y0753926D01*
X1022795Y0754779D01*
X1023050Y0755730D01*
Y0756715D01*
X1022795Y0757666D01*
X1022303Y0758519D01*
X1021606Y0759215D01*
X1020753Y0759708D01*
X1019802Y0759963D01*
D02*
G37*
G36*
X1009802D02*
X1008817D01*
X1007866Y0759708D01*
X1007013Y0759215D01*
X1006317Y0758519D01*
X1005824Y0757666D01*
X1005569Y0756715D01*
Y0755730D01*
X1005824Y0754779D01*
X1006317Y0753926D01*
X1007013Y0753230D01*
X1007866Y0752737D01*
X1008817Y0752482D01*
X1009802D01*
X1010753Y0752737D01*
X1011606Y0753230D01*
X1012302Y0753926D01*
X1012795Y0754779D01*
X1013050Y0755730D01*
Y0756715D01*
X1012795Y0757666D01*
X1012302Y0758519D01*
X1011606Y0759215D01*
X1010753Y0759708D01*
X1009802Y0759963D01*
D02*
G37*
G36*
X0928184Y0841056D02*
X0921491D01*
Y0834757D01*
X0928184D01*
Y0841056D01*
D02*
G37*
G36*
X0927505Y0811808D02*
X0921599D01*
Y0809574D01*
X0919049D01*
X0919049Y0809574D01*
X0918624Y0809489D01*
X0918263Y0809248D01*
X0918263Y0809248D01*
X0917523Y0808509D01*
X0917282Y0808148D01*
X0917198Y0807722D01*
X0917198Y0807722D01*
Y0787222D01*
X0917198Y0787222D01*
X0917282Y0786797D01*
X0917523Y0786436D01*
X0918931Y0785029D01*
X0919292Y0784788D01*
X0919717Y0784703D01*
X0921491D01*
Y0782665D01*
X0928184D01*
Y0788965D01*
X0921491D01*
Y0786927D01*
X0920178D01*
X0919422Y0787683D01*
Y0807262D01*
X0919510Y0807350D01*
X0921599D01*
Y0805115D01*
X0927505D01*
Y0811808D01*
D02*
G37*
G36*
X0932701Y0818191D02*
X0931918D01*
X0931195Y0817891D01*
X0930641Y0817338D01*
X0930341Y0816614D01*
Y0815831D01*
X0930641Y0815107D01*
X0931195Y0814554D01*
X0931198Y0814552D01*
Y0811808D01*
X0929080D01*
Y0805115D01*
X0934985D01*
Y0811808D01*
X0933422D01*
Y0814552D01*
X0933425Y0814554D01*
X0933978Y0815107D01*
X0934278Y0815831D01*
Y0816614D01*
X0933978Y0817338D01*
X0933425Y0817891D01*
X0932701Y0818191D01*
D02*
G37*
G36*
X0951650Y0810313D02*
X0944969D01*
Y0804132D01*
X0947198D01*
Y0799898D01*
X0944963D01*
Y0793993D01*
X0951656D01*
Y0799898D01*
X0949422D01*
Y0804132D01*
X0951650D01*
Y0810313D01*
D02*
G37*
G36*
X0928184Y0798965D02*
X0921491D01*
Y0792665D01*
X0928184D01*
Y0798965D01*
D02*
G37*
G36*
X0953552Y0774848D02*
X0953127Y0774763D01*
X0952766Y0774522D01*
X0952578Y0774334D01*
X0940810D01*
X0940384Y0774250D01*
X0940023Y0774009D01*
X0939782Y0773648D01*
X0939698Y0773222D01*
X0939782Y0772797D01*
X0940023Y0772436D01*
X0940384Y0772195D01*
X0940810Y0772111D01*
X0953039D01*
X0953039Y0772111D01*
X0953464Y0772195D01*
X0953825Y0772436D01*
X0954338Y0772950D01*
X0954579Y0773310D01*
X0954664Y0773736D01*
X0954579Y0774161D01*
X0954338Y0774522D01*
X0953978Y0774763D01*
X0953552Y0774848D01*
D02*
G37*
G36*
X0928184Y0768964D02*
X0921491D01*
Y0762665D01*
X0928184D01*
Y0768964D01*
D02*
G37*
G36*
X1053810Y0738334D02*
X1053384Y0738250D01*
X1053023Y0738009D01*
X1052782Y0737648D01*
X1052698Y0737222D01*
X1052698Y0737222D01*
Y0733722D01*
Y0730834D01*
X1051422D01*
Y0733722D01*
Y0737222D01*
X1051337Y0737648D01*
X1051096Y0738009D01*
X1050735Y0738250D01*
X1050310Y0738334D01*
X1046810D01*
X1046384Y0738250D01*
X1046023Y0738009D01*
X1045782Y0737648D01*
X1045698Y0737222D01*
Y0729722D01*
X1045782Y0729297D01*
X1046023Y0728936D01*
X1046384Y0728695D01*
X1046810Y0728611D01*
X1047235Y0728695D01*
X1047596Y0728936D01*
X1047837Y0729297D01*
X1047922Y0729722D01*
Y0736110D01*
X1049198D01*
Y0733722D01*
Y0729722D01*
X1049282Y0729297D01*
X1049523Y0728936D01*
X1049884Y0728695D01*
X1050310Y0728611D01*
X1053810D01*
X1054235Y0728695D01*
X1054596Y0728936D01*
X1054837Y0729297D01*
X1054922Y0729722D01*
Y0733930D01*
X1055049Y0734047D01*
X1055422Y0734254D01*
X1055727Y0734193D01*
X1055727Y0734193D01*
X1058755D01*
X1059180Y0734278D01*
X1059541Y0734519D01*
X1059782Y0734880D01*
X1059867Y0735305D01*
X1059782Y0735731D01*
X1059541Y0736091D01*
X1059180Y0736332D01*
X1058755Y0736417D01*
X1056188D01*
X1054596Y0738009D01*
X1054235Y0738250D01*
X1053810Y0738334D01*
D02*
G37*
%LPD*%
D13*
X0885710Y0642924D02*
X0903310Y0625325D01*
X0878716Y0645313D02*
X0881219D01*
X0883608Y0642924D01*
X0885710D01*
X0877549Y0646480D02*
X0878716Y0645313D01*
X0963810Y0874222D02*
X0973310Y0864722D01*
Y0840972D02*
Y0864722D01*
X0942610Y0862100D02*
X0963010D01*
X0941810Y0738722D02*
Y0742222D01*
Y0727222D02*
Y0730722D01*
Y0734722D01*
Y0738722D01*
Y0742222D02*
X0942310D01*
X0940810Y0773222D02*
X0944310D01*
X0947810D01*
X0953039D02*
X0953552Y0773736D01*
X0947810Y0773222D02*
X0953039D01*
X1071310Y0879722D02*
X1073310Y0877722D01*
X1067929Y0880227D02*
X1070330D01*
X1070835Y0879722D02*
X1071310D01*
X1070330Y0880227D02*
X1070835Y0879722D01*
X1066067Y0882089D02*
Y0882483D01*
Y0882089D02*
X1067929Y0880227D01*
X0977060Y0833722D02*
X0977310D01*
X0974310Y0831222D02*
X0974560D01*
X0977060Y0833722D01*
X0974310Y0826978D02*
X0975052Y0826236D01*
X0974310Y0826978D02*
Y0831222D01*
X1049810Y0865722D02*
Y0868722D01*
Y0871722D01*
X1046810Y0729722D02*
Y0737222D01*
X1050310D01*
Y0733722D02*
Y0737222D01*
Y0729722D02*
Y0733722D01*
Y0729722D02*
X1053810D01*
Y0733722D01*
Y0737222D01*
X1055727Y0735305D01*
X1058755D01*
X1068610Y0932422D02*
X1089010D01*
X1030042Y0840711D02*
Y0849955D01*
X1031810Y0851722D01*
X1089010Y0912422D02*
Y0917422D01*
X1098810Y0859222D02*
Y0867723D01*
X1095810Y0870722D02*
X1098810Y0867723D01*
X1073928Y0870722D02*
X1095810D01*
X1069073Y0875577D02*
X1073928Y0870722D01*
X1043853Y0875191D02*
X1049835D01*
X1051334Y0876691D01*
X1077310Y0874222D02*
Y0880706D01*
X1051334Y0876691D02*
X1051810D01*
X1077310Y0880706D02*
X1079087Y0882483D01*
X1098810Y0834722D02*
Y0859222D01*
X1096810Y0832722D02*
X1098810Y0834722D01*
X1089810Y0832722D02*
X1096810D01*
X1090310Y0736222D02*
X1097310Y0729222D01*
Y0713206D02*
Y0729222D01*
Y0713206D02*
X1097570Y0712945D01*
X1097810Y0640703D02*
Y0648222D01*
X1097310Y0640203D02*
X1097810Y0640703D01*
X1101900Y0850632D02*
X1103444Y0849088D01*
X1101900Y0850632D02*
Y0873132D01*
X1094805Y0880227D02*
X1101900Y0873132D01*
X1103444Y0849088D02*
X1108782D01*
X1068610Y0862100D02*
X1089010D01*
X1057455Y0875577D02*
X1069073D01*
X1049310Y0883722D02*
X1057455Y0875577D01*
X1030926Y0884839D02*
Y0901634D01*
X1030810Y0884722D02*
X1030926Y0884839D01*
Y0901634D02*
X1031026Y0901734D01*
X1084225Y0813239D02*
X1086087Y0811377D01*
X1083831Y0813239D02*
X1084225D01*
X1063348Y0825360D02*
X1071710D01*
X1086087Y0810983D02*
Y0811377D01*
X1071710Y0825360D02*
X1083831Y0813239D01*
X1076310Y0852222D02*
X1076371Y0852161D01*
X1088949D01*
X1082871Y0857161D02*
X1088949D01*
X1082810Y0857222D02*
X1082871Y0857161D01*
X1033095Y0899111D02*
X1034483Y0897722D01*
X1049310D01*
X1043822Y0894845D02*
X1057951D01*
X1032995Y0901734D02*
X1033095Y0901634D01*
Y0899111D02*
Y0901634D01*
X1036560Y0894972D02*
X1041451D01*
X1043721Y0894944D02*
X1043822Y0894845D01*
X1041451Y0894972D02*
X1041479Y0894944D01*
X1043721D01*
X0997462Y0840811D02*
Y0847071D01*
X0997310Y0847222D02*
X0997462Y0847071D01*
Y0840811D02*
X0997562Y0840711D01*
X1005310Y0866722D02*
X1017810D01*
X1020310Y0854722D02*
X1023310Y0857722D01*
X0999810Y0854722D02*
X1020310D01*
X1048635Y0840073D02*
X1063348Y0825360D01*
X0876027Y0929351D02*
X0876420D01*
X0872234Y0925558D02*
X0876027Y0929351D01*
X0869810Y0925222D02*
X0870146Y0925558D01*
X0872234D01*
X0853810Y0868222D02*
X0864310D01*
X0887278Y0857631D02*
X0896401D01*
X0899310Y0854722D01*
X0854310Y0707722D02*
X0887310Y0740722D01*
X0887810D01*
X0896310Y0749222D01*
Y0782222D01*
X0892993Y0785539D02*
X0896310Y0782222D01*
X0887278Y0785539D02*
X0892993D01*
X0877570Y0680712D02*
X0912320D01*
X0912810Y0680222D01*
X0932032Y0663462D02*
X0932293Y0663722D01*
X0938810D01*
X0958810Y0792722D02*
Y0817222D01*
X0948310Y0789465D02*
X0957190D01*
Y0746842D02*
X0957310Y0746723D01*
X0957190Y0789465D02*
X0966070D01*
X0957190Y0746842D02*
Y0789465D01*
X0958810Y0817222D02*
X0962810Y0821222D01*
X0987310D01*
X0995593Y0829506D02*
Y0840711D01*
X0987310Y0821222D02*
X0995593Y0829506D01*
X0954810Y0792722D02*
Y0818222D01*
X0975310Y0838722D01*
X0948999Y0836911D02*
X0962821D01*
X0948810Y0836722D02*
X0948999Y0836911D01*
X0948560Y0816222D02*
X0973310Y0840972D01*
X0970341Y0851987D02*
X0970454Y0851874D01*
X0963123Y0851987D02*
X0970341D01*
X0977062Y0855474D02*
X0982798D01*
X0975310Y0838722D02*
Y0853722D01*
X0977062Y0855474D01*
X0977810Y0861222D02*
Y0864722D01*
X0958395Y0878206D02*
X0964326D01*
X0977810Y0864722D01*
Y0861222D02*
X0979521Y0859511D01*
X0982698D01*
X0975062Y0886971D02*
X0982798D01*
X0974810Y0887222D02*
X0975062Y0886971D01*
X0956532Y0880068D02*
X0958395Y0878206D01*
X0956532Y0880068D02*
Y0880462D01*
X0970310Y0878222D02*
Y0902722D01*
Y0878222D02*
X0979278Y0869254D01*
X0982798D01*
X0948310Y0816222D02*
X0948560D01*
X0979467Y0811880D02*
X0982719Y0815132D01*
X0966310Y0816722D02*
X0989310D01*
X0982719Y0815132D02*
X1025719D01*
X1028310Y0817722D01*
X0989310Y0816722D02*
X1001499Y0828911D01*
Y0840711D01*
X0932533Y0736462D02*
X0932810Y0736739D01*
Y0742722D01*
X0989588Y0901834D02*
Y0904445D01*
X0969379Y0905722D02*
X0988310D01*
X0989588Y0901834D02*
X0989688Y0901734D01*
X0988310Y0905722D02*
X0989588Y0904445D01*
X0989688Y0897864D02*
Y0901734D01*
X0958788Y0895132D02*
X0969379Y0905722D01*
X0932290Y0951722D02*
X0977810D01*
X0992560Y0936973D01*
X0953710Y0937322D02*
X0953810Y0937222D01*
X0942710Y0937322D02*
X0953710D01*
X0942610Y0937422D02*
X0942710Y0937322D01*
X0974810Y0933222D02*
X0977719Y0936132D01*
X0987400D01*
X0990810Y0932722D01*
X0994310Y0916222D02*
Y0916698D01*
X0992560Y0918448D02*
X0994310Y0916698D01*
X0992560Y0918448D02*
Y0936973D01*
X0990810Y0915250D02*
Y0932722D01*
Y0915250D02*
X0997104Y0908955D01*
X1013310Y0905747D02*
X1014810Y0907247D01*
X1013310Y0901734D02*
Y0905747D01*
X1014810Y0907247D02*
Y0907722D01*
X0988749Y0894783D02*
X0988810Y0894722D01*
X1040974Y0908355D02*
X1041310Y0908691D01*
X1003310Y0891838D02*
Y0899334D01*
X1036560Y0852717D02*
X1036688Y0852845D01*
X0982798Y0857443D02*
X0982898Y0857543D01*
X1003367Y0899391D02*
Y0901634D01*
X0995310Y0851722D02*
Y0852722D01*
X1036771Y0910222D02*
X1038771Y0912222D01*
X1034886Y0840787D02*
X1034963Y0840711D01*
X1025121D02*
Y0850033D01*
X1009473Y0849885D02*
X1011310Y0851722D01*
X1037995Y0851537D02*
X1043822D01*
X0995593Y0894971D02*
X0998841Y0891722D01*
X1001310Y0890222D02*
X1001499Y0890411D01*
X1009310Y0910222D02*
X1036771D01*
X0989688Y0897864D02*
X0995310Y0892242D01*
X1049483Y0861222D02*
X1049810D01*
X0982898Y0857543D02*
X0990630D01*
X1049247Y0879159D02*
X1049310Y0879222D01*
X0982898Y0847700D02*
X0991288D01*
X1011325Y0901750D02*
Y0907707D01*
X1043822Y0855474D02*
X1048083D01*
X1043884Y0857506D02*
X1049747D01*
X1036688Y0852845D02*
X1037995Y0851537D01*
X1003310Y0899334D02*
X1003367Y0899391D01*
X0995593Y0894971D02*
Y0901734D01*
X1048083Y0855474D02*
X1049335Y0854222D01*
X1034810Y0845222D02*
X1034886Y0845146D01*
X1048310Y0822222D02*
X1057310D01*
X0995310Y0890222D02*
Y0892242D01*
X0991288Y0847700D02*
X0995310Y0851722D01*
X1033095Y0837437D02*
X1048310Y0822222D01*
X1021184Y0905097D02*
X1022310Y0906222D01*
X1033095Y0837437D02*
Y0840611D01*
X1009473Y0840811D02*
Y0849885D01*
X1009373Y0840711D02*
X1009473Y0840811D01*
X0982798Y0847600D02*
X0982898Y0847700D01*
X0995310Y0851722D02*
X0995310D01*
X1049335Y0854222D02*
X1049810D01*
X0990630Y0857543D02*
X0990810Y0857722D01*
X1025121Y0850033D02*
X1026810Y0851722D01*
X1043822Y0859411D02*
X1047672D01*
X1043822Y0857443D02*
X1043884Y0857506D01*
X0998841Y0885779D02*
Y0891722D01*
X0982798Y0894845D02*
X0982859Y0894783D01*
X1040310Y0834222D02*
X1043810D01*
X0982859Y0894783D02*
X0988749D01*
X1047672Y0859411D02*
X1049483Y0861222D01*
X1011325Y0901750D02*
X1011341Y0901734D01*
X1020810Y0908222D02*
X1039846D01*
X0998310Y0873722D02*
X1009373Y0884785D01*
X1049747Y0857506D02*
X1049810Y0857569D01*
X1001499Y0890411D02*
Y0901734D01*
X1036932Y0837600D02*
Y0840711D01*
X1001310Y0880222D02*
X1003810Y0882722D01*
Y0891338D01*
X1003310Y0891838D02*
X1003810Y0891338D01*
X1003367Y0901634D02*
X1003467Y0901734D01*
X1032995Y0840711D02*
X1033095Y0840611D01*
X1007404Y0901734D02*
Y0908317D01*
X1009310Y0910222D01*
X1038771Y0912222D02*
X1038841D01*
X1022310Y0906222D02*
X1044810D01*
X1009373Y0884785D02*
Y0901734D01*
X1019215Y0906628D02*
X1020810Y0908222D01*
X1011310Y0907722D02*
X1011325Y0907707D01*
X1019215Y0901734D02*
Y0906628D01*
X1039846Y0908222D02*
X1039978Y0908355D01*
X1040974D01*
X1043822Y0847600D02*
X1045572D01*
X1021184Y0901734D02*
Y0905097D01*
X1051810Y0841222D02*
Y0841362D01*
X1043822Y0879097D02*
X1043884Y0879159D01*
X1049247D01*
X1043822Y0875159D02*
X1043853Y0875191D01*
X1045572Y0847600D02*
X1051810Y0841362D01*
X1036932Y0837600D02*
X1040310Y0834222D01*
X1034886Y0840787D02*
Y0845146D01*
X1001696Y0910527D02*
X1002032Y0910191D01*
X0997810Y0913222D02*
X1000505Y0910527D01*
X1001696D01*
X0932272Y0880222D02*
X0939810D01*
X0932032Y0880462D02*
X0932272Y0880222D01*
X0932032Y0808462D02*
X0932310Y0808739D01*
Y0816222D01*
X1001810Y0871722D02*
X1030810D01*
X0999341Y0861722D02*
X0999591Y0861472D01*
X1023060D01*
X1080960Y0922572D02*
X1088860D01*
X1089010Y0922422D01*
X1080810Y0922722D02*
X1080960Y0922572D01*
X1068460Y0937572D02*
X1068610Y0937422D01*
X1060960Y0937572D02*
X1068460D01*
X1060810Y0937722D02*
X1060960Y0937572D01*
X0997810Y0913222D02*
Y0915522D01*
X1068421Y0866911D02*
X1068610Y0867100D01*
X1057499Y0866911D02*
X1068421D01*
X1057310Y0866722D02*
X1057499Y0866911D01*
X1088949Y0852161D02*
X1089010Y0852100D01*
Y0842100D02*
Y0847100D01*
X1023060Y0861472D02*
X1023310Y0861222D01*
X1078347Y0950222D02*
X1078587Y0949983D01*
X1071310Y0950222D02*
X1078347D01*
X1012810Y0925222D02*
Y0935922D01*
X1017810D02*
X1022810D01*
X1002810Y0915522D02*
Y0935922D01*
X0942671Y0867161D02*
X0949749D01*
X0942610Y0867100D02*
X0942671Y0867161D01*
X0949749D02*
X0949810Y0867222D01*
X0963010Y0852100D02*
X0963123Y0851987D01*
X0963010Y0842100D02*
Y0847100D01*
X0982698Y0859511D02*
X0982798Y0859411D01*
X0963010Y0922422D02*
X0972510D01*
X0974810Y0924722D02*
Y0933222D01*
X0972510Y0922422D02*
X0974810Y0924722D01*
X0942610Y0932422D02*
X0963010D01*
X0984788Y0916012D02*
Y0919603D01*
Y0916012D02*
X0993625Y0907175D01*
Y0901734D02*
Y0907175D01*
X1043822Y0851537D02*
X1055861D01*
X1056323Y0852000D01*
X0963010Y0912422D02*
Y0917422D01*
X1088949Y0857161D02*
X1089010Y0857100D01*
Y0837100D02*
X1089071Y0837161D01*
X1095749D01*
X1095810Y0837222D01*
X1104719Y0918813D02*
X1108782D01*
X1098810Y0924722D02*
Y0945222D01*
Y0924722D02*
X1104719Y0918813D01*
X1093310Y0926722D02*
X1102310Y0917722D01*
Y0903222D02*
Y0917722D01*
X1093070Y0926962D02*
X1093310Y0926722D01*
X1093310D01*
X1089470Y0926962D02*
X1093070D01*
X1089010Y0927422D02*
X1089470Y0926962D01*
X1094049Y0949983D02*
X1098810Y0945222D01*
X1089010Y0907422D02*
X1089110Y0907322D01*
X1097210D01*
X1097310Y0907222D01*
X0962821Y0836911D02*
X0963010Y0837100D01*
X0955810Y0857222D02*
X0955871Y0857161D01*
X0962949D02*
X0963010Y0857100D01*
X0955871Y0857161D02*
X0962949D01*
X0952310Y0912222D02*
X0957310Y0907222D01*
X0952310Y0912222D02*
Y0918222D01*
X0955310Y0924722D02*
X0958010Y0927422D01*
X0955310Y0915722D02*
Y0924722D01*
X0957310Y0907222D02*
X0962810D01*
X0963010Y0907422D01*
X0958010Y0927422D02*
X0963010D01*
X1024639Y0927740D02*
X1027810Y0930910D01*
Y0935922D01*
X1007810Y0928222D02*
Y0935922D01*
X0982926Y0921465D02*
X0984788Y0919603D01*
X0982533Y0921465D02*
X0982926D01*
X0958395Y0895132D02*
X0958788D01*
X0956532Y0892876D02*
Y0893270D01*
X0958395Y0895132D01*
X0982798Y0826501D02*
Y0847600D01*
X0982533Y0826236D02*
X0982798Y0826501D01*
X0979467Y0756103D02*
Y0811880D01*
X1028310Y0817722D02*
Y0823222D01*
X1015378Y0836154D02*
X1028310Y0823222D01*
X1015378Y0836154D02*
Y0840611D01*
X1015278Y0840711D02*
X1015378Y0840611D01*
X0970929Y0756103D02*
Y0763445D01*
X0961032Y0773342D02*
Y0773736D01*
Y0773342D02*
X0970929Y0763445D01*
X1120810Y0753722D02*
X1141310D01*
X1152170Y0764583D02*
X1155208D01*
X1157070Y0766445D01*
X1141310Y0753722D02*
X1152170Y0764583D01*
X1155326Y0887722D02*
X1157049Y0886000D01*
X1120810Y0887722D02*
X1155326D01*
X0887033Y0893200D02*
Y0897962D01*
Y0888439D02*
Y0893200D01*
X0912288D01*
X0912810Y0893722D01*
X0876570Y0807962D02*
Y0813478D01*
Y0802445D02*
Y0807962D01*
X0912570D02*
X0912810Y0807722D01*
X0876570Y0807962D02*
X0912570D01*
X0877570Y0680712D02*
Y0684978D01*
Y0676445D02*
Y0680712D01*
X0877549Y0685000D02*
X0877570Y0684978D01*
X0864310Y0675222D02*
X0870567Y0668965D01*
X0877570D01*
X0871567Y0692480D02*
X0877549D01*
X0864310Y0685222D02*
X0871567Y0692480D01*
X0876549Y0813500D02*
X0876570Y0813478D01*
X0872690Y0793103D02*
X0874708D01*
X0864310Y0784722D02*
X0872690Y0793103D01*
X0874708D02*
X0876570Y0794965D01*
X0855810Y0799722D02*
X0859853Y0795679D01*
X0863353D02*
X0864310Y0794722D01*
X0859853Y0795679D02*
X0863353D01*
X0855810Y0799722D02*
Y0816722D01*
X0860067Y0820980D01*
X0876549D01*
X0879336Y0888222D02*
X0879552Y0888439D01*
X0864310Y0888222D02*
X0879336D01*
X0879292Y0898222D02*
X0879552Y0897962D01*
X0864310Y0898222D02*
X0879292D01*
X1157049Y0877466D02*
X1157070Y0877445D01*
X1157049Y0877466D02*
Y0886000D01*
X1163252Y0893480D02*
X1169310Y0887422D01*
X1157049Y0893480D02*
X1163252D01*
X1161852Y0869965D02*
X1169310Y0877422D01*
X1157070Y0869965D02*
X1161852D01*
X1157070Y0766445D02*
Y0775478D01*
X1157049Y0775500D02*
X1157070Y0775478D01*
X1157049Y0782980D02*
X1157992Y0783922D01*
X1169310D01*
Y0773922D02*
X1174610D01*
X1176310Y0772222D01*
X1176395Y0761808D02*
Y0762637D01*
X1173552Y0758965D02*
X1176395Y0761808D01*
X1176310Y0762722D02*
X1176395Y0762637D01*
X1176310Y0762722D02*
Y0772222D01*
X1157070Y0758965D02*
X1173552D01*
X1157810Y0674722D02*
X1157960Y0674572D01*
X1169160D02*
X1169310Y0674422D01*
X1157960Y0674572D02*
X1169160D01*
X1154310Y0668222D02*
Y0701222D01*
Y0668222D02*
X1158310Y0664222D01*
X1150352Y0705180D02*
X1154310Y0701222D01*
X1151810Y0660222D02*
Y0673222D01*
X1149310Y0675722D02*
X1151810Y0673222D01*
X0896084Y0713448D02*
X0899810Y0709722D01*
X0887278Y0713448D02*
X0896084D01*
X0903310Y0613222D02*
Y0625325D01*
X0880914Y0855451D02*
Y0855522D01*
X0883022Y0857631D02*
X0887278D01*
X0876549Y0851480D02*
X0876943D01*
X0880914Y0855451D01*
Y0855522D02*
X0883022Y0857631D01*
X0876549Y0783980D02*
X0885719D01*
X0887278Y0785539D01*
X0885810Y0711980D02*
X0887278Y0713448D01*
X0877049Y0711980D02*
X0885810D01*
X1088429Y0880227D02*
X1094805D01*
X1086067Y0949983D02*
X1094049D01*
X1086567Y0882089D02*
Y0882483D01*
Y0882089D02*
X1088429Y0880227D01*
X1093567Y0792014D02*
X1108585Y0776996D01*
X1108782D01*
X1093567Y0792014D02*
Y0810983D01*
X1108222Y0705465D02*
X1108782Y0704905D01*
X1097570Y0705465D02*
X1108222D01*
X1108692Y0632722D02*
X1108782Y0632813D01*
X1097310Y0632722D02*
X1108692D01*
X1151810Y0660222D02*
X1157610Y0654422D01*
X1169310D01*
X1141310Y0675722D02*
X1149310D01*
X1138052Y0665962D02*
Y0672465D01*
X1141310Y0675722D01*
X1169110Y0664222D02*
X1169310Y0664422D01*
X1158310Y0664222D02*
X1169110D01*
X1146341Y0705180D02*
X1150352D01*
X1137310Y0756722D02*
Y0775821D01*
X1138760Y0777272D01*
X1146341D01*
X1137552Y0778480D02*
Y0808962D01*
Y0778480D02*
X1138760Y0777272D01*
X1146538Y0849363D02*
X1148597Y0847304D01*
X1146341Y0849363D02*
X1146538D01*
X1148597Y0847107D02*
Y0847304D01*
Y0847107D02*
X1169310Y0826395D01*
Y0803922D02*
Y0826395D01*
X1146538Y0919089D02*
X1158204Y0907422D01*
X1146341Y0919089D02*
X1146538D01*
X1158204Y0907422D02*
X1169310D01*
X1146341Y0939089D02*
Y0950153D01*
X1146033Y0950462D02*
X1146341Y0950153D01*
X1138552Y0926681D02*
X1146144Y0919089D01*
X1138552Y0926681D02*
Y0950462D01*
X1146144Y0919089D02*
X1146341D01*
Y0869363D02*
Y0882153D01*
X1146033Y0882462D02*
X1146341Y0882153D01*
X1138552Y0856955D02*
X1146144Y0849363D01*
X1138552Y0856955D02*
Y0882462D01*
X1146144Y0849363D02*
X1146341D01*
Y0797272D02*
Y0807653D01*
X1145033Y0808962D02*
X1146341Y0807653D01*
X1145533Y0737462D02*
X1146341Y0736653D01*
Y0725180D02*
Y0736653D01*
X1138052Y0713272D02*
Y0737462D01*
Y0713272D02*
X1146144Y0705180D01*
X1146341D01*
X1138052Y0641181D02*
X1146144Y0633089D01*
X1146341D01*
X1138052Y0641181D02*
Y0665962D01*
X1145533Y0653897D02*
X1146341Y0653089D01*
X1145533Y0653897D02*
Y0665962D01*
X0919049Y0663462D02*
X0924052D01*
X0917810Y0662222D02*
X0919049Y0663462D01*
X0917810Y0644722D02*
Y0662222D01*
Y0644722D02*
X0920900Y0641632D01*
X0924837D01*
X0919549Y0736462D02*
X0925052D01*
X0917810Y0734722D02*
X0919549Y0736462D01*
X0917810Y0715722D02*
Y0734722D01*
Y0715722D02*
X0919809Y0713723D01*
X0924837D01*
X0919049Y0808462D02*
X0924552D01*
X0918310Y0807722D02*
X0919049Y0808462D01*
X0918310Y0787222D02*
Y0807722D01*
X0919717Y0785815D02*
X0924837D01*
X0918310Y0787222D02*
X0919717Y0785815D01*
X0919310Y0951722D02*
X0924810D01*
X0917810Y0950222D02*
X0919310Y0951722D01*
X0917810Y0932222D02*
Y0950222D01*
Y0932222D02*
X0920034Y0929998D01*
X0924837D01*
X0918549Y0880462D02*
X0924552D01*
X0917310Y0879222D02*
X0918549Y0880462D01*
X0917310Y0860222D02*
Y0879222D01*
Y0860222D02*
X0919626Y0857907D01*
X0924837D01*
X1057951Y0894845D02*
X1058087Y0894709D01*
X1050556Y0890907D02*
X1058587Y0882877D01*
Y0882483D02*
Y0882877D01*
X1043822Y0890907D02*
X1050556D01*
X1013310Y0830368D02*
X1022955Y0820722D01*
X1013310Y0830368D02*
Y0840711D01*
X1003664Y0820722D02*
X1011341Y0828399D01*
Y0840711D01*
X1075567Y0775983D02*
X1075828Y0775722D01*
X0966070Y0789465D02*
X0966070Y0789465D01*
X0966310Y0797185D02*
Y0807722D01*
X0966070Y0796945D02*
X0966310Y0797185D01*
X0948310Y0796945D02*
X0948310Y0796945D01*
X0948310Y0796945D02*
Y0807222D01*
X0923587Y0682983D02*
X0924329Y0682240D01*
Y0673222D02*
Y0682240D01*
X0953336Y0667462D02*
X0961210D01*
X0931810Y0673222D02*
X0953614D01*
X0961210Y0667462D02*
X0963703Y0669955D01*
X1075828Y0775722D02*
X1084810D01*
D22*
X1157070Y0758965D02*
D03*
Y0766445D02*
D03*
X0948310Y0796945D02*
D03*
Y0789465D02*
D03*
X0966070Y0789465D02*
D03*
Y0796945D02*
D03*
X0876549Y0783980D02*
D03*
Y0776500D02*
D03*
X0876570Y0794965D02*
D03*
Y0802445D02*
D03*
X1157070Y0869965D02*
D03*
Y0877445D02*
D03*
X1157049Y0893480D02*
D03*
Y0886000D02*
D03*
X1097310Y0632722D02*
D03*
Y0640203D02*
D03*
X0877549Y0646480D02*
D03*
Y0639000D02*
D03*
X0877049Y0711980D02*
D03*
Y0704500D02*
D03*
X0877549Y0692480D02*
D03*
Y0685000D02*
D03*
X0877570Y0668965D02*
D03*
Y0676445D02*
D03*
X1045323Y0754980D02*
D03*
Y0747500D02*
D03*
X1091323Y0754980D02*
D03*
Y0747500D02*
D03*
X1056323Y0859480D02*
D03*
Y0852000D02*
D03*
X1157049Y0782980D02*
D03*
Y0775500D02*
D03*
X0876549Y0844000D02*
D03*
Y0851480D02*
D03*
X0876049Y0921500D02*
D03*
Y0928980D02*
D03*
X0876549Y0813500D02*
D03*
Y0820980D02*
D03*
X0982533Y0928945D02*
D03*
Y0921465D02*
D03*
X1097570Y0712945D02*
D03*
Y0705465D02*
D03*
D23*
X0924810Y0951722D02*
D03*
X0932290D02*
D03*
X0879552Y0888439D02*
D03*
X0887033D02*
D03*
X0924552Y0880462D02*
D03*
X0932032D02*
D03*
X0949052D02*
D03*
X0956532D02*
D03*
X0949052Y0892876D02*
D03*
X0956532D02*
D03*
X1138552Y0950462D02*
D03*
X1146033D02*
D03*
X1138552Y0882462D02*
D03*
X1146033D02*
D03*
X1137552Y0808962D02*
D03*
X1145033D02*
D03*
X1138052Y0665962D02*
D03*
X1145533D02*
D03*
X1138052Y0737462D02*
D03*
X1145533D02*
D03*
X0924329Y0673222D02*
D03*
X0931810D02*
D03*
X0924552Y0663462D02*
D03*
X0932032D02*
D03*
X0925052Y0736462D02*
D03*
X0932533D02*
D03*
X1075067Y0775483D02*
D03*
X1067587D02*
D03*
X1075067Y0793209D02*
D03*
X1067587D02*
D03*
X1075067Y0811209D02*
D03*
X1067587D02*
D03*
X1093567Y0810983D02*
D03*
X1086087D02*
D03*
X1086567Y0882483D02*
D03*
X1079087D02*
D03*
X1066067Y0882483D02*
D03*
X1058587D02*
D03*
X1065567Y0894709D02*
D03*
X1058087D02*
D03*
X1086067Y0949983D02*
D03*
X1078587D02*
D03*
X0979587Y0755983D02*
D03*
X0987067D02*
D03*
X0961032Y0773736D02*
D03*
X0953552D02*
D03*
X0887033Y0897962D02*
D03*
X0879552D02*
D03*
X0982533Y0826236D02*
D03*
X0975052D02*
D03*
X0932032Y0808462D02*
D03*
X0924552D02*
D03*
D24*
X0932587Y0682983D02*
D03*
X0923587D02*
D03*
X1094810Y0775722D02*
D03*
X1085810D02*
D03*
D25*
X0953310Y0723640D02*
D03*
Y0700805D02*
D03*
X0990810Y0723640D02*
D03*
Y0700805D02*
D03*
X1027810Y0723640D02*
D03*
Y0700805D02*
D03*
D26*
X0989688Y0840711D02*
D03*
X0991656D02*
D03*
X0993625D02*
D03*
X0995593D02*
D03*
X0997562D02*
D03*
X0999530D02*
D03*
X1001499D02*
D03*
X1003467D02*
D03*
X1005436D02*
D03*
X1007404D02*
D03*
X1009373D02*
D03*
X1011341D02*
D03*
X1013310D02*
D03*
X1015278D02*
D03*
X1017247D02*
D03*
X1019215D02*
D03*
X1021184D02*
D03*
X1023152D02*
D03*
X1025121D02*
D03*
X1027089D02*
D03*
X1029058D02*
D03*
X1031026D02*
D03*
X1032995D02*
D03*
X1034963D02*
D03*
X1036932D02*
D03*
Y0901734D02*
D03*
X1034963D02*
D03*
X1032995D02*
D03*
X1031026D02*
D03*
X1029058D02*
D03*
X1027089D02*
D03*
X1025121D02*
D03*
X1023152D02*
D03*
X1021184D02*
D03*
X1019215D02*
D03*
X1017247D02*
D03*
X1015278D02*
D03*
X1013310D02*
D03*
X1011341D02*
D03*
X1009373D02*
D03*
X1007404D02*
D03*
X1005436D02*
D03*
X1003467D02*
D03*
X1001499D02*
D03*
X0999530D02*
D03*
X0997562D02*
D03*
X0995593D02*
D03*
X0993625D02*
D03*
X0991656D02*
D03*
X0989688D02*
D03*
D27*
X1043822Y0847600D02*
D03*
Y0849569D02*
D03*
Y0851537D02*
D03*
Y0853506D02*
D03*
Y0855474D02*
D03*
Y0857443D02*
D03*
Y0859411D02*
D03*
Y0861380D02*
D03*
Y0863348D02*
D03*
Y0865317D02*
D03*
Y0867285D02*
D03*
Y0869254D02*
D03*
Y0871222D02*
D03*
Y0873191D02*
D03*
Y0875159D02*
D03*
Y0877128D02*
D03*
Y0879097D02*
D03*
Y0881065D02*
D03*
Y0883033D02*
D03*
Y0885002D02*
D03*
Y0886971D02*
D03*
Y0888939D02*
D03*
Y0890907D02*
D03*
Y0892876D02*
D03*
Y0894845D02*
D03*
X0982798D02*
D03*
Y0892876D02*
D03*
Y0890907D02*
D03*
Y0888939D02*
D03*
Y0886971D02*
D03*
Y0885002D02*
D03*
Y0883033D02*
D03*
Y0881065D02*
D03*
Y0879097D02*
D03*
Y0877128D02*
D03*
Y0875159D02*
D03*
Y0873191D02*
D03*
Y0871222D02*
D03*
Y0869254D02*
D03*
Y0867285D02*
D03*
Y0865317D02*
D03*
Y0863348D02*
D03*
Y0861380D02*
D03*
Y0859411D02*
D03*
Y0857443D02*
D03*
Y0855474D02*
D03*
Y0853506D02*
D03*
Y0851537D02*
D03*
Y0849569D02*
D03*
Y0847600D02*
D03*
D28*
X0924837Y0939998D02*
D03*
Y0929998D02*
D03*
Y0919998D02*
D03*
Y0909998D02*
D03*
X0887278Y0939722D02*
D03*
Y0929722D02*
D03*
Y0919722D02*
D03*
Y0909722D02*
D03*
X1146341Y0725180D02*
D03*
Y0715180D02*
D03*
Y0705180D02*
D03*
Y0695180D02*
D03*
X1108782Y0724904D02*
D03*
Y0714904D02*
D03*
Y0704905D02*
D03*
Y0694905D02*
D03*
X0924837Y0867906D02*
D03*
Y0857907D02*
D03*
Y0847906D02*
D03*
Y0837906D02*
D03*
X0887278Y0867631D02*
D03*
Y0857631D02*
D03*
Y0847631D02*
D03*
Y0837631D02*
D03*
X1108782Y0908813D02*
D03*
Y0918813D02*
D03*
Y0928813D02*
D03*
Y0938813D02*
D03*
X1146341Y0909089D02*
D03*
Y0919089D02*
D03*
Y0929089D02*
D03*
Y0939089D02*
D03*
X0924837Y0795815D02*
D03*
Y0785815D02*
D03*
Y0775815D02*
D03*
Y0765815D02*
D03*
X0887278Y0795539D02*
D03*
Y0785539D02*
D03*
Y0775539D02*
D03*
Y0765539D02*
D03*
X1108782Y0766996D02*
D03*
Y0776996D02*
D03*
Y0786996D02*
D03*
Y0796996D02*
D03*
X1146341Y0767272D02*
D03*
Y0777272D02*
D03*
Y0787272D02*
D03*
Y0797272D02*
D03*
X0924837Y0651632D02*
D03*
Y0641632D02*
D03*
Y0631632D02*
D03*
Y0621632D02*
D03*
X0887278Y0651356D02*
D03*
Y0641356D02*
D03*
Y0631356D02*
D03*
Y0621356D02*
D03*
X0924837Y0723723D02*
D03*
Y0713723D02*
D03*
Y0703723D02*
D03*
Y0693723D02*
D03*
X0887278Y0723448D02*
D03*
Y0713448D02*
D03*
Y0703448D02*
D03*
Y0693448D02*
D03*
X1108782Y0839088D02*
D03*
Y0849088D02*
D03*
Y0859088D02*
D03*
Y0869088D02*
D03*
X1146341Y0839363D02*
D03*
Y0849363D02*
D03*
Y0859363D02*
D03*
Y0869363D02*
D03*
X1108782Y0622813D02*
D03*
Y0632813D02*
D03*
Y0642813D02*
D03*
Y0652813D02*
D03*
X1146341Y0623089D02*
D03*
Y0633089D02*
D03*
Y0643089D02*
D03*
Y0653089D02*
D03*
D29*
X1089010Y0837100D02*
D03*
Y0842100D02*
D03*
Y0847100D02*
D03*
Y0852100D02*
D03*
Y0857100D02*
D03*
Y0862100D02*
D03*
Y0867100D02*
D03*
X1068610D02*
D03*
Y0862100D02*
D03*
Y0857100D02*
D03*
Y0852100D02*
D03*
Y0847100D02*
D03*
Y0842100D02*
D03*
Y0837100D02*
D03*
X1089010Y0907422D02*
D03*
Y0912422D02*
D03*
Y0917422D02*
D03*
Y0922422D02*
D03*
Y0927422D02*
D03*
Y0932422D02*
D03*
Y0937422D02*
D03*
X1068610D02*
D03*
Y0932422D02*
D03*
Y0927422D02*
D03*
Y0922422D02*
D03*
Y0917422D02*
D03*
Y0912422D02*
D03*
Y0907422D02*
D03*
X0963010D02*
D03*
Y0912422D02*
D03*
Y0917422D02*
D03*
Y0922422D02*
D03*
Y0927422D02*
D03*
Y0932422D02*
D03*
Y0937422D02*
D03*
X0942610D02*
D03*
Y0932422D02*
D03*
Y0927422D02*
D03*
Y0922422D02*
D03*
Y0917422D02*
D03*
Y0912422D02*
D03*
Y0907422D02*
D03*
X0963010Y0837100D02*
D03*
Y0842100D02*
D03*
Y0847100D02*
D03*
Y0852100D02*
D03*
Y0857100D02*
D03*
Y0862100D02*
D03*
Y0867100D02*
D03*
X0942610D02*
D03*
Y0862100D02*
D03*
Y0857100D02*
D03*
Y0852100D02*
D03*
Y0847100D02*
D03*
Y0842100D02*
D03*
Y0837100D02*
D03*
D30*
X1027810Y0935922D02*
D03*
X1022810D02*
D03*
X1017810D02*
D03*
X1012810D02*
D03*
X1007810D02*
D03*
X1002810D02*
D03*
X0997810D02*
D03*
Y0915522D02*
D03*
X1002810D02*
D03*
X1007810D02*
D03*
X1012810D02*
D03*
X1017810D02*
D03*
X1022810D02*
D03*
X1027810D02*
D03*
D31*
X0963703Y0669955D02*
D03*
X0963310Y0628222D02*
D03*
D32*
X1029810Y0675222D02*
D03*
X1022810D02*
D03*
X1015810D02*
D03*
X1008810D02*
D03*
X1001810D02*
D03*
D33*
X1016310Y0629222D02*
D03*
D34*
X1067810Y0758140D02*
D03*
D35*
X1076865Y0735305D02*
D03*
X1067810D02*
D03*
X1058755D02*
D03*
D36*
X0970810Y0756222D02*
D03*
X0943251D02*
D03*
D37*
X0948310Y0807222D02*
D03*
Y0816222D02*
D03*
X0966310Y0807722D02*
D03*
Y0816722D02*
D03*
D64*
X0995310Y0852722D02*
X0996310Y0851722D01*
X1001310Y0746723D02*
X1067810D01*
X1120810D01*
X1067810Y0773222D02*
Y0816722D01*
X1031810Y0851722D02*
X1035566D01*
X1026810D02*
X1031810D01*
X1067875Y0837100D02*
X1068610D01*
X1078288Y0829722D02*
X1120810D01*
X0942610Y0837100D02*
X0944910D01*
X1067810Y0837035D02*
X1067875Y0837100D01*
X1070910D02*
X1078288Y0829722D01*
X1036560Y0852717D02*
Y0894972D01*
X0913310Y0746723D02*
X0957310D01*
X0995310Y0852722D02*
Y0890222D01*
X0996310Y0851722D02*
X1011310D01*
X1026810D01*
X1035566D02*
X1036560Y0852717D01*
X1042510Y0915522D02*
X1058310Y0899722D01*
X1027810Y0915522D02*
X1042510D01*
X1058310Y0899722D02*
X1078610D01*
X1120810D01*
X1036560Y0847972D02*
X1067810Y0816722D01*
X1036560Y0847972D02*
Y0852717D01*
X1028810Y0776222D02*
X1064810D01*
X1067810Y0773222D01*
X1120810Y0753722D02*
Y0787222D01*
Y0746722D02*
Y0753722D01*
Y0887722D02*
Y0899722D01*
Y0858722D02*
Y0887722D01*
X0912810Y0893722D02*
Y0916722D01*
Y0847722D02*
Y0893722D01*
Y0807722D02*
Y0847722D01*
Y0775722D02*
Y0807722D01*
Y0680222D02*
Y0703222D01*
Y0635722D02*
Y0680222D01*
Y0916722D02*
X0916085Y0919998D01*
X0970929Y0756103D02*
X0979467D01*
X0987067Y0755983D02*
X0999070D01*
X0999310Y0756222D01*
X1120810Y0829722D02*
Y0858722D01*
Y0787222D02*
Y0829722D01*
X1068610Y0837100D02*
X1070910D01*
X1068610Y0907422D02*
X1070910D01*
X1078610Y0899722D01*
X0936866Y0837166D02*
X0942544D01*
X0942610Y0837100D01*
X0937541Y0907488D02*
X0942544D01*
X0942610Y0907422D01*
X0886907Y0929351D02*
X0887278Y0929722D01*
X0876420Y0929351D02*
X0886907D01*
X0957310Y0746723D02*
X1001310D01*
X1120810Y0899722D02*
Y0925222D01*
X0931458Y0913571D02*
X0937541Y0907488D01*
X0924837Y0919998D02*
X0925034D01*
X0931458Y0913574D01*
Y0913571D02*
Y0913574D01*
X0927700Y0846332D02*
X0936866Y0837166D01*
X0912994Y0847906D02*
X0924837D01*
X0926412Y0846332D01*
X0927700D01*
X1120810Y0714722D02*
Y0746722D01*
X1120810Y0746723D02*
X1120810Y0746722D01*
X0912810Y0747222D02*
Y0775722D01*
Y0703222D02*
Y0747222D01*
X0913310Y0746723D01*
X0913311Y0703723D02*
X0924837D01*
X0912810Y0703222D02*
X0913311Y0703723D01*
X0912810Y0775722D02*
X0912902Y0775815D01*
X0924837D01*
X0912810Y0847722D02*
X0912994Y0847906D01*
X0916085Y0919998D02*
X0924837D01*
X0912810Y0635722D02*
X0916900Y0631632D01*
X0924837D01*
X1120810Y0644722D02*
Y0714722D01*
X1120628Y0714904D02*
X1120810Y0714722D01*
X1108782Y0714904D02*
X1120628D01*
X1108782Y0786996D02*
X1120583D01*
X1120810Y0787222D01*
X1120444Y0859088D02*
X1120810Y0858722D01*
X1108782Y0859088D02*
X1120444D01*
X1108782Y0928813D02*
X1117219D01*
X1120810Y0925222D01*
X1108782Y0642813D02*
X1118900D01*
X1120810Y0644722D01*
X1028560Y0776472D02*
Y0801472D01*
X1028310Y0801722D02*
X1028560Y0801472D01*
Y0776472D02*
X1028810Y0776222D01*
X1067810Y0758140D02*
Y0773222D01*
X0999310Y0748722D02*
X1001310Y0746723D01*
X0999310Y0748722D02*
Y0756222D01*
X1059810Y0712222D02*
X1076310Y0728722D01*
Y0734750D02*
X1076865Y0735305D01*
X1076310Y0728722D02*
Y0734750D01*
X1087810Y0668222D02*
Y0718223D01*
X1077849Y0728183D02*
X1087810Y0718223D01*
X1077849Y0728183D02*
Y0734321D01*
X1014310Y0712222D02*
X1059810D01*
X1002892Y0700805D02*
X1014310Y0712222D01*
X0990810Y0700805D02*
X1002892D01*
X1084310Y0664722D02*
X1087810Y0668222D01*
X1076865Y0735305D02*
X1077849Y0734321D01*
X1078310Y0664722D02*
X1084310D01*
D65*
X0957810Y0867222D02*
X0962888D01*
X0963010Y0867100D01*
X1093310Y0867222D02*
X1094310D01*
X1095810Y0865722D01*
X1089010Y0867100D02*
X1089132Y0867222D01*
X1093310D01*
X0877049Y0703722D02*
X0887004D01*
X0849810D02*
X0877049D01*
X0849810D02*
Y0775222D01*
Y0665222D02*
Y0703722D01*
X1183310Y0897422D02*
Y0910722D01*
X0876094Y0637938D02*
X0878810Y0635222D01*
X0876549Y0775131D02*
X0886870D01*
X0876549Y0842631D02*
X0887278D01*
X0849901D02*
X0876549D01*
X0864718Y0775131D02*
X0876549D01*
X0868310Y0645722D02*
X0876094Y0637938D01*
X1183310Y0859722D02*
Y0897422D01*
X0887278Y0909722D02*
Y0919722D01*
X1162810Y0919222D02*
X1174810D01*
X1146341Y0929089D02*
X1152944D01*
X1162810Y0919222D01*
X1174810D02*
X1183310Y0910722D01*
X1183310Y0897422D02*
X1183310Y0897422D01*
X1169310Y0897422D02*
X1183310D01*
X0853810Y0919722D02*
X0887278D01*
X0936810Y0650935D02*
X0953336Y0667462D01*
X1067810Y0746723D02*
Y0758140D01*
Y0735305D02*
Y0746723D01*
X0887278Y0626356D02*
Y0631356D01*
Y0621356D02*
Y0626356D01*
X0878810Y0626722D02*
Y0635222D01*
Y0613222D02*
Y0626722D01*
X0879176Y0626356D02*
X0887278D01*
X0878810Y0626722D02*
X0879176Y0626356D01*
X0887004Y0703722D02*
X0887278Y0703448D01*
Y0693448D02*
Y0703448D01*
X0864310Y0774722D02*
X0864718Y0775131D01*
X0886870D02*
X0887278Y0775539D01*
Y0765539D02*
Y0775539D01*
Y0842631D02*
Y0847631D01*
Y0837631D02*
Y0842631D01*
X0849810Y0842722D02*
Y0876377D01*
Y0775222D02*
Y0842722D01*
X0849901Y0842631D01*
X0849810Y0876377D02*
Y0915722D01*
X0853810Y0919722D01*
X1146538Y0643089D02*
X1154310Y0635317D01*
Y0634222D02*
Y0635317D01*
X1146341Y0643089D02*
X1146538D01*
X1146341D02*
Y0653089D01*
X1168538Y0793922D02*
X1183010D01*
X1146341Y0792272D02*
X1161260D01*
X1161310Y0792222D01*
X1166838D02*
X1168538Y0793922D01*
X1161310Y0792222D02*
X1166838D01*
X1146341Y0792272D02*
Y0797272D01*
Y0787272D02*
Y0792272D01*
Y0720180D02*
Y0725180D01*
Y0715180D02*
Y0720180D01*
X1183310Y0720722D02*
Y0794222D01*
Y0649722D02*
Y0720722D01*
X1182767Y0720180D02*
X1183310Y0720722D01*
X1146341Y0720180D02*
X1182767D01*
X1183310Y0794222D02*
Y0859722D01*
X1146341Y0859363D02*
X1182950D01*
X1183310Y0859722D01*
X1146341Y0859363D02*
Y0869363D01*
Y0929089D02*
Y0939089D01*
X1183010Y0793922D02*
X1183310Y0794222D01*
X0849810Y0653722D02*
Y0665222D01*
X0864310D01*
X0850310Y0774722D02*
X0864310D01*
X0849810Y0775222D02*
X0850310Y0774722D01*
X1178810Y0645222D02*
X1183310Y0649722D01*
X1165310Y0645222D02*
X1178810D01*
X1154310Y0634222D02*
X1165310Y0645222D01*
X1154310Y0611222D02*
Y0634222D01*
X1152310Y0609222D02*
X1154310Y0611222D01*
X0932310Y0609222D02*
X1152310D01*
X1029810Y0671191D02*
X1030203Y0670797D01*
X1030235D01*
X1059035Y0641997D01*
X1029810Y0671191D02*
Y0698805D01*
X1059035Y0641997D02*
Y0703448D01*
Y0641997D02*
X1078810Y0622222D01*
X0851655Y0878222D02*
X0864310D01*
X0849810Y0876377D02*
X0851655Y0878222D01*
X0849810Y0653722D02*
X0857810Y0645722D01*
X0868310D01*
X0878810Y0613222D02*
X0882810Y0609222D01*
X0932310D01*
X0936810Y0613722D02*
Y0650935D01*
X0932310Y0609222D02*
X0936810Y0613722D01*
X1022810Y0658722D02*
Y0675222D01*
X1018810Y0654722D02*
X1022810Y0658722D01*
X0997684Y0654722D02*
X1018810D01*
X0963310Y0628222D02*
X0971184D01*
X0997684Y0654722D01*
X0962810Y0685722D02*
X1005310D01*
X0957310D02*
X0962810D01*
Y0670848D02*
X0963703Y0669955D01*
X0962810Y0670848D02*
Y0685722D01*
X0953310Y0689722D02*
X0957310Y0685722D01*
X0953310Y0689722D02*
Y0700805D01*
X1008416Y0675616D02*
X1008810Y0675222D01*
X1008416Y0675616D02*
Y0682616D01*
X1005310Y0685722D02*
X1008416Y0682616D01*
X1027810Y0700805D02*
X1029810Y0698805D01*
X1059035Y0703448D02*
X1070310Y0714722D01*
X1078310D01*
D66*
X1028810Y0776222D02*
D03*
X1008810D02*
D03*
X1018810D02*
D03*
X1028310Y0801722D02*
D03*
X1018310D02*
D03*
X1008310D02*
D03*
X1029310Y0756222D02*
D03*
X1019310D02*
D03*
X1009310D02*
D03*
D67*
X0998810Y0776222D02*
D03*
X1032495Y0950222D02*
D03*
X1012810D02*
D03*
X0993125D02*
D03*
X0998310Y0801722D02*
D03*
X0999310Y0756222D02*
D03*
D68*
X1078310Y0664722D02*
D03*
Y0684722D02*
D03*
Y0704722D02*
D03*
D69*
Y0714722D02*
D03*
D70*
X0864310Y0804722D02*
D03*
Y0794722D02*
D03*
Y0784722D02*
D03*
Y0774722D02*
D03*
Y0908222D02*
D03*
Y0898222D02*
D03*
Y0888222D02*
D03*
Y0878222D02*
D03*
Y0695222D02*
D03*
Y0685222D02*
D03*
Y0675222D02*
D03*
Y0665222D02*
D03*
X1169310Y0654422D02*
D03*
Y0664422D02*
D03*
Y0674422D02*
D03*
Y0684422D02*
D03*
Y0867422D02*
D03*
Y0877422D02*
D03*
Y0887422D02*
D03*
Y0897422D02*
D03*
Y0793922D02*
D03*
Y0783922D02*
D03*
Y0773922D02*
D03*
Y0763922D02*
D03*
D71*
X0864310Y0764722D02*
D03*
Y0868222D02*
D03*
Y0655222D02*
D03*
X1169310Y0694422D02*
D03*
Y0907422D02*
D03*
Y0803922D02*
D03*
D72*
X1058810Y0622222D02*
D03*
X1078810D02*
D03*
D73*
X1022955Y0820722D02*
D03*
X1003664D02*
D03*
D74*
X0957810Y0867222D02*
D03*
X1095810Y0865722D02*
D03*
X1093310Y0867222D02*
D03*
X0941810Y0727222D02*
D03*
Y0730722D02*
D03*
Y0734722D02*
D03*
Y0738722D02*
D03*
Y0742222D02*
D03*
X0940810Y0773222D02*
D03*
X0944310D02*
D03*
X0947810D02*
D03*
X1073310Y0877722D02*
D03*
X1071310Y0879722D02*
D03*
X0977310Y0833722D02*
D03*
X0974310Y0831222D02*
D03*
X1049810Y0865722D02*
D03*
Y0868722D02*
D03*
Y0871722D02*
D03*
X1046810Y0729722D02*
D03*
Y0733722D02*
D03*
Y0737222D02*
D03*
X1050310D02*
D03*
Y0733722D02*
D03*
Y0729722D02*
D03*
X1053810D02*
D03*
Y0733722D02*
D03*
Y0737222D02*
D03*
X1077310Y0874222D02*
D03*
X1051810Y0876691D02*
D03*
X1090310Y0736222D02*
D03*
X1097810Y0648222D02*
D03*
X1089810Y0832722D02*
D03*
X1049310Y0883722D02*
D03*
X1030810Y0884722D02*
D03*
X1076310Y0852222D02*
D03*
X1082810Y0857222D02*
D03*
X1049310Y0897722D02*
D03*
X0997310Y0847222D02*
D03*
X1005310Y0866722D02*
D03*
X1017810D02*
D03*
X1023310Y0857722D02*
D03*
X1048635Y0840073D02*
D03*
X0869810Y0925222D02*
D03*
X0853810Y0868222D02*
D03*
X0899310Y0854722D02*
D03*
X0854310Y0707722D02*
D03*
X0938810Y0663722D02*
D03*
X0958810Y0792722D02*
D03*
X0954810D02*
D03*
X0948810Y0836722D02*
D03*
X0970454Y0851874D02*
D03*
X0963810Y0874222D02*
D03*
X0974810Y0887222D02*
D03*
X0932810Y0742722D02*
D03*
X0970310Y0902722D02*
D03*
X0994310Y0916222D02*
D03*
X1014810Y0907722D02*
D03*
X1001310Y0880222D02*
D03*
X1051810Y0841222D02*
D03*
X1049810Y0857569D02*
D03*
X1049310Y0879222D02*
D03*
X1043810Y0834222D02*
D03*
X0990810Y0857722D02*
D03*
X1044810Y0906222D02*
D03*
X0988810Y0894722D02*
D03*
X1041310Y0908691D02*
D03*
X1001310Y0890222D02*
D03*
X0998841Y0885779D02*
D03*
X1057310Y0822222D02*
D03*
X1038841Y0912222D02*
D03*
X0998310Y0873722D02*
D03*
X1011310Y0907722D02*
D03*
X1049810Y0854222D02*
D03*
Y0861222D02*
D03*
X1034810Y0845222D02*
D03*
X1002032Y0910191D02*
D03*
X0997104Y0908955D02*
D03*
X0939810Y0880222D02*
D03*
X0932310Y0816222D02*
D03*
X1001810Y0871722D02*
D03*
X0999341Y0861722D02*
D03*
X1080810Y0922722D02*
D03*
X1060810Y0937722D02*
D03*
X1057310Y0866722D02*
D03*
X1030810Y0871722D02*
D03*
X0999810Y0854722D02*
D03*
X1071310Y0950222D02*
D03*
X1012810Y0925222D02*
D03*
X0949810Y0867222D02*
D03*
X1023310Y0861222D02*
D03*
X0953810Y0937222D02*
D03*
X1095810Y0837222D02*
D03*
X1102310Y0903222D02*
D03*
X1097310Y0907222D02*
D03*
X0955810Y0857222D02*
D03*
X0952310Y0918222D02*
D03*
X0955310Y0915722D02*
D03*
X1024639Y0927740D02*
D03*
X1007810Y0928222D02*
D03*
X1157810Y0674722D02*
D03*
X0899810Y0709722D02*
D03*
X0903310Y0613222D02*
D03*
X1137310Y0756722D02*
D03*
D75*
X0970349Y0622912D02*
D03*
X1006810Y0623222D02*
D03*
M02*
