G04*
G04 #@! TF.GenerationSoftware,Altium Limited,Altium Designer,21.3.2 (30)*
G04*
G04 Layer_Color=32896*
%FSAX24Y24*%
%MOIN*%
G70*
G04*
G04 #@! TF.SameCoordinates,7F11398B-6431-4077-ADE0-EC67F86BA79B*
G04*
G04*
G04 #@! TF.FilePolarity,Positive*
G04*
G01*
G75*
%ADD13C,0.0100*%
%ADD14C,0.0098*%
%ADD15C,0.0070*%
%ADD16C,0.0079*%
%ADD20C,0.0059*%
D13*
X036385Y027402D02*
X041700D01*
X036385Y043150D02*
X041700D01*
Y027402D02*
Y043150D01*
X036385Y027402D02*
Y043150D01*
D14*
X041018Y043557D02*
G03*
X041018Y043557I-000049J000000D01*
G01*
X039049D02*
G03*
X039049Y043557I-000049J000000D01*
G01*
X037081D02*
G03*
X037081Y043557I-000049J000000D01*
G01*
D15*
X041302Y029530D02*
X041482D01*
X041302Y030070D02*
X041482D01*
X036658Y030069D02*
X036838D01*
X036658Y029529D02*
X036838D01*
D16*
X041520Y042199D02*
Y043301D01*
X040417Y042199D02*
X041520D01*
X040417D02*
Y043301D01*
X040417Y043301D02*
X041520D01*
X039551Y042199D02*
Y043301D01*
X038449Y042199D02*
X039551D01*
X038449D02*
Y043301D01*
X038449Y043301D02*
X039551D01*
X037583Y042199D02*
Y043301D01*
X036480Y042199D02*
X037583D01*
X036480D02*
Y043301D01*
X036480Y043301D02*
X037583D01*
X041551Y029449D02*
X042081D01*
X040701D02*
X041246D01*
X040701Y030149D02*
X041246D01*
X041551D02*
X042081D01*
X040701Y029449D02*
Y030149D01*
X042081Y029449D02*
Y030149D01*
X036060Y030150D02*
X036589D01*
X036894D02*
X037440D01*
X036894Y029450D02*
X037440D01*
X036060D02*
X036589D01*
X037440D02*
Y030150D01*
X036060Y029450D02*
Y030150D01*
X036668Y010000D02*
X036747D01*
X036353D02*
X036393D01*
X036668Y009803D02*
Y010157D01*
X036393Y010000D02*
X036668Y009803D01*
X036393Y010000D02*
X036668Y010157D01*
X036393Y009803D02*
Y010197D01*
X035074Y009350D02*
Y009900D01*
Y009350D02*
X038000D01*
X035074Y009900D02*
X035150D01*
Y009350D02*
Y009900D01*
Y010100D02*
Y010650D01*
X035074Y010100D02*
X035150D01*
X038000Y009350D02*
Y009537D01*
X035074Y010100D02*
Y010650D01*
X038000Y010463D02*
Y010650D01*
X035074D02*
X038000D01*
X038050Y027400D02*
Y028400D01*
X037050Y027400D02*
Y028400D01*
Y027400D02*
X041050D01*
X037050Y028400D02*
X041050D01*
Y027400D02*
Y028400D01*
D20*
X055298Y012659D02*
Y012738D01*
Y012698D01*
X055535D01*
X055495Y012659D01*
X055298Y013013D02*
Y012856D01*
X055456Y013013D01*
X055495D01*
X055535Y012974D01*
Y012895D01*
X055495Y012856D01*
X055259Y013092D02*
Y013249D01*
X055298Y013486D02*
Y013328D01*
X055456Y013486D01*
X055495D01*
X055535Y013446D01*
Y013367D01*
X055495Y013328D01*
X055298Y013800D02*
Y013879D01*
Y013840D01*
X055535D01*
X055495Y013800D01*
X055298Y014155D02*
Y013997D01*
X055456Y014155D01*
X055495D01*
X055535Y014115D01*
Y014037D01*
X055495Y013997D01*
X055259Y014233D02*
Y014391D01*
X055298Y014469D02*
Y014548D01*
Y014509D01*
X055535D01*
X055495Y014469D01*
X055298Y014902D02*
Y014981D01*
Y014942D01*
X055535D01*
X055495Y014902D01*
X055298Y015099D02*
Y015178D01*
Y015139D01*
X055535D01*
X055495Y015099D01*
X055259Y015296D02*
Y015453D01*
X055298Y015532D02*
Y015611D01*
Y015571D01*
X055535D01*
X055495Y015532D01*
X055338Y015965D02*
X055298Y016004D01*
Y016083D01*
X055338Y016122D01*
X055495D01*
X055535Y016083D01*
Y016004D01*
X055495Y015965D01*
X055456D01*
X055416Y016004D01*
Y016122D01*
X055259Y016201D02*
Y016359D01*
X055298Y016595D02*
Y016437D01*
X055456Y016595D01*
X055495D01*
X055535Y016555D01*
Y016477D01*
X055495Y016437D01*
X055338Y016910D02*
X055298Y016949D01*
Y017028D01*
X055338Y017067D01*
X055495D01*
X055535Y017028D01*
Y016949D01*
X055495Y016910D01*
X055456D01*
X055416Y016949D01*
Y017067D01*
X055259Y017146D02*
Y017303D01*
X055298Y017382D02*
Y017461D01*
Y017421D01*
X055535D01*
X055495Y017382D01*
X055703Y023671D02*
X055768Y023606D01*
Y023475D01*
X055703Y023409D01*
X055440D01*
X055375Y023475D01*
Y023606D01*
X055440Y023671D01*
X055571D01*
Y023540D01*
X055768Y024459D02*
Y024196D01*
X055571D01*
X055637Y024327D01*
Y024393D01*
X055571Y024459D01*
X055440D01*
X055375Y024393D01*
Y024262D01*
X055440Y024196D01*
X055768Y024590D02*
X055375D01*
Y024787D01*
X055440Y024852D01*
X055506D01*
X055571Y024787D01*
Y024590D01*
Y024787D01*
X055637Y024852D01*
X055703D01*
X055768Y024787D01*
Y024590D01*
Y025639D02*
Y025377D01*
X055571D01*
X055637Y025508D01*
Y025574D01*
X055571Y025639D01*
X055440D01*
X055375Y025574D01*
Y025443D01*
X055440Y025377D01*
X055375Y025770D02*
X055637D01*
X055768Y025902D01*
X055637Y026033D01*
X055375D01*
X055571D01*
Y025770D01*
X055768Y026558D02*
X055506D01*
X055375Y026689D01*
X055506Y026820D01*
X055768D01*
X055375Y027345D02*
Y027476D01*
Y027410D01*
X055768D01*
X055703Y027345D01*
Y027673D02*
X055768Y027738D01*
Y027870D01*
X055703Y027935D01*
X055440D01*
X055375Y027870D01*
Y027738D01*
X055440Y027673D01*
X055703D01*
X055309Y028066D02*
Y028329D01*
X055375Y028460D02*
Y028591D01*
Y028526D01*
X055768D01*
X055703Y028460D01*
X055653Y034271D02*
X055718Y034206D01*
Y034075D01*
X055653Y034009D01*
X055390D01*
X055325Y034075D01*
Y034206D01*
X055390Y034271D01*
X055521D01*
Y034140D01*
X055325Y034993D02*
X055718D01*
X055521Y034796D01*
Y035059D01*
X055718Y035190D02*
X055325D01*
Y035387D01*
X055390Y035452D01*
X055456D01*
X055521Y035387D01*
Y035190D01*
Y035387D01*
X055587Y035452D01*
X055653D01*
X055718Y035387D01*
Y035190D01*
X055325Y036174D02*
X055718D01*
X055521Y035977D01*
Y036239D01*
X055325Y036370D02*
X055587D01*
X055718Y036502D01*
X055587Y036633D01*
X055325D01*
X055521D01*
Y036370D01*
X055718Y037158D02*
X055456D01*
X055325Y037289D01*
X055456Y037420D01*
X055718D01*
X055653Y037945D02*
X055718Y038010D01*
Y038142D01*
X055653Y038207D01*
X055587D01*
X055521Y038142D01*
X055456Y038207D01*
X055390D01*
X055325Y038142D01*
Y038010D01*
X055390Y037945D01*
X055456D01*
X055521Y038010D01*
X055587Y037945D01*
X055653D01*
X055521Y038010D02*
Y038142D01*
X055259Y038338D02*
Y038601D01*
X055325Y038929D02*
X055718D01*
X055521Y038732D01*
Y038994D01*
X023097Y017329D02*
X023032Y017394D01*
Y017525D01*
X023097Y017591D01*
X023360D01*
X023425Y017525D01*
Y017394D01*
X023360Y017329D01*
X023229D01*
Y017460D01*
X023097Y016804D02*
X023032Y016738D01*
Y016607D01*
X023097Y016541D01*
X023163D01*
X023229Y016607D01*
Y016673D01*
Y016607D01*
X023294Y016541D01*
X023360D01*
X023425Y016607D01*
Y016738D01*
X023360Y016804D01*
X023032Y016410D02*
X023425D01*
Y016213D01*
X023360Y016148D01*
X023294D01*
X023229Y016213D01*
Y016410D01*
Y016213D01*
X023163Y016148D01*
X023097D01*
X023032Y016213D01*
Y016410D01*
X023097Y015623D02*
X023032Y015557D01*
Y015426D01*
X023097Y015361D01*
X023163D01*
X023229Y015426D01*
Y015492D01*
Y015426D01*
X023294Y015361D01*
X023360D01*
X023425Y015426D01*
Y015557D01*
X023360Y015623D01*
X023425Y015230D02*
X023163D01*
X023032Y015098D01*
X023163Y014967D01*
X023425D01*
X023229D01*
Y015230D01*
X023032Y014442D02*
X023294D01*
X023425Y014311D01*
X023294Y014180D01*
X023032D01*
X023097Y013655D02*
X023032Y013590D01*
Y013458D01*
X023097Y013393D01*
X023163D01*
X023229Y013458D01*
X023294Y013393D01*
X023360D01*
X023425Y013458D01*
Y013590D01*
X023360Y013655D01*
X023294D01*
X023229Y013590D01*
X023163Y013655D01*
X023097D01*
X023229Y013590D02*
Y013458D01*
X023491Y013262D02*
Y012999D01*
X023097Y012868D02*
X023032Y012802D01*
Y012671D01*
X023097Y012606D01*
X023163D01*
X023229Y012671D01*
Y012737D01*
Y012671D01*
X023294Y012606D01*
X023360D01*
X023425Y012671D01*
Y012802D01*
X023360Y012868D01*
X023047Y028379D02*
X022982Y028444D01*
Y028575D01*
X023047Y028641D01*
X023310D01*
X023375Y028575D01*
Y028444D01*
X023310Y028379D01*
X023179D01*
Y028510D01*
X023375Y027591D02*
Y027854D01*
X023113Y027591D01*
X023047D01*
X022982Y027657D01*
Y027788D01*
X023047Y027854D01*
X022982Y027460D02*
X023375D01*
Y027263D01*
X023310Y027198D01*
X023244D01*
X023179Y027263D01*
Y027460D01*
Y027263D01*
X023113Y027198D01*
X023047D01*
X022982Y027263D01*
Y027460D01*
X023375Y026411D02*
Y026673D01*
X023113Y026411D01*
X023047D01*
X022982Y026476D01*
Y026607D01*
X023047Y026673D01*
X023375Y026279D02*
X023113D01*
X022982Y026148D01*
X023113Y026017D01*
X023375D01*
X023179D01*
Y026279D01*
X022982Y025492D02*
X023244D01*
X023375Y025361D01*
X023244Y025230D01*
X022982D01*
X023047Y024705D02*
X022982Y024640D01*
Y024508D01*
X023047Y024443D01*
X023113D01*
X023179Y024508D01*
X023244Y024443D01*
X023310D01*
X023375Y024508D01*
Y024640D01*
X023310Y024705D01*
X023244D01*
X023179Y024640D01*
X023113Y024705D01*
X023047D01*
X023179Y024640D02*
Y024508D01*
X023441Y024312D02*
Y024049D01*
X023375Y023656D02*
Y023918D01*
X023113Y023656D01*
X023047D01*
X022982Y023721D01*
Y023852D01*
X023047Y023918D01*
X023097Y038629D02*
X023032Y038694D01*
Y038825D01*
X023097Y038891D01*
X023360D01*
X023425Y038825D01*
Y038694D01*
X023360Y038629D01*
X023229D01*
Y038760D01*
X023425Y038104D02*
Y037973D01*
Y038038D01*
X023032D01*
X023097Y038104D01*
X023032Y037776D02*
X023425D01*
Y037579D01*
X023360Y037513D01*
X023294D01*
X023229Y037579D01*
Y037776D01*
Y037579D01*
X023163Y037513D01*
X023097D01*
X023032Y037579D01*
Y037776D01*
X023425Y036989D02*
Y036857D01*
Y036923D01*
X023032D01*
X023097Y036989D01*
X023425Y036661D02*
X023163D01*
X023032Y036530D01*
X023163Y036398D01*
X023425D01*
X023229D01*
Y036661D01*
X023032Y035874D02*
X023294D01*
X023425Y035742D01*
X023294Y035611D01*
X023032D01*
X023097Y035086D02*
X023032Y035021D01*
Y034890D01*
X023097Y034824D01*
X023163D01*
X023229Y034890D01*
X023294Y034824D01*
X023360D01*
X023425Y034890D01*
Y035021D01*
X023360Y035086D01*
X023294D01*
X023229Y035021D01*
X023163Y035086D01*
X023097D01*
X023229Y035021D02*
Y034890D01*
X023491Y034693D02*
Y034430D01*
X023425Y034299D02*
Y034168D01*
Y034234D01*
X023032D01*
X023097Y034299D01*
X036921Y041979D02*
X036961Y042018D01*
X037039D01*
X037079Y041979D01*
Y041821D01*
X037039Y041782D01*
X036961D01*
X036921Y041821D01*
Y041900D01*
X037000D01*
X039079Y042068D02*
Y041832D01*
X038961D01*
X038921Y041871D01*
Y041911D01*
X038961Y041950D01*
X039079D01*
X038961D01*
X038921Y041989D01*
Y042029D01*
X038961Y042068D01*
X039079D01*
X040873Y028936D02*
X040951D01*
X040912D01*
Y028739D01*
X040951Y028700D01*
X040991D01*
X041030Y028739D01*
X040794Y028700D02*
Y028936D01*
X040676D01*
X040636Y028897D01*
Y028818D01*
X040676Y028779D01*
X040794D01*
X040400Y028700D02*
X040558D01*
X040400Y028857D01*
Y028897D01*
X040440Y028936D01*
X040518D01*
X040558Y028897D01*
X041079Y041832D02*
Y041989D01*
X041000Y042068D01*
X040921Y041989D01*
Y041832D01*
Y041950D01*
X041079D01*
X035410Y011196D02*
Y010960D01*
X035292D01*
X035253Y010999D01*
Y011157D01*
X035292Y011196D01*
X035410D01*
X035174Y010960D02*
X035095D01*
X035134D01*
Y011196D01*
X035174Y011157D01*
X040953Y030647D02*
X040992Y030686D01*
X041071D01*
X041110Y030647D01*
Y030489D01*
X041071Y030450D01*
X040992D01*
X040953Y030489D01*
X040716Y030450D02*
X040874D01*
X040716Y030607D01*
Y030647D01*
X040756Y030686D01*
X040834D01*
X040874Y030647D01*
X036233D02*
X036272Y030686D01*
X036351D01*
X036390Y030647D01*
Y030489D01*
X036351Y030450D01*
X036272D01*
X036233Y030489D01*
X036154Y030450D02*
X036075D01*
X036114D01*
Y030686D01*
X036154Y030647D01*
M02*
