G04*
G04 #@! TF.GenerationSoftware,Altium Limited,Altium Designer,21.3.2 (30)*
G04*
G04 Layer_Physical_Order=2*
G04 Layer_Color=16711680*
%FSAX24Y24*%
%MOIN*%
G70*
G04*
G04 #@! TF.SameCoordinates,7F11398B-6431-4077-ADE0-EC67F86BA79B*
G04*
G04*
G04 #@! TF.FilePolarity,Positive*
G04*
G01*
G75*
%ADD13C,0.0100*%
%ADD23R,0.0472X0.0551*%
%ADD64C,0.0197*%
%ADD65C,0.0315*%
%ADD66C,0.0630*%
%ADD67R,0.0630X0.0630*%
%ADD68C,0.0591*%
%ADD69R,0.0591X0.0591*%
%ADD70C,0.0600*%
%ADD71R,0.0600X0.0600*%
%ADD72C,0.1200*%
%ADD73C,0.0750*%
%ADD74C,0.0276*%
%ADD75C,0.0500*%
%ADD76R,0.0984X0.0669*%
G36*
X049800Y038561D02*
X047617D01*
X047617Y038562D01*
X047562Y038617D01*
X047489Y038647D01*
X047411D01*
X047338Y038617D01*
X047283Y038562D01*
X047253Y038489D01*
Y038411D01*
X047283Y038338D01*
X047338Y038283D01*
X047411Y038253D01*
X047489D01*
X047562Y038283D01*
X047617Y038338D01*
X047617Y038339D01*
X049800D01*
Y038161D01*
X048117D01*
X048117Y038162D01*
X048062Y038217D01*
X047989Y038247D01*
X047911D01*
X047838Y038217D01*
X047783Y038162D01*
X047753Y038089D01*
Y038011D01*
X047783Y037938D01*
X047838Y037883D01*
X047911Y037853D01*
X047989D01*
X048062Y037883D01*
X048117Y037938D01*
X048117Y037939D01*
X049800D01*
Y029173D01*
X049754Y029153D01*
X047497Y031411D01*
X047497Y031411D01*
Y031489D01*
X047467Y031562D01*
X047412Y031617D01*
X047339Y031647D01*
X047261D01*
X047188Y031617D01*
X047133Y031562D01*
X047103Y031489D01*
Y031411D01*
X047133Y031338D01*
X047188Y031283D01*
X047261Y031253D01*
X047339D01*
X047339Y031253D01*
X049800Y028793D01*
Y028623D01*
X049754Y028603D01*
X046111Y032246D01*
Y033283D01*
X046112Y033283D01*
X046167Y033338D01*
X046197Y033411D01*
Y033489D01*
X046167Y033562D01*
X046112Y033617D01*
X046039Y033647D01*
X045961D01*
X045911Y033626D01*
X045861Y033655D01*
Y035450D01*
X045861Y035450D01*
X045853Y035493D01*
X045829Y035529D01*
X045829Y035529D01*
X043779Y037579D01*
X043743Y037603D01*
X043700Y037611D01*
X043700Y037611D01*
X042817D01*
X042817Y037612D01*
X042762Y037667D01*
X042689Y037697D01*
X042611D01*
X042538Y037667D01*
X042483Y037612D01*
X042453Y037539D01*
Y037461D01*
X042483Y037388D01*
X042538Y037333D01*
X042611Y037303D01*
X042689D01*
X042762Y037333D01*
X042817Y037388D01*
X042817Y037389D01*
X043654D01*
X045639Y035404D01*
Y035310D01*
X045589Y035290D01*
X045562Y035317D01*
X045489Y035347D01*
X045411D01*
X045338Y035317D01*
X045283Y035262D01*
X045283Y035261D01*
X043108D01*
X043078Y035311D01*
X043097Y035358D01*
Y035436D01*
X043067Y035508D01*
X043012Y035564D01*
X043011Y035564D01*
Y036350D01*
X043011Y036350D01*
X043003Y036393D01*
X042979Y036429D01*
X039197Y040211D01*
X039197Y040211D01*
Y040289D01*
X039176Y040341D01*
X039203Y040391D01*
X040016D01*
X040016Y040390D01*
X040071Y040335D01*
X040144Y040305D01*
X040222D01*
X040294Y040335D01*
X040350Y040390D01*
X040380Y040463D01*
Y040541D01*
X040350Y040613D01*
X040294Y040669D01*
X040222Y040699D01*
X040144D01*
X040071Y040669D01*
X040016Y040613D01*
X040016Y040613D01*
X038852D01*
X038852Y040613D01*
X038809Y040604D01*
X038773Y040580D01*
X038747Y040554D01*
X038697Y040575D01*
Y040589D01*
X038667Y040662D01*
X038612Y040717D01*
X038539Y040747D01*
X038461D01*
X038388Y040717D01*
X038333Y040662D01*
X038333Y040661D01*
X037650D01*
X037607Y040653D01*
X037571Y040629D01*
X037571Y040629D01*
X034993Y038050D01*
X034936Y038064D01*
X034917Y038112D01*
X034862Y038167D01*
X034789Y038197D01*
X034711D01*
X034638Y038167D01*
X034583Y038112D01*
X034583Y038111D01*
X034096D01*
X033711Y038496D01*
Y040950D01*
X033711Y040950D01*
X033703Y040993D01*
X033679Y041029D01*
X033679Y041029D01*
X033297Y041411D01*
X033297Y041411D01*
Y041489D01*
X033267Y041562D01*
X033212Y041617D01*
X033139Y041647D01*
X033061D01*
X032988Y041617D01*
X032933Y041562D01*
X032903Y041489D01*
Y041411D01*
X032933Y041338D01*
X032988Y041283D01*
X033061Y041253D01*
X033139D01*
X033139Y041253D01*
X033489Y040904D01*
Y039369D01*
X033439Y039359D01*
X033417Y039412D01*
X033362Y039467D01*
X033289Y039497D01*
X033211D01*
X033192Y039489D01*
X033177Y039496D01*
X033147Y039524D01*
Y039589D01*
X033117Y039662D01*
X033062Y039717D01*
X032989Y039747D01*
X032911D01*
X032838Y039717D01*
X032783Y039662D01*
X032783Y039661D01*
X029000D01*
Y043573D01*
X049800D01*
Y038561D01*
D02*
G37*
G36*
X038803Y040225D02*
Y040211D01*
X038833Y040138D01*
X038888Y040083D01*
X038961Y040053D01*
X039039D01*
X039039Y040053D01*
X042757Y036335D01*
X042754Y036324D01*
X042696Y036294D01*
X042689Y036297D01*
X042611D01*
X042576Y036282D01*
X042545Y036303D01*
X042502Y036311D01*
X042502Y036311D01*
X040967D01*
X040967Y036312D01*
X040912Y036367D01*
X040839Y036397D01*
X040761D01*
X040688Y036367D01*
X040633Y036312D01*
X040603Y036239D01*
Y036161D01*
X040633Y036088D01*
X040688Y036033D01*
X040761Y036003D01*
X040839D01*
X040912Y036033D01*
X040967Y036088D01*
X040967Y036089D01*
X042453D01*
Y036061D01*
X042483Y035988D01*
X042538Y035933D01*
X042611Y035903D01*
X042689D01*
X042739Y035924D01*
X042780Y035900D01*
Y035850D01*
X042739Y035826D01*
X042689Y035847D01*
X042611D01*
X042538Y035817D01*
X042483Y035762D01*
X042483Y035761D01*
X039646D01*
X038011Y037396D01*
Y038571D01*
X038034Y038580D01*
X038089Y038635D01*
X038119Y038708D01*
Y038786D01*
X038100Y038833D01*
X038130Y038883D01*
X038310D01*
X038653Y038539D01*
X038653Y038539D01*
Y038461D01*
X038683Y038388D01*
X038738Y038333D01*
X038811Y038303D01*
X038889D01*
X038962Y038333D01*
X038992Y038364D01*
X039025Y038384D01*
X039058Y038364D01*
X039088Y038333D01*
X039161Y038303D01*
X039239D01*
X039312Y038333D01*
X039367Y038388D01*
X039397Y038461D01*
Y038539D01*
X039367Y038612D01*
X039312Y038667D01*
X039239Y038697D01*
X039161D01*
X039161Y038697D01*
X038429Y039429D01*
X038393Y039453D01*
X038350Y039461D01*
X038350Y039461D01*
X037317D01*
X037317Y039462D01*
X037262Y039517D01*
X037215Y039536D01*
X037201Y039593D01*
X037797Y040189D01*
X038650D01*
X038650Y040189D01*
X038693Y040197D01*
X038729Y040221D01*
X038753Y040246D01*
X038803Y040225D01*
D02*
G37*
G36*
X055416Y043557D02*
X055660Y043508D01*
X055896Y043428D01*
X056120Y043318D01*
X056327Y043179D01*
X056515Y043015D01*
X056679Y042827D01*
X056818Y042620D01*
X056928Y042396D01*
X057008Y042160D01*
X057057Y041916D01*
X057073Y041668D01*
X057073Y041667D01*
Y010171D01*
X057073Y010170D01*
X057057Y009922D01*
X057008Y009678D01*
X056928Y009442D01*
X056818Y009218D01*
X056679Y009011D01*
X056515Y008823D01*
X056327Y008659D01*
X056120Y008520D01*
X055896Y008410D01*
X055660Y008330D01*
X055416Y008281D01*
X055168Y008265D01*
X055167Y008265D01*
X050693D01*
X050673Y008315D01*
X051461Y009103D01*
X051554Y009197D01*
X053929Y011571D01*
X053929Y011571D01*
X053953Y011607D01*
X053961Y011650D01*
X053961Y011650D01*
Y017059D01*
X054291D01*
Y016811D01*
X055009D01*
Y017529D01*
X054291D01*
Y017281D01*
X053909D01*
X053866Y017273D01*
X053830Y017249D01*
X053830Y017249D01*
X053771Y017190D01*
X053747Y017154D01*
X053739Y017111D01*
X053739Y017111D01*
Y015269D01*
X053689Y015259D01*
X053667Y015312D01*
X053612Y015367D01*
X053539Y015397D01*
X053461D01*
X053388Y015367D01*
X053333Y015312D01*
X053303Y015239D01*
Y015161D01*
X053333Y015088D01*
X053388Y015033D01*
X053389Y015033D01*
Y011896D01*
X050596Y009103D01*
X050254Y008761D01*
X028996D01*
X028950Y008807D01*
D01*
X027811Y009946D01*
Y015650D01*
D01*
Y018533D01*
X027812Y018533D01*
X027867Y018588D01*
X027897Y018661D01*
Y018739D01*
X027867Y018812D01*
X027812Y018867D01*
X027739Y018897D01*
X027661D01*
X027588Y018867D01*
X027533Y018812D01*
X027503Y018739D01*
Y018661D01*
X027533Y018588D01*
X027588Y018533D01*
X027589Y018533D01*
Y009900D01*
X027589Y009900D01*
X027597Y009857D01*
X027621Y009821D01*
X028179Y009264D01*
X028151Y009221D01*
D01*
D01*
X028089Y009247D01*
X028011D01*
X027938Y009217D01*
X027883Y009162D01*
X027853Y009089D01*
Y009011D01*
X027883Y008938D01*
X027938Y008883D01*
X028011Y008853D01*
X028089D01*
X028089Y008853D01*
X028300Y008643D01*
X028627Y008315D01*
X028607Y008265D01*
X027800D01*
Y008271D01*
X023650D01*
Y008271D01*
X023585D01*
X023459Y008279D01*
X023386Y008289D01*
X023178Y008330D01*
X022942Y008410D01*
X022718Y008520D01*
X022511Y008659D01*
X022323Y008823D01*
X022159Y009011D01*
X022020Y009218D01*
X021910Y009442D01*
X021830Y009678D01*
X021781Y009922D01*
X021765Y010170D01*
X021765Y010171D01*
Y041667D01*
X021765Y041668D01*
X021781Y041916D01*
X021830Y042160D01*
X021910Y042396D01*
X022020Y042620D01*
X022159Y042827D01*
X022323Y043015D01*
X022511Y043179D01*
X022718Y043318D01*
X022942Y043428D01*
X023178Y043508D01*
X023422Y043557D01*
X023670Y043573D01*
X023671Y043573D01*
X028300D01*
Y039661D01*
X024000D01*
X023957Y039653D01*
X023921Y039629D01*
X023321Y039029D01*
X023297Y038993D01*
X023289Y038950D01*
X023289Y038950D01*
Y034724D01*
X023242Y034703D01*
X023211Y034727D01*
Y039004D01*
X024346Y040139D01*
X024533D01*
X024533Y040138D01*
X024588Y040083D01*
X024661Y040053D01*
X024739D01*
X024812Y040083D01*
X024867Y040138D01*
X024897Y040211D01*
Y040289D01*
X024867Y040362D01*
X024812Y040417D01*
X024739Y040447D01*
X024661D01*
X024588Y040417D01*
X024533Y040362D01*
X024533Y040361D01*
X024300D01*
X024257Y040353D01*
X024221Y040329D01*
X024221Y040329D01*
X023021Y039129D01*
X022997Y039093D01*
X022989Y039050D01*
X022989Y039050D01*
Y034717D01*
X022988Y034717D01*
X022933Y034662D01*
X022903Y034589D01*
Y034511D01*
X022933Y034438D01*
X022988Y034383D01*
X023061Y034353D01*
X023139D01*
X023212Y034383D01*
X023239Y034410D01*
X023289Y034390D01*
Y026950D01*
X023289Y026950D01*
X023297Y026907D01*
X023321Y026871D01*
X023830Y026363D01*
X023815Y026339D01*
X023791Y026247D01*
Y026153D01*
X023815Y026061D01*
X023863Y025980D01*
X023930Y025913D01*
X024011Y025865D01*
X024103Y025841D01*
X024197D01*
X024289Y025865D01*
X024370Y025913D01*
X024437Y025980D01*
X024485Y026061D01*
X024509Y026153D01*
Y026247D01*
X024485Y026339D01*
X024437Y026420D01*
X024370Y026487D01*
X024289Y026535D01*
X024197Y026559D01*
X024103D01*
X024011Y026535D01*
X023987Y026520D01*
X023511Y026996D01*
Y027230D01*
X023561Y027245D01*
X023571Y027230D01*
X023630Y027171D01*
X023630Y027171D01*
X023666Y027147D01*
X023709Y027139D01*
X023795D01*
X023815Y027061D01*
X023863Y026980D01*
X023930Y026913D01*
X024011Y026865D01*
X024103Y026841D01*
X024197D01*
X024289Y026865D01*
X024370Y026913D01*
X024437Y026980D01*
X024485Y027061D01*
X024509Y027153D01*
Y027247D01*
X024485Y027339D01*
X024437Y027420D01*
X024370Y027487D01*
X024289Y027535D01*
X024197Y027559D01*
X024103D01*
X024011Y027535D01*
X023930Y027487D01*
X023863Y027420D01*
X023828Y027361D01*
X023761D01*
Y034153D01*
X023791Y034191D01*
X023811Y034191D01*
X024509D01*
Y034909D01*
X023811D01*
X023791Y034909D01*
X023761Y034947D01*
Y035421D01*
X023811Y035427D01*
X023815Y035411D01*
X023863Y035330D01*
X023930Y035263D01*
X024011Y035215D01*
X024103Y035191D01*
X024197D01*
X024289Y035215D01*
X024370Y035263D01*
X024437Y035330D01*
X024485Y035411D01*
X024509Y035503D01*
Y035597D01*
X024485Y035689D01*
X024437Y035770D01*
X024370Y035837D01*
X024289Y035885D01*
X024197Y035909D01*
X024103D01*
X024011Y035885D01*
X023930Y035837D01*
X023863Y035770D01*
X023815Y035689D01*
X023811Y035673D01*
X023761Y035679D01*
Y036421D01*
X023811Y036427D01*
X023815Y036411D01*
X023863Y036330D01*
X023930Y036263D01*
X024011Y036215D01*
X024103Y036191D01*
X024197D01*
X024289Y036215D01*
X024370Y036263D01*
X024437Y036330D01*
X024485Y036411D01*
X024492Y036439D01*
X028300D01*
Y022857D01*
X023230Y017788D01*
X023211Y017759D01*
X023181Y017760D01*
X023161Y017767D01*
Y018303D01*
X023189D01*
X023262Y018333D01*
X023317Y018388D01*
X023347Y018461D01*
Y018539D01*
X023317Y018612D01*
X023262Y018667D01*
X023189Y018697D01*
X023111D01*
X023038Y018667D01*
X022983Y018612D01*
X022953Y018539D01*
Y018461D01*
X022967Y018426D01*
X022947Y018396D01*
X022939Y018354D01*
X022939Y018354D01*
Y014350D01*
X022939Y014350D01*
X022947Y014307D01*
X022971Y014271D01*
X023791Y013452D01*
Y012891D01*
X024509D01*
Y013609D01*
X023948D01*
X023161Y014396D01*
Y016033D01*
X023181Y016040D01*
X023211Y016041D01*
X023230Y016012D01*
X023830Y015413D01*
X023815Y015389D01*
X023791Y015297D01*
Y015203D01*
X023815Y015111D01*
X023863Y015030D01*
X023930Y014963D01*
X024011Y014915D01*
X024103Y014891D01*
X024197D01*
X024289Y014915D01*
X024370Y014963D01*
X024437Y015030D01*
X024485Y015111D01*
X024509Y015203D01*
Y015297D01*
X024485Y015389D01*
X024437Y015470D01*
X024370Y015537D01*
X024289Y015585D01*
X024197Y015609D01*
X024103D01*
X024011Y015585D01*
X023987Y015570D01*
X023420Y016137D01*
Y017663D01*
X023512Y017755D01*
X023551Y017723D01*
X023547Y017717D01*
X023539Y017675D01*
X023539Y017675D01*
Y016750D01*
X023539Y016750D01*
X023547Y016707D01*
X023571Y016671D01*
X023830Y016413D01*
X023815Y016389D01*
X023791Y016297D01*
Y016203D01*
X023815Y016111D01*
X023863Y016030D01*
X023930Y015963D01*
X024011Y015915D01*
X024103Y015891D01*
X024197D01*
X024289Y015915D01*
X024370Y015963D01*
X024437Y016030D01*
X024485Y016111D01*
X024509Y016203D01*
Y016297D01*
X024485Y016389D01*
X024437Y016470D01*
X024370Y016537D01*
X024289Y016585D01*
X024197Y016609D01*
X024103D01*
X024011Y016585D01*
X023987Y016570D01*
X023761Y016796D01*
Y017629D01*
X028254Y022121D01*
X028300Y022102D01*
Y015654D01*
X028950Y015660D01*
Y019950D01*
X033489D01*
Y016146D01*
X031639Y014297D01*
X031639Y014297D01*
X031561D01*
X031488Y014267D01*
X031433Y014212D01*
X031403Y014139D01*
Y014061D01*
X031433Y013988D01*
X031488Y013933D01*
X031561Y013903D01*
X031639D01*
X031712Y013933D01*
X031767Y013988D01*
X031797Y014061D01*
Y014139D01*
X031797Y014139D01*
X033354Y015697D01*
X033679Y016021D01*
X033703Y016057D01*
X033711Y016100D01*
Y019950D01*
X046229D01*
Y017191D01*
X045592Y016554D01*
X045503D01*
X045413Y016530D01*
X045332Y016484D01*
X045266Y016418D01*
X045220Y016337D01*
X045196Y016247D01*
Y016153D01*
X045220Y016063D01*
X045266Y015982D01*
X045332Y015916D01*
X045413Y015870D01*
X045503Y015846D01*
X045597D01*
X045687Y015870D01*
X045768Y015916D01*
X045834Y015982D01*
X045880Y016063D01*
X045904Y016153D01*
Y016242D01*
X046606Y016944D01*
X046654Y017016D01*
X046671Y017100D01*
Y019950D01*
X047389D01*
Y015779D01*
D01*
Y012717D01*
X047388Y012717D01*
X047333Y012662D01*
X047303Y012589D01*
Y012511D01*
X047333Y012438D01*
X047388Y012383D01*
X047461Y012353D01*
X047539D01*
X047612Y012383D01*
X047667Y012438D01*
X047697Y012511D01*
Y012589D01*
X047667Y012662D01*
X047612Y012717D01*
X047611Y012717D01*
Y015816D01*
Y019950D01*
X049800D01*
Y015834D01*
X050550Y015841D01*
Y027427D01*
X050596Y027447D01*
X053001Y025041D01*
X053037Y025017D01*
X053080Y025009D01*
X053080Y025009D01*
X054308D01*
X054315Y024981D01*
X054363Y024900D01*
X054430Y024833D01*
X054511Y024785D01*
X054603Y024761D01*
X054697D01*
X054789Y024785D01*
X054870Y024833D01*
X054937Y024900D01*
X054985Y024981D01*
X055009Y025073D01*
Y025167D01*
X054985Y025259D01*
X054937Y025340D01*
X054870Y025407D01*
X054789Y025455D01*
X054697Y025479D01*
X054603D01*
X054511Y025455D01*
X054430Y025407D01*
X054363Y025340D01*
X054315Y025259D01*
X054308Y025231D01*
X053126D01*
X050550Y027807D01*
Y027977D01*
X050596Y027997D01*
X052551Y026041D01*
X052551Y026041D01*
X052587Y026017D01*
X052630Y026009D01*
X054308D01*
X054315Y025981D01*
X054363Y025900D01*
X054430Y025833D01*
X054511Y025785D01*
X054603Y025761D01*
X054697D01*
X054789Y025785D01*
X054870Y025833D01*
X054937Y025900D01*
X054985Y025981D01*
X055009Y026073D01*
Y026167D01*
X054985Y026259D01*
X054937Y026340D01*
X054870Y026407D01*
X054789Y026455D01*
X054697Y026479D01*
X054603D01*
X054511Y026455D01*
X054430Y026407D01*
X054363Y026340D01*
X054315Y026259D01*
X054308Y026231D01*
X052676D01*
X050550Y028357D01*
Y037939D01*
X052024D01*
X054330Y035633D01*
X054315Y035609D01*
X054291Y035517D01*
Y035423D01*
X054315Y035331D01*
X054363Y035250D01*
X054430Y035183D01*
X054511Y035135D01*
X054603Y035111D01*
X054697D01*
X054789Y035135D01*
X054870Y035183D01*
X054937Y035250D01*
X054985Y035331D01*
X055009Y035423D01*
Y035517D01*
X054985Y035609D01*
X054937Y035690D01*
X054870Y035757D01*
X054789Y035805D01*
X054697Y035829D01*
X054603D01*
X054511Y035805D01*
X054487Y035790D01*
X052149Y038129D01*
X052113Y038153D01*
X052070Y038161D01*
X052070Y038161D01*
X050550D01*
Y038339D01*
X052624D01*
X054330Y036633D01*
X054315Y036609D01*
X054291Y036517D01*
Y036423D01*
X054315Y036331D01*
X054363Y036250D01*
X054430Y036183D01*
X054511Y036135D01*
X054603Y036111D01*
X054697D01*
X054789Y036135D01*
X054870Y036183D01*
X054937Y036250D01*
X054985Y036331D01*
X055009Y036423D01*
Y036517D01*
X054985Y036609D01*
X054937Y036690D01*
X054870Y036757D01*
X054789Y036805D01*
X054697Y036829D01*
X054603D01*
X054511Y036805D01*
X054487Y036790D01*
X052749Y038529D01*
X052713Y038553D01*
X052670Y038561D01*
X052670Y038561D01*
X050550D01*
Y043573D01*
X055167D01*
X055168Y043573D01*
X055416Y043557D01*
D02*
G37*
G36*
X033489Y039231D02*
Y038450D01*
X033489Y038450D01*
X033497Y038407D01*
X033521Y038371D01*
X033971Y037921D01*
X034007Y037897D01*
X034050Y037889D01*
X034583D01*
X034583Y037888D01*
X034638Y037833D01*
X034686Y037814D01*
X034700Y037757D01*
X034548Y037605D01*
X029000D01*
Y039189D01*
X033083D01*
X033083Y039188D01*
X033138Y039133D01*
X033211Y039103D01*
X033289D01*
X033362Y039133D01*
X033417Y039188D01*
X033439Y039241D01*
X033489Y039231D01*
D02*
G37*
G36*
X036964Y039285D02*
X036983Y039238D01*
X037038Y039183D01*
X037111Y039153D01*
X037189D01*
X037262Y039183D01*
X037317Y039238D01*
X037317Y039239D01*
X038304D01*
X038394Y039148D01*
X038370Y039102D01*
X038356Y039105D01*
X038356Y039105D01*
X037244D01*
X037201Y039096D01*
X037165Y039072D01*
X037165Y039072D01*
X033954Y035861D01*
X031867D01*
X031867Y035862D01*
X031812Y035917D01*
X031739Y035947D01*
X031661D01*
X031588Y035917D01*
X031533Y035862D01*
X031503Y035789D01*
Y035711D01*
X031533Y035638D01*
X031588Y035583D01*
X031661Y035553D01*
X031739D01*
X031812Y035583D01*
X031867Y035638D01*
X031867Y035639D01*
X034000D01*
X034000Y035639D01*
X034043Y035647D01*
X034079Y035671D01*
X034986Y036579D01*
X035029Y036551D01*
X035003Y036489D01*
Y036411D01*
X035003Y036411D01*
X034055Y035462D01*
X034031Y035426D01*
X034022Y035384D01*
X034022Y035384D01*
Y035331D01*
X033988Y035317D01*
X033933Y035262D01*
X033903Y035189D01*
Y035111D01*
X033933Y035038D01*
X033957Y035014D01*
X033937Y034964D01*
X031753D01*
X031711Y034956D01*
X031675Y034932D01*
X031675Y034932D01*
X030871Y034129D01*
X030847Y034093D01*
X030839Y034050D01*
X030839Y034050D01*
Y029517D01*
X030838Y029517D01*
X030783Y029462D01*
X030753Y029389D01*
Y029311D01*
X030783Y029238D01*
X030838Y029183D01*
X030911Y029153D01*
X030989D01*
X031062Y029183D01*
X031117Y029238D01*
X031147Y029311D01*
Y029389D01*
X031117Y029462D01*
X031062Y029517D01*
X031061Y029517D01*
Y034004D01*
X031799Y034742D01*
X037303D01*
X037303Y034742D01*
X037346Y034750D01*
X037382Y034775D01*
X037511Y034903D01*
X037511Y034903D01*
X037589D01*
X037653Y034930D01*
X037685Y034917D01*
X037703Y034904D01*
Y034861D01*
X037733Y034788D01*
X037788Y034733D01*
X037789Y034733D01*
Y034108D01*
X037739Y034078D01*
X037692Y034097D01*
X037614D01*
X037542Y034067D01*
X037486Y034012D01*
X037486Y034011D01*
X033296D01*
X032897Y034411D01*
X032897Y034411D01*
Y034489D01*
X032867Y034562D01*
X032812Y034617D01*
X032739Y034647D01*
X032661D01*
X032588Y034617D01*
X032533Y034562D01*
X032503Y034489D01*
Y034411D01*
X032533Y034338D01*
X032588Y034283D01*
X032661Y034253D01*
X032739D01*
X032739Y034253D01*
X033171Y033821D01*
X033171Y033821D01*
X033207Y033797D01*
X033250Y033789D01*
X037486D01*
X037486Y033788D01*
X037542Y033733D01*
X037614Y033703D01*
X037675D01*
X037698Y033656D01*
X037654Y033611D01*
X036967D01*
X036967Y033612D01*
X036912Y033667D01*
X036839Y033697D01*
X036761D01*
X036688Y033667D01*
X036633Y033612D01*
X036603Y033539D01*
Y033461D01*
X036633Y033388D01*
X036688Y033333D01*
X036761Y033303D01*
X036839D01*
X036912Y033333D01*
X036967Y033388D01*
X036967Y033389D01*
X037540D01*
X037560Y033339D01*
X037533Y033312D01*
X037503Y033239D01*
Y033161D01*
X037503Y033161D01*
X037369Y033026D01*
X034931D01*
X034931Y033027D01*
X034876Y033082D01*
X034804Y033112D01*
X034725D01*
X034653Y033082D01*
X034598Y033027D01*
X034568Y032954D01*
Y032876D01*
X034598Y032804D01*
X034653Y032748D01*
X034725Y032718D01*
X034804D01*
X034876Y032748D01*
X034931Y032804D01*
X034931Y032804D01*
X037415D01*
X037415Y032804D01*
X037458Y032812D01*
X037494Y032837D01*
X037661Y033003D01*
X037661Y033003D01*
X037739D01*
X037801Y033029D01*
X037829Y032986D01*
X037489Y032647D01*
X037489Y032647D01*
X037411D01*
X037338Y032617D01*
X037283Y032562D01*
X037253Y032489D01*
Y032411D01*
X037283Y032338D01*
X037338Y032283D01*
X037411Y032253D01*
X037489D01*
X037562Y032283D01*
X037617Y032338D01*
X037647Y032411D01*
Y032489D01*
X037647Y032489D01*
X038329Y033171D01*
X038353Y033207D01*
X038361Y033250D01*
X038361Y033250D01*
Y034233D01*
X038362Y034233D01*
X038408Y034280D01*
X038449Y034270D01*
X038458Y034265D01*
Y030112D01*
X038408Y030091D01*
X038352Y030147D01*
X038253Y030204D01*
X038143Y030234D01*
X038028D01*
X037918Y030204D01*
X037819Y030147D01*
X037738Y030067D01*
X037681Y029968D01*
X037666Y029911D01*
X037418D01*
Y030133D01*
X036827D01*
Y029464D01*
X037418D01*
Y029689D01*
X037666D01*
X037681Y029632D01*
X037738Y029533D01*
X037819Y029453D01*
X037918Y029396D01*
X038028Y029366D01*
X038143D01*
X038253Y029396D01*
X038352Y029453D01*
X038408Y029509D01*
X038458Y029488D01*
Y029166D01*
X037971Y028679D01*
X037947Y028643D01*
X037939Y028600D01*
X037939Y028600D01*
Y027148D01*
X037939Y027148D01*
X037947Y027105D01*
X037971Y027069D01*
X038489Y026551D01*
Y025707D01*
X038456Y025699D01*
X038370Y025649D01*
X038301Y025580D01*
X038251Y025494D01*
X038226Y025399D01*
Y025301D01*
X038251Y025206D01*
X038301Y025120D01*
X038370Y025051D01*
X038456Y025001D01*
X038551Y024976D01*
X038649D01*
X038744Y025001D01*
X038830Y025051D01*
X038899Y025120D01*
X038949Y025206D01*
X038974Y025301D01*
Y025399D01*
X038949Y025494D01*
X038899Y025580D01*
X038830Y025649D01*
X038744Y025699D01*
X038711Y025707D01*
Y026598D01*
X038703Y026640D01*
X038679Y026676D01*
X038679Y026676D01*
X038161Y027194D01*
Y027725D01*
X038211Y027739D01*
X038251Y027670D01*
X038320Y027601D01*
X038406Y027551D01*
X038501Y027526D01*
X038599D01*
X038694Y027551D01*
X038780Y027601D01*
X038849Y027670D01*
X038889Y027739D01*
X038939Y027725D01*
Y025900D01*
X038939Y025900D01*
X038947Y025857D01*
X038971Y025821D01*
X039269Y025524D01*
X039251Y025494D01*
X039226Y025399D01*
Y025301D01*
X039251Y025206D01*
X039301Y025120D01*
X039370Y025051D01*
X039456Y025001D01*
X039551Y024976D01*
X039649D01*
X039744Y025001D01*
X039830Y025051D01*
X039899Y025120D01*
X039949Y025206D01*
X039974Y025301D01*
Y025399D01*
X039949Y025494D01*
X039899Y025580D01*
X039830Y025649D01*
X039744Y025699D01*
X039649Y025724D01*
X039551D01*
X039456Y025699D01*
X039426Y025681D01*
X039161Y025946D01*
Y027725D01*
X039211Y027739D01*
X039251Y027670D01*
X039320Y027601D01*
X039406Y027551D01*
X039501Y027526D01*
X039599D01*
X039694Y027551D01*
X039780Y027601D01*
X039849Y027670D01*
X039899Y027756D01*
X039924Y027851D01*
Y027949D01*
X039899Y028044D01*
X039849Y028130D01*
X039780Y028199D01*
X039694Y028249D01*
X039599Y028274D01*
X039501D01*
X039419Y028252D01*
X039364Y028307D01*
Y032517D01*
X039414Y032532D01*
X039421Y032521D01*
X040286Y031656D01*
X040286Y031656D01*
X040322Y031632D01*
X040365Y031624D01*
X040365Y031624D01*
X042416D01*
X042416Y031624D01*
X042471Y031568D01*
X042543Y031538D01*
X042622D01*
X042694Y031568D01*
X042739Y031613D01*
X042788Y031598D01*
X042789Y031598D01*
Y030689D01*
X042739Y030668D01*
X042297Y031111D01*
X042297Y031111D01*
Y031189D01*
X042267Y031262D01*
X042212Y031317D01*
X042139Y031347D01*
X042061D01*
X041988Y031317D01*
X041933Y031262D01*
X041903Y031189D01*
Y031111D01*
X041933Y031038D01*
X041988Y030983D01*
X042061Y030953D01*
X042139D01*
X042139Y030953D01*
X042589Y030504D01*
Y022796D01*
X042254Y022461D01*
X039896D01*
X039761Y022596D01*
Y022993D01*
X039794Y023001D01*
X039880Y023051D01*
X039949Y023120D01*
X039999Y023206D01*
X040024Y023301D01*
Y023399D01*
X039999Y023494D01*
X039949Y023580D01*
X039880Y023649D01*
X039794Y023699D01*
X039699Y023724D01*
X039601D01*
X039506Y023699D01*
X039420Y023649D01*
X039351Y023580D01*
X039301Y023494D01*
X039276Y023399D01*
Y023301D01*
X039301Y023206D01*
X039351Y023120D01*
X039420Y023051D01*
X039506Y023001D01*
X039539Y022993D01*
Y022550D01*
X039539Y022550D01*
X039547Y022507D01*
X039571Y022471D01*
X039771Y022271D01*
X039771Y022271D01*
X039807Y022247D01*
X039850Y022239D01*
X039850Y022239D01*
X042300D01*
X042300Y022239D01*
X042343Y022247D01*
X042379Y022271D01*
X042739Y022632D01*
X042789Y022611D01*
Y022496D01*
X042454Y022161D01*
X039096D01*
X038761Y022496D01*
Y022993D01*
X038794Y023001D01*
X038880Y023051D01*
X038949Y023120D01*
X038999Y023206D01*
X039024Y023301D01*
Y023399D01*
X038999Y023494D01*
X038949Y023580D01*
X038880Y023649D01*
X038794Y023699D01*
X038699Y023724D01*
X038601D01*
X038506Y023699D01*
X038420Y023649D01*
X038351Y023580D01*
X038301Y023494D01*
X038276Y023399D01*
Y023301D01*
X038301Y023206D01*
X038351Y023120D01*
X038420Y023051D01*
X038506Y023001D01*
X038539Y022993D01*
Y022450D01*
X038539Y022450D01*
X038547Y022407D01*
X038571Y022371D01*
X038971Y021971D01*
X038971Y021971D01*
X039007Y021947D01*
X039050Y021939D01*
X042500D01*
X042500Y021939D01*
X042543Y021947D01*
X042579Y021971D01*
X042979Y022371D01*
X042979Y022371D01*
X043003Y022407D01*
X043011Y022450D01*
Y031683D01*
X043012Y031683D01*
X043067Y031738D01*
X043097Y031811D01*
Y031889D01*
X043067Y031962D01*
X043012Y032017D01*
X042939Y032047D01*
X042861D01*
X042788Y032017D01*
X042733Y031962D01*
X042710Y031905D01*
X042694Y031902D01*
X042622Y031932D01*
X042543D01*
X042471Y031902D01*
X042416Y031847D01*
X042416Y031846D01*
X040411D01*
X039611Y032646D01*
Y033170D01*
X039661Y033185D01*
X039668Y033175D01*
X039771Y033071D01*
X039771Y033071D01*
X039807Y033047D01*
X039850Y033039D01*
X039850Y033039D01*
X042533D01*
X042533Y033038D01*
X042588Y032983D01*
X042661Y032953D01*
X042739D01*
X042812Y032983D01*
X042867Y033038D01*
X042897Y033111D01*
Y033189D01*
X042867Y033262D01*
X042844Y033285D01*
X042812Y033317D01*
X042844Y033350D01*
X042867Y033373D01*
X042897Y033445D01*
Y033524D01*
X042867Y033596D01*
X042827Y033636D01*
X042817Y033667D01*
X042827Y033699D01*
X042867Y033738D01*
X042897Y033811D01*
Y033889D01*
X042867Y033962D01*
X042812Y034017D01*
X042739Y034047D01*
X042661D01*
X042588Y034017D01*
X042533Y033962D01*
X042533Y033961D01*
X040217D01*
X040217Y033962D01*
X040162Y034017D01*
X040089Y034047D01*
X040011D01*
X039938Y034017D01*
X039908Y033986D01*
X039858Y034007D01*
Y035203D01*
X039850Y035246D01*
X039825Y035282D01*
X039825Y035282D01*
X039618Y035489D01*
X039639Y035539D01*
X042483D01*
X042483Y035538D01*
X042538Y035483D01*
X042611Y035453D01*
X042657D01*
X042693Y035440D01*
X042703Y035407D01*
Y035358D01*
X042722Y035311D01*
X042692Y035261D01*
X041050D01*
X041007Y035253D01*
X040971Y035229D01*
X040971Y035229D01*
X040839Y035097D01*
X040839Y035097D01*
X040761D01*
X040688Y035067D01*
X040633Y035012D01*
X040603Y034939D01*
Y034861D01*
X040633Y034788D01*
X040688Y034733D01*
X040761Y034703D01*
X040839D01*
X040912Y034733D01*
X040967Y034788D01*
X040997Y034861D01*
Y034939D01*
X040997Y034939D01*
X041096Y035039D01*
X045283D01*
X045283Y035038D01*
X045338Y034983D01*
X045411Y034953D01*
X045489D01*
X045562Y034983D01*
X045589Y035010D01*
X045639Y034990D01*
Y022350D01*
X045639Y022350D01*
X045647Y022307D01*
X045671Y022271D01*
X046553Y021389D01*
X046553Y021389D01*
Y021311D01*
X046583Y021238D01*
X046638Y021183D01*
X046711Y021153D01*
X046789D01*
X046862Y021183D01*
X046917Y021238D01*
X046947Y021311D01*
Y021375D01*
X046989Y021399D01*
X046993Y021400D01*
X047389Y021004D01*
Y020350D01*
X033711D01*
Y026833D01*
X033712Y026833D01*
X033767Y026888D01*
X033797Y026961D01*
Y027039D01*
X033767Y027112D01*
X033712Y027167D01*
X033639Y027197D01*
X033561D01*
X033488Y027167D01*
X033433Y027112D01*
X033427Y027097D01*
X033373D01*
X033367Y027112D01*
X033312Y027167D01*
X033239Y027197D01*
X033161D01*
X033088Y027167D01*
X033033Y027112D01*
X033011Y027059D01*
X032961Y027069D01*
Y032954D01*
X033261Y033253D01*
X033261Y033253D01*
X033339D01*
X033412Y033283D01*
X033467Y033338D01*
X033497Y033411D01*
Y033489D01*
X033467Y033562D01*
X033412Y033617D01*
X033339Y033647D01*
X033261D01*
X033188Y033617D01*
X033133Y033562D01*
X033103Y033489D01*
Y033411D01*
X033103Y033411D01*
X032771Y033079D01*
X032747Y033043D01*
X032739Y033000D01*
X032739Y033000D01*
Y031605D01*
X032689Y031576D01*
X032639Y031597D01*
X032561D01*
X032488Y031567D01*
X032433Y031512D01*
X032403Y031439D01*
Y031361D01*
X032433Y031288D01*
X032488Y031233D01*
X032489Y031233D01*
Y027046D01*
X029046Y023603D01*
X029000Y023623D01*
Y036439D01*
X034100D01*
X034100Y036439D01*
X034143Y036447D01*
X034179Y036471D01*
X036544Y038836D01*
X036544Y038836D01*
X036568Y038872D01*
X036576Y038915D01*
Y038968D01*
X036907Y039299D01*
X036964Y039285D01*
D02*
G37*
G36*
X028300Y037605D02*
X024507D01*
X024485Y037689D01*
X024437Y037770D01*
X024370Y037837D01*
X024289Y037885D01*
X024197Y037909D01*
X024103D01*
X024011Y037885D01*
X023930Y037837D01*
X023863Y037770D01*
X023815Y037689D01*
X023811Y037673D01*
X023761Y037679D01*
Y038754D01*
X024196Y039189D01*
X028300D01*
Y037605D01*
D02*
G37*
G36*
X036357Y039029D02*
X036354Y039014D01*
X036354Y039014D01*
Y038961D01*
X034054Y036661D01*
X029000D01*
Y037382D01*
X034594D01*
X034594Y037382D01*
X034636Y037391D01*
X034672Y037415D01*
X036311Y039053D01*
X036357Y039029D01*
D02*
G37*
G36*
X037745Y038833D02*
X037725Y038786D01*
Y038708D01*
X037755Y038635D01*
X037789Y038602D01*
Y037389D01*
X037739Y037368D01*
X037541Y037567D01*
Y038456D01*
X037541Y038456D01*
X037596Y038512D01*
X037626Y038584D01*
Y038662D01*
X037596Y038735D01*
X037541Y038790D01*
X037469Y038820D01*
X037390D01*
X037318Y038790D01*
X037263Y038735D01*
X037233Y038662D01*
Y038584D01*
X037263Y038512D01*
X037318Y038456D01*
X037318Y038456D01*
Y037521D01*
X037318Y037521D01*
X037327Y037478D01*
X037351Y037442D01*
X037800Y036993D01*
X037786Y036936D01*
X037738Y036917D01*
X037683Y036862D01*
X037653Y036789D01*
Y036711D01*
X037683Y036638D01*
X037738Y036583D01*
X037739Y036583D01*
Y036514D01*
X037689Y036483D01*
X037642Y036502D01*
X037564D01*
X037492Y036473D01*
X037436Y036417D01*
X037406Y036345D01*
Y036266D01*
X037436Y036194D01*
X037492Y036139D01*
X037564Y036109D01*
X037642D01*
X037672Y036121D01*
X037801Y035993D01*
X037786Y035937D01*
X037738Y035917D01*
X037683Y035862D01*
X037653Y035789D01*
Y035775D01*
X037603Y035754D01*
X036711Y036646D01*
Y037033D01*
X036712Y037033D01*
X036767Y037088D01*
X036797Y037161D01*
Y037239D01*
X036767Y037312D01*
X036712Y037367D01*
X036639Y037397D01*
X036561D01*
X036488Y037367D01*
X036433Y037312D01*
X036403Y037239D01*
Y037161D01*
X036433Y037088D01*
X036488Y037033D01*
X036489Y037033D01*
Y036600D01*
X036489Y036600D01*
X036497Y036557D01*
X036521Y036521D01*
X037896Y035147D01*
X037875Y035097D01*
X037861D01*
X037797Y035070D01*
X037765Y035083D01*
X037747Y035096D01*
Y035139D01*
X037717Y035212D01*
X037662Y035267D01*
X037589Y035297D01*
X037511D01*
X037438Y035267D01*
X037383Y035212D01*
X037353Y035139D01*
Y035061D01*
X037353Y035061D01*
X037257Y034964D01*
X034263D01*
X034243Y035014D01*
X034267Y035038D01*
X034297Y035111D01*
Y035189D01*
X034267Y035262D01*
X034245Y035284D01*
Y035338D01*
X035161Y036253D01*
X035161Y036253D01*
X035239D01*
X035312Y036283D01*
X035367Y036338D01*
X035397Y036411D01*
Y036489D01*
X035367Y036562D01*
X035312Y036617D01*
X035239Y036647D01*
X035161D01*
X035099Y036621D01*
X035071Y036664D01*
X037290Y038883D01*
X037714D01*
X037745Y038833D01*
D02*
G37*
G36*
X039636Y035157D02*
Y034608D01*
X039586Y034578D01*
X039539Y034597D01*
X039461D01*
X039414Y034578D01*
X039364Y034608D01*
Y035047D01*
X039356Y035089D01*
X039332Y035125D01*
X039332Y035125D01*
X037961Y036496D01*
Y036583D01*
X037962Y036583D01*
X038017Y036638D01*
X038036Y036686D01*
X038093Y036700D01*
X039636Y035157D01*
D02*
G37*
G36*
X042533Y033738D02*
X042573Y033699D01*
X042583Y033667D01*
X042573Y033636D01*
X042540Y033604D01*
X040220D01*
X040217Y033612D01*
X040186Y033642D01*
X040166Y033675D01*
X040186Y033708D01*
X040217Y033738D01*
X040217Y033739D01*
X042533D01*
X042533Y033738D01*
D02*
G37*
G36*
Y033373D02*
X042556Y033350D01*
X042588Y033317D01*
X042556Y033285D01*
X042533Y033262D01*
X042533Y033261D01*
X040119D01*
X040109Y033311D01*
X040162Y033333D01*
X040210Y033381D01*
X042530D01*
X042533Y033373D01*
D02*
G37*
G36*
X045921Y032121D02*
X046829Y031214D01*
X046801Y031171D01*
X046739Y031197D01*
X046661D01*
X046588Y031167D01*
X046533Y031112D01*
X046503Y031039D01*
Y030961D01*
X046533Y030888D01*
X046588Y030833D01*
X046589Y030833D01*
Y021850D01*
X046589Y021850D01*
X046597Y021807D01*
X046621Y021771D01*
X046800Y021593D01*
X046799Y021589D01*
X046775Y021547D01*
X046711D01*
X046711Y021547D01*
X045861Y022396D01*
Y032121D01*
X045911Y032137D01*
X045921Y032121D01*
D02*
G37*
G36*
X033033Y026888D02*
X033082Y026839D01*
X030921Y024679D01*
X030897Y024643D01*
X030889Y024600D01*
X030889Y024600D01*
Y022167D01*
X030888Y022167D01*
X030833Y022112D01*
X030803Y022039D01*
Y021961D01*
X030833Y021888D01*
X030888Y021833D01*
X030961Y021803D01*
X031039D01*
X031112Y021833D01*
X031167Y021888D01*
X031197Y021961D01*
Y022039D01*
X031167Y022112D01*
X031112Y022167D01*
X031111Y022167D01*
Y024554D01*
X033275Y026718D01*
X033275Y026718D01*
X033299Y026754D01*
X033308Y026797D01*
Y026832D01*
X033312Y026833D01*
X033367Y026888D01*
X033373Y026903D01*
X033427D01*
X033433Y026888D01*
X033488Y026833D01*
X033489Y026833D01*
Y020350D01*
X029000D01*
Y022868D01*
X032929Y026796D01*
X032929Y026796D01*
X032953Y026832D01*
X032961Y026875D01*
X032961Y026875D01*
Y026931D01*
X033011Y026941D01*
X033033Y026888D01*
D02*
G37*
G36*
X049800Y028243D02*
Y020365D01*
X049754Y020346D01*
X049750Y020350D01*
X047611D01*
Y021050D01*
X047611Y021050D01*
X047603Y021093D01*
X047579Y021129D01*
X046811Y021896D01*
Y030833D01*
X046812Y030833D01*
X046867Y030888D01*
X046897Y030961D01*
Y031039D01*
X046871Y031101D01*
X046914Y031129D01*
X049800Y028243D01*
D02*
G37*
G36*
X051600Y009727D02*
Y009557D01*
X050504Y008461D01*
X028796D01*
X028247Y009011D01*
X028247Y009011D01*
Y009089D01*
X028221Y009151D01*
X028264Y009179D01*
X028871Y008571D01*
X028907Y008547D01*
X028950Y008539D01*
X028950Y008539D01*
X050300D01*
X050300Y008539D01*
X050343Y008547D01*
X050379Y008571D01*
X051554Y009747D01*
X051600Y009727D01*
D02*
G37*
%LPC*%
G36*
X044889Y042947D02*
X044811D01*
X044738Y042917D01*
X044683Y042862D01*
X044683Y042861D01*
X043850D01*
X043807Y042853D01*
X043771Y042829D01*
X043171Y042229D01*
X043171Y042229D01*
X041525Y040582D01*
X041500Y040546D01*
X041492Y040503D01*
X041492Y040503D01*
Y039117D01*
X041492Y039117D01*
X041436Y039062D01*
X041406Y038989D01*
Y038911D01*
X041436Y038838D01*
X041492Y038783D01*
X041564Y038753D01*
X041642D01*
X041668Y038764D01*
X041696Y038721D01*
X041683Y038708D01*
X041653Y038636D01*
Y038558D01*
X041683Y038485D01*
X041738Y038430D01*
X041811Y038400D01*
X041889D01*
X041962Y038430D01*
X041969Y038438D01*
X042011Y038409D01*
X042003Y038389D01*
Y038311D01*
X042033Y038238D01*
X042088Y038183D01*
X042161Y038153D01*
X042239D01*
X042312Y038183D01*
X042367Y038238D01*
X042367Y038239D01*
X044150D01*
X044150Y038239D01*
X044193Y038247D01*
X044229Y038271D01*
X045761Y039803D01*
X045761Y039803D01*
X045839D01*
X045912Y039833D01*
X045967Y039888D01*
X045997Y039961D01*
Y040039D01*
X045967Y040112D01*
X045912Y040167D01*
X045839Y040197D01*
X045761D01*
X045688Y040167D01*
X045633Y040112D01*
X045603Y040039D01*
Y039961D01*
X045603Y039961D01*
X044104Y038461D01*
X042367D01*
X042367Y038462D01*
X042312Y038517D01*
X042239Y038547D01*
X042161D01*
X042088Y038517D01*
X042081Y038509D01*
X042039Y038538D01*
X042047Y038558D01*
Y038636D01*
X042017Y038708D01*
X041962Y038764D01*
X041961Y038764D01*
Y040204D01*
X043146Y041389D01*
X043633D01*
X043633Y041388D01*
X043688Y041333D01*
X043761Y041303D01*
X043839D01*
X043912Y041333D01*
X043967Y041388D01*
X043997Y041461D01*
Y041539D01*
X043967Y041612D01*
X043912Y041667D01*
X043839Y041697D01*
X043761D01*
X043688Y041667D01*
X043633Y041612D01*
X043633Y041611D01*
X043100D01*
X043100Y041611D01*
X043057Y041603D01*
X043021Y041579D01*
X041771Y040329D01*
X041764Y040318D01*
X041714Y040333D01*
Y040457D01*
X043329Y042071D01*
X043329Y042071D01*
X043896Y042639D01*
X044683D01*
X044683Y042638D01*
X044738Y042583D01*
X044811Y042553D01*
X044889D01*
X044962Y042583D01*
X045017Y042638D01*
X045047Y042711D01*
Y042789D01*
X045017Y042862D01*
X044962Y042917D01*
X044889Y042947D01*
D02*
G37*
G36*
X041343Y043124D02*
X040594D01*
Y042376D01*
X041343D01*
Y043124D01*
D02*
G37*
G36*
X039374D02*
X038626D01*
Y042376D01*
X039374D01*
Y043124D01*
D02*
G37*
G36*
X037406D02*
X036657D01*
Y042376D01*
X037406D01*
Y043124D01*
D02*
G37*
G36*
X055167Y042716D02*
X055156Y042715D01*
X055070D01*
X055064Y042713D01*
X055058Y042714D01*
X055003Y042703D01*
X055003Y042703D01*
X055001Y042703D01*
X054868Y042676D01*
X054862Y042673D01*
X054856D01*
X054676Y042598D01*
X054672Y042594D01*
X054665Y042592D01*
X054552Y042517D01*
X054550Y042516D01*
X054550Y042515D01*
X054504Y042485D01*
X054500Y042479D01*
X054494Y042477D01*
X054434Y042416D01*
X054425Y042409D01*
X054418Y042400D01*
X054357Y042340D01*
X054355Y042334D01*
X054349Y042330D01*
X054319Y042284D01*
X054318Y042284D01*
X054318Y042282D01*
X054242Y042169D01*
X054240Y042162D01*
X054236Y042158D01*
X054162Y041979D01*
Y041972D01*
X054158Y041967D01*
X054131Y041833D01*
X054131Y041831D01*
X054131Y041831D01*
X054120Y041776D01*
X054121Y041770D01*
X054119Y041764D01*
Y041678D01*
X054118Y041667D01*
X054119Y041656D01*
Y041570D01*
X054121Y041564D01*
X054120Y041558D01*
X054131Y041503D01*
X054131Y041503D01*
X054131Y041501D01*
X054158Y041368D01*
X054162Y041362D01*
Y041356D01*
X054236Y041176D01*
X054240Y041172D01*
X054242Y041165D01*
X054318Y041052D01*
X054318Y041050D01*
X054319Y041050D01*
X054349Y041004D01*
X054355Y041000D01*
X054357Y040994D01*
X054418Y040934D01*
X054425Y040925D01*
X054434Y040918D01*
X054494Y040857D01*
X054500Y040855D01*
X054504Y040849D01*
X054550Y040819D01*
X054550Y040818D01*
X054552Y040818D01*
X054665Y040742D01*
X054672Y040740D01*
X054676Y040736D01*
X054856Y040662D01*
X054862D01*
X054868Y040658D01*
X055001Y040631D01*
X055003Y040631D01*
X055003Y040631D01*
X055058Y040620D01*
X055064Y040621D01*
X055070Y040619D01*
X055156D01*
X055167Y040618D01*
X055178Y040619D01*
X055264D01*
X055270Y040621D01*
X055276Y040620D01*
X055331Y040631D01*
X055331Y040631D01*
X055333Y040631D01*
X055467Y040658D01*
X055472Y040662D01*
X055479D01*
X055658Y040736D01*
X055662Y040740D01*
X055669Y040742D01*
X055782Y040818D01*
X055784Y040818D01*
X055784Y040819D01*
X055830Y040849D01*
X055834Y040855D01*
X055840Y040857D01*
X055900Y040918D01*
X055909Y040925D01*
X055916Y040934D01*
X055977Y040994D01*
X055979Y041000D01*
X055985Y041004D01*
X056015Y041050D01*
X056016Y041050D01*
X056017Y041052D01*
X056092Y041165D01*
X056094Y041172D01*
X056098Y041176D01*
X056173Y041356D01*
Y041362D01*
X056176Y041368D01*
X056203Y041501D01*
X056203Y041503D01*
X056203Y041503D01*
X056214Y041558D01*
X056213Y041564D01*
X056215Y041570D01*
Y041656D01*
X056216Y041667D01*
X056215Y041678D01*
Y041764D01*
X056213Y041770D01*
X056214Y041776D01*
X056203Y041831D01*
X056203Y041831D01*
X056203Y041833D01*
X056176Y041967D01*
X056173Y041972D01*
Y041979D01*
X056098Y042158D01*
X056094Y042162D01*
X056092Y042169D01*
X056017Y042282D01*
X056016Y042284D01*
X056015Y042284D01*
X055985Y042330D01*
X055979Y042334D01*
X055977Y042340D01*
X055916Y042400D01*
X055909Y042409D01*
X055900Y042416D01*
X055840Y042477D01*
X055834Y042479D01*
X055830Y042485D01*
X055784Y042515D01*
X055784Y042516D01*
X055782Y042517D01*
X055669Y042592D01*
X055662Y042594D01*
X055658Y042598D01*
X055479Y042673D01*
X055472D01*
X055467Y042676D01*
X055333Y042703D01*
X055331Y042703D01*
X055331Y042703D01*
X055276Y042714D01*
X055270Y042713D01*
X055264Y042715D01*
X055178D01*
X055167Y042716D01*
D02*
G37*
G36*
X023671D02*
X023660Y042715D01*
X023574D01*
X023568Y042713D01*
X023562Y042714D01*
X023507Y042703D01*
X023507Y042703D01*
X023505Y042703D01*
X023371Y042676D01*
X023366Y042673D01*
X023359D01*
X023180Y042598D01*
X023176Y042594D01*
X023169Y042592D01*
X023056Y042517D01*
X023054Y042516D01*
X023054Y042515D01*
X023008Y042485D01*
X023004Y042479D01*
X022998Y042477D01*
X022938Y042416D01*
X022929Y042409D01*
X022922Y042400D01*
X022861Y042340D01*
X022859Y042334D01*
X022853Y042330D01*
X022823Y042284D01*
X022822Y042284D01*
X022822Y042282D01*
X022746Y042169D01*
X022744Y042162D01*
X022740Y042158D01*
X022666Y041979D01*
Y041972D01*
X022662Y041967D01*
X022635Y041833D01*
X022635Y041831D01*
X022635Y041831D01*
X022624Y041776D01*
X022625Y041770D01*
X022623Y041764D01*
Y041678D01*
X022622Y041667D01*
X022623Y041656D01*
Y041570D01*
X022625Y041564D01*
X022624Y041558D01*
X022635Y041503D01*
X022635Y041503D01*
X022635Y041501D01*
X022662Y041368D01*
X022666Y041362D01*
Y041356D01*
X022740Y041176D01*
X022744Y041172D01*
X022746Y041165D01*
X022822Y041052D01*
X022822Y041050D01*
X022823Y041050D01*
X022853Y041004D01*
X022859Y041000D01*
X022861Y040994D01*
X022922Y040934D01*
X022929Y040925D01*
X022938Y040918D01*
X022998Y040857D01*
X023004Y040855D01*
X023008Y040849D01*
X023054Y040819D01*
X023054Y040818D01*
X023056Y040818D01*
X023169Y040742D01*
X023176Y040740D01*
X023180Y040736D01*
X023359Y040662D01*
X023366D01*
X023371Y040658D01*
X023505Y040631D01*
X023507Y040631D01*
X023507Y040631D01*
X023562Y040620D01*
X023568Y040621D01*
X023574Y040619D01*
X023660D01*
X023671Y040618D01*
X023682Y040619D01*
X023768D01*
X023774Y040621D01*
X023780Y040620D01*
X023835Y040631D01*
X023835Y040631D01*
X023837Y040631D01*
X023971Y040658D01*
X023976Y040662D01*
X023983D01*
X024162Y040736D01*
X024166Y040740D01*
X024173Y040742D01*
X024286Y040818D01*
X024288Y040818D01*
X024288Y040819D01*
X024334Y040849D01*
X024338Y040855D01*
X024344Y040857D01*
X024404Y040918D01*
X024413Y040925D01*
X024420Y040934D01*
X024481Y040994D01*
X024483Y041000D01*
X024489Y041004D01*
X024519Y041050D01*
X024520Y041050D01*
X024520Y041052D01*
X024596Y041165D01*
X024598Y041172D01*
X024602Y041176D01*
X024676Y041356D01*
Y041362D01*
X024680Y041368D01*
X024707Y041501D01*
X024707Y041503D01*
X024707Y041503D01*
X024718Y041558D01*
X024717Y041564D01*
X024719Y041570D01*
Y041656D01*
X024720Y041667D01*
X024719Y041678D01*
Y041764D01*
X024717Y041770D01*
X024718Y041776D01*
X024707Y041831D01*
X024707Y041831D01*
X024707Y041833D01*
X024680Y041967D01*
X024676Y041972D01*
Y041979D01*
X024602Y042158D01*
X024598Y042162D01*
X024596Y042169D01*
X024520Y042282D01*
X024520Y042284D01*
X024519Y042284D01*
X024489Y042330D01*
X024483Y042334D01*
X024481Y042340D01*
X024420Y042400D01*
X024413Y042409D01*
X024404Y042416D01*
X024344Y042477D01*
X024338Y042479D01*
X024334Y042485D01*
X024288Y042515D01*
X024288Y042516D01*
X024286Y042517D01*
X024173Y042592D01*
X024166Y042594D01*
X024162Y042598D01*
X023983Y042673D01*
X023976D01*
X023971Y042676D01*
X023837Y042703D01*
X023835Y042703D01*
X023835Y042703D01*
X023780Y042714D01*
X023774Y042713D01*
X023768Y042715D01*
X023682D01*
X023671Y042716D01*
D02*
G37*
G36*
X055009Y038829D02*
X054291D01*
Y038111D01*
X055009D01*
Y038829D01*
D02*
G37*
G36*
X054697Y037829D02*
X054603D01*
X054511Y037805D01*
X054430Y037757D01*
X054363Y037690D01*
X054315Y037609D01*
X054291Y037517D01*
Y037423D01*
X054315Y037331D01*
X054363Y037250D01*
X054430Y037183D01*
X054511Y037135D01*
X054603Y037111D01*
X054697D01*
X054789Y037135D01*
X054870Y037183D01*
X054937Y037250D01*
X054985Y037331D01*
X055009Y037423D01*
Y037517D01*
X054985Y037609D01*
X054937Y037690D01*
X054870Y037757D01*
X054789Y037805D01*
X054697Y037829D01*
D02*
G37*
G36*
X055009Y028479D02*
X054291D01*
Y027761D01*
X055009D01*
Y028479D01*
D02*
G37*
G36*
X054697Y027479D02*
X054603D01*
X054511Y027455D01*
X054430Y027407D01*
X054363Y027340D01*
X054315Y027259D01*
X054291Y027167D01*
Y027073D01*
X054315Y026981D01*
X054363Y026900D01*
X054430Y026833D01*
X054511Y026785D01*
X054603Y026761D01*
X054697D01*
X054789Y026785D01*
X054870Y026833D01*
X054937Y026900D01*
X054985Y026981D01*
X055009Y027073D01*
Y027167D01*
X054985Y027259D01*
X054937Y027340D01*
X054870Y027407D01*
X054789Y027455D01*
X054697Y027479D01*
D02*
G37*
G36*
X024197Y025559D02*
X024103D01*
X024011Y025535D01*
X023930Y025487D01*
X023863Y025420D01*
X023815Y025339D01*
X023791Y025247D01*
Y025153D01*
X023815Y025061D01*
X023863Y024980D01*
X023930Y024913D01*
X024011Y024865D01*
X024103Y024841D01*
X024197D01*
X024289Y024865D01*
X024370Y024913D01*
X024437Y024980D01*
X024485Y025061D01*
X024509Y025153D01*
Y025247D01*
X024485Y025339D01*
X024437Y025420D01*
X024370Y025487D01*
X024289Y025535D01*
X024197Y025559D01*
D02*
G37*
G36*
X027689Y033397D02*
X027611D01*
X027538Y033367D01*
X027483Y033312D01*
X027453Y033239D01*
Y033161D01*
X027483Y033088D01*
X027538Y033033D01*
X027539Y033033D01*
Y025196D01*
X026654Y024311D01*
X024509D01*
Y024559D01*
X023791D01*
Y023841D01*
X024509D01*
Y024089D01*
X026700D01*
X026700Y024089D01*
X026743Y024097D01*
X026779Y024121D01*
X027729Y025071D01*
X027753Y025107D01*
X027761Y025150D01*
X027761Y025150D01*
Y033033D01*
X027762Y033033D01*
X027817Y033088D01*
X027847Y033161D01*
Y033239D01*
X027817Y033312D01*
X027762Y033367D01*
X027689Y033397D01*
D02*
G37*
G36*
X045904Y019554D02*
X045196D01*
Y018846D01*
X045904D01*
Y019554D01*
D02*
G37*
G36*
X051489Y023597D02*
X051411D01*
X051338Y023567D01*
X051283Y023512D01*
X051253Y023439D01*
Y023361D01*
X051283Y023288D01*
X051338Y023233D01*
X051411Y023203D01*
X051489D01*
X051489Y023203D01*
X051871Y022821D01*
X051871Y022821D01*
X051907Y022797D01*
X051950Y022789D01*
X051950Y022789D01*
X056154D01*
X056539Y022404D01*
Y016496D01*
X056324Y016281D01*
X054992D01*
X054985Y016309D01*
X054937Y016390D01*
X054870Y016457D01*
X054789Y016505D01*
X054697Y016529D01*
X054603D01*
X054511Y016505D01*
X054430Y016457D01*
X054363Y016390D01*
X054315Y016309D01*
X054291Y016217D01*
Y016123D01*
X054315Y016031D01*
X054363Y015950D01*
X054430Y015883D01*
X054511Y015835D01*
X054603Y015811D01*
X054697D01*
X054789Y015835D01*
X054870Y015883D01*
X054937Y015950D01*
X054985Y016031D01*
X054992Y016059D01*
X056370D01*
X056370Y016059D01*
X056413Y016067D01*
X056449Y016091D01*
X056729Y016371D01*
X056729Y016371D01*
X056753Y016407D01*
X056761Y016450D01*
X056761Y016450D01*
Y022450D01*
X056753Y022493D01*
X056729Y022529D01*
X056279Y022979D01*
X056243Y023003D01*
X056200Y023011D01*
X056200Y023011D01*
X051996D01*
X051647Y023361D01*
X051647Y023361D01*
Y023439D01*
X051617Y023512D01*
X051562Y023567D01*
X051489Y023597D01*
D02*
G37*
G36*
X054697Y015529D02*
X054603D01*
X054511Y015505D01*
X054430Y015457D01*
X054363Y015390D01*
X054315Y015309D01*
X054291Y015217D01*
Y015123D01*
X054315Y015031D01*
X054363Y014950D01*
X054430Y014883D01*
X054511Y014835D01*
X054603Y014811D01*
X054697D01*
X054789Y014835D01*
X054870Y014883D01*
X054937Y014950D01*
X054985Y015031D01*
X055009Y015123D01*
Y015217D01*
X054985Y015309D01*
X054937Y015390D01*
X054870Y015457D01*
X054789Y015505D01*
X054697Y015529D01*
D02*
G37*
G36*
X024197Y014609D02*
X024103D01*
X024011Y014585D01*
X023930Y014537D01*
X023863Y014470D01*
X023815Y014389D01*
X023791Y014297D01*
Y014203D01*
X023815Y014111D01*
X023863Y014030D01*
X023930Y013963D01*
X024011Y013915D01*
X024103Y013891D01*
X024197D01*
X024289Y013915D01*
X024370Y013963D01*
X024437Y014030D01*
X024485Y014111D01*
X024509Y014203D01*
Y014297D01*
X024485Y014389D01*
X024437Y014470D01*
X024370Y014537D01*
X024289Y014585D01*
X024197Y014609D01*
D02*
G37*
G36*
X045597Y014554D02*
X045503D01*
X045413Y014530D01*
X045332Y014484D01*
X045266Y014418D01*
X045220Y014337D01*
X045196Y014247D01*
Y014153D01*
X045220Y014063D01*
X045266Y013982D01*
X045332Y013916D01*
X045413Y013870D01*
X045503Y013846D01*
X045597D01*
X045687Y013870D01*
X045768Y013916D01*
X045834Y013982D01*
X045880Y014063D01*
X045904Y014153D01*
Y014247D01*
X045880Y014337D01*
X045834Y014418D01*
X045768Y014484D01*
X045687Y014530D01*
X045597Y014554D01*
D02*
G37*
G36*
X054697Y014529D02*
X054603D01*
X054511Y014505D01*
X054430Y014457D01*
X054363Y014390D01*
X054315Y014309D01*
X054291Y014217D01*
Y014123D01*
X054315Y014031D01*
X054363Y013950D01*
X054430Y013883D01*
X054511Y013835D01*
X054603Y013811D01*
X054697D01*
X054789Y013835D01*
X054870Y013883D01*
X054937Y013950D01*
X054985Y014031D01*
X055009Y014123D01*
Y014217D01*
X054985Y014309D01*
X054937Y014390D01*
X054870Y014457D01*
X054789Y014505D01*
X054697Y014529D01*
D02*
G37*
G36*
Y013529D02*
X054603D01*
X054511Y013505D01*
X054430Y013457D01*
X054363Y013390D01*
X054315Y013309D01*
X054291Y013217D01*
Y013123D01*
X054315Y013031D01*
X054363Y012950D01*
X054430Y012883D01*
X054511Y012835D01*
X054603Y012811D01*
X054697D01*
X054789Y012835D01*
X054870Y012883D01*
X054937Y012950D01*
X054985Y013031D01*
X055009Y013123D01*
Y013217D01*
X054985Y013309D01*
X054937Y013390D01*
X054870Y013457D01*
X054789Y013505D01*
X054697Y013529D01*
D02*
G37*
G36*
X055167Y011220D02*
X055156Y011219D01*
X055070D01*
X055064Y011217D01*
X055058Y011218D01*
X055003Y011207D01*
X055003Y011207D01*
X055001Y011207D01*
X054868Y011180D01*
X054862Y011176D01*
X054856D01*
X054676Y011102D01*
X054672Y011098D01*
X054665Y011096D01*
X054552Y011020D01*
X054550Y011020D01*
X054550Y011019D01*
X054504Y010989D01*
X054500Y010983D01*
X054494Y010981D01*
X054434Y010920D01*
X054425Y010913D01*
X054418Y010904D01*
X054357Y010844D01*
X054355Y010838D01*
X054349Y010834D01*
X054319Y010788D01*
X054318Y010788D01*
X054318Y010786D01*
X054242Y010673D01*
X054240Y010666D01*
X054236Y010662D01*
X054162Y010483D01*
Y010476D01*
X054158Y010471D01*
X054131Y010337D01*
X054131Y010335D01*
X054131Y010335D01*
X054120Y010280D01*
X054121Y010274D01*
X054119Y010268D01*
Y010182D01*
X054118Y010171D01*
X054119Y010160D01*
Y010074D01*
X054121Y010068D01*
X054120Y010062D01*
X054131Y010007D01*
X054131Y010007D01*
X054131Y010005D01*
X054158Y009871D01*
X054162Y009866D01*
Y009859D01*
X054236Y009680D01*
X054240Y009676D01*
X054242Y009669D01*
X054318Y009556D01*
X054318Y009554D01*
X054319Y009554D01*
X054349Y009508D01*
X054355Y009504D01*
X054357Y009498D01*
X054418Y009438D01*
X054425Y009429D01*
X054434Y009422D01*
X054494Y009361D01*
X054500Y009359D01*
X054504Y009353D01*
X054550Y009323D01*
X054550Y009322D01*
X054552Y009322D01*
X054665Y009246D01*
X054672Y009244D01*
X054676Y009240D01*
X054856Y009166D01*
X054862D01*
X054868Y009162D01*
X055001Y009135D01*
X055003Y009135D01*
X055003Y009135D01*
X055058Y009124D01*
X055064Y009125D01*
X055070Y009123D01*
X055156D01*
X055167Y009122D01*
X055178Y009123D01*
X055264D01*
X055270Y009125D01*
X055276Y009124D01*
X055331Y009135D01*
X055331Y009135D01*
X055333Y009135D01*
X055467Y009162D01*
X055472Y009166D01*
X055479D01*
X055658Y009240D01*
X055662Y009244D01*
X055669Y009246D01*
X055782Y009322D01*
X055784Y009322D01*
X055784Y009323D01*
X055830Y009353D01*
X055834Y009359D01*
X055840Y009361D01*
X055900Y009422D01*
X055909Y009429D01*
X055916Y009438D01*
X055977Y009498D01*
X055979Y009504D01*
X055985Y009508D01*
X056015Y009554D01*
X056016Y009554D01*
X056017Y009556D01*
X056092Y009669D01*
X056094Y009676D01*
X056098Y009680D01*
X056173Y009859D01*
Y009866D01*
X056176Y009871D01*
X056203Y010005D01*
X056203Y010007D01*
X056203Y010007D01*
X056214Y010062D01*
X056213Y010068D01*
X056215Y010074D01*
Y010160D01*
X056216Y010171D01*
X056215Y010182D01*
Y010268D01*
X056213Y010274D01*
X056214Y010280D01*
X056203Y010335D01*
X056203Y010335D01*
X056203Y010337D01*
X056176Y010471D01*
X056173Y010476D01*
Y010483D01*
X056098Y010662D01*
X056094Y010666D01*
X056092Y010673D01*
X056017Y010786D01*
X056016Y010788D01*
X056015Y010788D01*
X055985Y010834D01*
X055979Y010838D01*
X055977Y010844D01*
X055916Y010904D01*
X055909Y010913D01*
X055900Y010920D01*
X055840Y010981D01*
X055834Y010983D01*
X055830Y010989D01*
X055784Y011019D01*
X055784Y011020D01*
X055782Y011020D01*
X055669Y011096D01*
X055662Y011098D01*
X055658Y011102D01*
X055479Y011176D01*
X055472D01*
X055467Y011180D01*
X055333Y011207D01*
X055331Y011207D01*
X055331Y011207D01*
X055276Y011218D01*
X055270Y011217D01*
X055264Y011219D01*
X055178D01*
X055167Y011220D01*
D02*
G37*
G36*
X023671D02*
X023660Y011219D01*
X023574D01*
X023568Y011217D01*
X023562Y011218D01*
X023507Y011207D01*
X023507Y011207D01*
X023505Y011207D01*
X023371Y011180D01*
X023366Y011176D01*
X023359D01*
X023180Y011102D01*
X023176Y011098D01*
X023169Y011096D01*
X023056Y011020D01*
X023054Y011020D01*
X023054Y011019D01*
X023008Y010989D01*
X023004Y010983D01*
X022998Y010981D01*
X022938Y010920D01*
X022929Y010913D01*
X022922Y010904D01*
X022861Y010844D01*
X022859Y010838D01*
X022853Y010834D01*
X022823Y010788D01*
X022822Y010788D01*
X022822Y010786D01*
X022746Y010673D01*
X022744Y010666D01*
X022740Y010662D01*
X022666Y010483D01*
Y010476D01*
X022662Y010471D01*
X022635Y010337D01*
X022635Y010335D01*
X022635Y010335D01*
X022624Y010280D01*
X022625Y010274D01*
X022623Y010268D01*
Y010182D01*
X022622Y010171D01*
X022623Y010160D01*
Y010074D01*
X022625Y010068D01*
X022624Y010062D01*
X022635Y010007D01*
X022635Y010007D01*
X022635Y010005D01*
X022662Y009871D01*
X022666Y009866D01*
Y009859D01*
X022740Y009680D01*
X022744Y009676D01*
X022746Y009669D01*
X022822Y009556D01*
X022822Y009554D01*
X022823Y009554D01*
X022853Y009508D01*
X022859Y009504D01*
X022861Y009498D01*
X022922Y009438D01*
X022929Y009429D01*
X022938Y009422D01*
X022998Y009361D01*
X023004Y009359D01*
X023008Y009353D01*
X023054Y009323D01*
X023054Y009322D01*
X023056Y009322D01*
X023169Y009246D01*
X023176Y009244D01*
X023180Y009240D01*
X023359Y009166D01*
X023366D01*
X023371Y009162D01*
X023505Y009135D01*
X023507Y009135D01*
X023507Y009135D01*
X023562Y009124D01*
X023568Y009125D01*
X023574Y009123D01*
X023660D01*
X023671Y009122D01*
X023682Y009123D01*
X023768D01*
X023774Y009125D01*
X023780Y009124D01*
X023835Y009135D01*
X023835Y009135D01*
X023837Y009135D01*
X023971Y009162D01*
X023976Y009166D01*
X023983D01*
X024162Y009240D01*
X024166Y009244D01*
X024173Y009246D01*
X024286Y009322D01*
X024288Y009322D01*
X024288Y009323D01*
X024334Y009353D01*
X024338Y009359D01*
X024344Y009361D01*
X024404Y009422D01*
X024413Y009429D01*
X024420Y009438D01*
X024481Y009498D01*
X024483Y009504D01*
X024489Y009508D01*
X024519Y009554D01*
X024520Y009554D01*
X024520Y009556D01*
X024596Y009669D01*
X024598Y009676D01*
X024602Y009680D01*
X024676Y009859D01*
Y009866D01*
X024680Y009871D01*
X024707Y010005D01*
X024707Y010007D01*
X024707Y010007D01*
X024718Y010062D01*
X024717Y010068D01*
X024719Y010074D01*
Y010160D01*
X024720Y010171D01*
X024719Y010182D01*
Y010268D01*
X024717Y010274D01*
X024718Y010280D01*
X024707Y010335D01*
X024707Y010335D01*
X024707Y010337D01*
X024680Y010471D01*
X024676Y010476D01*
Y010483D01*
X024602Y010662D01*
X024598Y010666D01*
X024596Y010673D01*
X024520Y010786D01*
X024520Y010788D01*
X024519Y010788D01*
X024489Y010834D01*
X024483Y010838D01*
X024481Y010844D01*
X024420Y010904D01*
X024413Y010913D01*
X024404Y010920D01*
X024344Y010981D01*
X024338Y010983D01*
X024334Y010989D01*
X024288Y011019D01*
X024288Y011020D01*
X024286Y011020D01*
X024173Y011096D01*
X024166Y011098D01*
X024162Y011102D01*
X023983Y011176D01*
X023976D01*
X023971Y011180D01*
X023837Y011207D01*
X023835Y011207D01*
X023835Y011207D01*
X023780Y011218D01*
X023774Y011217D01*
X023768Y011219D01*
X023682D01*
X023671Y011220D01*
D02*
G37*
G36*
X036314Y010394D02*
X035211D01*
Y010161D01*
X035029D01*
X035001Y010209D01*
X034944Y010266D01*
X034873Y010307D01*
X034795Y010328D01*
X034713D01*
X034635Y010307D01*
X034564Y010266D01*
X034507Y010209D01*
X034466Y010138D01*
X034445Y010060D01*
Y009978D01*
X034466Y009900D01*
X034507Y009829D01*
X034564Y009772D01*
X034635Y009731D01*
X034713Y009710D01*
X034795D01*
X034873Y009731D01*
X034944Y009772D01*
X035001Y009829D01*
X035007Y009839D01*
X035211D01*
Y009606D01*
X036314D01*
Y010394D01*
D02*
G37*
G36*
X037387Y010211D02*
X037336Y010200D01*
X037326Y010198D01*
D01*
X037274Y010164D01*
X037274Y010164D01*
X037224Y010114D01*
X037189Y010061D01*
X037177Y010000D01*
X037189Y009939D01*
X037224Y009886D01*
X037276Y009852D01*
X037337Y009839D01*
X037399Y009852D01*
X037451Y009886D01*
X037454Y009889D01*
X038400D01*
X038461Y009902D01*
X038514Y009936D01*
X038548Y009989D01*
X038561Y010050D01*
X038548Y010111D01*
X038514Y010164D01*
X038461Y010198D01*
X038400Y010211D01*
X037387D01*
X037387Y010211D01*
D02*
G37*
G36*
X045665Y010609D02*
X045535D01*
X045408Y010584D01*
X045288Y010534D01*
X045180Y010462D01*
X045088Y010370D01*
X045016Y010262D01*
X044966Y010142D01*
X044941Y010015D01*
Y009885D01*
X044966Y009758D01*
X045016Y009638D01*
X045088Y009530D01*
X045180Y009438D01*
X045288Y009366D01*
X045408Y009316D01*
X045535Y009291D01*
X045665D01*
X045792Y009316D01*
X045912Y009366D01*
X046020Y009438D01*
X046112Y009530D01*
X046184Y009638D01*
X046234Y009758D01*
X046259Y009885D01*
Y010015D01*
X046234Y010142D01*
X046184Y010262D01*
X046112Y010370D01*
X046020Y010462D01*
X045912Y010534D01*
X045792Y010584D01*
X045665Y010609D01*
D02*
G37*
G36*
X043489Y034597D02*
X043411D01*
X043338Y034567D01*
X043283Y034512D01*
X043253Y034439D01*
Y034361D01*
X043283Y034288D01*
X043338Y034233D01*
X043339Y034233D01*
Y032705D01*
X042995Y032361D01*
X041367D01*
X041367Y032362D01*
X041312Y032417D01*
X041239Y032447D01*
X041161D01*
X041088Y032417D01*
X041033Y032362D01*
X041003Y032289D01*
Y032211D01*
X041033Y032138D01*
X041088Y032083D01*
X041161Y032053D01*
X041239D01*
X041312Y032083D01*
X041367Y032138D01*
X041367Y032139D01*
X043041D01*
X043041Y032139D01*
X043084Y032147D01*
X043120Y032171D01*
X043529Y032580D01*
X043553Y032616D01*
X043561Y032659D01*
X043561Y032659D01*
Y034233D01*
X043562Y034233D01*
X043617Y034288D01*
X043647Y034361D01*
Y034439D01*
X043617Y034512D01*
X043562Y034567D01*
X043489Y034597D01*
D02*
G37*
G36*
X045389Y033147D02*
X045311D01*
X045238Y033117D01*
X045183Y033062D01*
X045153Y032989D01*
Y032911D01*
X045183Y032838D01*
X045238Y032783D01*
X045239Y032783D01*
Y031896D01*
X043489Y030147D01*
X043489Y030147D01*
X043411D01*
X043338Y030117D01*
X043283Y030062D01*
X043253Y029989D01*
Y029911D01*
X043283Y029838D01*
X043338Y029783D01*
X043411Y029753D01*
X043489D01*
X043562Y029783D01*
X043617Y029838D01*
X043647Y029911D01*
Y029989D01*
X043647Y029989D01*
X045429Y031771D01*
X045429Y031771D01*
X045453Y031807D01*
X045461Y031850D01*
X045461Y031850D01*
Y032783D01*
X045462Y032783D01*
X045517Y032838D01*
X045547Y032911D01*
Y032989D01*
X045517Y033062D01*
X045462Y033117D01*
X045389Y033147D01*
D02*
G37*
G36*
X040072Y030234D02*
X039957D01*
X039847Y030204D01*
X039748Y030147D01*
X039667Y030067D01*
X039610Y029968D01*
X039581Y029857D01*
Y029743D01*
X039610Y029632D01*
X039667Y029533D01*
X039748Y029453D01*
X039847Y029396D01*
X039957Y029366D01*
X040072D01*
X040182Y029396D01*
X040281Y029453D01*
X040362Y029533D01*
X040419Y029632D01*
X040434Y029689D01*
X040723D01*
Y029465D01*
X041314D01*
Y030135D01*
X040723D01*
Y029911D01*
X040434D01*
X040419Y029968D01*
X040362Y030067D01*
X040281Y030147D01*
X040182Y030204D01*
X040072Y030234D01*
D02*
G37*
G36*
X040599Y028274D02*
X040501D01*
X040406Y028249D01*
X040320Y028199D01*
X040251Y028130D01*
X040201Y028044D01*
X040176Y027949D01*
Y027851D01*
X040201Y027756D01*
X040251Y027670D01*
X040320Y027601D01*
X040406Y027551D01*
X040501Y027526D01*
X040599D01*
X040694Y027551D01*
X040780Y027601D01*
X040849Y027670D01*
X040899Y027756D01*
X040924Y027851D01*
Y027949D01*
X040899Y028044D01*
X040849Y028130D01*
X040780Y028199D01*
X040694Y028249D01*
X040599Y028274D01*
D02*
G37*
G36*
X040649Y025724D02*
X040551D01*
X040456Y025699D01*
X040370Y025649D01*
X040301Y025580D01*
X040251Y025494D01*
X040226Y025399D01*
Y025301D01*
X040251Y025206D01*
X040301Y025120D01*
X040370Y025051D01*
X040456Y025001D01*
X040551Y024976D01*
X040649D01*
X040744Y025001D01*
X040830Y025051D01*
X040899Y025120D01*
X040949Y025206D01*
X040974Y025301D01*
Y025399D01*
X040949Y025494D01*
X040899Y025580D01*
X040830Y025649D01*
X040744Y025699D01*
X040649Y025724D01*
D02*
G37*
G36*
X038024Y023724D02*
X037276D01*
Y022976D01*
X038024D01*
Y023724D01*
D02*
G37*
%LPD*%
D13*
X041050Y035150D02*
X045450D01*
X040800Y034900D02*
X041050Y035150D01*
X042900Y035397D02*
Y036350D01*
X047500Y012550D02*
Y021050D01*
X046700Y021850D02*
Y031000D01*
Y021850D02*
X047500Y021050D01*
X045750Y022350D02*
X046750Y021350D01*
X045750Y022350D02*
Y035450D01*
X046000Y032200D02*
X053080Y025120D01*
X046000Y032200D02*
Y033450D01*
X053080Y025120D02*
X054650D01*
X040800Y036200D02*
X042502D01*
X042602Y036100D01*
X042650D01*
X039000Y040250D02*
X042900Y036350D01*
X043700Y037500D02*
X045750Y035450D01*
X042650Y037500D02*
X043700D01*
X045350Y031850D02*
Y032950D01*
X043450Y029950D02*
X045350Y031850D01*
X037450Y032450D02*
X038250Y033250D01*
Y034400D01*
X039253Y028261D02*
X039550Y027964D01*
Y027900D02*
Y027964D01*
X039747Y033253D02*
Y035203D01*
Y033253D02*
X039850Y033150D01*
X039500Y032600D02*
Y034400D01*
X039253Y028261D02*
Y035047D01*
X037429Y037521D02*
X039747Y035203D01*
X037850Y036450D02*
X039253Y035047D01*
X039050Y025900D02*
Y034901D01*
Y025900D02*
X039600Y025350D01*
X037645Y036306D02*
X039050Y034901D01*
X040365Y031735D02*
X042583D01*
X039500Y032600D02*
X040365Y031735D01*
X039850Y033150D02*
X042700D01*
X040058Y033492D02*
X042692D01*
X040050Y033500D02*
X040058Y033492D01*
X042692D02*
X042700Y033485D01*
X038570Y029120D02*
Y034630D01*
X037850Y036450D02*
Y036750D01*
X036600Y036600D02*
X038570Y034630D01*
X038050Y028600D02*
X038570Y029120D01*
X038550Y028400D02*
X038800Y028650D01*
X037850Y035750D02*
X037850D01*
X038800Y034800D01*
X038550Y027900D02*
Y028400D01*
X038800Y028650D02*
Y034800D01*
X037603Y036306D02*
X037645D01*
X038050Y027148D02*
Y028600D01*
X024300Y040250D02*
X024700D01*
X023100Y034550D02*
Y039050D01*
X024300Y040250D01*
X023400Y026950D02*
Y038950D01*
X024000Y039550D02*
X032950D01*
X023400Y038950D02*
X024000Y039550D01*
X023650Y027309D02*
Y038800D01*
X024150Y039300D02*
X033250D01*
X023650Y038800D02*
X024150Y039300D01*
X023400Y026950D02*
X024150Y026200D01*
X023650Y027309D02*
X023709Y027250D01*
X024100D01*
X027650Y025150D02*
Y033200D01*
X024150Y024200D02*
X026700D01*
X027650Y025150D01*
X023150Y018454D02*
Y018500D01*
X023050Y014350D02*
X024150Y013250D01*
X023050Y014350D02*
Y018354D01*
X023150Y018454D01*
X023309Y016091D02*
X024150Y015250D01*
X023309Y017709D02*
X032600Y027000D01*
X023309Y016091D02*
Y017709D01*
X032600Y027000D02*
Y031400D01*
X033600Y016100D02*
Y027000D01*
X031600Y014100D02*
X033600Y016100D01*
X031000Y024600D02*
X033196Y026797D01*
X031000Y022000D02*
Y024600D01*
X033196Y026997D02*
X033200Y027000D01*
X033196Y026797D02*
Y026997D01*
X023650Y016750D02*
Y017675D01*
X032850Y026875D02*
Y033000D01*
X023650Y017675D02*
X032850Y026875D01*
Y033000D02*
X033300Y033450D01*
X034764Y032915D02*
X037415D01*
X034134Y035384D02*
X035200Y036450D01*
X034100Y035150D02*
X034134Y035184D01*
Y035384D01*
X035200Y036450D02*
Y036450D01*
X030950Y034050D02*
X031753Y034853D01*
X037303D01*
X037550Y035100D01*
X034594Y037494D02*
X037650Y040550D01*
X024206Y037494D02*
X034594D01*
X037650Y040550D02*
X038500D01*
X034100Y036550D02*
X036465Y038915D01*
X024150Y036550D02*
X034100D01*
X036465Y038915D02*
Y039014D01*
X034050Y038000D02*
X034750D01*
X033600Y038450D02*
X034050Y038000D01*
X036465Y039014D02*
X037751Y040300D01*
X038650D01*
X038350Y039350D02*
X039200Y038500D01*
X037150Y039350D02*
X038350D01*
X038356Y038994D02*
X038850Y038500D01*
X037244Y038994D02*
X038356D01*
X034000Y035750D02*
X037244Y038994D01*
X031700Y035750D02*
X034000D01*
X038650Y040300D02*
X038852Y040502D01*
X037900Y038725D02*
X037922Y038747D01*
X037900Y037350D02*
Y038725D01*
X037429Y037521D02*
Y038623D01*
X036600Y036600D02*
Y037200D01*
X030950Y029350D02*
Y034050D01*
X037700Y033500D02*
X037900Y033700D01*
Y034900D01*
Y037350D02*
X039600Y035650D01*
X042650D01*
X036800Y033500D02*
X037700D01*
X033250Y033900D02*
X037653D01*
X044150Y038350D02*
X045800Y040000D01*
X042200Y038350D02*
X044150D01*
X041850Y038597D02*
Y040250D01*
X041603Y040503D02*
X043250Y042150D01*
X041603Y038950D02*
Y040503D01*
X041850Y040250D02*
X043100Y041500D01*
X043800D01*
X043450Y032659D02*
Y034400D01*
X043041Y032250D02*
X043450Y032659D01*
X041200Y032250D02*
X043041D01*
X047300Y031450D02*
X052630Y026120D01*
X054650D01*
X037415Y032915D02*
X037700Y033200D01*
X043250Y042150D02*
Y042150D01*
X043850Y042750D01*
X044850D01*
X032700Y034450D02*
X033250Y033900D01*
X040050Y033850D02*
X042700D01*
X024150Y037550D02*
X024206Y037494D01*
X033100Y041450D02*
X033600Y040950D01*
Y038450D02*
Y040950D01*
X042500Y022050D02*
X042900Y022450D01*
Y031850D01*
X042700Y022750D02*
Y030550D01*
X039050Y022050D02*
X042500D01*
X042100Y031150D02*
X042700Y030550D01*
X047950Y038050D02*
X052070D01*
X054650Y035470D01*
X047450Y038450D02*
X052670D01*
X054650Y036470D01*
X023650Y016750D02*
X024150Y016250D01*
X024100Y027250D02*
X024150Y027200D01*
X038852Y040502D02*
X040183D01*
X042300Y022350D02*
X042700Y022750D01*
X039650Y022550D02*
Y023350D01*
Y022550D02*
X039850Y022350D01*
X042300D01*
X038650Y022450D02*
Y023350D01*
Y022450D02*
X039050Y022050D01*
X038050Y027148D02*
X038600Y026598D01*
Y025350D02*
Y026598D01*
X028950Y008650D02*
X050300D01*
X053500Y011850D01*
Y015200D01*
X053850Y011650D02*
Y017111D01*
X053909Y017170D01*
X050550Y008350D02*
X053850Y011650D01*
X053909Y017170D02*
X054650D01*
X027700Y009900D02*
X028950Y008650D01*
X028050Y009050D02*
X028750Y008350D01*
X050550D01*
X027700Y009900D02*
Y018700D01*
X051450Y023400D02*
X051950Y022900D01*
X056200D01*
X056650Y016450D02*
Y022450D01*
X056200Y022900D02*
X056650Y022450D01*
X054650Y016170D02*
X056370D01*
X056650Y016450D01*
X037122Y029799D02*
X037124Y029800D01*
X038085D01*
X041019D02*
X041019Y029800D01*
X040015Y029800D02*
X041019D01*
D23*
X041767Y029800D02*
D03*
X041019D02*
D03*
X036374Y029799D02*
D03*
X037122D02*
D03*
D64*
X038085Y029799D02*
X038085Y029800D01*
X034754Y010019D02*
X034773Y010000D01*
X035763D01*
X037337D02*
X037387Y010050D01*
X038400D01*
D65*
X045550Y016200D02*
X046450Y017100D01*
Y020750D01*
D66*
X040600Y025350D02*
D03*
X038600D02*
D03*
X039600D02*
D03*
X040550Y027900D02*
D03*
X039550D02*
D03*
X038550D02*
D03*
X040650Y023350D02*
D03*
X039650D02*
D03*
X038650D02*
D03*
D67*
X037600Y025350D02*
D03*
X040968Y042750D02*
D03*
X039000D02*
D03*
X037031D02*
D03*
X037550Y027900D02*
D03*
X037650Y023350D02*
D03*
D68*
X045550Y014200D02*
D03*
Y016200D02*
D03*
Y018200D02*
D03*
D69*
Y019200D02*
D03*
D70*
X024150Y028200D02*
D03*
Y027200D02*
D03*
Y026200D02*
D03*
Y025200D02*
D03*
Y038550D02*
D03*
Y037550D02*
D03*
Y036550D02*
D03*
Y035550D02*
D03*
Y017250D02*
D03*
Y016250D02*
D03*
Y015250D02*
D03*
Y014250D02*
D03*
X054650Y013170D02*
D03*
Y014170D02*
D03*
Y015170D02*
D03*
Y016170D02*
D03*
Y034470D02*
D03*
Y035470D02*
D03*
Y036470D02*
D03*
Y037470D02*
D03*
Y027120D02*
D03*
Y026120D02*
D03*
Y025120D02*
D03*
Y024120D02*
D03*
D71*
X024150Y024200D02*
D03*
Y034550D02*
D03*
Y013250D02*
D03*
X054650Y017170D02*
D03*
Y038470D02*
D03*
Y028120D02*
D03*
D72*
X043600Y009950D02*
D03*
X045600D02*
D03*
D73*
X040015Y029800D02*
D03*
X038085D02*
D03*
D74*
X033500Y034450D02*
D03*
X047300Y034300D02*
D03*
X047050Y034450D02*
D03*
X031900Y020450D02*
D03*
Y020800D02*
D03*
Y021200D02*
D03*
Y021600D02*
D03*
Y021950D02*
D03*
X031800Y025050D02*
D03*
X032150D02*
D03*
X032500D02*
D03*
X045050Y035500D02*
D03*
X044850Y035700D02*
D03*
X035450Y031100D02*
D03*
X035150Y030850D02*
D03*
X042700Y034300D02*
D03*
Y034600D02*
D03*
Y034900D02*
D03*
X042400Y020700D02*
D03*
Y021100D02*
D03*
Y021450D02*
D03*
X042750D02*
D03*
Y021100D02*
D03*
Y020700D02*
D03*
X043100D02*
D03*
Y021100D02*
D03*
Y021450D02*
D03*
X045450Y035150D02*
D03*
X042900Y035397D02*
D03*
X046750Y021350D02*
D03*
X047500Y012550D02*
D03*
X046700Y031000D02*
D03*
X042650Y036100D02*
D03*
X040800Y036200D02*
D03*
X045350Y032950D02*
D03*
X046000Y033450D02*
D03*
X042650Y037500D02*
D03*
X037450Y032450D02*
D03*
X038250Y034400D02*
D03*
X039500D02*
D03*
X040050Y033500D02*
D03*
X042583Y031735D02*
D03*
X024700Y040250D02*
D03*
X023100Y034550D02*
D03*
X027650Y033200D02*
D03*
X023150Y018500D02*
D03*
X031600Y014100D02*
D03*
X033600Y027000D02*
D03*
X033200D02*
D03*
X032600Y031400D02*
D03*
X034764Y032915D02*
D03*
X034100Y035150D02*
D03*
X035200Y036450D02*
D03*
X031000Y022000D02*
D03*
X034750Y038000D02*
D03*
X037150Y039350D02*
D03*
X039200Y038500D02*
D03*
X037850Y035750D02*
D03*
X042900Y031850D02*
D03*
X042700Y033485D02*
D03*
X042650Y035650D02*
D03*
X042100Y031150D02*
D03*
X036800Y033500D02*
D03*
X042200Y038350D02*
D03*
X036600Y037200D02*
D03*
X041850Y038597D02*
D03*
X037850Y036750D02*
D03*
X037603Y036306D02*
D03*
X043450Y029950D02*
D03*
X041603Y038950D02*
D03*
X037550Y035100D02*
D03*
X038850Y038500D02*
D03*
X042700Y033150D02*
D03*
Y033850D02*
D03*
X041200Y032250D02*
D03*
X037922Y038747D02*
D03*
X037429Y038623D02*
D03*
X031700Y035750D02*
D03*
X030950Y029350D02*
D03*
X037900Y034900D02*
D03*
X037653Y033900D02*
D03*
X045800Y040000D02*
D03*
X043800Y041500D02*
D03*
X043450Y034400D02*
D03*
X040800Y034900D02*
D03*
X037700Y033200D02*
D03*
X044850Y042750D02*
D03*
X039000Y040250D02*
D03*
X032700Y034450D02*
D03*
X040050Y033850D02*
D03*
X033100Y041450D02*
D03*
X047300Y031450D02*
D03*
X047950Y038050D02*
D03*
X047450Y038450D02*
D03*
X033300Y033450D02*
D03*
X032950Y039550D02*
D03*
X033250Y039300D02*
D03*
X040183Y040502D02*
D03*
X038500Y040550D02*
D03*
X053500Y015200D02*
D03*
X027700Y018700D02*
D03*
X028050Y009050D02*
D03*
X051450Y023400D02*
D03*
D75*
X034754Y010019D02*
D03*
X038400Y010050D02*
D03*
D76*
X035763Y010000D02*
D03*
X037337D02*
D03*
M02*
