G04*
G04 #@! TF.GenerationSoftware,Altium Limited,Altium Designer,21.3.2 (30)*
G04*
G04 Layer_Color=65535*
%FSAX24Y24*%
%MOIN*%
G70*
G04*
G04 #@! TF.SameCoordinates,7F11398B-6431-4077-ADE0-EC67F86BA79B*
G04*
G04*
G04 #@! TF.FilePolarity,Positive*
G04*
G01*
G75*
%ADD10C,0.0039*%
%ADD11C,0.0060*%
%ADD12C,0.0000*%
%ADD13C,0.0100*%
%ADD14C,0.0098*%
%ADD15C,0.0070*%
%ADD16C,0.0079*%
%ADD17C,0.0250*%
%ADD18C,0.0040*%
%ADD19C,0.0080*%
%ADD20C,0.0059*%
%ADD21R,0.1000X0.0500*%
G36*
X025250Y012895D02*
Y013605D01*
X024900Y013255D01*
X024890D01*
X025250Y012895D01*
D02*
G37*
G36*
Y023845D02*
Y024555D01*
X024900Y024205D01*
X024890D01*
X025250Y023845D01*
D02*
G37*
G36*
X035664Y032563D02*
Y032413D01*
X035564D01*
Y032563D01*
X035664D01*
D02*
G37*
G36*
X038534Y031464D02*
Y031364D01*
X038384D01*
Y031464D01*
X038534D01*
D02*
G37*
G36*
X037747Y038236D02*
X037597D01*
Y038336D01*
X037747D01*
Y038236D01*
D02*
G37*
G36*
X035664Y036350D02*
X035564D01*
Y036500D01*
X035664D01*
Y036350D01*
D02*
G37*
G36*
Y034381D02*
X035564D01*
Y034531D01*
X035664D01*
Y034381D01*
D02*
G37*
G36*
X025250Y034195D02*
X024890Y034555D01*
X024900D01*
X025250Y034905D01*
Y034195D01*
D02*
G37*
G36*
X053550Y017525D02*
Y016815D01*
X053900Y017165D01*
X053910D01*
X053550Y017525D01*
D02*
G37*
G36*
Y028475D02*
Y027765D01*
X053900Y028115D01*
X053910D01*
X053550Y028475D01*
D02*
G37*
G36*
X040503Y031464D02*
Y031364D01*
X040353D01*
Y031464D01*
X040503D01*
D02*
G37*
G36*
X042536Y033350D02*
Y033200D01*
X042436D01*
Y033350D01*
X042536D01*
D02*
G37*
G36*
X039716Y038236D02*
X039566D01*
Y038336D01*
X039716D01*
Y038236D01*
D02*
G37*
G36*
X053910Y038465D02*
X053900D01*
X053550Y038115D01*
Y038825D01*
X053910Y038465D01*
D02*
G37*
G36*
X042536Y037137D02*
X042436D01*
Y037287D01*
X042536D01*
Y037137D01*
D02*
G37*
G36*
Y035169D02*
X042436D01*
Y035319D01*
X042536D01*
Y035169D01*
D02*
G37*
D10*
X046062Y019200D02*
G03*
X046101Y019200I000020J000000D01*
G01*
D02*
G03*
X046062Y019200I-000020J000000D01*
G01*
D11*
X036690Y031340D02*
G03*
X036690Y031400I000000J000030D01*
G01*
D02*
G03*
X036690Y031340I000000J-000030D01*
G01*
X045720Y031218D02*
G03*
X045480Y031218I-000120J000000D01*
G01*
X045720Y038250D02*
G03*
X045480Y038250I-000120J000000D01*
G01*
X040720Y040420D02*
G03*
X040720Y040180I000000J-000120D01*
G01*
X033120Y038250D02*
G03*
X032880Y038250I-000120J000000D01*
G01*
X033120Y031218D02*
G03*
X032880Y031218I-000120J000000D01*
G01*
X041890Y032010D02*
Y032300D01*
X041600Y037690D02*
X041890D01*
X036210Y037400D02*
Y037690D01*
Y032010D02*
X036500D01*
X041600D02*
X041890D01*
Y037400D02*
Y037690D01*
X036210D02*
X036500D01*
X036210Y032010D02*
Y032300D01*
X044970Y034658D02*
X046230D01*
X044970Y031218D02*
X045480D01*
X045720D01*
X046230D01*
X044970Y041690D02*
X046230D01*
X044970Y038250D02*
X045480D01*
X045720D01*
X046230D01*
X037280Y039670D02*
Y040930D01*
X040720Y039670D02*
Y040180D01*
Y040420D01*
Y040930D01*
X032370Y041690D02*
X033630D01*
X032370Y038250D02*
X032880D01*
X033120D01*
X033630D01*
X032370Y034658D02*
X033630D01*
X032370Y031218D02*
X032880D01*
X033120D01*
X033630D01*
X042600Y008750D02*
X046600D01*
Y011750D01*
X042600D02*
X046600D01*
X042600Y008750D02*
Y011750D01*
Y011350D02*
X046600D01*
D12*
X030062Y038106D02*
G03*
X030062Y038106I-000150J000000D01*
G01*
X049038Y020839D02*
G03*
X049038Y020839I-000150J000000D01*
G01*
X030062Y030897D02*
G03*
X030062Y030897I-000150J000000D01*
G01*
X049038Y042230D02*
G03*
X049038Y042230I-000150J000000D01*
G01*
X030062Y023688D02*
G03*
X030062Y023688I-000150J000000D01*
G01*
X049038Y028049D02*
G03*
X049038Y028049I-000150J000000D01*
G01*
X030062Y009270D02*
G03*
X030062Y009270I-000150J000000D01*
G01*
Y016479D02*
G03*
X030062Y016479I-000150J000000D01*
G01*
X049038Y035258D02*
G03*
X049038Y035258I-000150J000000D01*
G01*
Y013630D02*
G03*
X049038Y013630I-000150J000000D01*
G01*
D13*
X036428Y012755D02*
G03*
X036428Y012755I-002339J000000D01*
G01*
X034349Y018084D02*
Y020249D01*
X033916Y017651D02*
X034349Y018084D01*
X032184Y017651D02*
X033916D01*
X031751Y018084D02*
Y020249D01*
Y018084D02*
X032184Y017651D01*
X031751Y020249D02*
X034349D01*
X038099Y018084D02*
Y020249D01*
X037666Y017651D02*
X038099Y018084D01*
X035934Y017651D02*
X037666D01*
X035501Y018084D02*
Y020249D01*
Y018084D02*
X035934Y017651D01*
X035501Y020249D02*
X038099D01*
X041799Y018084D02*
Y020249D01*
X041366Y017651D02*
X041799Y018084D01*
X039634Y017651D02*
X041366D01*
X039201Y018084D02*
Y020249D01*
Y018084D02*
X039634Y017651D01*
X039201Y020249D02*
X041799D01*
X021830Y023200D02*
X024700D01*
Y029120D01*
X021830Y023780D02*
X022870D01*
Y024400D01*
X021840D02*
X022870D01*
X021830Y028620D02*
X022800D01*
Y028110D02*
Y028620D01*
X022770Y028080D02*
X022800Y028110D01*
X021840Y028080D02*
X022770D01*
X021830Y023200D02*
Y029120D01*
Y033550D02*
X024700D01*
Y039470D01*
X021830Y034130D02*
X022870D01*
Y034750D01*
X021840D02*
X022870D01*
X021830Y038970D02*
X022800D01*
Y038460D02*
Y038970D01*
X022770Y038430D02*
X022800Y038460D01*
X021840Y038430D02*
X022770D01*
X021830Y033550D02*
Y039470D01*
Y012250D02*
X024700D01*
Y018170D01*
X021830Y012830D02*
X022870D01*
Y013450D01*
X021840D02*
X022870D01*
X021830Y017670D02*
X022800D01*
Y017160D02*
Y017670D01*
X022770Y017130D02*
X022800Y017160D01*
X021840Y017130D02*
X022770D01*
X021830Y012250D02*
Y018170D01*
X054100D02*
X056970D01*
X054100Y012250D02*
Y018170D01*
X055930Y017590D02*
X056970D01*
X055930Y016970D02*
Y017590D01*
Y016970D02*
X056960D01*
X056000Y012750D02*
X056970D01*
X056000D02*
Y013260D01*
X056030Y013290D01*
X056960D01*
X056970Y012250D02*
Y018170D01*
X054100Y039470D02*
X056970D01*
X054100Y033550D02*
Y039470D01*
X055930Y038890D02*
X056970D01*
X055930Y038270D02*
Y038890D01*
Y038270D02*
X056960D01*
X056000Y034050D02*
X056970D01*
X056000D02*
Y034560D01*
X056030Y034590D01*
X056960D01*
X056970Y033550D02*
Y039470D01*
X031688Y015117D02*
X036452D01*
X031688Y011495D02*
Y015117D01*
Y010353D02*
Y011495D01*
Y010353D02*
X036452D01*
Y015117D01*
X041100Y011250D02*
Y014650D01*
X037500Y011250D02*
X041100D01*
X037500D02*
Y014650D01*
X041100D01*
X037700Y010550D02*
Y011250D01*
Y010550D02*
X037900Y010350D01*
X040700D01*
X040900Y010550D01*
Y011250D01*
X039893Y042757D02*
Y043151D01*
X041400Y027450D02*
Y027844D01*
X034532Y022620D02*
Y023070D01*
Y023630D02*
Y024080D01*
X032312D02*
X034532D01*
X032312Y022620D02*
X034532D01*
X032922Y023100D02*
X033922D01*
X032922D02*
Y023600D01*
X033922D01*
Y023100D02*
Y023600D01*
X032312Y022620D02*
Y023070D01*
Y023630D02*
Y024080D01*
X056970Y023200D02*
Y029120D01*
X056030Y024240D02*
X056960D01*
X056000Y024210D02*
X056030Y024240D01*
X056000Y023700D02*
Y024210D01*
Y023700D02*
X056970D01*
X055930Y027920D02*
X056960D01*
X055930D02*
Y028540D01*
X056970D01*
X054100Y023200D02*
Y029120D01*
X056970D01*
D14*
X043230Y021258D02*
G03*
X043230Y021258I-000049J000000D01*
G01*
D15*
X040207Y029050D02*
G03*
X040200Y030550I-000005J000750D01*
G01*
X037900D02*
G03*
X037907Y029050I000005J-000750D01*
G01*
X040200Y028900D02*
G03*
X040201Y030699I000030J000899D01*
G01*
X037891Y030700D02*
G03*
X037900Y028900I000006J-000900D01*
G01*
X053156Y023908D02*
Y024088D01*
X053696Y023908D02*
Y024088D01*
X032820Y026958D02*
Y027138D01*
X032280Y026958D02*
Y027138D01*
X034056Y026958D02*
Y027138D01*
X034596Y026958D02*
Y027138D01*
X025644Y025662D02*
Y025842D01*
X025104Y025662D02*
Y025842D01*
X025106Y027508D02*
Y027688D01*
X025646Y027508D02*
Y027688D01*
X030484Y043170D02*
X030664D01*
X030484Y042630D02*
X030664D01*
X025958Y036842D02*
X026138D01*
X025958Y036302D02*
X026138D01*
X030458Y036044D02*
X030638D01*
X030458Y035504D02*
X030638D01*
X032908Y036044D02*
X033088D01*
X032908Y035504D02*
X033088D01*
X032908Y036745D02*
X033088D01*
X032908Y037285D02*
X033088D01*
X051858Y043044D02*
X052038D01*
X051858Y042504D02*
X052038D01*
X051858Y036244D02*
X052038D01*
X051858Y035704D02*
X052038D01*
X053156Y035008D02*
Y035188D01*
X053696Y035008D02*
Y035188D01*
X053694Y036612D02*
Y036792D01*
X053154Y036612D02*
Y036792D01*
X051758Y028894D02*
X051938D01*
X051758Y028354D02*
X051938D01*
X047180Y011284D02*
Y011464D01*
X047720Y011284D02*
Y011464D01*
X051808Y014594D02*
X051988D01*
X051808Y014054D02*
X051988D01*
X051808Y021744D02*
X051988D01*
X051808Y021204D02*
X051988D01*
X030436Y015320D02*
X030616D01*
X030436Y014780D02*
X030616D01*
X030458Y014344D02*
X030638D01*
X030458Y013804D02*
X030638D01*
X025744Y011912D02*
Y012092D01*
X025204Y011912D02*
Y012092D01*
X025694Y018462D02*
Y018642D01*
X025154Y018462D02*
Y018642D01*
X025744Y016512D02*
Y016692D01*
X025204Y016512D02*
Y016692D01*
X025206Y014908D02*
Y015088D01*
X025746Y014908D02*
Y015088D01*
X030508Y021644D02*
X030688D01*
X030508Y021104D02*
X030688D01*
X041981Y022762D02*
Y022942D01*
X042521Y022762D02*
Y022942D01*
X046581Y022762D02*
Y022942D01*
X047121Y022762D02*
Y022942D01*
X044762Y025006D02*
X044942D01*
X044762Y025546D02*
X044942D01*
X044762Y027319D02*
X044942D01*
X044762Y026779D02*
X044942D01*
X044762Y029119D02*
X044942D01*
X044762Y028579D02*
X044942D01*
X046612Y028556D02*
X046792D01*
X046612Y029096D02*
X046792D01*
X043081Y033212D02*
Y033392D01*
X043621Y033212D02*
Y033392D01*
X045912Y035706D02*
X046092D01*
X045912Y036246D02*
X046092D01*
X043862Y036246D02*
X044042D01*
X043862Y035706D02*
X044042D01*
X043812Y037469D02*
X043992D01*
X043812Y036929D02*
X043992D01*
X045862Y042456D02*
X046042D01*
X045862Y042996D02*
X046042D01*
X053694Y025562D02*
Y025742D01*
X053154Y025562D02*
Y025742D01*
X037900Y030550D02*
X040200D01*
X037900Y029050D02*
X040200Y029050D01*
X037900Y030700D02*
X040200D01*
X037900Y028900D02*
X040200Y028900D01*
X035962Y023596D02*
X036142D01*
X035962Y023056D02*
X036142D01*
X033358Y025371D02*
X033538D01*
X033358Y024831D02*
X033538D01*
X025104Y032412D02*
Y032592D01*
X025644Y032412D02*
Y032592D01*
X025054Y040162D02*
Y040342D01*
X025594Y040162D02*
Y040342D01*
X025104Y029362D02*
Y029542D01*
X025644Y029362D02*
Y029542D01*
X025958Y037254D02*
X026138D01*
X025958Y037794D02*
X026138D01*
X035508Y030621D02*
X035688D01*
X035508Y030081D02*
X035688D01*
X030458Y028304D02*
X030638D01*
X030458Y028844D02*
X030638D01*
X035702Y040158D02*
Y040338D01*
X036242Y040158D02*
Y040338D01*
X047746Y018558D02*
Y018738D01*
X047206Y018558D02*
Y018738D01*
D16*
X053070Y023311D02*
Y023839D01*
Y023311D02*
X053780D01*
Y023839D01*
Y024144D02*
Y024689D01*
X053070Y024144D02*
Y024689D01*
X053780D01*
X032906Y027207D02*
Y027736D01*
X032196D02*
X032906D01*
X032196Y027207D02*
Y027736D01*
Y026358D02*
Y026902D01*
X032906Y026358D02*
Y026902D01*
X032196Y026358D02*
X032906D01*
X033970Y026361D02*
Y026889D01*
Y026361D02*
X034680D01*
Y026889D01*
Y027194D02*
Y027739D01*
X033970Y027194D02*
Y027739D01*
X034680D01*
X025730Y025911D02*
Y026439D01*
X025020D02*
X025730D01*
X025020Y025911D02*
Y026439D01*
Y025061D02*
Y025606D01*
X025730Y025061D02*
Y025606D01*
X025020Y025061D02*
X025730D01*
X025020Y026911D02*
Y027439D01*
Y026911D02*
X025730D01*
Y027439D01*
Y027744D02*
Y028289D01*
X025020Y027744D02*
Y028289D01*
X025730D01*
X029887Y043256D02*
X030415D01*
X029887Y042546D02*
Y043256D01*
Y042546D02*
X030415D01*
X030720D02*
X031265D01*
X030720Y043256D02*
X031265D01*
Y042546D02*
Y043256D01*
X025361Y036928D02*
X025889D01*
X025361Y036218D02*
Y036928D01*
Y036218D02*
X025889D01*
X026194D02*
X026739D01*
X026194Y036928D02*
X026739D01*
Y036218D02*
Y036928D01*
X029861Y036130D02*
X030389D01*
X029861Y035420D02*
Y036130D01*
Y035420D02*
X030389D01*
X030694D02*
X031239D01*
X030694Y036130D02*
X031239D01*
Y035420D02*
Y036130D01*
X032311D02*
X032839D01*
X032311Y035420D02*
Y036130D01*
Y035420D02*
X032839D01*
X033144D02*
X033689D01*
X033144Y036130D02*
X033689D01*
Y035420D02*
Y036130D01*
X032310Y036664D02*
X032839D01*
X033144D02*
X033690D01*
X033144Y037364D02*
X033690D01*
X032310D02*
X032839D01*
X033690Y036664D02*
Y037364D01*
X032310Y036664D02*
Y037364D01*
X051261Y043130D02*
X051789D01*
X051261Y042420D02*
Y043130D01*
Y042420D02*
X051789D01*
X052094D02*
X052639D01*
X052094Y043130D02*
X052639D01*
Y042420D02*
Y043130D01*
X051261Y036330D02*
X051789D01*
X051261Y035620D02*
Y036330D01*
Y035620D02*
X051789D01*
X052094D02*
X052639D01*
X052094Y036330D02*
X052639D01*
Y035620D02*
Y036330D01*
X053070Y034411D02*
Y034939D01*
Y034411D02*
X053780D01*
Y034939D01*
Y035244D02*
Y035789D01*
X053070Y035244D02*
Y035789D01*
X053780D01*
Y036861D02*
Y037389D01*
X053070D02*
X053780D01*
X053070Y036861D02*
Y037389D01*
Y036011D02*
Y036556D01*
X053780Y036011D02*
Y036556D01*
X053070Y036011D02*
X053780D01*
X051161Y028980D02*
X051689D01*
X051161Y028270D02*
Y028980D01*
Y028270D02*
X051689D01*
X051994D02*
X052539D01*
X051994Y028980D02*
X052539D01*
Y028270D02*
Y028980D01*
X047094Y010687D02*
Y011215D01*
Y010687D02*
X047804D01*
Y011215D01*
Y011520D02*
Y012065D01*
X047094Y011520D02*
Y012065D01*
X047804D01*
X051211Y014680D02*
X051739D01*
X051211Y013970D02*
Y014680D01*
Y013970D02*
X051739D01*
X052044D02*
X052589D01*
X052044Y014680D02*
X052589D01*
Y013970D02*
Y014680D01*
X051211Y021830D02*
X051739D01*
X051211Y021120D02*
Y021830D01*
Y021120D02*
X051739D01*
X052044D02*
X052589D01*
X052044Y021830D02*
X052589D01*
Y021120D02*
Y021830D01*
X029839Y015406D02*
X030367D01*
X029839Y014696D02*
Y015406D01*
Y014696D02*
X030367D01*
X030672D02*
X031217D01*
X030672Y015406D02*
X031217D01*
Y014696D02*
Y015406D01*
X029861Y014430D02*
X030389D01*
X029861Y013720D02*
Y014430D01*
Y013720D02*
X030389D01*
X030694D02*
X031239D01*
X030694Y014430D02*
X031239D01*
Y013720D02*
Y014430D01*
X025830Y012161D02*
Y012689D01*
X025120D02*
X025830D01*
X025120Y012161D02*
Y012689D01*
Y011311D02*
Y011856D01*
X025830Y011311D02*
Y011856D01*
X025120Y011311D02*
X025830D01*
X025780Y018711D02*
Y019239D01*
X025070D02*
X025780D01*
X025070Y018711D02*
Y019239D01*
Y017861D02*
Y018406D01*
X025780Y017861D02*
Y018406D01*
X025070Y017861D02*
X025780D01*
X025830Y016761D02*
Y017289D01*
X025120D02*
X025830D01*
X025120Y016761D02*
Y017289D01*
Y015911D02*
Y016456D01*
X025830Y015911D02*
Y016456D01*
X025120Y015911D02*
X025830D01*
X025120Y014311D02*
Y014839D01*
Y014311D02*
X025830D01*
Y014839D01*
Y015144D02*
Y015689D01*
X025120Y015144D02*
Y015689D01*
X025830D01*
X029911Y021730D02*
X030439D01*
X029911Y021020D02*
Y021730D01*
Y021020D02*
X030439D01*
X030744D02*
X031289D01*
X030744Y021730D02*
X031289D01*
Y021020D02*
Y021730D01*
X045904Y016444D02*
Y017861D01*
Y014476D02*
Y015814D01*
Y012334D02*
Y013846D01*
X043129Y012334D02*
X045904D01*
X043129D02*
Y020066D01*
X045904D01*
Y019594D02*
Y020066D01*
X041900Y023011D02*
Y023540D01*
Y022160D02*
Y022706D01*
X042600Y022160D02*
Y022706D01*
Y023011D02*
Y023540D01*
X041900Y022160D02*
X042600D01*
X041900Y023540D02*
X042600D01*
X046500Y023011D02*
Y023540D01*
Y022160D02*
Y022706D01*
X047200Y022160D02*
Y022706D01*
Y023011D02*
Y023540D01*
X046500Y022160D02*
X047200D01*
X046500Y023540D02*
X047200D01*
X045011Y024920D02*
X045539D01*
Y025630D01*
X045011D02*
X045539D01*
X044161D02*
X044706D01*
X044161Y024920D02*
X044706D01*
X044161D02*
Y025630D01*
X045011Y027400D02*
X045540D01*
X044160D02*
X044706D01*
X044160Y026700D02*
X044706D01*
X045011D02*
X045540D01*
X044160D02*
Y027400D01*
X045540Y026700D02*
Y027400D01*
X045011Y029200D02*
X045540D01*
X044160D02*
X044706D01*
X044160Y028500D02*
X044706D01*
X045011D02*
X045540D01*
X044160D02*
Y029200D01*
X045540Y028500D02*
Y029200D01*
X046861Y028470D02*
X047389D01*
Y029180D01*
X046861D02*
X047389D01*
X046011D02*
X046556D01*
X046011Y028470D02*
X046556D01*
X046011D02*
Y029180D01*
X043000Y033461D02*
Y033990D01*
Y032610D02*
Y033156D01*
X043700Y032610D02*
Y033156D01*
Y033461D02*
Y033990D01*
X043000Y032610D02*
X043700D01*
X043000Y033990D02*
X043700D01*
X046161Y035620D02*
X046689D01*
Y036330D01*
X046161D02*
X046689D01*
X045311D02*
X045856D01*
X045311Y035620D02*
X045856D01*
X045311D02*
Y036330D01*
X044111Y036327D02*
X044640D01*
X043260D02*
X043806D01*
X043260Y035627D02*
X043806D01*
X044111D02*
X044640D01*
X043260D02*
Y036327D01*
X044640Y035627D02*
Y036327D01*
X044061Y037550D02*
X044590D01*
X043210D02*
X043756D01*
X043210Y036850D02*
X043756D01*
X044061D02*
X044590D01*
X043210D02*
Y037550D01*
X044590Y036850D02*
Y037550D01*
X046111Y042370D02*
X046639D01*
Y043080D01*
X046111D02*
X046639D01*
X045261D02*
X045806D01*
X045261Y042370D02*
X045806D01*
X045261D02*
Y043080D01*
X021830Y029120D02*
X024700D01*
X021830Y039470D02*
X024700D01*
X021830Y018170D02*
X024700D01*
X054100Y012250D02*
X056970D01*
X054100Y033550D02*
X056970D01*
X053780Y025811D02*
Y026339D01*
X053070D02*
X053780D01*
X053070Y025811D02*
Y026339D01*
Y024961D02*
Y025506D01*
X053780Y024961D02*
Y025506D01*
X053070Y024961D02*
X053780D01*
X045819Y021849D02*
Y022951D01*
X043181Y021849D02*
Y022951D01*
X045819D01*
X043181Y021849D02*
X045819D01*
X035361Y022970D02*
Y023680D01*
Y022970D02*
X035906D01*
X035361Y023680D02*
X035906D01*
X036211D02*
X036739D01*
Y022970D02*
Y023680D01*
X036211Y022970D02*
X036739D01*
X032760Y024750D02*
Y025450D01*
X034140Y024750D02*
Y025450D01*
X032760D02*
X033289D01*
X033594D02*
X034140D01*
X033594Y024750D02*
X034140D01*
X032760D02*
X033289D01*
X025020Y031811D02*
X025730D01*
Y032356D01*
X025020Y031811D02*
Y032356D01*
Y032661D02*
Y033189D01*
X025730D01*
Y032661D02*
Y033189D01*
X024970Y039561D02*
X025680D01*
Y040106D01*
X024970Y039561D02*
Y040106D01*
Y040411D02*
Y040939D01*
X025680D01*
Y040411D02*
Y040939D01*
X025020Y028761D02*
X025730D01*
Y029306D01*
X025020Y028761D02*
Y029306D01*
Y029611D02*
Y030139D01*
X025730D01*
Y029611D02*
Y030139D01*
X026739Y037170D02*
Y037880D01*
X026194D02*
X026739D01*
X026194Y037170D02*
X026739D01*
X025361D02*
X025889D01*
X025361D02*
Y037880D01*
X025889D01*
X034910Y030000D02*
Y030700D01*
X036290Y030000D02*
Y030700D01*
X034910D02*
X035439D01*
X035744D02*
X036290D01*
X035744Y030000D02*
X036290D01*
X034910D02*
X035439D01*
X031239Y028220D02*
Y028930D01*
X030694D02*
X031239D01*
X030694Y028220D02*
X031239D01*
X029861D02*
X030389D01*
X029861D02*
Y028930D01*
X030389D01*
X038150Y022850D02*
Y023850D01*
X037150Y022850D02*
Y023850D01*
X041150D01*
X037150Y022850D02*
X041150D01*
Y023850D01*
X035624Y039560D02*
X036324D01*
X035624Y040940D02*
X036324D01*
X035624Y039560D02*
Y040089D01*
Y040394D02*
Y040940D01*
X036324Y040394D02*
Y040940D01*
Y039560D02*
Y040089D01*
X054100Y023200D02*
X056970D01*
X047120Y019339D02*
X047830D01*
X047120Y018794D02*
Y019339D01*
X047830Y018794D02*
Y019339D01*
Y017961D02*
Y018489D01*
X047120Y017961D02*
X047830D01*
X047120D02*
Y018489D01*
D17*
X036624Y024460D02*
X041576D01*
Y026712D01*
X036624D02*
X041576D01*
X036624Y024460D02*
Y026712D01*
D18*
X030078Y015676D02*
Y015726D01*
Y015676D02*
X030978D01*
Y015726D01*
X030078Y016326D02*
Y016376D01*
X030978D01*
Y016326D02*
Y016376D01*
X046300Y024950D02*
Y025000D01*
Y024950D02*
X047200D01*
Y025000D01*
X046300Y025600D02*
Y025650D01*
X047200D01*
Y025600D02*
Y025650D01*
X032200Y029350D02*
X032250D01*
X032200Y028450D02*
Y029350D01*
Y028450D02*
X032250D01*
X032850Y029350D02*
X032900D01*
Y028450D02*
Y029350D01*
X032850Y028450D02*
X032900D01*
X034000Y029400D02*
X034050D01*
X034000Y028500D02*
Y029400D01*
Y028500D02*
X034050D01*
X034650Y029400D02*
X034700D01*
Y028500D02*
Y029400D01*
X034650Y028500D02*
X034700D01*
D19*
X026850Y038337D02*
X029800D01*
Y042087D01*
X026850D02*
X029800D01*
X026850Y038337D02*
Y042087D01*
X051950Y016859D02*
Y020609D01*
X049000Y016859D02*
X051950D01*
X049000D02*
Y020609D01*
X051950D01*
X026850Y031127D02*
X029800D01*
Y034877D01*
X026850D02*
X029800D01*
X026850Y031127D02*
Y034877D01*
X049000Y042000D02*
X051950D01*
X049000Y038250D02*
Y042000D01*
Y038250D02*
X051950D01*
Y042000D01*
X026850Y023918D02*
X029800D01*
Y027668D01*
X026850D02*
X029800D01*
X026850Y023918D02*
Y027668D01*
X049000Y027818D02*
X051950D01*
X049000Y024068D02*
Y027818D01*
Y024068D02*
X051950D01*
Y027818D01*
X026850Y009500D02*
X029800D01*
Y013250D01*
X026850D02*
X029800D01*
X026850Y009500D02*
Y013250D01*
Y016709D02*
X029800D01*
Y020459D01*
X026850D02*
X029800D01*
X026850Y016709D02*
Y020459D01*
X049000Y035027D02*
X051950D01*
X049000Y031277D02*
Y035027D01*
Y031277D02*
X051950D01*
Y035027D01*
X049000Y013400D02*
X051950D01*
X049000Y009650D02*
Y013400D01*
Y009650D02*
X051950D01*
Y013400D01*
D20*
X039359Y028409D02*
Y028645D01*
X039477D01*
X039516Y028606D01*
Y028527D01*
X039477Y028488D01*
X039359D01*
X039438D02*
X039516Y028409D01*
X039595Y028566D02*
X039753Y028409D01*
X039674Y028488D01*
X039753Y028566D01*
X039595Y028409D01*
X038309Y028645D02*
X038466D01*
X038388D01*
Y028409D01*
X038545Y028566D02*
X038703Y028409D01*
X038624Y028488D01*
X038703Y028566D01*
X038545Y028409D01*
X039259Y027145D02*
Y026909D01*
X039377D01*
X039416Y026948D01*
Y027106D01*
X039377Y027145D01*
X039259D01*
X039495D02*
X039574D01*
X039535D01*
Y026909D01*
X039495D01*
X039574D01*
X039810Y027145D02*
X039731D01*
X039692Y027106D01*
Y026948D01*
X039731Y026909D01*
X039810D01*
X039849Y026948D01*
Y027106D01*
X039810Y027145D01*
X038416Y027106D02*
X038377Y027145D01*
X038298D01*
X038259Y027106D01*
Y026948D01*
X038298Y026909D01*
X038377D01*
X038416Y026948D01*
X038495Y027145D02*
Y026909D01*
X038653D01*
X038731Y027145D02*
Y026909D01*
Y026988D01*
X038889Y027145D01*
X038771Y027027D01*
X038889Y026909D01*
X040259Y027106D02*
X040298Y027145D01*
X040377D01*
X040416Y027106D01*
Y027066D01*
X040377Y027027D01*
X040338D01*
X040377D01*
X040416Y026988D01*
Y026948D01*
X040377Y026909D01*
X040298D01*
X040259Y026948D01*
X040495Y027145D02*
Y026988D01*
X040574Y026909D01*
X040653Y026988D01*
Y027145D01*
X040731Y027106D02*
X040771Y027145D01*
X040849D01*
X040889Y027106D01*
Y027066D01*
X040849Y027027D01*
X040810D01*
X040849D01*
X040889Y026988D01*
Y026948D01*
X040849Y026909D01*
X040771D01*
X040731Y026948D01*
X037316Y027106D02*
X037277Y027145D01*
X037198D01*
X037159Y027106D01*
Y026948D01*
X037198Y026909D01*
X037277D01*
X037316Y026948D01*
Y027027D01*
X037238D01*
X037395Y026909D02*
Y027145D01*
X037553Y026909D01*
Y027145D01*
X037631D02*
Y026909D01*
X037749D01*
X037789Y026948D01*
Y027106D01*
X037749Y027145D01*
X037631D01*
X043524Y020582D02*
Y020818D01*
X043643D01*
X043682Y020779D01*
Y020700D01*
X043643Y020661D01*
X043524D01*
X043918Y020779D02*
X043879Y020818D01*
X043800D01*
X043761Y020779D01*
Y020739D01*
X043800Y020700D01*
X043879D01*
X043918Y020661D01*
Y020621D01*
X043879Y020582D01*
X043800D01*
X043761Y020621D01*
X043997Y020582D02*
X044075D01*
X044036D01*
Y020818D01*
X043997Y020779D01*
X036870Y031226D02*
Y031187D01*
X036949Y031108D01*
X037027Y031187D01*
Y031226D01*
X036949Y031108D02*
Y030990D01*
X037106D02*
X037185D01*
X037146D01*
Y031226D01*
X037106Y031187D01*
X048340Y014276D02*
Y014079D01*
X048379Y014040D01*
X048458D01*
X048497Y014079D01*
Y014276D01*
X048576Y014040D02*
X048655D01*
X048615D01*
Y014276D01*
X048576Y014237D01*
X048773D02*
X048812Y014276D01*
X048891D01*
X048930Y014237D01*
Y014197D01*
X048891Y014158D01*
X048930Y014119D01*
Y014079D01*
X048891Y014040D01*
X048812D01*
X048773Y014079D01*
Y014119D01*
X048812Y014158D01*
X048773Y014197D01*
Y014237D01*
X048812Y014158D02*
X048891D01*
X048340Y021486D02*
Y021289D01*
X048379Y021250D01*
X048458D01*
X048497Y021289D01*
Y021486D01*
X048576Y021250D02*
X048655D01*
X048615D01*
Y021486D01*
X048576Y021447D01*
X048773Y021486D02*
X048930D01*
Y021447D01*
X048773Y021289D01*
Y021250D01*
X026190Y021156D02*
Y020959D01*
X026229Y020920D01*
X026308D01*
X026347Y020959D01*
Y021156D01*
X026426Y020920D02*
X026505D01*
X026465D01*
Y021156D01*
X026426Y021117D01*
X026780Y021156D02*
X026702Y021117D01*
X026623Y021038D01*
Y020959D01*
X026662Y020920D01*
X026741D01*
X026780Y020959D01*
Y020999D01*
X026741Y021038D01*
X026623D01*
X048340Y035906D02*
Y035709D01*
X048379Y035670D01*
X048458D01*
X048497Y035709D01*
Y035906D01*
X048576Y035670D02*
X048655D01*
X048615D01*
Y035906D01*
X048576Y035867D01*
X048930Y035906D02*
X048773D01*
Y035788D01*
X048852Y035827D01*
X048891D01*
X048930Y035788D01*
Y035709D01*
X048891Y035670D01*
X048812D01*
X048773Y035709D01*
X048340Y028696D02*
Y028499D01*
X048379Y028460D01*
X048458D01*
X048497Y028499D01*
Y028696D01*
X048576Y028460D02*
X048655D01*
X048615D01*
Y028696D01*
X048576Y028657D01*
X048891Y028460D02*
Y028696D01*
X048773Y028578D01*
X048930D01*
X026190Y013946D02*
Y013749D01*
X026229Y013710D01*
X026308D01*
X026347Y013749D01*
Y013946D01*
X026426Y013710D02*
X026505D01*
X026465D01*
Y013946D01*
X026426Y013907D01*
X026623D02*
X026662Y013946D01*
X026741D01*
X026780Y013907D01*
Y013867D01*
X026741Y013828D01*
X026702D01*
X026741D01*
X026780Y013789D01*
Y013749D01*
X026741Y013710D01*
X026662D01*
X026623Y013749D01*
X044255Y035118D02*
Y034921D01*
X044294Y034882D01*
X044373D01*
X044412Y034921D01*
Y035118D01*
X044491Y034882D02*
X044570D01*
X044530D01*
Y035118D01*
X044491Y035079D01*
X044845Y034882D02*
X044688D01*
X044845Y035039D01*
Y035079D01*
X044806Y035118D01*
X044727D01*
X044688Y035079D01*
X043732Y040594D02*
X043929D01*
X043968Y040634D01*
Y040712D01*
X043929Y040752D01*
X043732D01*
X043968Y040830D02*
Y040909D01*
Y040870D01*
X043732D01*
X043771Y040830D01*
X043968Y041027D02*
Y041106D01*
Y041066D01*
X043732D01*
X043771Y041027D01*
X048340Y042876D02*
Y042679D01*
X048379Y042640D01*
X048458D01*
X048497Y042679D01*
Y042876D01*
X048576Y042640D02*
X048655D01*
X048615D01*
Y042876D01*
X048576Y042837D01*
X048773D02*
X048812Y042876D01*
X048891D01*
X048930Y042837D01*
Y042679D01*
X048891Y042640D01*
X048812D01*
X048773Y042679D01*
Y042837D01*
X026190Y028366D02*
Y028169D01*
X026229Y028130D01*
X026308D01*
X026347Y028169D01*
Y028366D01*
X026426Y028169D02*
X026465Y028130D01*
X026544D01*
X026584Y028169D01*
Y028327D01*
X026544Y028366D01*
X026465D01*
X026426Y028327D01*
Y028287D01*
X026465Y028248D01*
X026584D01*
X030882Y033891D02*
X031079D01*
X031118Y033930D01*
Y034009D01*
X031079Y034048D01*
X030882D01*
X030921Y034127D02*
X030882Y034166D01*
Y034245D01*
X030921Y034284D01*
X030961D01*
X031000Y034245D01*
X031039Y034284D01*
X031079D01*
X031118Y034245D01*
Y034166D01*
X031079Y034127D01*
X031039D01*
X031000Y034166D01*
X030961Y034127D01*
X030921D01*
X031000Y034166D02*
Y034245D01*
X030892Y040923D02*
X031089D01*
X031128Y040962D01*
Y041041D01*
X031089Y041080D01*
X030892D01*
Y041159D02*
Y041317D01*
X030931D01*
X031089Y041159D01*
X031128D01*
X040300Y042186D02*
Y041989D01*
X040339Y041950D01*
X040418D01*
X040457Y041989D01*
Y042186D01*
X040694D02*
X040615Y042147D01*
X040536Y042068D01*
Y041989D01*
X040575Y041950D01*
X040654D01*
X040694Y041989D01*
Y042029D01*
X040654Y042068D01*
X040536D01*
X026190Y035576D02*
Y035379D01*
X026229Y035340D01*
X026308D01*
X026347Y035379D01*
Y035576D01*
X026584D02*
X026426D01*
Y035458D01*
X026505Y035497D01*
X026544D01*
X026584Y035458D01*
Y035379D01*
X026544Y035340D01*
X026465D01*
X026426Y035379D01*
X026190Y042786D02*
Y042589D01*
X026229Y042550D01*
X026308D01*
X026347Y042589D01*
Y042786D01*
X026544Y042550D02*
Y042786D01*
X026426Y042668D01*
X026584D01*
X040910Y016386D02*
Y016189D01*
X040949Y016150D01*
X041028D01*
X041067Y016189D01*
Y016386D01*
X041146Y016347D02*
X041185Y016386D01*
X041264D01*
X041304Y016347D01*
Y016307D01*
X041264Y016268D01*
X041225D01*
X041264D01*
X041304Y016229D01*
Y016189D01*
X041264Y016150D01*
X041185D01*
X041146Y016189D01*
X035620Y038836D02*
Y038639D01*
X035659Y038600D01*
X035738D01*
X035777Y038639D01*
Y038836D01*
X036014Y038600D02*
X035856D01*
X036014Y038757D01*
Y038797D01*
X035974Y038836D01*
X035896D01*
X035856Y038797D01*
X047185Y010082D02*
Y010318D01*
X047303D01*
X047343Y010279D01*
Y010200D01*
X047303Y010161D01*
X047185D01*
X047264D02*
X047343Y010082D01*
X047421Y010279D02*
X047461Y010318D01*
X047539D01*
X047579Y010279D01*
Y010239D01*
X047539Y010200D01*
X047500D01*
X047539D01*
X047579Y010161D01*
Y010121D01*
X047539Y010082D01*
X047461D01*
X047421Y010121D01*
X047815Y010318D02*
X047736Y010279D01*
X047657Y010200D01*
Y010121D01*
X047697Y010082D01*
X047776D01*
X047815Y010121D01*
Y010161D01*
X047776Y010200D01*
X047657D01*
X047140Y019640D02*
Y019876D01*
X047258D01*
X047297Y019837D01*
Y019758D01*
X047258Y019719D01*
X047140D01*
X047219D02*
X047297Y019640D01*
X047376Y019837D02*
X047415Y019876D01*
X047494D01*
X047534Y019837D01*
Y019797D01*
X047494Y019758D01*
X047455D01*
X047494D01*
X047534Y019719D01*
Y019679D01*
X047494Y019640D01*
X047415D01*
X047376Y019679D01*
X047770Y019876D02*
X047612D01*
Y019758D01*
X047691Y019797D01*
X047730D01*
X047770Y019758D01*
Y019679D01*
X047730Y019640D01*
X047652D01*
X047612Y019679D01*
X051585Y014982D02*
Y015218D01*
X051703D01*
X051743Y015179D01*
Y015100D01*
X051703Y015061D01*
X051585D01*
X051664D02*
X051743Y014982D01*
X051821Y015179D02*
X051861Y015218D01*
X051939D01*
X051979Y015179D01*
Y015139D01*
X051939Y015100D01*
X051900D01*
X051939D01*
X051979Y015061D01*
Y015021D01*
X051939Y014982D01*
X051861D01*
X051821Y015021D01*
X052175Y014982D02*
Y015218D01*
X052057Y015100D01*
X052215D01*
X051635Y022032D02*
Y022268D01*
X051753D01*
X051793Y022229D01*
Y022150D01*
X051753Y022111D01*
X051635D01*
X051714D02*
X051793Y022032D01*
X051871Y022229D02*
X051911Y022268D01*
X051989D01*
X052029Y022229D01*
Y022189D01*
X051989Y022150D01*
X051950D01*
X051989D01*
X052029Y022111D01*
Y022071D01*
X051989Y022032D01*
X051911D01*
X051871Y022071D01*
X052107Y022229D02*
X052147Y022268D01*
X052225D01*
X052265Y022229D01*
Y022189D01*
X052225Y022150D01*
X052186D01*
X052225D01*
X052265Y022111D01*
Y022071D01*
X052225Y022032D01*
X052147D01*
X052107Y022071D01*
X030135Y021932D02*
Y022168D01*
X030253D01*
X030293Y022129D01*
Y022050D01*
X030253Y022011D01*
X030135D01*
X030214D02*
X030293Y021932D01*
X030371Y022129D02*
X030411Y022168D01*
X030489D01*
X030529Y022129D01*
Y022089D01*
X030489Y022050D01*
X030450D01*
X030489D01*
X030529Y022011D01*
Y021971D01*
X030489Y021932D01*
X030411D01*
X030371Y021971D01*
X030765Y021932D02*
X030607D01*
X030765Y022089D01*
Y022129D01*
X030726Y022168D01*
X030647D01*
X030607Y022129D01*
X045725Y036482D02*
Y036718D01*
X045843D01*
X045882Y036679D01*
Y036600D01*
X045843Y036561D01*
X045725D01*
X045803D02*
X045882Y036482D01*
X045961Y036679D02*
X046000Y036718D01*
X046079D01*
X046118Y036679D01*
Y036639D01*
X046079Y036600D01*
X046039D01*
X046079D01*
X046118Y036561D01*
Y036521D01*
X046079Y036482D01*
X046000D01*
X045961Y036521D01*
X046197Y036482D02*
X046276D01*
X046236D01*
Y036718D01*
X046197Y036679D01*
X032235Y027882D02*
Y028118D01*
X032353D01*
X032393Y028079D01*
Y028000D01*
X032353Y027961D01*
X032235D01*
X032314D02*
X032393Y027882D01*
X032471Y028079D02*
X032511Y028118D01*
X032589D01*
X032629Y028079D01*
Y028039D01*
X032589Y028000D01*
X032550D01*
X032589D01*
X032629Y027961D01*
Y027921D01*
X032589Y027882D01*
X032511D01*
X032471Y027921D01*
X032707Y028079D02*
X032747Y028118D01*
X032826D01*
X032865Y028079D01*
Y027921D01*
X032826Y027882D01*
X032747D01*
X032707Y027921D01*
Y028079D01*
X033985Y027882D02*
Y028118D01*
X034103D01*
X034143Y028079D01*
Y028000D01*
X034103Y027961D01*
X033985D01*
X034064D02*
X034143Y027882D01*
X034379D02*
X034221D01*
X034379Y028039D01*
Y028079D01*
X034339Y028118D01*
X034261D01*
X034221Y028079D01*
X034457Y027921D02*
X034497Y027882D01*
X034576D01*
X034615Y027921D01*
Y028079D01*
X034576Y028118D01*
X034497D01*
X034457Y028079D01*
Y028039D01*
X034497Y028000D01*
X034615D01*
X025135Y019432D02*
Y019668D01*
X025253D01*
X025293Y019629D01*
Y019550D01*
X025253Y019511D01*
X025135D01*
X025214D02*
X025293Y019432D01*
X025529D02*
X025371D01*
X025529Y019589D01*
Y019629D01*
X025489Y019668D01*
X025411D01*
X025371Y019629D01*
X025607D02*
X025647Y019668D01*
X025726D01*
X025765Y019629D01*
Y019589D01*
X025726Y019550D01*
X025765Y019511D01*
Y019471D01*
X025726Y019432D01*
X025647D01*
X025607Y019471D01*
Y019511D01*
X025647Y019550D01*
X025607Y019589D01*
Y019629D01*
X025647Y019550D02*
X025726D01*
X051585Y036532D02*
Y036768D01*
X051703D01*
X051743Y036729D01*
Y036650D01*
X051703Y036611D01*
X051585D01*
X051664D02*
X051743Y036532D01*
X051979D02*
X051821D01*
X051979Y036689D01*
Y036729D01*
X051939Y036768D01*
X051861D01*
X051821Y036729D01*
X052057Y036768D02*
X052215D01*
Y036729D01*
X052057Y036571D01*
Y036532D01*
X046335Y029382D02*
Y029618D01*
X046453D01*
X046493Y029579D01*
Y029500D01*
X046453Y029461D01*
X046335D01*
X046414D02*
X046493Y029382D01*
X046729D02*
X046571D01*
X046729Y029539D01*
Y029579D01*
X046689Y029618D01*
X046611D01*
X046571Y029579D01*
X046965Y029618D02*
X046886Y029579D01*
X046807Y029500D01*
Y029421D01*
X046847Y029382D01*
X046926D01*
X046965Y029421D01*
Y029461D01*
X046926Y029500D01*
X046807D01*
X029718Y013735D02*
X029482D01*
Y013853D01*
X029521Y013893D01*
X029600D01*
X029639Y013853D01*
Y013735D01*
Y013814D02*
X029718Y013893D01*
Y014129D02*
Y013971D01*
X029561Y014129D01*
X029521D01*
X029482Y014089D01*
Y014011D01*
X029521Y013971D01*
X029482Y014365D02*
Y014207D01*
X029600D01*
X029561Y014286D01*
Y014325D01*
X029600Y014365D01*
X029679D01*
X029718Y014325D01*
Y014247D01*
X029679Y014207D01*
X051385Y029282D02*
Y029518D01*
X051503D01*
X051543Y029479D01*
Y029400D01*
X051503Y029361D01*
X051385D01*
X051464D02*
X051543Y029282D01*
X051779D02*
X051621D01*
X051779Y029439D01*
Y029479D01*
X051739Y029518D01*
X051661D01*
X051621Y029479D01*
X051975Y029282D02*
Y029518D01*
X051857Y029400D01*
X052015D01*
X025185Y010832D02*
Y011068D01*
X025303D01*
X025343Y011029D01*
Y010950D01*
X025303Y010911D01*
X025185D01*
X025264D02*
X025343Y010832D01*
X025579D02*
X025421D01*
X025579Y010989D01*
Y011029D01*
X025539Y011068D01*
X025461D01*
X025421Y011029D01*
X025657D02*
X025697Y011068D01*
X025775D01*
X025815Y011029D01*
Y010989D01*
X025775Y010950D01*
X025736D01*
X025775D01*
X025815Y010911D01*
Y010871D01*
X025775Y010832D01*
X025697D01*
X025657Y010871D01*
X052868Y023735D02*
X052632D01*
Y023853D01*
X052671Y023893D01*
X052750D01*
X052789Y023853D01*
Y023735D01*
Y023814D02*
X052868Y023893D01*
Y024129D02*
Y023971D01*
X052711Y024129D01*
X052671D01*
X052632Y024089D01*
Y024011D01*
X052671Y023971D01*
X052868Y024365D02*
Y024207D01*
X052711Y024365D01*
X052671D01*
X052632Y024325D01*
Y024247D01*
X052671Y024207D01*
X053225Y033932D02*
Y034168D01*
X053343D01*
X053382Y034129D01*
Y034050D01*
X053343Y034011D01*
X053225D01*
X053303D02*
X053382Y033932D01*
X053618D02*
X053461D01*
X053618Y034089D01*
Y034129D01*
X053579Y034168D01*
X053500D01*
X053461Y034129D01*
X053697Y033932D02*
X053776D01*
X053736D01*
Y034168D01*
X053697Y034129D01*
X053085Y026532D02*
Y026768D01*
X053203D01*
X053243Y026729D01*
Y026650D01*
X053203Y026611D01*
X053085D01*
X053164D02*
X053243Y026532D01*
X053479D02*
X053321D01*
X053479Y026689D01*
Y026729D01*
X053439Y026768D01*
X053361D01*
X053321Y026729D01*
X053557D02*
X053597Y026768D01*
X053675D01*
X053715Y026729D01*
Y026571D01*
X053675Y026532D01*
X053597D01*
X053557Y026571D01*
Y026729D01*
X053090Y037690D02*
Y037926D01*
X053208D01*
X053247Y037887D01*
Y037808D01*
X053208Y037769D01*
X053090D01*
X053169D02*
X053247Y037690D01*
X053326D02*
X053405D01*
X053366D01*
Y037926D01*
X053326Y037887D01*
X053523Y037729D02*
X053562Y037690D01*
X053641D01*
X053680Y037729D01*
Y037887D01*
X053641Y037926D01*
X053562D01*
X053523Y037887D01*
Y037847D01*
X053562Y037808D01*
X053680D01*
X045605Y043232D02*
Y043468D01*
X045723D01*
X045762Y043429D01*
Y043350D01*
X045723Y043311D01*
X045605D01*
X045684D02*
X045762Y043232D01*
X045841D02*
X045920D01*
X045880D01*
Y043468D01*
X045841Y043429D01*
X046038D02*
X046077Y043468D01*
X046156D01*
X046195Y043429D01*
Y043389D01*
X046156Y043350D01*
X046195Y043311D01*
Y043271D01*
X046156Y043232D01*
X046077D01*
X046038Y043271D01*
Y043311D01*
X046077Y043350D01*
X046038Y043389D01*
Y043429D01*
X046077Y043350D02*
X046156D01*
X029880Y029230D02*
Y029466D01*
X029998D01*
X030037Y029427D01*
Y029348D01*
X029998Y029309D01*
X029880D01*
X029959D02*
X030037Y029230D01*
X030116D02*
X030195D01*
X030155D01*
Y029466D01*
X030116Y029427D01*
X030313Y029466D02*
X030470D01*
Y029427D01*
X030313Y029269D01*
Y029230D01*
X052932Y043095D02*
X053168D01*
Y042977D01*
X053129Y042938D01*
X053050D01*
X053011Y042977D01*
Y043095D01*
Y043016D02*
X052932Y042938D01*
Y042859D02*
Y042780D01*
Y042820D01*
X053168D01*
X053129Y042859D01*
X053168Y042505D02*
X053129Y042584D01*
X053050Y042662D01*
X052971D01*
X052932Y042623D01*
Y042544D01*
X052971Y042505D01*
X053011D01*
X053050Y042544D01*
Y042662D01*
X025055Y026532D02*
Y026768D01*
X025173D01*
X025212Y026729D01*
Y026650D01*
X025173Y026611D01*
X025055D01*
X025134D02*
X025212Y026532D01*
X025291D02*
X025370D01*
X025330D01*
Y026768D01*
X025291Y026729D01*
X025645Y026768D02*
X025488D01*
Y026650D01*
X025566Y026689D01*
X025606D01*
X025645Y026650D01*
Y026571D01*
X025606Y026532D01*
X025527D01*
X025488Y026571D01*
X025982Y016695D02*
X026218D01*
Y016577D01*
X026179Y016538D01*
X026100D01*
X026061Y016577D01*
Y016695D01*
Y016616D02*
X025982Y016538D01*
Y016459D02*
Y016380D01*
Y016420D01*
X026218D01*
X026179Y016459D01*
X025982Y016144D02*
X026218D01*
X026100Y016262D01*
Y016105D01*
X025040Y030440D02*
Y030676D01*
X025158D01*
X025197Y030637D01*
Y030558D01*
X025158Y030519D01*
X025040D01*
X025119D02*
X025197Y030440D01*
X025276D02*
X025355D01*
X025315D01*
Y030676D01*
X025276Y030637D01*
X025473D02*
X025512Y030676D01*
X025591D01*
X025630Y030637D01*
Y030597D01*
X025591Y030558D01*
X025552D01*
X025591D01*
X025630Y030519D01*
Y030479D01*
X025591Y030440D01*
X025512D01*
X025473Y030479D01*
X025380Y038180D02*
Y038416D01*
X025498D01*
X025537Y038377D01*
Y038298D01*
X025498Y038259D01*
X025380D01*
X025459D02*
X025537Y038180D01*
X025616D02*
X025695D01*
X025656D01*
Y038416D01*
X025616Y038377D01*
X025970Y038180D02*
X025813D01*
X025970Y038337D01*
Y038377D01*
X025931Y038416D01*
X025852D01*
X025813Y038377D01*
X030244Y036332D02*
Y036568D01*
X030362D01*
X030402Y036529D01*
Y036450D01*
X030362Y036411D01*
X030244D01*
X030323D02*
X030402Y036332D01*
X030480D02*
X030559D01*
X030520D01*
Y036568D01*
X030480Y036529D01*
X030677Y036332D02*
X030756D01*
X030716D01*
Y036568D01*
X030677Y036529D01*
X031505Y042832D02*
Y043068D01*
X031623D01*
X031662Y043029D01*
Y042950D01*
X031623Y042911D01*
X031505D01*
X031584D02*
X031662Y042832D01*
X031741D02*
X031820D01*
X031780D01*
Y043068D01*
X031741Y043029D01*
X031938D02*
X031977Y043068D01*
X032056D01*
X032095Y043029D01*
Y042871D01*
X032056Y042832D01*
X031977D01*
X031938Y042871D01*
Y043029D01*
X026082Y015247D02*
X026318D01*
Y015129D01*
X026279Y015089D01*
X026200D01*
X026161Y015129D01*
Y015247D01*
Y015168D02*
X026082Y015089D01*
X026121Y015011D02*
X026082Y014971D01*
Y014893D01*
X026121Y014853D01*
X026279D01*
X026318Y014893D01*
Y014971D01*
X026279Y015011D01*
X026239D01*
X026200Y014971D01*
Y014853D01*
X025153Y028382D02*
Y028618D01*
X025271D01*
X025311Y028579D01*
Y028500D01*
X025271Y028461D01*
X025153D01*
X025232D02*
X025311Y028382D01*
X025389Y028579D02*
X025429Y028618D01*
X025507D01*
X025547Y028579D01*
Y028539D01*
X025507Y028500D01*
X025547Y028461D01*
Y028421D01*
X025507Y028382D01*
X025429D01*
X025389Y028421D01*
Y028461D01*
X025429Y028500D01*
X025389Y028539D01*
Y028579D01*
X025429Y028500D02*
X025507D01*
X026903Y036482D02*
Y036718D01*
X027021D01*
X027061Y036679D01*
Y036600D01*
X027021Y036561D01*
X026903D01*
X026982D02*
X027061Y036482D01*
X027139Y036718D02*
X027297D01*
Y036679D01*
X027139Y036521D01*
Y036482D01*
X025040Y033490D02*
Y033726D01*
X025158D01*
X025197Y033687D01*
Y033608D01*
X025158Y033569D01*
X025040D01*
X025119D02*
X025197Y033490D01*
X025434Y033726D02*
X025355Y033687D01*
X025276Y033608D01*
Y033529D01*
X025315Y033490D01*
X025394D01*
X025434Y033529D01*
Y033569D01*
X025394Y033608D01*
X025276D01*
X024990Y041240D02*
Y041476D01*
X025108D01*
X025147Y041437D01*
Y041358D01*
X025108Y041319D01*
X024990D01*
X025069D02*
X025147Y041240D01*
X025384Y041476D02*
X025226D01*
Y041358D01*
X025305Y041397D01*
X025344D01*
X025384Y041358D01*
Y041279D01*
X025344Y041240D01*
X025266D01*
X025226Y041279D01*
X029668Y014903D02*
X029432D01*
Y015021D01*
X029471Y015061D01*
X029550D01*
X029589Y015021D01*
Y014903D01*
Y014982D02*
X029668Y015061D01*
Y015257D02*
X029432D01*
X029550Y015139D01*
Y015297D01*
X044603Y025782D02*
Y026018D01*
X044721D01*
X044761Y025979D01*
Y025900D01*
X044721Y025861D01*
X044603D01*
X044682D02*
X044761Y025782D01*
X044839Y025979D02*
X044879Y026018D01*
X044957D01*
X044997Y025979D01*
Y025939D01*
X044957Y025900D01*
X044918D01*
X044957D01*
X044997Y025861D01*
Y025821D01*
X044957Y025782D01*
X044879D01*
X044839Y025821D01*
X035380Y023980D02*
Y024216D01*
X035498D01*
X035537Y024177D01*
Y024098D01*
X035498Y024059D01*
X035380D01*
X035459D02*
X035537Y023980D01*
X035774D02*
X035616D01*
X035774Y024137D01*
Y024177D01*
X035734Y024216D01*
X035656D01*
X035616Y024177D01*
X033843Y035682D02*
Y035918D01*
X033961D01*
X034000Y035879D01*
Y035800D01*
X033961Y035761D01*
X033843D01*
X033921D02*
X034000Y035682D01*
X034079D02*
X034157D01*
X034118D01*
Y035918D01*
X034079Y035879D01*
X042630Y012040D02*
Y012276D01*
X042748D01*
X042787Y012237D01*
Y012158D01*
X042748Y012119D01*
X042630D01*
X042866Y012040D02*
X042945D01*
X042906D01*
Y012276D01*
X042866Y012237D01*
X032240Y030136D02*
Y029900D01*
X032397D01*
X032634Y030136D02*
X032476D01*
Y030018D01*
X032555Y030057D01*
X032594D01*
X032634Y030018D01*
Y029939D01*
X032594Y029900D01*
X032515D01*
X032476Y029939D01*
X034040Y030186D02*
Y029950D01*
X034197D01*
X034394D02*
Y030186D01*
X034276Y030068D01*
X034434D01*
X030253Y016768D02*
Y016532D01*
X030411D01*
X030489Y016729D02*
X030529Y016768D01*
X030607D01*
X030647Y016729D01*
Y016689D01*
X030607Y016650D01*
X030568D01*
X030607D01*
X030647Y016611D01*
Y016571D01*
X030607Y016532D01*
X030529D01*
X030489Y016571D01*
X046503Y026118D02*
Y025882D01*
X046661D01*
X046897D02*
X046739D01*
X046897Y026039D01*
Y026079D01*
X046857Y026118D01*
X046779D01*
X046739Y026079D01*
X036130Y016436D02*
Y016200D01*
X036287D01*
X036366D02*
X036445D01*
X036405D01*
Y016436D01*
X036366Y016397D01*
X037327Y024386D02*
X037249D01*
X037288D01*
Y024189D01*
X037249Y024150D01*
X037209D01*
X037170Y024189D01*
X037406Y024150D02*
Y024386D01*
X037524D01*
X037564Y024347D01*
Y024268D01*
X037524Y024229D01*
X037406D01*
X037642Y024347D02*
X037682Y024386D01*
X037760D01*
X037800Y024347D01*
Y024307D01*
X037760Y024268D01*
X037721D01*
X037760D01*
X037800Y024229D01*
Y024189D01*
X037760Y024150D01*
X037682D01*
X037642Y024189D01*
X053610Y018716D02*
Y018480D01*
Y018598D01*
X053767D01*
Y018716D01*
Y018480D01*
X053846Y018716D02*
X054004D01*
Y018677D01*
X053846Y018519D01*
Y018480D01*
X053610Y029666D02*
Y029430D01*
Y029548D01*
X053767D01*
Y029666D01*
Y029430D01*
X054004Y029666D02*
X053925Y029627D01*
X053846Y029548D01*
Y029469D01*
X053885Y029430D01*
X053964D01*
X054004Y029469D01*
Y029509D01*
X053964Y029548D01*
X053846D01*
X053610Y040016D02*
Y039780D01*
Y039898D01*
X053767D01*
Y040016D01*
Y039780D01*
X054004Y040016D02*
X053846D01*
Y039898D01*
X053925Y039937D01*
X053964D01*
X054004Y039898D01*
Y039819D01*
X053964Y039780D01*
X053885D01*
X053846Y039819D01*
X021840Y018716D02*
Y018480D01*
Y018598D01*
X021997D01*
Y018716D01*
Y018480D01*
X022194D02*
Y018716D01*
X022076Y018598D01*
X022234D01*
X021840Y029666D02*
Y029430D01*
Y029548D01*
X021997D01*
Y029666D01*
Y029430D01*
X022076Y029627D02*
X022115Y029666D01*
X022194D01*
X022234Y029627D01*
Y029587D01*
X022194Y029548D01*
X022155D01*
X022194D01*
X022234Y029509D01*
Y029469D01*
X022194Y029430D01*
X022115D01*
X022076Y029469D01*
X021840Y040016D02*
Y039780D01*
Y039898D01*
X021997D01*
Y040016D01*
Y039780D01*
X022234D02*
X022076D01*
X022234Y039937D01*
Y039977D01*
X022194Y040016D01*
X022115D01*
X022076Y039977D01*
X036093Y026768D02*
Y026532D01*
Y026650D01*
X036250D01*
Y026768D01*
Y026532D01*
X036329D02*
X036407D01*
X036368D01*
Y026768D01*
X036329Y026729D01*
X035797Y041437D02*
X035758Y041476D01*
X035679D01*
X035640Y041437D01*
Y041279D01*
X035679Y041240D01*
X035758D01*
X035797Y041279D01*
X035876Y041240D02*
X035955D01*
X035916D01*
Y041476D01*
X035876Y041437D01*
X036230Y041476D02*
X036152Y041437D01*
X036073Y041358D01*
Y041279D01*
X036112Y041240D01*
X036191D01*
X036230Y041279D01*
Y041319D01*
X036191Y041358D01*
X036073D01*
X043762Y036679D02*
X043723Y036718D01*
X043644D01*
X043605Y036679D01*
Y036521D01*
X043644Y036482D01*
X043723D01*
X043762Y036521D01*
X043841Y036482D02*
X043920D01*
X043880D01*
Y036718D01*
X043841Y036679D01*
X044195Y036718D02*
X044038D01*
Y036600D01*
X044116Y036639D01*
X044156D01*
X044195Y036600D01*
Y036521D01*
X044156Y036482D01*
X044077D01*
X044038Y036521D01*
X046712Y023979D02*
X046673Y024018D01*
X046594D01*
X046555Y023979D01*
Y023821D01*
X046594Y023782D01*
X046673D01*
X046712Y023821D01*
X046791Y023782D02*
X046870D01*
X046830D01*
Y024018D01*
X046791Y023979D01*
X047106Y023782D02*
Y024018D01*
X046988Y023900D01*
X047145D01*
X044662Y029579D02*
X044623Y029618D01*
X044544D01*
X044505Y029579D01*
Y029421D01*
X044544Y029382D01*
X044623D01*
X044662Y029421D01*
X044741Y029382D02*
X044820D01*
X044780D01*
Y029618D01*
X044741Y029579D01*
X044938D02*
X044977Y029618D01*
X045056D01*
X045095Y029579D01*
Y029539D01*
X045056Y029500D01*
X045016D01*
X045056D01*
X045095Y029461D01*
Y029421D01*
X045056Y029382D01*
X044977D01*
X044938Y029421D01*
X035087Y031197D02*
X035048Y031236D01*
X034969D01*
X034930Y031197D01*
Y031039D01*
X034969Y031000D01*
X035048D01*
X035087Y031039D01*
X035166Y031000D02*
X035245D01*
X035206D01*
Y031236D01*
X035166Y031197D01*
X035520Y031000D02*
X035363D01*
X035520Y031157D01*
Y031197D01*
X035481Y031236D01*
X035402D01*
X035363Y031197D01*
X044029Y033448D02*
X044068Y033488D01*
Y033566D01*
X044029Y033606D01*
X043871D01*
X043832Y033566D01*
Y033488D01*
X043871Y033448D01*
X043832Y033370D02*
Y033291D01*
Y033330D01*
X044068D01*
X044029Y033370D01*
X043832Y033173D02*
Y033094D01*
Y033134D01*
X044068D01*
X044029Y033173D01*
X033912Y020829D02*
X033873Y020868D01*
X033794D01*
X033755Y020829D01*
Y020671D01*
X033794Y020632D01*
X033873D01*
X033912Y020671D01*
X033991Y020632D02*
X034070D01*
X034030D01*
Y020868D01*
X033991Y020829D01*
X034188D02*
X034227Y020868D01*
X034306D01*
X034345Y020829D01*
Y020671D01*
X034306Y020632D01*
X034227D01*
X034188Y020671D01*
Y020829D01*
X039361Y020979D02*
X039321Y021018D01*
X039243D01*
X039203Y020979D01*
Y020821D01*
X039243Y020782D01*
X039321D01*
X039361Y020821D01*
X039439D02*
X039479Y020782D01*
X039557D01*
X039597Y020821D01*
Y020979D01*
X039557Y021018D01*
X039479D01*
X039439Y020979D01*
Y020939D01*
X039479Y020900D01*
X039597D01*
X032937Y025947D02*
X032898Y025986D01*
X032819D01*
X032780Y025947D01*
Y025789D01*
X032819Y025750D01*
X032898D01*
X032937Y025789D01*
X033016Y025947D02*
X033056Y025986D01*
X033134D01*
X033174Y025947D01*
Y025907D01*
X033134Y025868D01*
X033174Y025829D01*
Y025789D01*
X033134Y025750D01*
X033056D01*
X033016Y025789D01*
Y025829D01*
X033056Y025868D01*
X033016Y025907D01*
Y025947D01*
X033056Y025868D02*
X033134D01*
X044811Y027779D02*
X044771Y027818D01*
X044693D01*
X044653Y027779D01*
Y027621D01*
X044693Y027582D01*
X044771D01*
X044811Y027621D01*
X044889Y027818D02*
X045047D01*
Y027779D01*
X044889Y027621D01*
Y027582D01*
X042161Y024029D02*
X042121Y024068D01*
X042043D01*
X042003Y024029D01*
Y023871D01*
X042043Y023832D01*
X042121D01*
X042161Y023871D01*
X042397Y024068D02*
X042318Y024029D01*
X042239Y023950D01*
Y023871D01*
X042279Y023832D01*
X042357D01*
X042397Y023871D01*
Y023911D01*
X042357Y023950D01*
X042239D01*
X032811Y037729D02*
X032771Y037768D01*
X032693D01*
X032653Y037729D01*
Y037571D01*
X032693Y037532D01*
X032771D01*
X032811Y037571D01*
X033047Y037768D02*
X032889D01*
Y037650D01*
X032968Y037689D01*
X033007D01*
X033047Y037650D01*
Y037571D01*
X033007Y037532D01*
X032929D01*
X032889Y037571D01*
X043761Y037929D02*
X043721Y037968D01*
X043643D01*
X043603Y037929D01*
Y037771D01*
X043643Y037732D01*
X043721D01*
X043761Y037771D01*
X043957Y037732D02*
Y037968D01*
X043839Y037850D01*
X043997D01*
X035761Y020879D02*
X035721Y020918D01*
X035643D01*
X035603Y020879D01*
Y020721D01*
X035643Y020682D01*
X035721D01*
X035761Y020721D01*
X035839Y020879D02*
X035879Y020918D01*
X035957D01*
X035997Y020879D01*
Y020839D01*
X035957Y020800D01*
X035918D01*
X035957D01*
X035997Y020761D01*
Y020721D01*
X035957Y020682D01*
X035879D01*
X035839Y020721D01*
X031830Y024626D02*
Y024390D01*
X031948D01*
X031987Y024429D01*
Y024469D01*
X031948Y024508D01*
X031830D01*
X031948D01*
X031987Y024547D01*
Y024587D01*
X031948Y024626D01*
X031830D01*
X032066D02*
X032224D01*
X032145D01*
Y024390D01*
X032302D02*
X032381D01*
X032342D01*
Y024626D01*
X032302Y024587D01*
X043120Y024390D02*
Y024547D01*
X043199Y024626D01*
X043277Y024547D01*
Y024390D01*
Y024508D01*
X043120D01*
X043356Y024390D02*
Y024626D01*
X043435Y024547D01*
X043514Y024626D01*
Y024390D01*
X043750Y024587D02*
X043710Y024626D01*
X043632D01*
X043592Y024587D01*
Y024547D01*
X043632Y024508D01*
X043710D01*
X043750Y024469D01*
Y024429D01*
X043710Y024390D01*
X043632D01*
X043592Y024429D01*
X043828Y024390D02*
X043907D01*
X043868D01*
Y024626D01*
X043828Y024587D01*
D21*
X033422Y023350D02*
D03*
M02*
