G04*
G04 #@! TF.GenerationSoftware,Altium Limited,Altium Designer,21.3.2 (30)*
G04*
G04 Layer_Color=16711935*
%FSAX25Y25*%
%MOIN*%
G70*
G04*
G04 #@! TF.SameCoordinates,58702111-1D51-4A1E-AB32-4F99163AF2B2*
G04*
G04*
G04 #@! TF.FilePolarity,Negative*
G04*
G01*
G75*
%ADD39R,0.05524X0.06312*%
%ADD54C,0.07099*%
%ADD55R,0.07099X0.07099*%
%ADD56C,0.06706*%
%ADD57R,0.06706X0.06706*%
%ADD58C,0.06800*%
%ADD59R,0.06800X0.06800*%
%ADD60C,0.12800*%
%ADD61C,0.08300*%
%ADD62C,0.03556*%
%ADD63C,0.05800*%
%ADD77R,0.10642X0.07493*%
D39*
X1040475Y0820722D02*
D03*
X1032995D02*
D03*
X0986552Y0820709D02*
D03*
X0994032D02*
D03*
D54*
X1028810Y0776222D02*
D03*
X1008810D02*
D03*
X1018810D02*
D03*
X1028310Y0801722D02*
D03*
X1018310D02*
D03*
X1008310D02*
D03*
X1029310Y0756222D02*
D03*
X1019310D02*
D03*
X1009310D02*
D03*
D55*
X0998810Y0776222D02*
D03*
X1032495Y0950222D02*
D03*
X1012810D02*
D03*
X0993125D02*
D03*
X0998310Y0801722D02*
D03*
X0999310Y0756222D02*
D03*
D56*
X1078310Y0664722D02*
D03*
Y0684722D02*
D03*
Y0704722D02*
D03*
D57*
Y0714722D02*
D03*
D58*
X0864310Y0804722D02*
D03*
Y0794722D02*
D03*
Y0784722D02*
D03*
Y0774722D02*
D03*
Y0908222D02*
D03*
Y0898222D02*
D03*
Y0888222D02*
D03*
Y0878222D02*
D03*
Y0695222D02*
D03*
Y0685222D02*
D03*
Y0675222D02*
D03*
Y0665222D02*
D03*
X1169310Y0654422D02*
D03*
Y0664422D02*
D03*
Y0674422D02*
D03*
Y0684422D02*
D03*
Y0867422D02*
D03*
Y0877422D02*
D03*
Y0887422D02*
D03*
Y0897422D02*
D03*
Y0793922D02*
D03*
Y0783922D02*
D03*
Y0773922D02*
D03*
Y0763922D02*
D03*
D59*
X0864310Y0764722D02*
D03*
Y0868222D02*
D03*
Y0655222D02*
D03*
X1169310Y0694422D02*
D03*
Y0907422D02*
D03*
Y0803922D02*
D03*
D60*
X1058810Y0622222D02*
D03*
X1078810D02*
D03*
D61*
X1022955Y0820722D02*
D03*
X1003664D02*
D03*
D62*
X0957810Y0867222D02*
D03*
X1095810Y0865722D02*
D03*
X1093310Y0867222D02*
D03*
X0941810Y0727222D02*
D03*
Y0730722D02*
D03*
Y0734722D02*
D03*
Y0738722D02*
D03*
Y0742222D02*
D03*
X0940810Y0773222D02*
D03*
X0944310D02*
D03*
X0947810D02*
D03*
X1073310Y0877722D02*
D03*
X1071310Y0879722D02*
D03*
X0977310Y0833722D02*
D03*
X0974310Y0831222D02*
D03*
X1049810Y0865722D02*
D03*
Y0868722D02*
D03*
Y0871722D02*
D03*
X1046810Y0729722D02*
D03*
Y0733722D02*
D03*
Y0737222D02*
D03*
X1050310D02*
D03*
Y0733722D02*
D03*
Y0729722D02*
D03*
X1053810D02*
D03*
Y0733722D02*
D03*
Y0737222D02*
D03*
X1077310Y0874222D02*
D03*
X1051810Y0876691D02*
D03*
X1090310Y0736222D02*
D03*
X1097810Y0648222D02*
D03*
X1089810Y0832722D02*
D03*
X1049310Y0883722D02*
D03*
X1030810Y0884722D02*
D03*
X1076310Y0852222D02*
D03*
X1082810Y0857222D02*
D03*
X1049310Y0897722D02*
D03*
X0997310Y0847222D02*
D03*
X1005310Y0866722D02*
D03*
X1017810D02*
D03*
X1023310Y0857722D02*
D03*
X1048635Y0840073D02*
D03*
X0869810Y0925222D02*
D03*
X0853810Y0868222D02*
D03*
X0899310Y0854722D02*
D03*
X0854310Y0707722D02*
D03*
X0938810Y0663722D02*
D03*
X0958810Y0792722D02*
D03*
X0954810D02*
D03*
X0948810Y0836722D02*
D03*
X0970454Y0851874D02*
D03*
X0963810Y0874222D02*
D03*
X0974810Y0887222D02*
D03*
X0932810Y0742722D02*
D03*
X0970310Y0902722D02*
D03*
X0994310Y0916222D02*
D03*
X1014810Y0907722D02*
D03*
X1001310Y0880222D02*
D03*
X1051810Y0841222D02*
D03*
X1049810Y0857569D02*
D03*
X1049310Y0879222D02*
D03*
X1043810Y0834222D02*
D03*
X0990810Y0857722D02*
D03*
X1044810Y0906222D02*
D03*
X0988810Y0894722D02*
D03*
X1041310Y0908691D02*
D03*
X1001310Y0890222D02*
D03*
X0998841Y0885779D02*
D03*
X1057310Y0822222D02*
D03*
X1038841Y0912222D02*
D03*
X0998310Y0873722D02*
D03*
X1011310Y0907722D02*
D03*
X1049810Y0854222D02*
D03*
Y0861222D02*
D03*
X1034810Y0845222D02*
D03*
X1002032Y0910191D02*
D03*
X0997104Y0908955D02*
D03*
X0939810Y0880222D02*
D03*
X0932310Y0816222D02*
D03*
X1001810Y0871722D02*
D03*
X0999341Y0861722D02*
D03*
X1080810Y0922722D02*
D03*
X1060810Y0937722D02*
D03*
X1057310Y0866722D02*
D03*
X1030810Y0871722D02*
D03*
X0999810Y0854722D02*
D03*
X1071310Y0950222D02*
D03*
X1012810Y0925222D02*
D03*
X0949810Y0867222D02*
D03*
X1023310Y0861222D02*
D03*
X0953810Y0937222D02*
D03*
X1095810Y0837222D02*
D03*
X1102310Y0903222D02*
D03*
X1097310Y0907222D02*
D03*
X0955810Y0857222D02*
D03*
X0952310Y0918222D02*
D03*
X0955310Y0915722D02*
D03*
X1024639Y0927740D02*
D03*
X1007810Y0928222D02*
D03*
X1157810Y0674722D02*
D03*
X0899810Y0709722D02*
D03*
X0903310Y0613222D02*
D03*
X1137310Y0756722D02*
D03*
D63*
X0970349Y0622912D02*
D03*
X1006810Y0623222D02*
D03*
D77*
X0980436Y0622722D02*
D03*
X0996184D02*
D03*
M02*
