G04*
G04 #@! TF.GenerationSoftware,Altium Limited,Altium Designer,21.3.2 (30)*
G04*
G04 Layer_Color=128*
%FSAX24Y24*%
%MOIN*%
G70*
G04*
G04 #@! TF.SameCoordinates,7F11398B-6431-4077-ADE0-EC67F86BA79B*
G04*
G04*
G04 #@! TF.FilePolarity,Positive*
G04*
G01*
G75*
%ADD79C,0.0020*%
D79*
X040443Y025350D02*
X040757D01*
X040600Y025193D02*
Y025507D01*
X038443Y025350D02*
X038757D01*
X038600Y025193D02*
Y025507D01*
X037443Y025350D02*
X037757D01*
X037600Y025193D02*
Y025507D01*
X039443Y025350D02*
X039757D01*
X039600Y025193D02*
Y025507D01*
X040752Y042750D02*
X041185D01*
X040968Y042533D02*
Y042967D01*
X038783Y042750D02*
X039217D01*
X039000Y042533D02*
Y042967D01*
X036815Y042750D02*
X037248D01*
X037031Y042533D02*
Y042967D01*
X045353Y014200D02*
X045747D01*
X045550Y014003D02*
Y014397D01*
X045353Y016200D02*
X045747D01*
X045550Y016003D02*
Y016397D01*
X045353Y018200D02*
X045747D01*
X045550Y018003D02*
Y018397D01*
X045353Y019200D02*
X045747D01*
X045550Y019003D02*
Y019397D01*
X023975Y028200D02*
X024325D01*
X024150Y028025D02*
Y028375D01*
X023975Y027200D02*
X024325D01*
X024150Y027025D02*
Y027375D01*
X023975Y026200D02*
X024325D01*
X024150Y026025D02*
Y026375D01*
X023975Y025200D02*
X024325D01*
X024150Y025025D02*
Y025375D01*
X023975Y024200D02*
X024325D01*
X024150Y024025D02*
Y024375D01*
X023975Y038550D02*
X024325D01*
X024150Y038375D02*
Y038725D01*
X023975Y037550D02*
X024325D01*
X024150Y037375D02*
Y037725D01*
X023975Y036550D02*
X024325D01*
X024150Y036375D02*
Y036725D01*
X023975Y035550D02*
X024325D01*
X024150Y035375D02*
Y035725D01*
X023975Y034550D02*
X024325D01*
X024150Y034375D02*
Y034725D01*
X023975Y017250D02*
X024325D01*
X024150Y017075D02*
Y017425D01*
X023975Y016250D02*
X024325D01*
X024150Y016075D02*
Y016425D01*
X023975Y015250D02*
X024325D01*
X024150Y015075D02*
Y015425D01*
X023975Y014250D02*
X024325D01*
X024150Y014075D02*
Y014425D01*
X023975Y013250D02*
X024325D01*
X024150Y013075D02*
Y013425D01*
X054475Y013170D02*
X054825D01*
X054650Y012995D02*
Y013345D01*
X054475Y014170D02*
X054825D01*
X054650Y013995D02*
Y014345D01*
X054475Y015170D02*
X054825D01*
X054650Y014995D02*
Y015345D01*
X054475Y016170D02*
X054825D01*
X054650Y015995D02*
Y016345D01*
X054475Y017170D02*
X054825D01*
X054650Y016995D02*
Y017345D01*
X054475Y034470D02*
X054825D01*
X054650Y034295D02*
Y034645D01*
X054475Y035470D02*
X054825D01*
X054650Y035295D02*
Y035645D01*
X054475Y036470D02*
X054825D01*
X054650Y036295D02*
Y036645D01*
X054475Y037470D02*
X054825D01*
X054650Y037295D02*
Y037645D01*
X054475Y038470D02*
X054825D01*
X054650Y038295D02*
Y038645D01*
X040333Y027900D02*
X040767D01*
X040550Y027683D02*
Y028117D01*
X039333Y027900D02*
X039767D01*
X039550Y027683D02*
Y028117D01*
X038333Y027900D02*
X038767D01*
X038550Y027683D02*
Y028117D01*
X037333Y027900D02*
X037767D01*
X037550Y027683D02*
Y028117D01*
X043305Y009950D02*
X043895D01*
X043600Y009655D02*
Y010245D01*
X045305Y009950D02*
X045895D01*
X045600Y009655D02*
Y010245D01*
X039857Y029800D02*
X040172D01*
X040015Y029643D02*
Y029957D01*
X037928Y029800D02*
X038243D01*
X038085Y029643D02*
Y029957D01*
X040433Y023350D02*
X040867D01*
X040650Y023133D02*
Y023567D01*
X039433Y023350D02*
X039867D01*
X039650Y023133D02*
Y023567D01*
X038433Y023350D02*
X038867D01*
X038650Y023133D02*
Y023567D01*
X037433Y023350D02*
X037867D01*
X037650Y023133D02*
Y023567D01*
X054475Y028120D02*
X054825D01*
X054650Y027945D02*
Y028295D01*
X054475Y027120D02*
X054825D01*
X054650Y026945D02*
Y027295D01*
X054475Y026120D02*
X054825D01*
X054650Y025945D02*
Y026295D01*
X054475Y025120D02*
X054825D01*
X054650Y024945D02*
Y025295D01*
X054475Y024120D02*
X054825D01*
X054650Y023945D02*
Y024295D01*
X033411Y034450D02*
X033589D01*
X033500Y034361D02*
Y034539D01*
X047211Y034300D02*
X047389D01*
X047300Y034211D02*
Y034389D01*
X046961Y034450D02*
X047139D01*
X047050Y034361D02*
Y034539D01*
X031811Y020450D02*
X031989D01*
X031900Y020361D02*
Y020539D01*
X031811Y020800D02*
X031989D01*
X031900Y020711D02*
Y020889D01*
X031811Y021200D02*
X031989D01*
X031900Y021111D02*
Y021289D01*
X031811Y021600D02*
X031989D01*
X031900Y021511D02*
Y021689D01*
X031811Y021950D02*
X031989D01*
X031900Y021861D02*
Y022039D01*
X031711Y025050D02*
X031889D01*
X031800Y024961D02*
Y025139D01*
X032061Y025050D02*
X032239D01*
X032150Y024961D02*
Y025139D01*
X032411Y025050D02*
X032589D01*
X032500Y024961D02*
Y025139D01*
X044961Y035500D02*
X045139D01*
X045050Y035411D02*
Y035589D01*
X044761Y035700D02*
X044939D01*
X044850Y035611D02*
Y035789D01*
X035361Y031100D02*
X035539D01*
X035450Y031011D02*
Y031189D01*
X035061Y030850D02*
X035239D01*
X035150Y030761D02*
Y030939D01*
X042611Y034300D02*
X042789D01*
X042700Y034211D02*
Y034389D01*
X042611Y034600D02*
X042789D01*
X042700Y034511D02*
Y034689D01*
X042611Y034900D02*
X042789D01*
X042700Y034811D02*
Y034989D01*
X042311Y020700D02*
X042489D01*
X042400Y020611D02*
Y020789D01*
X042311Y021100D02*
X042489D01*
X042400Y021011D02*
Y021189D01*
X042311Y021450D02*
X042489D01*
X042400Y021361D02*
Y021539D01*
X042661Y021450D02*
X042839D01*
X042750Y021361D02*
Y021539D01*
X042661Y021100D02*
X042839D01*
X042750Y021011D02*
Y021189D01*
X042661Y020700D02*
X042839D01*
X042750Y020611D02*
Y020789D01*
X043011Y020700D02*
X043189D01*
X043100Y020611D02*
Y020789D01*
X043011Y021100D02*
X043189D01*
X043100Y021011D02*
Y021189D01*
X043011Y021450D02*
X043189D01*
X043100Y021361D02*
Y021539D01*
X045361Y035150D02*
X045539D01*
X045450Y035061D02*
Y035239D01*
X042811Y035397D02*
X042989D01*
X042900Y035308D02*
Y035485D01*
X046661Y021350D02*
X046839D01*
X046750Y021261D02*
Y021439D01*
X047411Y012550D02*
X047589D01*
X047500Y012461D02*
Y012639D01*
X046611Y031000D02*
X046789D01*
X046700Y030911D02*
Y031089D01*
X042561Y036100D02*
X042739D01*
X042650Y036011D02*
Y036189D01*
X040711Y036200D02*
X040889D01*
X040800Y036111D02*
Y036289D01*
X045261Y032950D02*
X045439D01*
X045350Y032861D02*
Y033039D01*
X045911Y033450D02*
X046089D01*
X046000Y033361D02*
Y033539D01*
X042561Y037500D02*
X042739D01*
X042650Y037411D02*
Y037589D01*
X037361Y032450D02*
X037539D01*
X037450Y032361D02*
Y032539D01*
X038161Y034400D02*
X038339D01*
X038250Y034311D02*
Y034489D01*
X039411Y034400D02*
X039589D01*
X039500Y034311D02*
Y034489D01*
X039961Y033500D02*
X040139D01*
X040050Y033411D02*
Y033589D01*
X042494Y031735D02*
X042671D01*
X042583Y031646D02*
Y031824D01*
X024611Y040250D02*
X024789D01*
X024700Y040161D02*
Y040339D01*
X023011Y034550D02*
X023189D01*
X023100Y034461D02*
Y034639D01*
X027561Y033200D02*
X027739D01*
X027650Y033111D02*
Y033289D01*
X023061Y018500D02*
X023239D01*
X023150Y018411D02*
Y018589D01*
X031511Y014100D02*
X031689D01*
X031600Y014011D02*
Y014189D01*
X033511Y027000D02*
X033689D01*
X033600Y026911D02*
Y027089D01*
X033111Y027000D02*
X033289D01*
X033200Y026911D02*
Y027089D01*
X032511Y031400D02*
X032689D01*
X032600Y031311D02*
Y031489D01*
X034676Y032915D02*
X034853D01*
X034764Y032827D02*
Y033004D01*
X034011Y035150D02*
X034189D01*
X034100Y035061D02*
Y035239D01*
X035111Y036450D02*
X035289D01*
X035200Y036361D02*
Y036539D01*
X030911Y022000D02*
X031089D01*
X031000Y021911D02*
Y022089D01*
X034661Y038000D02*
X034839D01*
X034750Y037911D02*
Y038089D01*
X037061Y039350D02*
X037239D01*
X037150Y039261D02*
Y039439D01*
X039111Y038500D02*
X039289D01*
X039200Y038411D02*
Y038589D01*
X037761Y035750D02*
X037939D01*
X037850Y035661D02*
Y035839D01*
X042811Y031850D02*
X042989D01*
X042900Y031761D02*
Y031939D01*
X042611Y033485D02*
X042789D01*
X042700Y033396D02*
Y033573D01*
X042561Y035650D02*
X042739D01*
X042650Y035561D02*
Y035739D01*
X042011Y031150D02*
X042189D01*
X042100Y031061D02*
Y031239D01*
X036711Y033500D02*
X036889D01*
X036800Y033411D02*
Y033589D01*
X042111Y038350D02*
X042289D01*
X042200Y038261D02*
Y038439D01*
X036511Y037200D02*
X036689D01*
X036600Y037111D02*
Y037289D01*
X041761Y038597D02*
X041939D01*
X041850Y038508D02*
Y038685D01*
X037761Y036750D02*
X037939D01*
X037850Y036661D02*
Y036839D01*
X037515Y036306D02*
X037692D01*
X037603Y036217D02*
Y036394D01*
X043361Y029950D02*
X043539D01*
X043450Y029861D02*
Y030039D01*
X041515Y038950D02*
X041692D01*
X041603Y038861D02*
Y039039D01*
X037461Y035100D02*
X037639D01*
X037550Y035011D02*
Y035189D01*
X038761Y038500D02*
X038939D01*
X038850Y038411D02*
Y038589D01*
X042611Y033150D02*
X042789D01*
X042700Y033061D02*
Y033239D01*
X042611Y033850D02*
X042789D01*
X042700Y033761D02*
Y033939D01*
X041111Y032250D02*
X041289D01*
X041200Y032161D02*
Y032339D01*
X037834Y038747D02*
X038011D01*
X037922Y038658D02*
Y038835D01*
X037341Y038623D02*
X037518D01*
X037429Y038535D02*
Y038712D01*
X031611Y035750D02*
X031789D01*
X031700Y035661D02*
Y035839D01*
X030861Y029350D02*
X031039D01*
X030950Y029261D02*
Y029439D01*
X037811Y034900D02*
X037989D01*
X037900Y034811D02*
Y034989D01*
X037565Y033900D02*
X037742D01*
X037653Y033811D02*
Y033989D01*
X045711Y040000D02*
X045889D01*
X045800Y039911D02*
Y040089D01*
X043711Y041500D02*
X043889D01*
X043800Y041411D02*
Y041589D01*
X043361Y034400D02*
X043539D01*
X043450Y034311D02*
Y034489D01*
X040711Y034900D02*
X040889D01*
X040800Y034811D02*
Y034989D01*
X037611Y033200D02*
X037789D01*
X037700Y033111D02*
Y033289D01*
X044761Y042750D02*
X044939D01*
X044850Y042661D02*
Y042839D01*
X038911Y040250D02*
X039089D01*
X039000Y040161D02*
Y040339D01*
X032611Y034450D02*
X032789D01*
X032700Y034361D02*
Y034539D01*
X039961Y033850D02*
X040139D01*
X040050Y033761D02*
Y033939D01*
X033011Y041450D02*
X033189D01*
X033100Y041361D02*
Y041539D01*
X047211Y031450D02*
X047389D01*
X047300Y031361D02*
Y031539D01*
X047861Y038050D02*
X048039D01*
X047950Y037961D02*
Y038139D01*
X047361Y038450D02*
X047539D01*
X047450Y038361D02*
Y038539D01*
X033211Y033450D02*
X033389D01*
X033300Y033361D02*
Y033539D01*
X032861Y039550D02*
X033039D01*
X032950Y039461D02*
Y039639D01*
X033161Y039300D02*
X033339D01*
X033250Y039211D02*
Y039389D01*
X040094Y040502D02*
X040271D01*
X040183Y040413D02*
Y040590D01*
X038411Y040550D02*
X038589D01*
X038500Y040461D02*
Y040639D01*
X053411Y015200D02*
X053589D01*
X053500Y015111D02*
Y015289D01*
X027611Y018700D02*
X027789D01*
X027700Y018611D02*
Y018789D01*
X027961Y009050D02*
X028139D01*
X028050Y008961D02*
Y009139D01*
X051361Y023400D02*
X051539D01*
X051450Y023311D02*
Y023489D01*
X034614Y010019D02*
X034894D01*
X034754Y009879D02*
Y010159D01*
X038260Y010050D02*
X038540D01*
X038400Y009910D02*
Y010190D01*
M02*
