M48
;Layer_Color=9474304
;FILE_FORMAT=2:5
INCH
;TYPE=PLATED
T1F00S00C0.01772
T2F00S00C0.02800
T3F00S00C0.03150
T4F00S00C0.03500
T5F00S00C0.03937
T6F00S00C0.04331
T7F00S00C0.05906
%
T01
X0201500Y0079000
X0237000Y0129500
X0396000Y0114000
X0456000Y0140500
X0435500Y0222500
X0388500Y0202000
X0352000Y0203000
X0348500
X0345000
Y0199500
X0348500
X0352000
Y0195500
X0348500
X0345000
X0355500Y0288000
X0342000Y0300000
X0388000Y0298500
X0275500Y0299500
X0272500Y0297000
X0257000Y0258500
X0253000
X0246000Y0239000
X0242500
X0239000
X0240000Y0208000
Y0204500
Y0200500
Y0196500
Y0193000
X0231000Y0208500
X0198000Y0175500
X0152500Y0173500
X0230500Y0282000
X0197500Y0320500
X0152000Y0334000
X0168000Y0391000
X0250500Y0384000
X0253500Y0381500
X0252000Y0403000
X0268500Y0368500
X0273000Y0353000
X0287000Y0360500
X0299500Y0356000
X0297031Y0351556
X0299500Y0346000
X0300000Y0337500
X0296500Y0339500
X0297532Y0327500
X0298000Y0320500
X0295500Y0313000
X0289000Y0323500
X0303500Y0332500
X0316000
X0321500Y0327000
Y0323500
X0329000Y0337500
Y0350500
X0347500Y0349500
Y0345000
X0350000Y0342469
X0348000Y0337500
Y0334500
Y0331500
Y0327000
Y0323346
Y0320000
X0350000Y0307000
X0346825Y0305851
X0333000Y0311000
X0355500Y0332500
X0371500Y0343500
X0369500Y0345500
X0375500Y0340000
X0381000Y0323000
X0374500Y0318000
X0347500Y0363500
X0343000Y0372000
X0339500Y0374468
X0337032Y0378000
X0313000Y0373500
X0309500
X0300223Y0375969
X0295295Y0374733
X0292500Y0382000
X0306000Y0394000
X0311000Y0391000
X0322829Y0393517
X0359000Y0403500
X0369500Y0416000
X0379000Y0388500
X0262000Y0340000
X0256000Y0333000
X0248000
X0254000Y0323000
X0268645Y0317652
X0247000Y0302500
X0238000Y0346000
X0391500Y0333000
X0394000Y0331500
Y0303000
X0395500Y0373000
X0400500Y0369000
T02
X0268539Y0088690
X0305000Y0089000
T03
X0297000Y0242000
X0307000
X0317000
X0327000
X0321146Y0286500
X0301854
T04
X0162500Y0121000
Y0131000
Y0141000
X0467500Y0140200
Y0130200
Y0120200
Y0150200
Y0160200
Y0229700
Y0239700
Y0249700
Y0259700
Y0269700
X0162500Y0270500
Y0260500
Y0250500
Y0240500
Y0230500
Y0161000
Y0151000
Y0334000
Y0344000
Y0354000
Y0364000
Y0374000
X0467500Y0373200
Y0363200
Y0353200
Y0343200
Y0333200
T05
X0376500Y0130500
Y0150500
Y0170500
Y0180500
T06
X0297500Y0222000
X0307500
X0317500
X0327500
X0326500Y0267500
X0316500
X0306500
X0296500
X0291315Y0416000
X0311000
X0330685
T07
X0357000Y0088000
X0377000
M30
