G04*
G04 #@! TF.GenerationSoftware,Altium Limited,Altium Designer,21.3.2 (30)*
G04*
G04 Layer_Color=8388736*
%FSAX25Y25*%
%MOIN*%
G70*
G04*
G04 #@! TF.SameCoordinates,58702111-1D51-4A1E-AB32-4F99163AF2B2*
G04*
G04*
G04 #@! TF.FilePolarity,Negative*
G04*
G01*
G75*
%ADD38R,0.06312X0.05524*%
%ADD39R,0.05524X0.06312*%
%ADD40R,0.05800X0.06300*%
%ADD41R,0.08674X0.16548*%
%ADD42R,0.02000X0.05500*%
%ADD43R,0.05500X0.02000*%
%ADD44R,0.06315X0.05921*%
%ADD45R,0.07500X0.02900*%
%ADD46R,0.02900X0.07500*%
%ADD47R,0.40170X0.24422*%
%ADD48R,0.04737X0.12800*%
%ADD49R,0.40170X0.28359*%
%ADD50R,0.13792X0.10249*%
%ADD51R,0.04737X0.10249*%
%ADD52R,0.05524X0.03950*%
%ADD53R,0.06300X0.05800*%
%ADD54C,0.07099*%
%ADD55R,0.07099X0.07099*%
%ADD56C,0.06706*%
%ADD57R,0.06706X0.06706*%
%ADD58C,0.06800*%
%ADD59R,0.06800X0.06800*%
%ADD60C,0.12800*%
%ADD61C,0.08300*%
%ADD62C,0.03556*%
%ADD63C,0.05800*%
D38*
X1157070Y0758965D02*
D03*
Y0766445D02*
D03*
X0948310Y0796945D02*
D03*
Y0789465D02*
D03*
X0966070Y0789465D02*
D03*
Y0796945D02*
D03*
X0876549Y0783980D02*
D03*
Y0776500D02*
D03*
X0876570Y0794965D02*
D03*
Y0802445D02*
D03*
X1157070Y0869965D02*
D03*
Y0877445D02*
D03*
X1157049Y0893480D02*
D03*
Y0886000D02*
D03*
X1097310Y0632722D02*
D03*
Y0640203D02*
D03*
X0877549Y0646480D02*
D03*
Y0639000D02*
D03*
X0877049Y0711980D02*
D03*
Y0704500D02*
D03*
X0877549Y0692480D02*
D03*
Y0685000D02*
D03*
X0877570Y0668965D02*
D03*
Y0676445D02*
D03*
X1045323Y0754980D02*
D03*
Y0747500D02*
D03*
X1091323Y0754980D02*
D03*
Y0747500D02*
D03*
X1056323Y0859480D02*
D03*
Y0852000D02*
D03*
X1157049Y0782980D02*
D03*
Y0775500D02*
D03*
X0876549Y0844000D02*
D03*
Y0851480D02*
D03*
X0876049Y0921500D02*
D03*
Y0928980D02*
D03*
X0876549Y0813500D02*
D03*
Y0820980D02*
D03*
X0982533Y0928945D02*
D03*
Y0921465D02*
D03*
X1097570Y0712945D02*
D03*
Y0705465D02*
D03*
D39*
X0924810Y0951722D02*
D03*
X0932290D02*
D03*
X0879552Y0888439D02*
D03*
X0887033D02*
D03*
X0924552Y0880462D02*
D03*
X0932032D02*
D03*
X0949052D02*
D03*
X0956532D02*
D03*
X0949052Y0892876D02*
D03*
X0956532D02*
D03*
X1138552Y0950462D02*
D03*
X1146033D02*
D03*
X1138552Y0882462D02*
D03*
X1146033D02*
D03*
X1137552Y0808962D02*
D03*
X1145033D02*
D03*
X1138052Y0665962D02*
D03*
X1145533D02*
D03*
X1138052Y0737462D02*
D03*
X1145533D02*
D03*
X0924329Y0673222D02*
D03*
X0931810D02*
D03*
X0924552Y0663462D02*
D03*
X0932032D02*
D03*
X0925052Y0736462D02*
D03*
X0932533D02*
D03*
X1075067Y0775483D02*
D03*
X1067587D02*
D03*
X1075067Y0793209D02*
D03*
X1067587D02*
D03*
X1075067Y0811209D02*
D03*
X1067587D02*
D03*
X1093567Y0810983D02*
D03*
X1086087D02*
D03*
X1086567Y0882483D02*
D03*
X1079087D02*
D03*
X1066067Y0882483D02*
D03*
X1058587D02*
D03*
X1065567Y0894709D02*
D03*
X1058087D02*
D03*
X1086067Y0949983D02*
D03*
X1078587D02*
D03*
X0979587Y0755983D02*
D03*
X0987067D02*
D03*
X0961032Y0773736D02*
D03*
X0953552D02*
D03*
X0887033Y0897962D02*
D03*
X0879552D02*
D03*
X0982533Y0826236D02*
D03*
X0975052D02*
D03*
X0932032Y0808462D02*
D03*
X0924552D02*
D03*
D40*
X0932587Y0682983D02*
D03*
X0923587D02*
D03*
X1094810Y0775722D02*
D03*
X1085810D02*
D03*
D41*
X0953310Y0723640D02*
D03*
Y0700805D02*
D03*
X0990810Y0723640D02*
D03*
Y0700805D02*
D03*
X1027810Y0723640D02*
D03*
Y0700805D02*
D03*
D42*
X0989688Y0840711D02*
D03*
X0991656D02*
D03*
X0993625D02*
D03*
X0995593D02*
D03*
X0997562D02*
D03*
X0999530D02*
D03*
X1001499D02*
D03*
X1003467D02*
D03*
X1005436D02*
D03*
X1007404D02*
D03*
X1009373D02*
D03*
X1011341D02*
D03*
X1013310D02*
D03*
X1015278D02*
D03*
X1017247D02*
D03*
X1019215D02*
D03*
X1021184D02*
D03*
X1023152D02*
D03*
X1025121D02*
D03*
X1027089D02*
D03*
X1029058D02*
D03*
X1031026D02*
D03*
X1032995D02*
D03*
X1034963D02*
D03*
X1036932D02*
D03*
Y0901734D02*
D03*
X1034963D02*
D03*
X1032995D02*
D03*
X1031026D02*
D03*
X1029058D02*
D03*
X1027089D02*
D03*
X1025121D02*
D03*
X1023152D02*
D03*
X1021184D02*
D03*
X1019215D02*
D03*
X1017247D02*
D03*
X1015278D02*
D03*
X1013310D02*
D03*
X1011341D02*
D03*
X1009373D02*
D03*
X1007404D02*
D03*
X1005436D02*
D03*
X1003467D02*
D03*
X1001499D02*
D03*
X0999530D02*
D03*
X0997562D02*
D03*
X0995593D02*
D03*
X0993625D02*
D03*
X0991656D02*
D03*
X0989688D02*
D03*
D43*
X1043822Y0847600D02*
D03*
Y0849569D02*
D03*
Y0851537D02*
D03*
Y0853506D02*
D03*
Y0855474D02*
D03*
Y0857443D02*
D03*
Y0859411D02*
D03*
Y0861380D02*
D03*
Y0863348D02*
D03*
Y0865317D02*
D03*
Y0867285D02*
D03*
Y0869254D02*
D03*
Y0871222D02*
D03*
Y0873191D02*
D03*
Y0875159D02*
D03*
Y0877128D02*
D03*
Y0879097D02*
D03*
Y0881065D02*
D03*
Y0883033D02*
D03*
Y0885002D02*
D03*
Y0886971D02*
D03*
Y0888939D02*
D03*
Y0890907D02*
D03*
Y0892876D02*
D03*
Y0894845D02*
D03*
X0982798D02*
D03*
Y0892876D02*
D03*
Y0890907D02*
D03*
Y0888939D02*
D03*
Y0886971D02*
D03*
Y0885002D02*
D03*
Y0883033D02*
D03*
Y0881065D02*
D03*
Y0879097D02*
D03*
Y0877128D02*
D03*
Y0875159D02*
D03*
Y0873191D02*
D03*
Y0871222D02*
D03*
Y0869254D02*
D03*
Y0867285D02*
D03*
Y0865317D02*
D03*
Y0863348D02*
D03*
Y0861380D02*
D03*
Y0859411D02*
D03*
Y0857443D02*
D03*
Y0855474D02*
D03*
Y0853506D02*
D03*
Y0851537D02*
D03*
Y0849569D02*
D03*
Y0847600D02*
D03*
D44*
X0924837Y0939998D02*
D03*
Y0929998D02*
D03*
Y0919998D02*
D03*
Y0909998D02*
D03*
X0887278Y0939722D02*
D03*
Y0929722D02*
D03*
Y0919722D02*
D03*
Y0909722D02*
D03*
X1146341Y0725180D02*
D03*
Y0715180D02*
D03*
Y0705180D02*
D03*
Y0695180D02*
D03*
X1108782Y0724904D02*
D03*
Y0714904D02*
D03*
Y0704905D02*
D03*
Y0694905D02*
D03*
X0924837Y0867906D02*
D03*
Y0857907D02*
D03*
Y0847906D02*
D03*
Y0837906D02*
D03*
X0887278Y0867631D02*
D03*
Y0857631D02*
D03*
Y0847631D02*
D03*
Y0837631D02*
D03*
X1108782Y0908813D02*
D03*
Y0918813D02*
D03*
Y0928813D02*
D03*
Y0938813D02*
D03*
X1146341Y0909089D02*
D03*
Y0919089D02*
D03*
Y0929089D02*
D03*
Y0939089D02*
D03*
X0924837Y0795815D02*
D03*
Y0785815D02*
D03*
Y0775815D02*
D03*
Y0765815D02*
D03*
X0887278Y0795539D02*
D03*
Y0785539D02*
D03*
Y0775539D02*
D03*
Y0765539D02*
D03*
X1108782Y0766996D02*
D03*
Y0776996D02*
D03*
Y0786996D02*
D03*
Y0796996D02*
D03*
X1146341Y0767272D02*
D03*
Y0777272D02*
D03*
Y0787272D02*
D03*
Y0797272D02*
D03*
X0924837Y0651632D02*
D03*
Y0641632D02*
D03*
Y0631632D02*
D03*
Y0621632D02*
D03*
X0887278Y0651356D02*
D03*
Y0641356D02*
D03*
Y0631356D02*
D03*
Y0621356D02*
D03*
X0924837Y0723723D02*
D03*
Y0713723D02*
D03*
Y0703723D02*
D03*
Y0693723D02*
D03*
X0887278Y0723448D02*
D03*
Y0713448D02*
D03*
Y0703448D02*
D03*
Y0693448D02*
D03*
X1108782Y0839088D02*
D03*
Y0849088D02*
D03*
Y0859088D02*
D03*
Y0869088D02*
D03*
X1146341Y0839363D02*
D03*
Y0849363D02*
D03*
Y0859363D02*
D03*
Y0869363D02*
D03*
X1108782Y0622813D02*
D03*
Y0632813D02*
D03*
Y0642813D02*
D03*
Y0652813D02*
D03*
X1146341Y0623089D02*
D03*
Y0633089D02*
D03*
Y0643089D02*
D03*
Y0653089D02*
D03*
D45*
X1089010Y0837100D02*
D03*
Y0842100D02*
D03*
Y0847100D02*
D03*
Y0852100D02*
D03*
Y0857100D02*
D03*
Y0862100D02*
D03*
Y0867100D02*
D03*
X1068610D02*
D03*
Y0862100D02*
D03*
Y0857100D02*
D03*
Y0852100D02*
D03*
Y0847100D02*
D03*
Y0842100D02*
D03*
Y0837100D02*
D03*
X1089010Y0907422D02*
D03*
Y0912422D02*
D03*
Y0917422D02*
D03*
Y0922422D02*
D03*
Y0927422D02*
D03*
Y0932422D02*
D03*
Y0937422D02*
D03*
X1068610D02*
D03*
Y0932422D02*
D03*
Y0927422D02*
D03*
Y0922422D02*
D03*
Y0917422D02*
D03*
Y0912422D02*
D03*
Y0907422D02*
D03*
X0963010D02*
D03*
Y0912422D02*
D03*
Y0917422D02*
D03*
Y0922422D02*
D03*
Y0927422D02*
D03*
Y0932422D02*
D03*
Y0937422D02*
D03*
X0942610D02*
D03*
Y0932422D02*
D03*
Y0927422D02*
D03*
Y0922422D02*
D03*
Y0917422D02*
D03*
Y0912422D02*
D03*
Y0907422D02*
D03*
X0963010Y0837100D02*
D03*
Y0842100D02*
D03*
Y0847100D02*
D03*
Y0852100D02*
D03*
Y0857100D02*
D03*
Y0862100D02*
D03*
Y0867100D02*
D03*
X0942610D02*
D03*
Y0862100D02*
D03*
Y0857100D02*
D03*
Y0852100D02*
D03*
Y0847100D02*
D03*
Y0842100D02*
D03*
Y0837100D02*
D03*
D46*
X1027810Y0935922D02*
D03*
X1022810D02*
D03*
X1017810D02*
D03*
X1012810D02*
D03*
X1007810D02*
D03*
X1002810D02*
D03*
X0997810D02*
D03*
Y0915522D02*
D03*
X1002810D02*
D03*
X1007810D02*
D03*
X1012810D02*
D03*
X1017810D02*
D03*
X1022810D02*
D03*
X1027810D02*
D03*
D47*
X0963703Y0669955D02*
D03*
X0963310Y0628222D02*
D03*
D48*
X1029810Y0675222D02*
D03*
X1022810D02*
D03*
X1015810D02*
D03*
X1008810D02*
D03*
X1001810D02*
D03*
D49*
X1016310Y0629222D02*
D03*
D50*
X1067810Y0758140D02*
D03*
D51*
X1076865Y0735305D02*
D03*
X1067810D02*
D03*
X1058755D02*
D03*
D52*
X0970810Y0756222D02*
D03*
X0943251D02*
D03*
D53*
X0948310Y0807222D02*
D03*
Y0816222D02*
D03*
X0966310Y0807722D02*
D03*
Y0816722D02*
D03*
D54*
X1028810Y0776222D02*
D03*
X1008810D02*
D03*
X1018810D02*
D03*
X1028310Y0801722D02*
D03*
X1018310D02*
D03*
X1008310D02*
D03*
X1029310Y0756222D02*
D03*
X1019310D02*
D03*
X1009310D02*
D03*
D55*
X0998810Y0776222D02*
D03*
X1032495Y0950222D02*
D03*
X1012810D02*
D03*
X0993125D02*
D03*
X0998310Y0801722D02*
D03*
X0999310Y0756222D02*
D03*
D56*
X1078310Y0664722D02*
D03*
Y0684722D02*
D03*
Y0704722D02*
D03*
D57*
Y0714722D02*
D03*
D58*
X0864310Y0804722D02*
D03*
Y0794722D02*
D03*
Y0784722D02*
D03*
Y0774722D02*
D03*
Y0908222D02*
D03*
Y0898222D02*
D03*
Y0888222D02*
D03*
Y0878222D02*
D03*
Y0695222D02*
D03*
Y0685222D02*
D03*
Y0675222D02*
D03*
Y0665222D02*
D03*
X1169310Y0654422D02*
D03*
Y0664422D02*
D03*
Y0674422D02*
D03*
Y0684422D02*
D03*
Y0867422D02*
D03*
Y0877422D02*
D03*
Y0887422D02*
D03*
Y0897422D02*
D03*
Y0793922D02*
D03*
Y0783922D02*
D03*
Y0773922D02*
D03*
Y0763922D02*
D03*
D59*
X0864310Y0764722D02*
D03*
Y0868222D02*
D03*
Y0655222D02*
D03*
X1169310Y0694422D02*
D03*
Y0907422D02*
D03*
Y0803922D02*
D03*
D60*
X1058810Y0622222D02*
D03*
X1078810D02*
D03*
D61*
X1022955Y0820722D02*
D03*
X1003664D02*
D03*
D62*
X0957810Y0867222D02*
D03*
X1095810Y0865722D02*
D03*
X1093310Y0867222D02*
D03*
X0941810Y0727222D02*
D03*
Y0730722D02*
D03*
Y0734722D02*
D03*
Y0738722D02*
D03*
Y0742222D02*
D03*
X0940810Y0773222D02*
D03*
X0944310D02*
D03*
X0947810D02*
D03*
X1073310Y0877722D02*
D03*
X1071310Y0879722D02*
D03*
X0977310Y0833722D02*
D03*
X0974310Y0831222D02*
D03*
X1049810Y0865722D02*
D03*
Y0868722D02*
D03*
Y0871722D02*
D03*
X1046810Y0729722D02*
D03*
Y0733722D02*
D03*
Y0737222D02*
D03*
X1050310D02*
D03*
Y0733722D02*
D03*
Y0729722D02*
D03*
X1053810D02*
D03*
Y0733722D02*
D03*
Y0737222D02*
D03*
X1077310Y0874222D02*
D03*
X1051810Y0876691D02*
D03*
X1090310Y0736222D02*
D03*
X1097810Y0648222D02*
D03*
X1089810Y0832722D02*
D03*
X1049310Y0883722D02*
D03*
X1030810Y0884722D02*
D03*
X1076310Y0852222D02*
D03*
X1082810Y0857222D02*
D03*
X1049310Y0897722D02*
D03*
X0997310Y0847222D02*
D03*
X1005310Y0866722D02*
D03*
X1017810D02*
D03*
X1023310Y0857722D02*
D03*
X1048635Y0840073D02*
D03*
X0869810Y0925222D02*
D03*
X0853810Y0868222D02*
D03*
X0899310Y0854722D02*
D03*
X0854310Y0707722D02*
D03*
X0938810Y0663722D02*
D03*
X0958810Y0792722D02*
D03*
X0954810D02*
D03*
X0948810Y0836722D02*
D03*
X0970454Y0851874D02*
D03*
X0963810Y0874222D02*
D03*
X0974810Y0887222D02*
D03*
X0932810Y0742722D02*
D03*
X0970310Y0902722D02*
D03*
X0994310Y0916222D02*
D03*
X1014810Y0907722D02*
D03*
X1001310Y0880222D02*
D03*
X1051810Y0841222D02*
D03*
X1049810Y0857569D02*
D03*
X1049310Y0879222D02*
D03*
X1043810Y0834222D02*
D03*
X0990810Y0857722D02*
D03*
X1044810Y0906222D02*
D03*
X0988810Y0894722D02*
D03*
X1041310Y0908691D02*
D03*
X1001310Y0890222D02*
D03*
X0998841Y0885779D02*
D03*
X1057310Y0822222D02*
D03*
X1038841Y0912222D02*
D03*
X0998310Y0873722D02*
D03*
X1011310Y0907722D02*
D03*
X1049810Y0854222D02*
D03*
Y0861222D02*
D03*
X1034810Y0845222D02*
D03*
X1002032Y0910191D02*
D03*
X0997104Y0908955D02*
D03*
X0939810Y0880222D02*
D03*
X0932310Y0816222D02*
D03*
X1001810Y0871722D02*
D03*
X0999341Y0861722D02*
D03*
X1080810Y0922722D02*
D03*
X1060810Y0937722D02*
D03*
X1057310Y0866722D02*
D03*
X1030810Y0871722D02*
D03*
X0999810Y0854722D02*
D03*
X1071310Y0950222D02*
D03*
X1012810Y0925222D02*
D03*
X0949810Y0867222D02*
D03*
X1023310Y0861222D02*
D03*
X0953810Y0937222D02*
D03*
X1095810Y0837222D02*
D03*
X1102310Y0903222D02*
D03*
X1097310Y0907222D02*
D03*
X0955810Y0857222D02*
D03*
X0952310Y0918222D02*
D03*
X0955310Y0915722D02*
D03*
X1024639Y0927740D02*
D03*
X1007810Y0928222D02*
D03*
X1157810Y0674722D02*
D03*
X0899810Y0709722D02*
D03*
X0903310Y0613222D02*
D03*
X1137310Y0756722D02*
D03*
D63*
X0970349Y0622912D02*
D03*
X1006810Y0623222D02*
D03*
M02*
