G04*
G04 #@! TF.GenerationSoftware,Altium Limited,Altium Designer,21.3.2 (30)*
G04*
G04 Layer_Color=255*
%FSAX24Y24*%
%MOIN*%
G70*
G04*
G04 #@! TF.SameCoordinates,7F11398B-6431-4077-ADE0-EC67F86BA79B*
G04*
G04*
G04 #@! TF.FilePolarity,Positive*
G04*
G01*
G75*
%ADD23R,0.0472X0.0551*%
%ADD66C,0.0630*%
%ADD67R,0.0630X0.0630*%
%ADD68C,0.0591*%
%ADD69R,0.0591X0.0591*%
%ADD70C,0.0600*%
%ADD71R,0.0600X0.0600*%
%ADD72C,0.1200*%
%ADD73C,0.0750*%
%ADD76R,0.0984X0.0669*%
D23*
X041767Y029800D02*
D03*
X041019D02*
D03*
X036374Y029799D02*
D03*
X037122D02*
D03*
D66*
X040600Y025350D02*
D03*
X038600D02*
D03*
X039600D02*
D03*
X040550Y027900D02*
D03*
X039550D02*
D03*
X038550D02*
D03*
X040650Y023350D02*
D03*
X039650D02*
D03*
X038650D02*
D03*
D67*
X037600Y025350D02*
D03*
X040968Y042750D02*
D03*
X039000D02*
D03*
X037031D02*
D03*
X037550Y027900D02*
D03*
X037650Y023350D02*
D03*
D68*
X045550Y014200D02*
D03*
Y016200D02*
D03*
Y018200D02*
D03*
D69*
Y019200D02*
D03*
D70*
X024150Y028200D02*
D03*
Y027200D02*
D03*
Y026200D02*
D03*
Y025200D02*
D03*
Y038550D02*
D03*
Y037550D02*
D03*
Y036550D02*
D03*
Y035550D02*
D03*
Y017250D02*
D03*
Y016250D02*
D03*
Y015250D02*
D03*
Y014250D02*
D03*
X054650Y013170D02*
D03*
Y014170D02*
D03*
Y015170D02*
D03*
Y016170D02*
D03*
Y034470D02*
D03*
Y035470D02*
D03*
Y036470D02*
D03*
Y037470D02*
D03*
Y027120D02*
D03*
Y026120D02*
D03*
Y025120D02*
D03*
Y024120D02*
D03*
D71*
X024150Y024200D02*
D03*
Y034550D02*
D03*
Y013250D02*
D03*
X054650Y017170D02*
D03*
Y038470D02*
D03*
Y028120D02*
D03*
D72*
X043600Y009950D02*
D03*
X045600D02*
D03*
D73*
X040015Y029800D02*
D03*
X038085D02*
D03*
D76*
X035763Y010000D02*
D03*
X037337D02*
D03*
M02*
