G04*
G04 #@! TF.GenerationSoftware,Altium Limited,Altium Designer,21.3.2 (30)*
G04*
G04 Layer_Color=2752767*
%FSAX24Y24*%
%MOIN*%
G70*
G04*
G04 #@! TF.SameCoordinates,7F11398B-6431-4077-ADE0-EC67F86BA79B*
G04*
G04*
G04 #@! TF.FilePolarity,Positive*
G04*
G01*
G75*
%ADD79C,0.0020*%
%ADD80C,0.0027*%
D79*
X040520Y025270D02*
Y025430D01*
X040680D01*
Y025270D01*
X040520D01*
X038520D02*
Y025430D01*
X038680D01*
Y025270D01*
X038520D01*
X037520D02*
Y025430D01*
X037680D01*
Y025270D01*
X037520D01*
X039520D02*
Y025430D01*
X039680D01*
Y025270D01*
X039520D01*
X045550Y014120D02*
X045470Y014280D01*
X045630D01*
X045550Y014120D01*
Y016120D02*
X045470Y016280D01*
X045630D01*
X045550Y016120D01*
Y018120D02*
X045470Y018280D01*
X045630D01*
X045550Y018120D01*
Y019120D02*
X045470Y019280D01*
X045630D01*
X045550Y019120D01*
X024150Y028120D02*
X024190Y028160D01*
X024230D01*
X024190Y028200D01*
X024230Y028240D01*
X024190D01*
X024150Y028280D01*
X024110Y028240D01*
X024070D01*
X024110Y028200D01*
X024070Y028160D01*
X024110D01*
X024150Y028120D01*
Y027120D02*
X024190Y027160D01*
X024230D01*
X024190Y027200D01*
X024230Y027240D01*
X024190D01*
X024150Y027280D01*
X024110Y027240D01*
X024070D01*
X024110Y027200D01*
X024070Y027160D01*
X024110D01*
X024150Y027120D01*
Y026120D02*
X024190Y026160D01*
X024230D01*
X024190Y026200D01*
X024230Y026240D01*
X024190D01*
X024150Y026280D01*
X024110Y026240D01*
X024070D01*
X024110Y026200D01*
X024070Y026160D01*
X024110D01*
X024150Y026120D01*
Y025120D02*
X024190Y025160D01*
X024230D01*
X024190Y025200D01*
X024230Y025240D01*
X024190D01*
X024150Y025280D01*
X024110Y025240D01*
X024070D01*
X024110Y025200D01*
X024070Y025160D01*
X024110D01*
X024150Y025120D01*
Y024120D02*
X024190Y024160D01*
X024230D01*
X024190Y024200D01*
X024230Y024240D01*
X024190D01*
X024150Y024280D01*
X024110Y024240D01*
X024070D01*
X024110Y024200D01*
X024070Y024160D01*
X024110D01*
X024150Y024120D01*
Y038470D02*
X024190Y038510D01*
X024230D01*
X024190Y038550D01*
X024230Y038590D01*
X024190D01*
X024150Y038630D01*
X024110Y038590D01*
X024070D01*
X024110Y038550D01*
X024070Y038510D01*
X024110D01*
X024150Y038470D01*
Y037470D02*
X024190Y037510D01*
X024230D01*
X024190Y037550D01*
X024230Y037590D01*
X024190D01*
X024150Y037630D01*
X024110Y037590D01*
X024070D01*
X024110Y037550D01*
X024070Y037510D01*
X024110D01*
X024150Y037470D01*
Y036470D02*
X024190Y036510D01*
X024230D01*
X024190Y036550D01*
X024230Y036590D01*
X024190D01*
X024150Y036630D01*
X024110Y036590D01*
X024070D01*
X024110Y036550D01*
X024070Y036510D01*
X024110D01*
X024150Y036470D01*
Y035470D02*
X024190Y035510D01*
X024230D01*
X024190Y035550D01*
X024230Y035590D01*
X024190D01*
X024150Y035630D01*
X024110Y035590D01*
X024070D01*
X024110Y035550D01*
X024070Y035510D01*
X024110D01*
X024150Y035470D01*
Y034470D02*
X024190Y034510D01*
X024230D01*
X024190Y034550D01*
X024230Y034590D01*
X024190D01*
X024150Y034630D01*
X024110Y034590D01*
X024070D01*
X024110Y034550D01*
X024070Y034510D01*
X024110D01*
X024150Y034470D01*
Y017170D02*
X024190Y017210D01*
X024230D01*
X024190Y017250D01*
X024230Y017290D01*
X024190D01*
X024150Y017330D01*
X024110Y017290D01*
X024070D01*
X024110Y017250D01*
X024070Y017210D01*
X024110D01*
X024150Y017170D01*
Y016170D02*
X024190Y016210D01*
X024230D01*
X024190Y016250D01*
X024230Y016290D01*
X024190D01*
X024150Y016330D01*
X024110Y016290D01*
X024070D01*
X024110Y016250D01*
X024070Y016210D01*
X024110D01*
X024150Y016170D01*
Y015170D02*
X024190Y015210D01*
X024230D01*
X024190Y015250D01*
X024230Y015290D01*
X024190D01*
X024150Y015330D01*
X024110Y015290D01*
X024070D01*
X024110Y015250D01*
X024070Y015210D01*
X024110D01*
X024150Y015170D01*
Y014170D02*
X024190Y014210D01*
X024230D01*
X024190Y014250D01*
X024230Y014290D01*
X024190D01*
X024150Y014330D01*
X024110Y014290D01*
X024070D01*
X024110Y014250D01*
X024070Y014210D01*
X024110D01*
X024150Y014170D01*
Y013170D02*
X024190Y013210D01*
X024230D01*
X024190Y013250D01*
X024230Y013290D01*
X024190D01*
X024150Y013330D01*
X024110Y013290D01*
X024070D01*
X024110Y013250D01*
X024070Y013210D01*
X024110D01*
X024150Y013170D01*
X054650Y013090D02*
X054690Y013130D01*
X054730D01*
X054690Y013170D01*
X054730Y013210D01*
X054690D01*
X054650Y013250D01*
X054610Y013210D01*
X054570D01*
X054610Y013170D01*
X054570Y013130D01*
X054610D01*
X054650Y013090D01*
Y014090D02*
X054690Y014130D01*
X054730D01*
X054690Y014170D01*
X054730Y014210D01*
X054690D01*
X054650Y014250D01*
X054610Y014210D01*
X054570D01*
X054610Y014170D01*
X054570Y014130D01*
X054610D01*
X054650Y014090D01*
Y015090D02*
X054690Y015130D01*
X054730D01*
X054690Y015170D01*
X054730Y015210D01*
X054690D01*
X054650Y015250D01*
X054610Y015210D01*
X054570D01*
X054610Y015170D01*
X054570Y015130D01*
X054610D01*
X054650Y015090D01*
Y016090D02*
X054690Y016130D01*
X054730D01*
X054690Y016170D01*
X054730Y016210D01*
X054690D01*
X054650Y016250D01*
X054610Y016210D01*
X054570D01*
X054610Y016170D01*
X054570Y016130D01*
X054610D01*
X054650Y016090D01*
Y017090D02*
X054690Y017130D01*
X054730D01*
X054690Y017170D01*
X054730Y017210D01*
X054690D01*
X054650Y017250D01*
X054610Y017210D01*
X054570D01*
X054610Y017170D01*
X054570Y017130D01*
X054610D01*
X054650Y017090D01*
Y034390D02*
X054690Y034430D01*
X054730D01*
X054690Y034470D01*
X054730Y034510D01*
X054690D01*
X054650Y034550D01*
X054610Y034510D01*
X054570D01*
X054610Y034470D01*
X054570Y034430D01*
X054610D01*
X054650Y034390D01*
Y035390D02*
X054690Y035430D01*
X054730D01*
X054690Y035470D01*
X054730Y035510D01*
X054690D01*
X054650Y035550D01*
X054610Y035510D01*
X054570D01*
X054610Y035470D01*
X054570Y035430D01*
X054610D01*
X054650Y035390D01*
Y036390D02*
X054690Y036430D01*
X054730D01*
X054690Y036470D01*
X054730Y036510D01*
X054690D01*
X054650Y036550D01*
X054610Y036510D01*
X054570D01*
X054610Y036470D01*
X054570Y036430D01*
X054610D01*
X054650Y036390D01*
Y037390D02*
X054690Y037430D01*
X054730D01*
X054690Y037470D01*
X054730Y037510D01*
X054690D01*
X054650Y037550D01*
X054610Y037510D01*
X054570D01*
X054610Y037470D01*
X054570Y037430D01*
X054610D01*
X054650Y037390D01*
Y038390D02*
X054690Y038430D01*
X054730D01*
X054690Y038470D01*
X054730Y038510D01*
X054690D01*
X054650Y038550D01*
X054610Y038510D01*
X054570D01*
X054610Y038470D01*
X054570Y038430D01*
X054610D01*
X054650Y038390D01*
X043520Y009870D02*
X043560Y009950D01*
X043520Y010030D01*
X043600Y009990D01*
X043680Y010030D01*
X043640Y009950D01*
X043680Y009870D01*
X043600Y009910D01*
X043520Y009870D01*
X045520D02*
X045560Y009950D01*
X045520Y010030D01*
X045600Y009990D01*
X045680Y010030D01*
X045640Y009950D01*
X045680Y009870D01*
X045600Y009910D01*
X045520Y009870D01*
X039935Y029720D02*
Y029880D01*
X040095D01*
Y029720D01*
X039935D01*
X038005D02*
Y029880D01*
X038165D01*
Y029720D01*
X038005D01*
X054650Y028040D02*
X054690Y028080D01*
X054730D01*
X054690Y028120D01*
X054730Y028160D01*
X054690D01*
X054650Y028200D01*
X054610Y028160D01*
X054570D01*
X054610Y028120D01*
X054570Y028080D01*
X054610D01*
X054650Y028040D01*
Y027040D02*
X054690Y027080D01*
X054730D01*
X054690Y027120D01*
X054730Y027160D01*
X054690D01*
X054650Y027200D01*
X054610Y027160D01*
X054570D01*
X054610Y027120D01*
X054570Y027080D01*
X054610D01*
X054650Y027040D01*
Y026040D02*
X054690Y026080D01*
X054730D01*
X054690Y026120D01*
X054730Y026160D01*
X054690D01*
X054650Y026200D01*
X054610Y026160D01*
X054570D01*
X054610Y026120D01*
X054570Y026080D01*
X054610D01*
X054650Y026040D01*
Y025040D02*
X054690Y025080D01*
X054730D01*
X054690Y025120D01*
X054730Y025160D01*
X054690D01*
X054650Y025200D01*
X054610Y025160D01*
X054570D01*
X054610Y025120D01*
X054570Y025080D01*
X054610D01*
X054650Y025040D01*
Y024040D02*
X054690Y024080D01*
X054730D01*
X054690Y024120D01*
X054730Y024160D01*
X054690D01*
X054650Y024200D01*
X054610Y024160D01*
X054570D01*
X054610Y024120D01*
X054570Y024080D01*
X054610D01*
X054650Y024040D01*
X033460Y034410D02*
Y034370D01*
X033540D01*
Y034410D01*
X033580D01*
Y034490D01*
X033540D01*
Y034530D01*
X033460D01*
Y034490D01*
X033420D01*
Y034410D01*
X033460D01*
X047260Y034260D02*
Y034220D01*
X047340D01*
Y034260D01*
X047380D01*
Y034340D01*
X047340D01*
Y034380D01*
X047260D01*
Y034340D01*
X047220D01*
Y034260D01*
X047260D01*
X047010Y034410D02*
Y034370D01*
X047090D01*
Y034410D01*
X047130D01*
Y034490D01*
X047090D01*
Y034530D01*
X047010D01*
Y034490D01*
X046970D01*
Y034410D01*
X047010D01*
X031860Y020410D02*
Y020370D01*
X031940D01*
Y020410D01*
X031980D01*
Y020490D01*
X031940D01*
Y020530D01*
X031860D01*
Y020490D01*
X031820D01*
Y020410D01*
X031860D01*
Y020760D02*
Y020720D01*
X031940D01*
Y020760D01*
X031980D01*
Y020840D01*
X031940D01*
Y020880D01*
X031860D01*
Y020840D01*
X031820D01*
Y020760D01*
X031860D01*
Y021160D02*
Y021120D01*
X031940D01*
Y021160D01*
X031980D01*
Y021240D01*
X031940D01*
Y021280D01*
X031860D01*
Y021240D01*
X031820D01*
Y021160D01*
X031860D01*
Y021560D02*
Y021520D01*
X031940D01*
Y021560D01*
X031980D01*
Y021640D01*
X031940D01*
Y021680D01*
X031860D01*
Y021640D01*
X031820D01*
Y021560D01*
X031860D01*
Y021910D02*
Y021870D01*
X031940D01*
Y021910D01*
X031980D01*
Y021990D01*
X031940D01*
Y022030D01*
X031860D01*
Y021990D01*
X031820D01*
Y021910D01*
X031860D01*
X031760Y025010D02*
Y024970D01*
X031840D01*
Y025010D01*
X031880D01*
Y025090D01*
X031840D01*
Y025130D01*
X031760D01*
Y025090D01*
X031720D01*
Y025010D01*
X031760D01*
X032110D02*
Y024970D01*
X032190D01*
Y025010D01*
X032230D01*
Y025090D01*
X032190D01*
Y025130D01*
X032110D01*
Y025090D01*
X032070D01*
Y025010D01*
X032110D01*
X032460D02*
Y024970D01*
X032540D01*
Y025010D01*
X032580D01*
Y025090D01*
X032540D01*
Y025130D01*
X032460D01*
Y025090D01*
X032420D01*
Y025010D01*
X032460D01*
X045010Y035460D02*
Y035420D01*
X045090D01*
Y035460D01*
X045130D01*
Y035540D01*
X045090D01*
Y035580D01*
X045010D01*
Y035540D01*
X044970D01*
Y035460D01*
X045010D01*
X044810Y035660D02*
Y035620D01*
X044890D01*
Y035660D01*
X044930D01*
Y035740D01*
X044890D01*
Y035780D01*
X044810D01*
Y035740D01*
X044770D01*
Y035660D01*
X044810D01*
X035410Y031060D02*
Y031020D01*
X035490D01*
Y031060D01*
X035530D01*
Y031140D01*
X035490D01*
Y031180D01*
X035410D01*
Y031140D01*
X035370D01*
Y031060D01*
X035410D01*
X035110Y030810D02*
Y030770D01*
X035190D01*
Y030810D01*
X035230D01*
Y030890D01*
X035190D01*
Y030930D01*
X035110D01*
Y030890D01*
X035070D01*
Y030810D01*
X035110D01*
X042660Y034260D02*
Y034220D01*
X042740D01*
Y034260D01*
X042780D01*
Y034340D01*
X042740D01*
Y034380D01*
X042660D01*
Y034340D01*
X042620D01*
Y034260D01*
X042660D01*
Y034560D02*
Y034520D01*
X042740D01*
Y034560D01*
X042780D01*
Y034640D01*
X042740D01*
Y034680D01*
X042660D01*
Y034640D01*
X042620D01*
Y034560D01*
X042660D01*
Y034860D02*
Y034820D01*
X042740D01*
Y034860D01*
X042780D01*
Y034940D01*
X042740D01*
Y034980D01*
X042660D01*
Y034940D01*
X042620D01*
Y034860D01*
X042660D01*
X042360Y020660D02*
Y020620D01*
X042440D01*
Y020660D01*
X042480D01*
Y020740D01*
X042440D01*
Y020780D01*
X042360D01*
Y020740D01*
X042320D01*
Y020660D01*
X042360D01*
Y021060D02*
Y021020D01*
X042440D01*
Y021060D01*
X042480D01*
Y021140D01*
X042440D01*
Y021180D01*
X042360D01*
Y021140D01*
X042320D01*
Y021060D01*
X042360D01*
Y021410D02*
Y021370D01*
X042440D01*
Y021410D01*
X042480D01*
Y021490D01*
X042440D01*
Y021530D01*
X042360D01*
Y021490D01*
X042320D01*
Y021410D01*
X042360D01*
X042710D02*
Y021370D01*
X042790D01*
Y021410D01*
X042830D01*
Y021490D01*
X042790D01*
Y021530D01*
X042710D01*
Y021490D01*
X042670D01*
Y021410D01*
X042710D01*
Y021060D02*
Y021020D01*
X042790D01*
Y021060D01*
X042830D01*
Y021140D01*
X042790D01*
Y021180D01*
X042710D01*
Y021140D01*
X042670D01*
Y021060D01*
X042710D01*
Y020660D02*
Y020620D01*
X042790D01*
Y020660D01*
X042830D01*
Y020740D01*
X042790D01*
Y020780D01*
X042710D01*
Y020740D01*
X042670D01*
Y020660D01*
X042710D01*
X043060D02*
Y020620D01*
X043140D01*
Y020660D01*
X043180D01*
Y020740D01*
X043140D01*
Y020780D01*
X043060D01*
Y020740D01*
X043020D01*
Y020660D01*
X043060D01*
Y021060D02*
Y021020D01*
X043140D01*
Y021060D01*
X043180D01*
Y021140D01*
X043140D01*
Y021180D01*
X043060D01*
Y021140D01*
X043020D01*
Y021060D01*
X043060D01*
Y021410D02*
Y021370D01*
X043140D01*
Y021410D01*
X043180D01*
Y021490D01*
X043140D01*
Y021530D01*
X043060D01*
Y021490D01*
X043020D01*
Y021410D01*
X043060D01*
X045410Y035110D02*
Y035070D01*
X045490D01*
Y035110D01*
X045530D01*
Y035190D01*
X045490D01*
Y035230D01*
X045410D01*
Y035190D01*
X045370D01*
Y035110D01*
X045410D01*
X042860Y035357D02*
Y035317D01*
X042940D01*
Y035357D01*
X042980D01*
Y035437D01*
X042940D01*
Y035477D01*
X042860D01*
Y035437D01*
X042820D01*
Y035357D01*
X042860D01*
X046710Y021310D02*
Y021270D01*
X046790D01*
Y021310D01*
X046830D01*
Y021390D01*
X046790D01*
Y021430D01*
X046710D01*
Y021390D01*
X046670D01*
Y021310D01*
X046710D01*
X047460Y012510D02*
Y012470D01*
X047540D01*
Y012510D01*
X047580D01*
Y012590D01*
X047540D01*
Y012630D01*
X047460D01*
Y012590D01*
X047420D01*
Y012510D01*
X047460D01*
X046660Y030960D02*
Y030920D01*
X046740D01*
Y030960D01*
X046780D01*
Y031040D01*
X046740D01*
Y031080D01*
X046660D01*
Y031040D01*
X046620D01*
Y030960D01*
X046660D01*
X042610Y036060D02*
Y036020D01*
X042690D01*
Y036060D01*
X042730D01*
Y036140D01*
X042690D01*
Y036180D01*
X042610D01*
Y036140D01*
X042570D01*
Y036060D01*
X042610D01*
X040760Y036160D02*
Y036120D01*
X040840D01*
Y036160D01*
X040880D01*
Y036240D01*
X040840D01*
Y036280D01*
X040760D01*
Y036240D01*
X040720D01*
Y036160D01*
X040760D01*
X045310Y032910D02*
Y032870D01*
X045390D01*
Y032910D01*
X045430D01*
Y032990D01*
X045390D01*
Y033030D01*
X045310D01*
Y032990D01*
X045270D01*
Y032910D01*
X045310D01*
X045960Y033410D02*
Y033370D01*
X046040D01*
Y033410D01*
X046080D01*
Y033490D01*
X046040D01*
Y033530D01*
X045960D01*
Y033490D01*
X045920D01*
Y033410D01*
X045960D01*
X042610Y037460D02*
Y037420D01*
X042690D01*
Y037460D01*
X042730D01*
Y037540D01*
X042690D01*
Y037580D01*
X042610D01*
Y037540D01*
X042570D01*
Y037460D01*
X042610D01*
X037410Y032410D02*
Y032370D01*
X037490D01*
Y032410D01*
X037530D01*
Y032490D01*
X037490D01*
Y032530D01*
X037410D01*
Y032490D01*
X037370D01*
Y032410D01*
X037410D01*
X038210Y034360D02*
Y034320D01*
X038290D01*
Y034360D01*
X038330D01*
Y034440D01*
X038290D01*
Y034480D01*
X038210D01*
Y034440D01*
X038170D01*
Y034360D01*
X038210D01*
X039460D02*
Y034320D01*
X039540D01*
Y034360D01*
X039580D01*
Y034440D01*
X039540D01*
Y034480D01*
X039460D01*
Y034440D01*
X039420D01*
Y034360D01*
X039460D01*
X040010Y033460D02*
Y033420D01*
X040090D01*
Y033460D01*
X040130D01*
Y033540D01*
X040090D01*
Y033580D01*
X040010D01*
Y033540D01*
X039970D01*
Y033460D01*
X040010D01*
X042543Y031695D02*
Y031655D01*
X042623D01*
Y031695D01*
X042663D01*
Y031775D01*
X042623D01*
Y031815D01*
X042543D01*
Y031775D01*
X042503D01*
Y031695D01*
X042543D01*
X024660Y040210D02*
Y040170D01*
X024740D01*
Y040210D01*
X024780D01*
Y040290D01*
X024740D01*
Y040330D01*
X024660D01*
Y040290D01*
X024620D01*
Y040210D01*
X024660D01*
X023060Y034510D02*
Y034470D01*
X023140D01*
Y034510D01*
X023180D01*
Y034590D01*
X023140D01*
Y034630D01*
X023060D01*
Y034590D01*
X023020D01*
Y034510D01*
X023060D01*
X027610Y033160D02*
Y033120D01*
X027690D01*
Y033160D01*
X027730D01*
Y033240D01*
X027690D01*
Y033280D01*
X027610D01*
Y033240D01*
X027570D01*
Y033160D01*
X027610D01*
X023110Y018460D02*
Y018420D01*
X023190D01*
Y018460D01*
X023230D01*
Y018540D01*
X023190D01*
Y018580D01*
X023110D01*
Y018540D01*
X023070D01*
Y018460D01*
X023110D01*
X031560Y014060D02*
Y014020D01*
X031640D01*
Y014060D01*
X031680D01*
Y014140D01*
X031640D01*
Y014180D01*
X031560D01*
Y014140D01*
X031520D01*
Y014060D01*
X031560D01*
X033560Y026960D02*
Y026920D01*
X033640D01*
Y026960D01*
X033680D01*
Y027040D01*
X033640D01*
Y027080D01*
X033560D01*
Y027040D01*
X033520D01*
Y026960D01*
X033560D01*
X033160D02*
Y026920D01*
X033240D01*
Y026960D01*
X033280D01*
Y027040D01*
X033240D01*
Y027080D01*
X033160D01*
Y027040D01*
X033120D01*
Y026960D01*
X033160D01*
X032560Y031360D02*
Y031320D01*
X032640D01*
Y031360D01*
X032680D01*
Y031440D01*
X032640D01*
Y031480D01*
X032560D01*
Y031440D01*
X032520D01*
Y031360D01*
X032560D01*
X034724Y032875D02*
Y032835D01*
X034804D01*
Y032875D01*
X034844D01*
Y032955D01*
X034804D01*
Y032995D01*
X034724D01*
Y032955D01*
X034684D01*
Y032875D01*
X034724D01*
X034060Y035110D02*
Y035070D01*
X034140D01*
Y035110D01*
X034180D01*
Y035190D01*
X034140D01*
Y035230D01*
X034060D01*
Y035190D01*
X034020D01*
Y035110D01*
X034060D01*
X035160Y036410D02*
Y036370D01*
X035240D01*
Y036410D01*
X035280D01*
Y036490D01*
X035240D01*
Y036530D01*
X035160D01*
Y036490D01*
X035120D01*
Y036410D01*
X035160D01*
X030960Y021960D02*
Y021920D01*
X031040D01*
Y021960D01*
X031080D01*
Y022040D01*
X031040D01*
Y022080D01*
X030960D01*
Y022040D01*
X030920D01*
Y021960D01*
X030960D01*
X034710Y037960D02*
Y037920D01*
X034790D01*
Y037960D01*
X034830D01*
Y038040D01*
X034790D01*
Y038080D01*
X034710D01*
Y038040D01*
X034670D01*
Y037960D01*
X034710D01*
X037110Y039310D02*
Y039270D01*
X037190D01*
Y039310D01*
X037230D01*
Y039390D01*
X037190D01*
Y039430D01*
X037110D01*
Y039390D01*
X037070D01*
Y039310D01*
X037110D01*
X039160Y038460D02*
Y038420D01*
X039240D01*
Y038460D01*
X039280D01*
Y038540D01*
X039240D01*
Y038580D01*
X039160D01*
Y038540D01*
X039120D01*
Y038460D01*
X039160D01*
X037810Y035710D02*
Y035670D01*
X037890D01*
Y035710D01*
X037930D01*
Y035790D01*
X037890D01*
Y035830D01*
X037810D01*
Y035790D01*
X037770D01*
Y035710D01*
X037810D01*
X042860Y031810D02*
Y031770D01*
X042940D01*
Y031810D01*
X042980D01*
Y031890D01*
X042940D01*
Y031930D01*
X042860D01*
Y031890D01*
X042820D01*
Y031810D01*
X042860D01*
X042660Y033445D02*
Y033405D01*
X042740D01*
Y033445D01*
X042780D01*
Y033525D01*
X042740D01*
Y033565D01*
X042660D01*
Y033525D01*
X042620D01*
Y033445D01*
X042660D01*
X042610Y035610D02*
Y035570D01*
X042690D01*
Y035610D01*
X042730D01*
Y035690D01*
X042690D01*
Y035730D01*
X042610D01*
Y035690D01*
X042570D01*
Y035610D01*
X042610D01*
X042060Y031110D02*
Y031070D01*
X042140D01*
Y031110D01*
X042180D01*
Y031190D01*
X042140D01*
Y031230D01*
X042060D01*
Y031190D01*
X042020D01*
Y031110D01*
X042060D01*
X036760Y033460D02*
Y033420D01*
X036840D01*
Y033460D01*
X036880D01*
Y033540D01*
X036840D01*
Y033580D01*
X036760D01*
Y033540D01*
X036720D01*
Y033460D01*
X036760D01*
X042160Y038310D02*
Y038270D01*
X042240D01*
Y038310D01*
X042280D01*
Y038390D01*
X042240D01*
Y038430D01*
X042160D01*
Y038390D01*
X042120D01*
Y038310D01*
X042160D01*
X036560Y037160D02*
Y037120D01*
X036640D01*
Y037160D01*
X036680D01*
Y037240D01*
X036640D01*
Y037280D01*
X036560D01*
Y037240D01*
X036520D01*
Y037160D01*
X036560D01*
X041810Y038557D02*
Y038517D01*
X041890D01*
Y038557D01*
X041930D01*
Y038637D01*
X041890D01*
Y038677D01*
X041810D01*
Y038637D01*
X041770D01*
Y038557D01*
X041810D01*
X037810Y036710D02*
Y036670D01*
X037890D01*
Y036710D01*
X037930D01*
Y036790D01*
X037890D01*
Y036830D01*
X037810D01*
Y036790D01*
X037770D01*
Y036710D01*
X037810D01*
X037563Y036266D02*
Y036226D01*
X037643D01*
Y036266D01*
X037683D01*
Y036346D01*
X037643D01*
Y036386D01*
X037563D01*
Y036346D01*
X037523D01*
Y036266D01*
X037563D01*
X043410Y029910D02*
Y029870D01*
X043490D01*
Y029910D01*
X043530D01*
Y029990D01*
X043490D01*
Y030030D01*
X043410D01*
Y029990D01*
X043370D01*
Y029910D01*
X043410D01*
X041563Y038910D02*
Y038870D01*
X041643D01*
Y038910D01*
X041683D01*
Y038990D01*
X041643D01*
Y039030D01*
X041563D01*
Y038990D01*
X041523D01*
Y038910D01*
X041563D01*
X037510Y035060D02*
Y035020D01*
X037590D01*
Y035060D01*
X037630D01*
Y035140D01*
X037590D01*
Y035180D01*
X037510D01*
Y035140D01*
X037470D01*
Y035060D01*
X037510D01*
X038810Y038460D02*
Y038420D01*
X038890D01*
Y038460D01*
X038930D01*
Y038540D01*
X038890D01*
Y038580D01*
X038810D01*
Y038540D01*
X038770D01*
Y038460D01*
X038810D01*
X042660Y033110D02*
Y033070D01*
X042740D01*
Y033110D01*
X042780D01*
Y033190D01*
X042740D01*
Y033230D01*
X042660D01*
Y033190D01*
X042620D01*
Y033110D01*
X042660D01*
Y033810D02*
Y033770D01*
X042740D01*
Y033810D01*
X042780D01*
Y033890D01*
X042740D01*
Y033930D01*
X042660D01*
Y033890D01*
X042620D01*
Y033810D01*
X042660D01*
X041160Y032210D02*
Y032170D01*
X041240D01*
Y032210D01*
X041280D01*
Y032290D01*
X041240D01*
Y032330D01*
X041160D01*
Y032290D01*
X041120D01*
Y032210D01*
X041160D01*
X037882Y038707D02*
Y038667D01*
X037962D01*
Y038707D01*
X038002D01*
Y038787D01*
X037962D01*
Y038827D01*
X037882D01*
Y038787D01*
X037842D01*
Y038707D01*
X037882D01*
X037389Y038583D02*
Y038543D01*
X037469D01*
Y038583D01*
X037509D01*
Y038663D01*
X037469D01*
Y038703D01*
X037389D01*
Y038663D01*
X037349D01*
Y038583D01*
X037389D01*
X031660Y035710D02*
Y035670D01*
X031740D01*
Y035710D01*
X031780D01*
Y035790D01*
X031740D01*
Y035830D01*
X031660D01*
Y035790D01*
X031620D01*
Y035710D01*
X031660D01*
X030910Y029310D02*
Y029270D01*
X030990D01*
Y029310D01*
X031030D01*
Y029390D01*
X030990D01*
Y029430D01*
X030910D01*
Y029390D01*
X030870D01*
Y029310D01*
X030910D01*
X037860Y034860D02*
Y034820D01*
X037940D01*
Y034860D01*
X037980D01*
Y034940D01*
X037940D01*
Y034980D01*
X037860D01*
Y034940D01*
X037820D01*
Y034860D01*
X037860D01*
X037613Y033860D02*
Y033820D01*
X037693D01*
Y033860D01*
X037733D01*
Y033940D01*
X037693D01*
Y033980D01*
X037613D01*
Y033940D01*
X037573D01*
Y033860D01*
X037613D01*
X045760Y039960D02*
Y039920D01*
X045840D01*
Y039960D01*
X045880D01*
Y040040D01*
X045840D01*
Y040080D01*
X045760D01*
Y040040D01*
X045720D01*
Y039960D01*
X045760D01*
X043760Y041460D02*
Y041420D01*
X043840D01*
Y041460D01*
X043880D01*
Y041540D01*
X043840D01*
Y041580D01*
X043760D01*
Y041540D01*
X043720D01*
Y041460D01*
X043760D01*
X043410Y034360D02*
Y034320D01*
X043490D01*
Y034360D01*
X043530D01*
Y034440D01*
X043490D01*
Y034480D01*
X043410D01*
Y034440D01*
X043370D01*
Y034360D01*
X043410D01*
X040760Y034860D02*
Y034820D01*
X040840D01*
Y034860D01*
X040880D01*
Y034940D01*
X040840D01*
Y034980D01*
X040760D01*
Y034940D01*
X040720D01*
Y034860D01*
X040760D01*
X037660Y033160D02*
Y033120D01*
X037740D01*
Y033160D01*
X037780D01*
Y033240D01*
X037740D01*
Y033280D01*
X037660D01*
Y033240D01*
X037620D01*
Y033160D01*
X037660D01*
X044810Y042710D02*
Y042670D01*
X044890D01*
Y042710D01*
X044930D01*
Y042790D01*
X044890D01*
Y042830D01*
X044810D01*
Y042790D01*
X044770D01*
Y042710D01*
X044810D01*
X038960Y040210D02*
Y040170D01*
X039040D01*
Y040210D01*
X039080D01*
Y040290D01*
X039040D01*
Y040330D01*
X038960D01*
Y040290D01*
X038920D01*
Y040210D01*
X038960D01*
X032660Y034410D02*
Y034370D01*
X032740D01*
Y034410D01*
X032780D01*
Y034490D01*
X032740D01*
Y034530D01*
X032660D01*
Y034490D01*
X032620D01*
Y034410D01*
X032660D01*
X040010Y033810D02*
Y033770D01*
X040090D01*
Y033810D01*
X040130D01*
Y033890D01*
X040090D01*
Y033930D01*
X040010D01*
Y033890D01*
X039970D01*
Y033810D01*
X040010D01*
X033060Y041410D02*
Y041370D01*
X033140D01*
Y041410D01*
X033180D01*
Y041490D01*
X033140D01*
Y041530D01*
X033060D01*
Y041490D01*
X033020D01*
Y041410D01*
X033060D01*
X047260Y031410D02*
Y031370D01*
X047340D01*
Y031410D01*
X047380D01*
Y031490D01*
X047340D01*
Y031530D01*
X047260D01*
Y031490D01*
X047220D01*
Y031410D01*
X047260D01*
X047910Y038010D02*
Y037970D01*
X047990D01*
Y038010D01*
X048030D01*
Y038090D01*
X047990D01*
Y038130D01*
X047910D01*
Y038090D01*
X047870D01*
Y038010D01*
X047910D01*
X047410Y038410D02*
Y038370D01*
X047490D01*
Y038410D01*
X047530D01*
Y038490D01*
X047490D01*
Y038530D01*
X047410D01*
Y038490D01*
X047370D01*
Y038410D01*
X047410D01*
X033260Y033410D02*
Y033370D01*
X033340D01*
Y033410D01*
X033380D01*
Y033490D01*
X033340D01*
Y033530D01*
X033260D01*
Y033490D01*
X033220D01*
Y033410D01*
X033260D01*
X032910Y039510D02*
Y039470D01*
X032990D01*
Y039510D01*
X033030D01*
Y039590D01*
X032990D01*
Y039630D01*
X032910D01*
Y039590D01*
X032870D01*
Y039510D01*
X032910D01*
X033210Y039260D02*
Y039220D01*
X033290D01*
Y039260D01*
X033330D01*
Y039340D01*
X033290D01*
Y039380D01*
X033210D01*
Y039340D01*
X033170D01*
Y039260D01*
X033210D01*
X040143Y040462D02*
Y040422D01*
X040223D01*
Y040462D01*
X040263D01*
Y040542D01*
X040223D01*
Y040582D01*
X040143D01*
Y040542D01*
X040103D01*
Y040462D01*
X040143D01*
X038460Y040510D02*
Y040470D01*
X038540D01*
Y040510D01*
X038580D01*
Y040590D01*
X038540D01*
Y040630D01*
X038460D01*
Y040590D01*
X038420D01*
Y040510D01*
X038460D01*
X053460Y015160D02*
Y015120D01*
X053540D01*
Y015160D01*
X053580D01*
Y015240D01*
X053540D01*
Y015280D01*
X053460D01*
Y015240D01*
X053420D01*
Y015160D01*
X053460D01*
X027660Y018660D02*
Y018620D01*
X027740D01*
Y018660D01*
X027780D01*
Y018740D01*
X027740D01*
Y018780D01*
X027660D01*
Y018740D01*
X027620D01*
Y018660D01*
X027660D01*
X028010Y009010D02*
Y008970D01*
X028090D01*
Y009010D01*
X028130D01*
Y009090D01*
X028090D01*
Y009130D01*
X028010D01*
Y009090D01*
X027970D01*
Y009010D01*
X028010D01*
X051410Y023360D02*
Y023320D01*
X051490D01*
Y023360D01*
X051530D01*
Y023440D01*
X051490D01*
Y023480D01*
X051410D01*
Y023440D01*
X051370D01*
Y023360D01*
X051410D01*
X034674Y009939D02*
X034714D01*
X034754Y009979D01*
X034794Y009939D01*
X034834D01*
Y009979D01*
X034794Y010019D01*
X034834Y010059D01*
Y010099D01*
X034794D01*
X034754Y010059D01*
X034714Y010099D01*
X034674D01*
Y010059D01*
X034714Y010019D01*
X034674Y009979D01*
Y009939D01*
X038320Y009970D02*
X038360D01*
X038400Y010010D01*
X038440Y009970D01*
X038480D01*
Y010010D01*
X038440Y010050D01*
X038480Y010090D01*
Y010130D01*
X038440D01*
X038400Y010090D01*
X038360Y010130D01*
X038320D01*
Y010090D01*
X038360Y010050D01*
X038320Y010010D01*
Y009970D01*
D80*
X041048Y042750D02*
G03*
X041048Y042750I-000080J000000D01*
G01*
X039080D02*
G03*
X039080Y042750I-000080J000000D01*
G01*
X037111D02*
G03*
X037111Y042750I-000080J000000D01*
G01*
X040630Y027900D02*
G03*
X040630Y027900I-000080J000000D01*
G01*
X039630D02*
G03*
X039630Y027900I-000080J000000D01*
G01*
X038630D02*
G03*
X038630Y027900I-000080J000000D01*
G01*
X037630D02*
G03*
X037630Y027900I-000080J000000D01*
G01*
X040730Y023350D02*
G03*
X040730Y023350I-000080J000000D01*
G01*
X039730D02*
G03*
X039730Y023350I-000080J000000D01*
G01*
X038730D02*
G03*
X038730Y023350I-000080J000000D01*
G01*
X037730D02*
G03*
X037730Y023350I-000080J000000D01*
G01*
M02*
